%TF.GenerationSoftware,KiCad,Pcbnew,10.0.4*%
%TF.CreationDate,2026-08-11T16:51:14-07:00*%
%TF.ProjectId,Motor Controller,4d6f746f-7220-4436-9f6e-74726f6c6c65,rev?*%
%TF.SameCoordinates,Original*%
%TF.FileFunction,Copper,L2,Bot*%
%TF.FilePolarity,Positive*%
%FSLAX46Y46*%
G04 Gerber Fmt 4.6, Leading zero omitted, Abs format (unit mm)*
G04 Created by KiCad (PCBNEW 10.0.4) date 2026-08-11 16:51:14*
%MOMM*%
%LPD*%
G01*
G04 APERTURE LIST*
G04 Aperture macros list*
%AMRoundRect*
0 Rectangle with rounded corners*
0 $1 Rounding radius*
0 $2 $3 $4 $5 $6 $7 $8 $9 X,Y pos of 4 corners*
0 Add a 4 corners polygon primitive as box body*
4,1,4,$2,$3,$4,$5,$6,$7,$8,$9,$2,$3,0*
0 Add four circle primitives for the rounded corners*
1,1,$1+$1,$2,$3*
1,1,$1+$1,$4,$5*
1,1,$1+$1,$6,$7*
1,1,$1+$1,$8,$9*
0 Add four rect primitives between the rounded corners*
20,1,$1+$1,$2,$3,$4,$5,0*
20,1,$1+$1,$4,$5,$6,$7,0*
20,1,$1+$1,$6,$7,$8,$9,0*
20,1,$1+$1,$8,$9,$2,$3,0*%
%AMFreePoly0*
4,1,37,0.603843,0.796157,0.639018,0.796157,0.711114,0.766294,0.766294,0.711114,0.796157,0.639018,0.796157,0.603843,0.800000,0.600000,0.800000,-0.600000,0.796157,-0.603843,0.796157,-0.639018,0.766294,-0.711114,0.711114,-0.766294,0.639018,-0.796157,0.603843,-0.796157,0.600000,-0.800000,0.000000,-0.800000,0.000000,-0.796148,-0.078414,-0.796148,-0.232228,-0.765552,-0.377117,-0.705537,
-0.507515,-0.618408,-0.618408,-0.507515,-0.705537,-0.377117,-0.765552,-0.232228,-0.796148,-0.078414,-0.796148,0.078414,-0.765552,0.232228,-0.705537,0.377117,-0.618408,0.507515,-0.507515,0.618408,-0.377117,0.705537,-0.232228,0.765552,-0.078414,0.796148,0.000000,0.796148,0.000000,0.800000,0.600000,0.800000,0.603843,0.796157,0.603843,0.796157,$1*%
%AMFreePoly1*
4,1,37,0.000000,0.796148,0.078414,0.796148,0.232228,0.765552,0.377117,0.705537,0.507515,0.618408,0.618408,0.507515,0.705537,0.377117,0.765552,0.232228,0.796148,0.078414,0.796148,-0.078414,0.765552,-0.232228,0.705537,-0.377117,0.618408,-0.507515,0.507515,-0.618408,0.377117,-0.705537,0.232228,-0.765552,0.078414,-0.796148,0.000000,-0.796148,0.000000,-0.800000,-0.600000,-0.800000,
-0.603843,-0.796157,-0.639018,-0.796157,-0.711114,-0.766294,-0.766294,-0.711114,-0.796157,-0.639018,-0.796157,-0.603843,-0.800000,-0.600000,-0.800000,0.600000,-0.796157,0.603843,-0.796157,0.639018,-0.766294,0.711114,-0.711114,0.766294,-0.639018,0.796157,-0.603843,0.796157,-0.600000,0.800000,0.000000,0.800000,0.000000,0.796148,0.000000,0.796148,$1*%
G04 Aperture macros list end*
%TA.AperFunction,ComponentPad*%
%ADD10C,1.700000*%
%TD*%
%TA.AperFunction,ComponentPad*%
%ADD11R,1.700000X1.700000*%
%TD*%
%TA.AperFunction,ComponentPad*%
%ADD12RoundRect,0.200000X-0.600000X-0.600000X0.600000X-0.600000X0.600000X0.600000X-0.600000X0.600000X0*%
%TD*%
%TA.AperFunction,ComponentPad*%
%ADD13C,1.600000*%
%TD*%
%TA.AperFunction,ComponentPad*%
%ADD14FreePoly0,0.000000*%
%TD*%
%TA.AperFunction,ComponentPad*%
%ADD15FreePoly1,0.000000*%
%TD*%
G04 APERTURE END LIST*
D10*
%TO.P,J1,3,Pin_3_3*%
%TO.N,GND*%
X177000000Y-82540000D03*
%TO.P,J1,2,Pin_2_2*%
%TO.N,Net-(A1-GPIO0)*%
X177000000Y-80000000D03*
D11*
%TO.P,J1,1,Pin_1_1*%
%TO.N,Net-(A1-VSYS)*%
X177000000Y-77460000D03*
%TD*%
D12*
%TO.P,A1,1,GPIO0_1*%
%TO.N,Net-(A1-GPIO0)*%
X151925000Y-66520000D03*
D13*
%TO.P,A1,2,GPIO1_2*%
%TO.N,unconnected-(A1-GPIO1-Pad2)*%
X151925000Y-69060000D03*
D14*
%TO.P,A1,3,GND_3*%
%TO.N,GND*%
X151925000Y-71600000D03*
D13*
%TO.P,A1,4,GPIO2_4*%
%TO.N,unconnected-(A1-GPIO2-Pad4)*%
X151925000Y-74140000D03*
%TO.P,A1,5,GPIO3_5*%
%TO.N,unconnected-(A1-GPIO3-Pad5)*%
X151925000Y-76680000D03*
%TO.P,A1,6,GPIO4_6*%
%TO.N,unconnected-(A1-GPIO4-Pad6)_1*%
X151925000Y-79220000D03*
%TO.P,A1,7,GPIO5_7*%
%TO.N,unconnected-(A1-GPIO5-Pad7)_1*%
X151925000Y-81760000D03*
D14*
%TO.P,A1,8,GND_8*%
%TO.N,GND*%
X151925000Y-84300000D03*
D13*
%TO.P,A1,9,GPIO6_9*%
%TO.N,unconnected-(A1-GPIO6-Pad9)_1*%
X151925000Y-86840000D03*
%TO.P,A1,10,GPIO7_10*%
%TO.N,unconnected-(A1-GPIO7-Pad10)*%
X151925000Y-89380000D03*
%TO.P,A1,11,GPIO8_11*%
%TO.N,unconnected-(A1-GPIO8-Pad11)*%
X151925000Y-91920000D03*
%TO.P,A1,12,GPIO9_12*%
%TO.N,unconnected-(A1-GPIO9-Pad12)*%
X151925000Y-94460000D03*
D14*
%TO.P,A1,13,GND_13*%
%TO.N,GND*%
X151925000Y-97000000D03*
D13*
%TO.P,A1,14,GPIO10_14*%
%TO.N,unconnected-(A1-GPIO10-Pad14)_1*%
X151925000Y-99540000D03*
%TO.P,A1,15,GPIO11_15*%
%TO.N,unconnected-(A1-GPIO11-Pad15)_1*%
X151925000Y-102080000D03*
%TO.P,A1,16,GPIO12_16*%
%TO.N,unconnected-(A1-GPIO12-Pad16)_1*%
X151925000Y-104620000D03*
%TO.P,A1,17,GPIO13_17*%
%TO.N,unconnected-(A1-GPIO13-Pad17)_1*%
X151925000Y-107160000D03*
D14*
%TO.P,A1,18,GND_18*%
%TO.N,GND*%
X151925000Y-109700000D03*
D13*
%TO.P,A1,19,GPIO14_19*%
%TO.N,unconnected-(A1-GPIO14-Pad19)_1*%
X151925000Y-112240000D03*
%TO.P,A1,20,GPIO15_20*%
%TO.N,unconnected-(A1-GPIO15-Pad20)_1*%
X151925000Y-114780000D03*
%TO.P,A1,21,GPIO16_21*%
%TO.N,unconnected-(A1-GPIO16-Pad21)*%
X169705000Y-114780000D03*
%TO.P,A1,22,GPIO17_22*%
%TO.N,unconnected-(A1-GPIO17-Pad22)*%
X169705000Y-112240000D03*
D15*
%TO.P,A1,23,GND_23*%
%TO.N,GND*%
X169705000Y-109700000D03*
D13*
%TO.P,A1,24,GPIO18_24*%
%TO.N,unconnected-(A1-GPIO18-Pad24)*%
X169705000Y-107160000D03*
%TO.P,A1,25,GPIO19_25*%
%TO.N,unconnected-(A1-GPIO19-Pad25)*%
X169705000Y-104620000D03*
%TO.P,A1,26,GPIO20_26*%
%TO.N,unconnected-(A1-GPIO20-Pad26)*%
X169705000Y-102080000D03*
%TO.P,A1,27,GPIO21_27*%
%TO.N,unconnected-(A1-GPIO21-Pad27)_1*%
X169705000Y-99540000D03*
D15*
%TO.P,A1,28,GND_28*%
%TO.N,GND*%
X169705000Y-97000000D03*
D13*
%TO.P,A1,29,GPIO22_29*%
%TO.N,unconnected-(A1-GPIO22-Pad29)*%
X169705000Y-94460000D03*
%TO.P,A1,30,RUN_30*%
%TO.N,unconnected-(A1-RUN-Pad30)*%
X169705000Y-91920000D03*
%TO.P,A1,31,GPIO26_ADC0_31*%
%TO.N,unconnected-(A1-GPIO26_ADC0-Pad31)*%
X169705000Y-89380000D03*
%TO.P,A1,32,GPIO27_ADC1_32*%
%TO.N,unconnected-(A1-GPIO27_ADC1-Pad32)*%
X169705000Y-86840000D03*
D15*
%TO.P,A1,33,AGND_33*%
%TO.N,unconnected-(A1-AGND-Pad33)*%
X169705000Y-84300000D03*
D13*
%TO.P,A1,34,GPIO28_ADC2_34*%
%TO.N,unconnected-(A1-GPIO28_ADC2-Pad34)_1*%
X169705000Y-81760000D03*
%TO.P,A1,35,ADC_VREF_35*%
%TO.N,unconnected-(A1-ADC_VREF-Pad35)_1*%
X169705000Y-79220000D03*
%TO.P,A1,36,3V3_36*%
%TO.N,unconnected-(A1-3V3-Pad36)*%
X169705000Y-76680000D03*
%TO.P,A1,37,3V3_EN_37*%
%TO.N,unconnected-(A1-3V3_EN-Pad37)_1*%
X169705000Y-74140000D03*
D15*
%TO.P,A1,38,GND_38*%
%TO.N,GND*%
X169705000Y-71600000D03*
D13*
%TO.P,A1,39,VSYS_39*%
%TO.N,Net-(A1-VSYS)*%
X169705000Y-69060000D03*
%TO.P,A1,40,VBUS_40*%
%TO.N,unconnected-(A1-VBUS-Pad40)_1*%
X169705000Y-66520000D03*
%TD*%
%TA.AperFunction,Conductor*%
%TO.N,GND*%
G36*
X179192539Y-64520185D02*
G01*
X179238294Y-64572989D01*
X179249500Y-64624500D01*
X179249500Y-119625500D01*
X179229815Y-119692539D01*
X179177011Y-119738294D01*
X179125500Y-119749500D01*
X145624500Y-119749500D01*
X145557461Y-119729815D01*
X145511706Y-119677011D01*
X145500500Y-119625500D01*
X145500500Y-71521210D01*
X150620000Y-71521210D01*
X150620000Y-71678789D01*
X150629701Y-71777299D01*
X150629701Y-71777302D01*
X150660444Y-71931864D01*
X150689185Y-72026612D01*
X150749490Y-72172198D01*
X150796158Y-72259506D01*
X150842533Y-72328912D01*
X150842534Y-72328913D01*
X151442037Y-71729409D01*
X151459075Y-71792993D01*
X151524901Y-71907007D01*
X151617993Y-72000099D01*
X151732007Y-72065925D01*
X151795590Y-72082962D01*
X151196085Y-72682465D01*
X151265493Y-72728841D01*
X151331454Y-72764099D01*
X151381298Y-72813062D01*
X151396758Y-72881200D01*
X151372926Y-72946879D01*
X151329295Y-72983942D01*
X151243386Y-73027715D01*
X151077786Y-73148028D01*
X150933028Y-73292786D01*
X150812715Y-73458386D01*
X150719781Y-73640776D01*
X150656522Y-73835465D01*
X150624500Y-74037648D01*
X150624500Y-74242351D01*
X150656522Y-74444534D01*
X150719781Y-74639223D01*
X150812715Y-74821613D01*
X150933028Y-74987213D01*
X151077786Y-75131971D01*
X151232749Y-75244556D01*
X151243390Y-75252287D01*
X151334840Y-75298883D01*
X151336080Y-75299515D01*
X151386876Y-75347490D01*
X151403671Y-75415311D01*
X151381134Y-75481446D01*
X151336080Y-75520485D01*
X151243386Y-75567715D01*
X151077786Y-75688028D01*
X150933028Y-75832786D01*
X150812715Y-75998386D01*
X150719781Y-76180776D01*
X150656522Y-76375465D01*
X150624500Y-76577648D01*
X150624500Y-76782351D01*
X150656522Y-76984534D01*
X150719781Y-77179223D01*
X150812715Y-77361613D01*
X150933028Y-77527213D01*
X151077786Y-77671971D01*
X151232749Y-77784556D01*
X151243390Y-77792287D01*
X151334840Y-77838883D01*
X151336080Y-77839515D01*
X151386876Y-77887490D01*
X151403671Y-77955311D01*
X151381134Y-78021446D01*
X151336080Y-78060485D01*
X151243386Y-78107715D01*
X151077786Y-78228028D01*
X150933028Y-78372786D01*
X150812715Y-78538386D01*
X150719781Y-78720776D01*
X150656522Y-78915465D01*
X150624500Y-79117648D01*
X150624500Y-79322351D01*
X150656522Y-79524534D01*
X150719781Y-79719223D01*
X150783691Y-79844653D01*
X150808689Y-79893713D01*
X150812715Y-79901613D01*
X150933028Y-80067213D01*
X151077786Y-80211971D01*
X151221302Y-80316239D01*
X151243390Y-80332287D01*
X151334840Y-80378883D01*
X151336080Y-80379515D01*
X151386876Y-80427490D01*
X151403671Y-80495311D01*
X151381134Y-80561446D01*
X151336080Y-80600485D01*
X151243386Y-80647715D01*
X151077786Y-80768028D01*
X150933028Y-80912786D01*
X150812715Y-81078386D01*
X150719781Y-81260776D01*
X150656522Y-81455465D01*
X150624500Y-81657648D01*
X150624500Y-81862351D01*
X150656522Y-82064534D01*
X150719781Y-82259223D01*
X150812715Y-82441613D01*
X150933028Y-82607213D01*
X151077786Y-82751971D01*
X151243388Y-82872286D01*
X151243390Y-82872287D01*
X151329294Y-82916057D01*
X151380090Y-82964031D01*
X151396886Y-83031852D01*
X151374349Y-83097987D01*
X151331455Y-83135899D01*
X151265494Y-83171157D01*
X151265489Y-83171160D01*
X151196086Y-83217532D01*
X151196085Y-83217533D01*
X151795590Y-83817037D01*
X151732007Y-83834075D01*
X151617993Y-83899901D01*
X151524901Y-83992993D01*
X151459075Y-84107007D01*
X151442037Y-84170589D01*
X150842533Y-83571085D01*
X150842532Y-83571086D01*
X150796161Y-83640488D01*
X150749490Y-83727801D01*
X150689185Y-83873387D01*
X150660444Y-83968135D01*
X150629701Y-84122697D01*
X150629701Y-84122700D01*
X150620000Y-84221210D01*
X150620000Y-84378789D01*
X150629701Y-84477299D01*
X150629701Y-84477302D01*
X150660444Y-84631864D01*
X150689185Y-84726612D01*
X150749490Y-84872198D01*
X150796158Y-84959506D01*
X150842533Y-85028912D01*
X150842534Y-85028913D01*
X151442037Y-84429409D01*
X151459075Y-84492993D01*
X151524901Y-84607007D01*
X151617993Y-84700099D01*
X151732007Y-84765925D01*
X151795590Y-84782962D01*
X151196085Y-85382465D01*
X151265493Y-85428841D01*
X151331454Y-85464099D01*
X151381298Y-85513062D01*
X151396758Y-85581200D01*
X151372926Y-85646879D01*
X151329295Y-85683942D01*
X151243386Y-85727715D01*
X151077786Y-85848028D01*
X150933028Y-85992786D01*
X150812715Y-86158386D01*
X150719781Y-86340776D01*
X150656522Y-86535465D01*
X150624500Y-86737648D01*
X150624500Y-86942351D01*
X150656522Y-87144534D01*
X150719781Y-87339223D01*
X150812715Y-87521613D01*
X150933028Y-87687213D01*
X151077786Y-87831971D01*
X151232749Y-87944556D01*
X151243390Y-87952287D01*
X151334840Y-87998883D01*
X151336080Y-87999515D01*
X151386876Y-88047490D01*
X151403671Y-88115311D01*
X151381134Y-88181446D01*
X151336080Y-88220485D01*
X151243386Y-88267715D01*
X151077786Y-88388028D01*
X150933028Y-88532786D01*
X150812715Y-88698386D01*
X150719781Y-88880776D01*
X150656522Y-89075465D01*
X150624500Y-89277648D01*
X150624500Y-89482351D01*
X150656522Y-89684534D01*
X150719781Y-89879223D01*
X150812715Y-90061613D01*
X150933028Y-90227213D01*
X151077786Y-90371971D01*
X151232749Y-90484556D01*
X151243390Y-90492287D01*
X151334840Y-90538883D01*
X151336080Y-90539515D01*
X151386876Y-90587490D01*
X151403671Y-90655311D01*
X151381134Y-90721446D01*
X151336080Y-90760485D01*
X151243386Y-90807715D01*
X151077786Y-90928028D01*
X150933028Y-91072786D01*
X150812715Y-91238386D01*
X150719781Y-91420776D01*
X150656522Y-91615465D01*
X150624500Y-91817648D01*
X150624500Y-92022351D01*
X150656522Y-92224534D01*
X150719781Y-92419223D01*
X150812715Y-92601613D01*
X150933028Y-92767213D01*
X151077786Y-92911971D01*
X151232749Y-93024556D01*
X151243390Y-93032287D01*
X151334840Y-93078883D01*
X151336080Y-93079515D01*
X151386876Y-93127490D01*
X151403671Y-93195311D01*
X151381134Y-93261446D01*
X151336080Y-93300485D01*
X151243386Y-93347715D01*
X151077786Y-93468028D01*
X150933028Y-93612786D01*
X150812715Y-93778386D01*
X150719781Y-93960776D01*
X150656522Y-94155465D01*
X150624500Y-94357648D01*
X150624500Y-94562351D01*
X150656522Y-94764534D01*
X150719781Y-94959223D01*
X150812715Y-95141613D01*
X150933028Y-95307213D01*
X151077786Y-95451971D01*
X151243388Y-95572286D01*
X151243390Y-95572287D01*
X151329294Y-95616057D01*
X151380090Y-95664031D01*
X151396886Y-95731852D01*
X151374349Y-95797987D01*
X151331455Y-95835899D01*
X151265494Y-95871157D01*
X151265489Y-95871160D01*
X151196086Y-95917532D01*
X151196085Y-95917533D01*
X151795590Y-96517037D01*
X151732007Y-96534075D01*
X151617993Y-96599901D01*
X151524901Y-96692993D01*
X151459075Y-96807007D01*
X151442037Y-96870589D01*
X150842533Y-96271085D01*
X150842532Y-96271086D01*
X150796161Y-96340488D01*
X150749490Y-96427801D01*
X150689185Y-96573387D01*
X150660444Y-96668135D01*
X150629701Y-96822697D01*
X150629701Y-96822700D01*
X150620000Y-96921210D01*
X150620000Y-97078789D01*
X150629701Y-97177299D01*
X150629701Y-97177302D01*
X150660444Y-97331864D01*
X150689185Y-97426612D01*
X150749490Y-97572198D01*
X150796158Y-97659506D01*
X150842533Y-97728912D01*
X150842534Y-97728913D01*
X151442037Y-97129409D01*
X151459075Y-97192993D01*
X151524901Y-97307007D01*
X151617993Y-97400099D01*
X151732007Y-97465925D01*
X151795590Y-97482962D01*
X151196085Y-98082465D01*
X151265493Y-98128841D01*
X151331454Y-98164099D01*
X151381298Y-98213062D01*
X151396758Y-98281200D01*
X151372926Y-98346879D01*
X151329295Y-98383942D01*
X151243386Y-98427715D01*
X151077786Y-98548028D01*
X150933028Y-98692786D01*
X150812715Y-98858386D01*
X150719781Y-99040776D01*
X150656522Y-99235465D01*
X150624500Y-99437648D01*
X150624500Y-99642351D01*
X150656522Y-99844534D01*
X150719781Y-100039223D01*
X150812715Y-100221613D01*
X150933028Y-100387213D01*
X151077786Y-100531971D01*
X151232749Y-100644556D01*
X151243390Y-100652287D01*
X151334840Y-100698883D01*
X151336080Y-100699515D01*
X151386876Y-100747490D01*
X151403671Y-100815311D01*
X151381134Y-100881446D01*
X151336080Y-100920485D01*
X151243386Y-100967715D01*
X151077786Y-101088028D01*
X150933028Y-101232786D01*
X150812715Y-101398386D01*
X150719781Y-101580776D01*
X150656522Y-101775465D01*
X150624500Y-101977648D01*
X150624500Y-102182351D01*
X150656522Y-102384534D01*
X150719781Y-102579223D01*
X150812715Y-102761613D01*
X150933028Y-102927213D01*
X151077786Y-103071971D01*
X151232749Y-103184556D01*
X151243390Y-103192287D01*
X151334840Y-103238883D01*
X151336080Y-103239515D01*
X151386876Y-103287490D01*
X151403671Y-103355311D01*
X151381134Y-103421446D01*
X151336080Y-103460485D01*
X151243386Y-103507715D01*
X151077786Y-103628028D01*
X150933028Y-103772786D01*
X150812715Y-103938386D01*
X150719781Y-104120776D01*
X150656522Y-104315465D01*
X150624500Y-104517648D01*
X150624500Y-104722351D01*
X150656522Y-104924534D01*
X150719781Y-105119223D01*
X150812715Y-105301613D01*
X150933028Y-105467213D01*
X151077786Y-105611971D01*
X151232749Y-105724556D01*
X151243390Y-105732287D01*
X151334840Y-105778883D01*
X151336080Y-105779515D01*
X151386876Y-105827490D01*
X151403671Y-105895311D01*
X151381134Y-105961446D01*
X151336080Y-106000485D01*
X151243386Y-106047715D01*
X151077786Y-106168028D01*
X150933028Y-106312786D01*
X150812715Y-106478386D01*
X150719781Y-106660776D01*
X150656522Y-106855465D01*
X150624500Y-107057648D01*
X150624500Y-107262351D01*
X150656522Y-107464534D01*
X150719781Y-107659223D01*
X150812715Y-107841613D01*
X150933028Y-108007213D01*
X151077786Y-108151971D01*
X151243388Y-108272286D01*
X151243390Y-108272287D01*
X151329294Y-108316057D01*
X151380090Y-108364031D01*
X151396886Y-108431852D01*
X151374349Y-108497987D01*
X151331455Y-108535899D01*
X151265494Y-108571157D01*
X151265489Y-108571160D01*
X151196086Y-108617532D01*
X151196085Y-108617533D01*
X151795590Y-109217037D01*
X151732007Y-109234075D01*
X151617993Y-109299901D01*
X151524901Y-109392993D01*
X151459075Y-109507007D01*
X151442037Y-109570589D01*
X150842533Y-108971085D01*
X150842532Y-108971086D01*
X150796161Y-109040488D01*
X150749490Y-109127801D01*
X150689185Y-109273387D01*
X150660444Y-109368135D01*
X150629701Y-109522697D01*
X150629701Y-109522700D01*
X150620000Y-109621210D01*
X150620000Y-109778789D01*
X150629701Y-109877299D01*
X150629701Y-109877302D01*
X150660444Y-110031864D01*
X150689185Y-110126612D01*
X150749490Y-110272198D01*
X150796158Y-110359506D01*
X150842533Y-110428912D01*
X150842534Y-110428913D01*
X151442037Y-109829409D01*
X151459075Y-109892993D01*
X151524901Y-110007007D01*
X151617993Y-110100099D01*
X151732007Y-110165925D01*
X151795590Y-110182962D01*
X151196085Y-110782465D01*
X151265493Y-110828841D01*
X151331454Y-110864099D01*
X151381298Y-110913062D01*
X151396758Y-110981200D01*
X151372926Y-111046879D01*
X151329295Y-111083942D01*
X151243386Y-111127715D01*
X151077786Y-111248028D01*
X150933028Y-111392786D01*
X150812715Y-111558386D01*
X150719781Y-111740776D01*
X150656522Y-111935465D01*
X150624500Y-112137648D01*
X150624500Y-112342351D01*
X150656522Y-112544534D01*
X150719781Y-112739223D01*
X150812715Y-112921613D01*
X150933028Y-113087213D01*
X151077786Y-113231971D01*
X151232749Y-113344556D01*
X151243390Y-113352287D01*
X151334840Y-113398883D01*
X151336080Y-113399515D01*
X151386876Y-113447490D01*
X151403671Y-113515311D01*
X151381134Y-113581446D01*
X151336080Y-113620485D01*
X151243386Y-113667715D01*
X151077786Y-113788028D01*
X150933028Y-113932786D01*
X150812715Y-114098386D01*
X150719781Y-114280776D01*
X150656522Y-114475465D01*
X150624500Y-114677648D01*
X150624500Y-114882351D01*
X150656522Y-115084534D01*
X150719781Y-115279223D01*
X150812715Y-115461613D01*
X150933028Y-115627213D01*
X151077786Y-115771971D01*
X151232749Y-115884556D01*
X151243390Y-115892287D01*
X151359607Y-115951503D01*
X151425776Y-115985218D01*
X151425778Y-115985218D01*
X151425781Y-115985220D01*
X151530137Y-116019127D01*
X151620465Y-116048477D01*
X151721557Y-116064488D01*
X151822648Y-116080500D01*
X151822649Y-116080500D01*
X152027351Y-116080500D01*
X152027352Y-116080500D01*
X152229534Y-116048477D01*
X152424219Y-115985220D01*
X152606610Y-115892287D01*
X152699590Y-115824732D01*
X152772213Y-115771971D01*
X152772215Y-115771968D01*
X152772219Y-115771966D01*
X152916966Y-115627219D01*
X152916968Y-115627215D01*
X152916971Y-115627213D01*
X152969732Y-115554590D01*
X153037287Y-115461610D01*
X153130220Y-115279219D01*
X153193477Y-115084534D01*
X153225500Y-114882352D01*
X153225500Y-114677648D01*
X153193477Y-114475466D01*
X153130220Y-114280781D01*
X153130218Y-114280778D01*
X153130218Y-114280776D01*
X153096503Y-114214607D01*
X153037287Y-114098390D01*
X153029556Y-114087749D01*
X152916971Y-113932786D01*
X152772213Y-113788028D01*
X152606614Y-113667715D01*
X152600006Y-113664348D01*
X152513917Y-113620483D01*
X152463123Y-113572511D01*
X152446328Y-113504690D01*
X152468865Y-113438555D01*
X152513917Y-113399516D01*
X152606610Y-113352287D01*
X152627770Y-113336913D01*
X152772213Y-113231971D01*
X152772215Y-113231968D01*
X152772219Y-113231966D01*
X152916966Y-113087219D01*
X152916968Y-113087215D01*
X152916971Y-113087213D01*
X152969732Y-113014590D01*
X153037287Y-112921610D01*
X153130220Y-112739219D01*
X153193477Y-112544534D01*
X153225500Y-112342352D01*
X153225500Y-112137648D01*
X153202098Y-111989895D01*
X153715000Y-111989895D01*
X158367057Y-115602663D01*
X158407931Y-115659327D01*
X158415000Y-115700597D01*
X158415000Y-116650000D01*
X163215000Y-116650000D01*
X163215000Y-115700597D01*
X163234685Y-115633558D01*
X163262941Y-115602664D01*
X167915000Y-111989895D01*
X167915000Y-107650000D01*
X153715000Y-107650000D01*
X153715000Y-111989895D01*
X153202098Y-111989895D01*
X153193477Y-111935466D01*
X153130220Y-111740781D01*
X153130218Y-111740778D01*
X153130218Y-111740776D01*
X153096503Y-111674607D01*
X153037287Y-111558390D01*
X153029556Y-111547749D01*
X152916971Y-111392786D01*
X152772217Y-111248032D01*
X152695415Y-111192232D01*
X152652750Y-111136902D01*
X152646771Y-111067288D01*
X152679377Y-111005494D01*
X152737640Y-110971765D01*
X152758022Y-110966563D01*
X152758035Y-110966559D01*
X152814582Y-110943135D01*
X152054409Y-110182962D01*
X152117993Y-110165925D01*
X152232007Y-110100099D01*
X152325099Y-110007007D01*
X152390925Y-109892993D01*
X152407962Y-109829409D01*
X153168135Y-110589582D01*
X153168137Y-110589582D01*
X153191552Y-110533053D01*
X153209544Y-110482053D01*
X153229999Y-110339780D01*
X153230000Y-110339779D01*
X153230000Y-109060214D01*
X153227106Y-109006237D01*
X153227106Y-109006235D01*
X153191558Y-108866960D01*
X153168136Y-108810415D01*
X153168135Y-108810415D01*
X152407962Y-109570589D01*
X152390925Y-109507007D01*
X152325099Y-109392993D01*
X152232007Y-109299901D01*
X152117993Y-109234075D01*
X152054410Y-109217037D01*
X152814583Y-108456863D01*
X152814583Y-108456862D01*
X152758052Y-108433447D01*
X152758013Y-108433432D01*
X152729375Y-108423329D01*
X152672704Y-108382463D01*
X152647122Y-108317444D01*
X152660754Y-108248917D01*
X152697745Y-108206074D01*
X152772215Y-108151969D01*
X152772215Y-108151968D01*
X152772219Y-108151966D01*
X152916966Y-108007219D01*
X152916968Y-108007215D01*
X152916971Y-108007213D01*
X152969732Y-107934590D01*
X153037287Y-107841610D01*
X153130220Y-107659219D01*
X153193477Y-107464534D01*
X153225500Y-107262352D01*
X153225500Y-107057648D01*
X153193477Y-106855466D01*
X153130220Y-106660781D01*
X153130218Y-106660778D01*
X153130218Y-106660776D01*
X153096503Y-106594607D01*
X153037287Y-106478390D01*
X153029556Y-106467749D01*
X152916971Y-106312786D01*
X152772213Y-106168028D01*
X152606614Y-106047715D01*
X152600006Y-106044348D01*
X152513917Y-106000483D01*
X152463123Y-105952511D01*
X152446328Y-105884690D01*
X152468865Y-105818555D01*
X152513917Y-105779516D01*
X152606610Y-105732287D01*
X152627770Y-105716913D01*
X152772213Y-105611971D01*
X152772215Y-105611968D01*
X152772219Y-105611966D01*
X152916966Y-105467219D01*
X152916968Y-105467215D01*
X152916971Y-105467213D01*
X152969732Y-105394590D01*
X153037287Y-105301610D01*
X153130220Y-105119219D01*
X153193477Y-104924534D01*
X153225500Y-104722352D01*
X153225500Y-104517648D01*
X153193477Y-104315466D01*
X153130220Y-104120781D01*
X153130218Y-104120778D01*
X153130218Y-104120776D01*
X153096503Y-104054607D01*
X153037287Y-103938390D01*
X153029556Y-103927749D01*
X152916971Y-103772786D01*
X152772213Y-103628028D01*
X152606614Y-103507715D01*
X152600006Y-103504348D01*
X152513917Y-103460483D01*
X152463123Y-103412511D01*
X152446328Y-103344690D01*
X152468865Y-103278555D01*
X152513917Y-103239516D01*
X152606610Y-103192287D01*
X152627770Y-103176913D01*
X152772213Y-103071971D01*
X152772215Y-103071968D01*
X152772219Y-103071966D01*
X152916966Y-102927219D01*
X152916968Y-102927215D01*
X152916971Y-102927213D01*
X152969732Y-102854590D01*
X153037287Y-102761610D01*
X153130220Y-102579219D01*
X153193477Y-102384534D01*
X153225500Y-102182352D01*
X153225500Y-101977648D01*
X153193477Y-101775466D01*
X153130220Y-101580781D01*
X153130218Y-101580778D01*
X153130218Y-101580776D01*
X153096503Y-101514607D01*
X153037287Y-101398390D01*
X153029556Y-101387749D01*
X152916971Y-101232786D01*
X152772213Y-101088028D01*
X152606614Y-100967715D01*
X152600006Y-100964348D01*
X152513917Y-100920483D01*
X152463123Y-100872511D01*
X152446328Y-100804690D01*
X152468865Y-100738555D01*
X152513917Y-100699516D01*
X152606610Y-100652287D01*
X152627770Y-100636913D01*
X152772213Y-100531971D01*
X152772215Y-100531968D01*
X152772219Y-100531966D01*
X152916966Y-100387219D01*
X152916968Y-100387215D01*
X152916971Y-100387213D01*
X152969732Y-100314590D01*
X153037287Y-100221610D01*
X153130220Y-100039219D01*
X153193477Y-99844534D01*
X153225500Y-99642352D01*
X153225500Y-99437648D01*
X153193477Y-99235466D01*
X153130220Y-99040781D01*
X153130218Y-99040778D01*
X153130218Y-99040776D01*
X153096503Y-98974607D01*
X153037287Y-98858390D01*
X153029556Y-98847749D01*
X152916971Y-98692786D01*
X152772217Y-98548032D01*
X152695415Y-98492232D01*
X152652750Y-98436902D01*
X152646771Y-98367288D01*
X152679377Y-98305494D01*
X152737640Y-98271765D01*
X152758022Y-98266563D01*
X152758035Y-98266559D01*
X152814582Y-98243135D01*
X152054409Y-97482962D01*
X152117993Y-97465925D01*
X152232007Y-97400099D01*
X152325099Y-97307007D01*
X152390925Y-97192993D01*
X152407962Y-97129409D01*
X153168135Y-97889582D01*
X153168137Y-97889582D01*
X153191552Y-97833053D01*
X153209544Y-97782053D01*
X153229999Y-97639780D01*
X153230000Y-97639779D01*
X153230000Y-96360224D01*
X153229999Y-96360204D01*
X153227106Y-96306237D01*
X153227106Y-96306235D01*
X153191558Y-96166960D01*
X153168136Y-96110415D01*
X153168135Y-96110415D01*
X152407962Y-96870589D01*
X152390925Y-96807007D01*
X152325099Y-96692993D01*
X152232007Y-96599901D01*
X152117993Y-96534075D01*
X152054410Y-96517037D01*
X152814583Y-95756863D01*
X152814583Y-95756862D01*
X152758052Y-95733447D01*
X152758013Y-95733432D01*
X152729375Y-95723329D01*
X152672704Y-95682463D01*
X152647122Y-95617444D01*
X152660754Y-95548917D01*
X152697745Y-95506074D01*
X152772215Y-95451969D01*
X152772215Y-95451968D01*
X152772219Y-95451966D01*
X152916966Y-95307219D01*
X152916968Y-95307215D01*
X152916971Y-95307213D01*
X152969732Y-95234590D01*
X153037287Y-95141610D01*
X153130220Y-94959219D01*
X153193477Y-94764534D01*
X153225500Y-94562352D01*
X153225500Y-94357648D01*
X153193477Y-94155466D01*
X153130220Y-93960781D01*
X153130218Y-93960778D01*
X153130218Y-93960776D01*
X153096503Y-93894607D01*
X153037287Y-93778390D01*
X153029556Y-93767749D01*
X152916971Y-93612786D01*
X152772213Y-93468028D01*
X152606614Y-93347715D01*
X152600006Y-93344348D01*
X152513917Y-93300483D01*
X152463123Y-93252511D01*
X152446328Y-93184690D01*
X152468865Y-93118555D01*
X152513917Y-93079516D01*
X152606610Y-93032287D01*
X152627770Y-93016913D01*
X152772213Y-92911971D01*
X152772215Y-92911968D01*
X152772219Y-92911966D01*
X152916966Y-92767219D01*
X152916968Y-92767215D01*
X152916971Y-92767213D01*
X152969732Y-92694590D01*
X153037287Y-92601610D01*
X153130220Y-92419219D01*
X153193477Y-92224534D01*
X153225500Y-92022352D01*
X153225500Y-91817648D01*
X153193477Y-91615466D01*
X153130220Y-91420781D01*
X153130218Y-91420778D01*
X153130218Y-91420776D01*
X153096503Y-91354607D01*
X153037287Y-91238390D01*
X153029556Y-91227749D01*
X152916971Y-91072786D01*
X152772213Y-90928028D01*
X152606614Y-90807715D01*
X152600006Y-90804348D01*
X152513917Y-90760483D01*
X152463123Y-90712511D01*
X152446328Y-90644690D01*
X152468865Y-90578555D01*
X152513917Y-90539516D01*
X152606610Y-90492287D01*
X152627770Y-90476913D01*
X152772213Y-90371971D01*
X152772215Y-90371968D01*
X152772219Y-90371966D01*
X152916966Y-90227219D01*
X152916968Y-90227215D01*
X152916971Y-90227213D01*
X152969732Y-90154590D01*
X153037287Y-90061610D01*
X153130220Y-89879219D01*
X153193477Y-89684534D01*
X153225500Y-89482352D01*
X153225500Y-89277648D01*
X153193477Y-89075466D01*
X153130220Y-88880781D01*
X153130218Y-88880778D01*
X153130218Y-88880776D01*
X153096503Y-88814607D01*
X153037287Y-88698390D01*
X153029556Y-88687749D01*
X152916971Y-88532786D01*
X152772213Y-88388028D01*
X152606614Y-88267715D01*
X152600006Y-88264348D01*
X152513917Y-88220483D01*
X152463123Y-88172511D01*
X152446328Y-88104690D01*
X152468865Y-88038555D01*
X152513917Y-87999516D01*
X152606610Y-87952287D01*
X152627770Y-87936913D01*
X152772213Y-87831971D01*
X152772215Y-87831968D01*
X152772219Y-87831966D01*
X152916966Y-87687219D01*
X152916968Y-87687215D01*
X152916971Y-87687213D01*
X152969732Y-87614590D01*
X153037287Y-87521610D01*
X153130220Y-87339219D01*
X153193477Y-87144534D01*
X153225500Y-86942352D01*
X153225500Y-86737648D01*
X153193477Y-86535466D01*
X153130220Y-86340781D01*
X153130218Y-86340778D01*
X153130218Y-86340776D01*
X153096503Y-86274607D01*
X153037287Y-86158390D01*
X153029556Y-86147749D01*
X152916971Y-85992786D01*
X152772217Y-85848032D01*
X152695415Y-85792232D01*
X152652750Y-85736902D01*
X152646771Y-85667288D01*
X152679377Y-85605494D01*
X152737640Y-85571765D01*
X152758022Y-85566563D01*
X152758035Y-85566559D01*
X152814582Y-85543135D01*
X152054409Y-84782962D01*
X152117993Y-84765925D01*
X152232007Y-84700099D01*
X152325099Y-84607007D01*
X152390925Y-84492993D01*
X152407962Y-84429409D01*
X153168135Y-85189582D01*
X153168137Y-85189582D01*
X153191552Y-85133053D01*
X153209544Y-85082053D01*
X153229999Y-84939780D01*
X153230000Y-84939779D01*
X153230000Y-83660224D01*
X153230000Y-83660219D01*
X168399500Y-83660219D01*
X168399500Y-84939784D01*
X168402395Y-84993814D01*
X168402396Y-84993818D01*
X168437976Y-85133221D01*
X168437980Y-85133233D01*
X168468419Y-85206719D01*
X168468431Y-85206747D01*
X168491779Y-85255548D01*
X168491781Y-85255551D01*
X168578006Y-85370733D01*
X168578010Y-85370737D01*
X168578015Y-85370743D01*
X168634252Y-85426980D01*
X168634261Y-85426988D01*
X168634267Y-85426994D01*
X168674524Y-85463156D01*
X168674532Y-85463162D01*
X168798263Y-85536573D01*
X168798262Y-85536573D01*
X168805329Y-85539500D01*
X168871774Y-85567022D01*
X168887645Y-85572621D01*
X168900133Y-85577027D01*
X168956805Y-85617894D01*
X168982386Y-85682912D01*
X168968754Y-85751439D01*
X168931765Y-85794281D01*
X168857782Y-85848032D01*
X168713028Y-85992786D01*
X168592715Y-86158386D01*
X168499781Y-86340776D01*
X168436522Y-86535465D01*
X168404500Y-86737648D01*
X168404500Y-86942351D01*
X168436522Y-87144534D01*
X168499781Y-87339223D01*
X168592715Y-87521613D01*
X168713028Y-87687213D01*
X168857786Y-87831971D01*
X169012749Y-87944556D01*
X169023390Y-87952287D01*
X169114840Y-87998883D01*
X169116080Y-87999515D01*
X169166876Y-88047490D01*
X169183671Y-88115311D01*
X169161134Y-88181446D01*
X169116080Y-88220485D01*
X169023386Y-88267715D01*
X168857786Y-88388028D01*
X168713028Y-88532786D01*
X168592715Y-88698386D01*
X168499781Y-88880776D01*
X168436522Y-89075465D01*
X168404500Y-89277648D01*
X168404500Y-89482351D01*
X168436522Y-89684534D01*
X168499781Y-89879223D01*
X168592715Y-90061613D01*
X168713028Y-90227213D01*
X168857786Y-90371971D01*
X169012749Y-90484556D01*
X169023390Y-90492287D01*
X169114840Y-90538883D01*
X169116080Y-90539515D01*
X169166876Y-90587490D01*
X169183671Y-90655311D01*
X169161134Y-90721446D01*
X169116080Y-90760485D01*
X169023386Y-90807715D01*
X168857786Y-90928028D01*
X168713028Y-91072786D01*
X168592715Y-91238386D01*
X168499781Y-91420776D01*
X168436522Y-91615465D01*
X168404500Y-91817648D01*
X168404500Y-92022351D01*
X168436522Y-92224534D01*
X168499781Y-92419223D01*
X168592715Y-92601613D01*
X168713028Y-92767213D01*
X168857786Y-92911971D01*
X169012749Y-93024556D01*
X169023390Y-93032287D01*
X169114840Y-93078883D01*
X169116080Y-93079515D01*
X169166876Y-93127490D01*
X169183671Y-93195311D01*
X169161134Y-93261446D01*
X169116080Y-93300485D01*
X169023386Y-93347715D01*
X168857786Y-93468028D01*
X168713028Y-93612786D01*
X168592715Y-93778386D01*
X168499781Y-93960776D01*
X168436522Y-94155465D01*
X168404500Y-94357648D01*
X168404500Y-94562351D01*
X168436522Y-94764534D01*
X168499781Y-94959223D01*
X168592715Y-95141613D01*
X168713028Y-95307213D01*
X168857782Y-95451967D01*
X168857787Y-95451971D01*
X168934583Y-95507767D01*
X168977249Y-95563097D01*
X168983228Y-95632710D01*
X168950622Y-95694505D01*
X168892365Y-95728233D01*
X168871967Y-95733439D01*
X168871956Y-95733442D01*
X168815415Y-95756862D01*
X169575590Y-96517037D01*
X169512007Y-96534075D01*
X169397993Y-96599901D01*
X169304901Y-96692993D01*
X169239075Y-96807007D01*
X169222037Y-96870589D01*
X168461862Y-96110415D01*
X168438449Y-96166940D01*
X168420455Y-96217946D01*
X168400000Y-96360219D01*
X168400000Y-97639785D01*
X168402893Y-97693762D01*
X168402893Y-97693764D01*
X168438438Y-97833030D01*
X168438440Y-97833037D01*
X168461863Y-97889583D01*
X169222037Y-97129409D01*
X169239075Y-97192993D01*
X169304901Y-97307007D01*
X169397993Y-97400099D01*
X169512007Y-97465925D01*
X169575590Y-97482962D01*
X168815415Y-98243135D01*
X168815415Y-98243136D01*
X168871954Y-98266556D01*
X168871961Y-98266558D01*
X168900621Y-98276669D01*
X168957294Y-98317534D01*
X168982876Y-98382552D01*
X168969246Y-98451080D01*
X168932256Y-98493924D01*
X168857782Y-98548032D01*
X168713028Y-98692786D01*
X168592715Y-98858386D01*
X168499781Y-99040776D01*
X168436522Y-99235465D01*
X168404500Y-99437648D01*
X168404500Y-99642351D01*
X168436522Y-99844534D01*
X168499781Y-100039223D01*
X168592715Y-100221613D01*
X168713028Y-100387213D01*
X168857786Y-100531971D01*
X169012749Y-100644556D01*
X169023390Y-100652287D01*
X169114840Y-100698883D01*
X169116080Y-100699515D01*
X169166876Y-100747490D01*
X169183671Y-100815311D01*
X169161134Y-100881446D01*
X169116080Y-100920485D01*
X169023386Y-100967715D01*
X168857786Y-101088028D01*
X168713028Y-101232786D01*
X168592715Y-101398386D01*
X168499781Y-101580776D01*
X168436522Y-101775465D01*
X168404500Y-101977648D01*
X168404500Y-102182351D01*
X168436522Y-102384534D01*
X168499781Y-102579223D01*
X168592715Y-102761613D01*
X168713028Y-102927213D01*
X168857786Y-103071971D01*
X169012749Y-103184556D01*
X169023390Y-103192287D01*
X169114840Y-103238883D01*
X169116080Y-103239515D01*
X169166876Y-103287490D01*
X169183671Y-103355311D01*
X169161134Y-103421446D01*
X169116080Y-103460485D01*
X169023386Y-103507715D01*
X168857786Y-103628028D01*
X168713028Y-103772786D01*
X168592715Y-103938386D01*
X168499781Y-104120776D01*
X168436522Y-104315465D01*
X168404500Y-104517648D01*
X168404500Y-104722351D01*
X168436522Y-104924534D01*
X168499781Y-105119223D01*
X168592715Y-105301613D01*
X168713028Y-105467213D01*
X168857786Y-105611971D01*
X169012749Y-105724556D01*
X169023390Y-105732287D01*
X169114840Y-105778883D01*
X169116080Y-105779515D01*
X169166876Y-105827490D01*
X169183671Y-105895311D01*
X169161134Y-105961446D01*
X169116080Y-106000485D01*
X169023386Y-106047715D01*
X168857786Y-106168028D01*
X168713028Y-106312786D01*
X168592715Y-106478386D01*
X168499781Y-106660776D01*
X168436522Y-106855465D01*
X168404500Y-107057648D01*
X168404500Y-107262351D01*
X168436522Y-107464534D01*
X168499781Y-107659223D01*
X168592715Y-107841613D01*
X168713028Y-108007213D01*
X168857782Y-108151967D01*
X168857787Y-108151971D01*
X168934583Y-108207767D01*
X168977249Y-108263097D01*
X168983228Y-108332710D01*
X168950622Y-108394505D01*
X168892365Y-108428233D01*
X168871967Y-108433439D01*
X168871956Y-108433442D01*
X168815415Y-108456862D01*
X169575590Y-109217037D01*
X169512007Y-109234075D01*
X169397993Y-109299901D01*
X169304901Y-109392993D01*
X169239075Y-109507007D01*
X169222037Y-109570589D01*
X168461862Y-108810415D01*
X168438449Y-108866940D01*
X168420455Y-108917946D01*
X168400000Y-109060219D01*
X168400000Y-110339785D01*
X168402893Y-110393762D01*
X168402893Y-110393764D01*
X168438438Y-110533030D01*
X168438440Y-110533037D01*
X168461863Y-110589583D01*
X169222037Y-109829409D01*
X169239075Y-109892993D01*
X169304901Y-110007007D01*
X169397993Y-110100099D01*
X169512007Y-110165925D01*
X169575590Y-110182962D01*
X168815415Y-110943135D01*
X168815415Y-110943136D01*
X168871954Y-110966556D01*
X168871961Y-110966558D01*
X168900621Y-110976669D01*
X168957294Y-111017534D01*
X168982876Y-111082552D01*
X168969246Y-111151080D01*
X168932256Y-111193924D01*
X168857782Y-111248032D01*
X168713028Y-111392786D01*
X168592715Y-111558386D01*
X168499781Y-111740776D01*
X168436522Y-111935465D01*
X168404500Y-112137648D01*
X168404500Y-112342351D01*
X168436522Y-112544534D01*
X168499781Y-112739223D01*
X168592715Y-112921613D01*
X168713028Y-113087213D01*
X168857786Y-113231971D01*
X169012749Y-113344556D01*
X169023390Y-113352287D01*
X169114840Y-113398883D01*
X169116080Y-113399515D01*
X169166876Y-113447490D01*
X169183671Y-113515311D01*
X169161134Y-113581446D01*
X169116080Y-113620485D01*
X169023386Y-113667715D01*
X168857786Y-113788028D01*
X168713028Y-113932786D01*
X168592715Y-114098386D01*
X168499781Y-114280776D01*
X168436522Y-114475465D01*
X168404500Y-114677648D01*
X168404500Y-114882351D01*
X168436522Y-115084534D01*
X168499781Y-115279223D01*
X168592715Y-115461613D01*
X168713028Y-115627213D01*
X168857786Y-115771971D01*
X169012749Y-115884556D01*
X169023390Y-115892287D01*
X169139607Y-115951503D01*
X169205776Y-115985218D01*
X169205778Y-115985218D01*
X169205781Y-115985220D01*
X169310137Y-116019127D01*
X169400465Y-116048477D01*
X169501557Y-116064488D01*
X169602648Y-116080500D01*
X169602649Y-116080500D01*
X169807351Y-116080500D01*
X169807352Y-116080500D01*
X170009534Y-116048477D01*
X170204219Y-115985220D01*
X170386610Y-115892287D01*
X170479590Y-115824732D01*
X170552213Y-115771971D01*
X170552215Y-115771968D01*
X170552219Y-115771966D01*
X170696966Y-115627219D01*
X170696968Y-115627215D01*
X170696971Y-115627213D01*
X170749732Y-115554590D01*
X170817287Y-115461610D01*
X170910220Y-115279219D01*
X170973477Y-115084534D01*
X171005500Y-114882352D01*
X171005500Y-114677648D01*
X170973477Y-114475466D01*
X170910220Y-114280781D01*
X170910218Y-114280778D01*
X170910218Y-114280776D01*
X170876503Y-114214607D01*
X170817287Y-114098390D01*
X170809556Y-114087749D01*
X170696971Y-113932786D01*
X170552213Y-113788028D01*
X170386614Y-113667715D01*
X170380006Y-113664348D01*
X170293917Y-113620483D01*
X170243123Y-113572511D01*
X170226328Y-113504690D01*
X170248865Y-113438555D01*
X170293917Y-113399516D01*
X170386610Y-113352287D01*
X170407770Y-113336913D01*
X170552213Y-113231971D01*
X170552215Y-113231968D01*
X170552219Y-113231966D01*
X170696966Y-113087219D01*
X170696968Y-113087215D01*
X170696971Y-113087213D01*
X170749732Y-113014590D01*
X170817287Y-112921610D01*
X170910220Y-112739219D01*
X170973477Y-112544534D01*
X171005500Y-112342352D01*
X171005500Y-112137648D01*
X170973477Y-111935466D01*
X170910220Y-111740781D01*
X170910218Y-111740778D01*
X170910218Y-111740776D01*
X170876503Y-111674607D01*
X170817287Y-111558390D01*
X170809556Y-111547749D01*
X170696971Y-111392786D01*
X170552213Y-111248028D01*
X170386614Y-111127715D01*
X170378410Y-111123535D01*
X170300703Y-111083941D01*
X170249908Y-111035968D01*
X170233113Y-110968147D01*
X170255650Y-110902012D01*
X170298546Y-110864099D01*
X170364493Y-110828849D01*
X170364511Y-110828838D01*
X170433912Y-110782465D01*
X169834409Y-110182962D01*
X169897993Y-110165925D01*
X170012007Y-110100099D01*
X170105099Y-110007007D01*
X170170925Y-109892993D01*
X170187962Y-109829409D01*
X170787465Y-110428912D01*
X170833838Y-110359511D01*
X170833844Y-110359501D01*
X170880509Y-110272198D01*
X170940814Y-110126612D01*
X170969555Y-110031864D01*
X171000298Y-109877302D01*
X171000298Y-109877299D01*
X171010000Y-109778789D01*
X171010000Y-109621210D01*
X171000298Y-109522700D01*
X171000298Y-109522697D01*
X170969555Y-109368135D01*
X170940814Y-109273387D01*
X170880509Y-109127801D01*
X170833841Y-109040493D01*
X170787465Y-108971086D01*
X170787465Y-108971085D01*
X170187962Y-109570589D01*
X170170925Y-109507007D01*
X170105099Y-109392993D01*
X170012007Y-109299901D01*
X169897993Y-109234075D01*
X169834410Y-109217037D01*
X170433913Y-108617534D01*
X170433912Y-108617533D01*
X170364506Y-108571158D01*
X170298545Y-108535900D01*
X170248701Y-108486937D01*
X170233241Y-108418799D01*
X170257073Y-108353119D01*
X170300702Y-108316059D01*
X170386610Y-108272287D01*
X170477745Y-108206074D01*
X170552213Y-108151971D01*
X170552215Y-108151968D01*
X170552219Y-108151966D01*
X170696966Y-108007219D01*
X170696968Y-108007215D01*
X170696971Y-108007213D01*
X170749732Y-107934590D01*
X170817287Y-107841610D01*
X170910220Y-107659219D01*
X170973477Y-107464534D01*
X171005500Y-107262352D01*
X171005500Y-107057648D01*
X170973477Y-106855466D01*
X170910220Y-106660781D01*
X170910218Y-106660778D01*
X170910218Y-106660776D01*
X170876503Y-106594607D01*
X170817287Y-106478390D01*
X170809556Y-106467749D01*
X170696971Y-106312786D01*
X170552213Y-106168028D01*
X170386614Y-106047715D01*
X170380006Y-106044348D01*
X170293917Y-106000483D01*
X170243123Y-105952511D01*
X170226328Y-105884690D01*
X170248865Y-105818555D01*
X170293917Y-105779516D01*
X170386610Y-105732287D01*
X170407770Y-105716913D01*
X170552213Y-105611971D01*
X170552215Y-105611968D01*
X170552219Y-105611966D01*
X170696966Y-105467219D01*
X170696968Y-105467215D01*
X170696971Y-105467213D01*
X170749732Y-105394590D01*
X170817287Y-105301610D01*
X170910220Y-105119219D01*
X170973477Y-104924534D01*
X171005500Y-104722352D01*
X171005500Y-104517648D01*
X170973477Y-104315466D01*
X170910220Y-104120781D01*
X170910218Y-104120778D01*
X170910218Y-104120776D01*
X170876503Y-104054607D01*
X170817287Y-103938390D01*
X170809556Y-103927749D01*
X170696971Y-103772786D01*
X170552213Y-103628028D01*
X170386614Y-103507715D01*
X170380006Y-103504348D01*
X170293917Y-103460483D01*
X170243123Y-103412511D01*
X170226328Y-103344690D01*
X170248865Y-103278555D01*
X170293917Y-103239516D01*
X170386610Y-103192287D01*
X170407770Y-103176913D01*
X170552213Y-103071971D01*
X170552215Y-103071968D01*
X170552219Y-103071966D01*
X170696966Y-102927219D01*
X170696968Y-102927215D01*
X170696971Y-102927213D01*
X170749732Y-102854590D01*
X170817287Y-102761610D01*
X170910220Y-102579219D01*
X170973477Y-102384534D01*
X171005500Y-102182352D01*
X171005500Y-101977648D01*
X170973477Y-101775466D01*
X170910220Y-101580781D01*
X170910218Y-101580778D01*
X170910218Y-101580776D01*
X170876503Y-101514607D01*
X170817287Y-101398390D01*
X170809556Y-101387749D01*
X170696971Y-101232786D01*
X170552213Y-101088028D01*
X170386614Y-100967715D01*
X170380006Y-100964348D01*
X170293917Y-100920483D01*
X170243123Y-100872511D01*
X170226328Y-100804690D01*
X170248865Y-100738555D01*
X170293917Y-100699516D01*
X170386610Y-100652287D01*
X170407770Y-100636913D01*
X170552213Y-100531971D01*
X170552215Y-100531968D01*
X170552219Y-100531966D01*
X170696966Y-100387219D01*
X170696968Y-100387215D01*
X170696971Y-100387213D01*
X170749732Y-100314590D01*
X170817287Y-100221610D01*
X170910220Y-100039219D01*
X170973477Y-99844534D01*
X171005500Y-99642352D01*
X171005500Y-99437648D01*
X170973477Y-99235466D01*
X170910220Y-99040781D01*
X170910218Y-99040778D01*
X170910218Y-99040776D01*
X170876503Y-98974607D01*
X170817287Y-98858390D01*
X170809556Y-98847749D01*
X170696971Y-98692786D01*
X170552213Y-98548028D01*
X170386614Y-98427715D01*
X170378410Y-98423535D01*
X170300703Y-98383941D01*
X170249908Y-98335968D01*
X170233113Y-98268147D01*
X170255650Y-98202012D01*
X170298546Y-98164099D01*
X170364493Y-98128849D01*
X170364511Y-98128838D01*
X170433912Y-98082465D01*
X169834409Y-97482962D01*
X169897993Y-97465925D01*
X170012007Y-97400099D01*
X170105099Y-97307007D01*
X170170925Y-97192993D01*
X170187962Y-97129409D01*
X170787465Y-97728912D01*
X170833838Y-97659511D01*
X170833844Y-97659501D01*
X170880509Y-97572198D01*
X170940814Y-97426612D01*
X170969555Y-97331864D01*
X171000298Y-97177302D01*
X171000298Y-97177299D01*
X171010000Y-97078789D01*
X171010000Y-96921210D01*
X171000298Y-96822700D01*
X171000298Y-96822697D01*
X170969555Y-96668135D01*
X170940814Y-96573387D01*
X170880509Y-96427801D01*
X170833841Y-96340493D01*
X170787465Y-96271086D01*
X170787465Y-96271085D01*
X170187962Y-96870589D01*
X170170925Y-96807007D01*
X170105099Y-96692993D01*
X170012007Y-96599901D01*
X169897993Y-96534075D01*
X169834410Y-96517037D01*
X170433913Y-95917534D01*
X170433912Y-95917533D01*
X170364506Y-95871158D01*
X170298545Y-95835900D01*
X170248701Y-95786937D01*
X170233241Y-95718799D01*
X170257073Y-95653119D01*
X170300702Y-95616059D01*
X170386610Y-95572287D01*
X170477745Y-95506074D01*
X170552213Y-95451971D01*
X170552215Y-95451968D01*
X170552219Y-95451966D01*
X170696966Y-95307219D01*
X170696968Y-95307215D01*
X170696971Y-95307213D01*
X170749732Y-95234590D01*
X170817287Y-95141610D01*
X170910220Y-94959219D01*
X170973477Y-94764534D01*
X171005500Y-94562352D01*
X171005500Y-94357648D01*
X170973477Y-94155466D01*
X170910220Y-93960781D01*
X170910218Y-93960778D01*
X170910218Y-93960776D01*
X170876503Y-93894607D01*
X170817287Y-93778390D01*
X170809556Y-93767749D01*
X170696971Y-93612786D01*
X170552213Y-93468028D01*
X170386614Y-93347715D01*
X170380006Y-93344348D01*
X170293917Y-93300483D01*
X170243123Y-93252511D01*
X170226328Y-93184690D01*
X170248865Y-93118555D01*
X170293917Y-93079516D01*
X170386610Y-93032287D01*
X170407770Y-93016913D01*
X170552213Y-92911971D01*
X170552215Y-92911968D01*
X170552219Y-92911966D01*
X170696966Y-92767219D01*
X170696968Y-92767215D01*
X170696971Y-92767213D01*
X170749732Y-92694590D01*
X170817287Y-92601610D01*
X170910220Y-92419219D01*
X170973477Y-92224534D01*
X171005500Y-92022352D01*
X171005500Y-91817648D01*
X170973477Y-91615466D01*
X170910220Y-91420781D01*
X170910218Y-91420778D01*
X170910218Y-91420776D01*
X170876503Y-91354607D01*
X170817287Y-91238390D01*
X170809556Y-91227749D01*
X170696971Y-91072786D01*
X170552213Y-90928028D01*
X170386614Y-90807715D01*
X170380006Y-90804348D01*
X170293917Y-90760483D01*
X170243123Y-90712511D01*
X170226328Y-90644690D01*
X170248865Y-90578555D01*
X170293917Y-90539516D01*
X170386610Y-90492287D01*
X170407770Y-90476913D01*
X170552213Y-90371971D01*
X170552215Y-90371968D01*
X170552219Y-90371966D01*
X170696966Y-90227219D01*
X170696968Y-90227215D01*
X170696971Y-90227213D01*
X170749732Y-90154590D01*
X170817287Y-90061610D01*
X170910220Y-89879219D01*
X170973477Y-89684534D01*
X171005500Y-89482352D01*
X171005500Y-89277648D01*
X170973477Y-89075466D01*
X170910220Y-88880781D01*
X170910218Y-88880778D01*
X170910218Y-88880776D01*
X170876503Y-88814607D01*
X170817287Y-88698390D01*
X170809556Y-88687749D01*
X170696971Y-88532786D01*
X170552213Y-88388028D01*
X170386614Y-88267715D01*
X170380006Y-88264348D01*
X170293917Y-88220483D01*
X170243123Y-88172511D01*
X170226328Y-88104690D01*
X170248865Y-88038555D01*
X170293917Y-87999516D01*
X170386610Y-87952287D01*
X170407770Y-87936913D01*
X170552213Y-87831971D01*
X170552215Y-87831968D01*
X170552219Y-87831966D01*
X170696966Y-87687219D01*
X170696968Y-87687215D01*
X170696971Y-87687213D01*
X170749732Y-87614590D01*
X170817287Y-87521610D01*
X170910220Y-87339219D01*
X170973477Y-87144534D01*
X171005500Y-86942352D01*
X171005500Y-86737648D01*
X170973477Y-86535466D01*
X170910220Y-86340781D01*
X170910218Y-86340778D01*
X170910218Y-86340776D01*
X170876503Y-86274607D01*
X170817287Y-86158390D01*
X170809556Y-86147749D01*
X170696971Y-85992786D01*
X170552213Y-85848028D01*
X170386613Y-85727715D01*
X170386612Y-85727714D01*
X170386610Y-85727713D01*
X170333947Y-85700880D01*
X170301245Y-85684217D01*
X170250449Y-85636242D01*
X170233654Y-85568421D01*
X170256192Y-85502286D01*
X170299083Y-85464376D01*
X170364783Y-85429259D01*
X170495811Y-85341709D01*
X170572412Y-85278843D01*
X170683843Y-85167412D01*
X170746709Y-85090811D01*
X170834259Y-84959783D01*
X170880972Y-84872389D01*
X170941278Y-84726798D01*
X170970044Y-84631968D01*
X171000787Y-84477410D01*
X171010500Y-84378793D01*
X171010500Y-84221207D01*
X171000787Y-84122590D01*
X170970044Y-83968032D01*
X170941278Y-83873202D01*
X170880972Y-83727611D01*
X170844950Y-83660219D01*
X170834265Y-83640228D01*
X170834263Y-83640226D01*
X170834259Y-83640217D01*
X170834248Y-83640200D01*
X170746721Y-83509206D01*
X170746712Y-83509194D01*
X170746709Y-83509189D01*
X170683843Y-83432588D01*
X170572412Y-83321157D01*
X170495811Y-83258291D01*
X170495804Y-83258286D01*
X170495793Y-83258278D01*
X170364799Y-83170751D01*
X170364788Y-83170744D01*
X170364783Y-83170741D01*
X170342645Y-83158908D01*
X170299086Y-83135625D01*
X170249242Y-83086662D01*
X170233782Y-83018524D01*
X170257614Y-82952845D01*
X170301246Y-82915782D01*
X170344871Y-82893554D01*
X170386610Y-82872287D01*
X170477745Y-82806074D01*
X170552213Y-82751971D01*
X170552215Y-82751968D01*
X170552219Y-82751966D01*
X170696966Y-82607219D01*
X170696968Y-82607215D01*
X170696971Y-82607213D01*
X170817286Y-82441611D01*
X170852458Y-82372585D01*
X170881179Y-82316213D01*
X170910220Y-82259219D01*
X170973477Y-82064534D01*
X171005500Y-81862352D01*
X171005500Y-81657648D01*
X170973477Y-81455466D01*
X170963489Y-81424727D01*
X170933616Y-81332788D01*
X170910220Y-81260781D01*
X170910218Y-81260778D01*
X170910218Y-81260776D01*
X170858763Y-81159792D01*
X170817287Y-81078390D01*
X170782209Y-81030109D01*
X170696971Y-80912786D01*
X170552213Y-80768028D01*
X170386614Y-80647715D01*
X170380006Y-80644348D01*
X170293917Y-80600483D01*
X170243123Y-80552511D01*
X170226328Y-80484690D01*
X170248865Y-80418555D01*
X170293917Y-80379516D01*
X170386610Y-80332287D01*
X170408698Y-80316239D01*
X170552213Y-80211971D01*
X170552215Y-80211968D01*
X170552219Y-80211966D01*
X170696966Y-80067219D01*
X170696968Y-80067215D01*
X170696971Y-80067213D01*
X170749732Y-79994590D01*
X170817287Y-79901610D01*
X170910220Y-79719219D01*
X170973477Y-79524534D01*
X171005500Y-79322352D01*
X171005500Y-79117648D01*
X170973477Y-78915466D01*
X170910220Y-78720781D01*
X170910218Y-78720778D01*
X170910218Y-78720776D01*
X170876503Y-78654607D01*
X170817287Y-78538390D01*
X170809556Y-78527749D01*
X170696971Y-78372786D01*
X170552213Y-78228028D01*
X170386614Y-78107715D01*
X170380006Y-78104348D01*
X170293917Y-78060483D01*
X170243123Y-78012511D01*
X170226328Y-77944690D01*
X170248865Y-77878555D01*
X170293917Y-77839516D01*
X170386610Y-77792287D01*
X170407770Y-77776913D01*
X170552213Y-77671971D01*
X170552215Y-77671968D01*
X170552219Y-77671966D01*
X170696966Y-77527219D01*
X170696968Y-77527215D01*
X170696971Y-77527213D01*
X170749732Y-77454590D01*
X170817287Y-77361610D01*
X170910220Y-77179219D01*
X170973477Y-76984534D01*
X171005500Y-76782352D01*
X171005500Y-76577648D01*
X171003043Y-76562135D01*
X175649500Y-76562135D01*
X175649500Y-78357870D01*
X175649501Y-78357876D01*
X175655908Y-78417483D01*
X175706202Y-78552328D01*
X175706206Y-78552335D01*
X175792452Y-78667544D01*
X175792455Y-78667547D01*
X175907664Y-78753793D01*
X175907671Y-78753797D01*
X176039082Y-78802810D01*
X176095016Y-78844681D01*
X176119433Y-78910145D01*
X176104582Y-78978418D01*
X176083431Y-79006673D01*
X175969889Y-79120215D01*
X175844951Y-79292179D01*
X175748444Y-79481585D01*
X175682753Y-79683760D01*
X175649500Y-79893713D01*
X175649500Y-80106287D01*
X175682754Y-80316243D01*
X175739706Y-80491523D01*
X175748444Y-80518414D01*
X175844951Y-80707820D01*
X175969890Y-80879786D01*
X176120213Y-81030109D01*
X176292179Y-81155048D01*
X176292181Y-81155049D01*
X176292184Y-81155051D01*
X176301493Y-81159794D01*
X176352290Y-81207766D01*
X176369087Y-81275587D01*
X176346552Y-81341722D01*
X176301505Y-81380760D01*
X176292446Y-81385376D01*
X176292440Y-81385380D01*
X176238282Y-81424727D01*
X176238282Y-81424728D01*
X176870591Y-82057037D01*
X176807007Y-82074075D01*
X176692993Y-82139901D01*
X176599901Y-82232993D01*
X176534075Y-82347007D01*
X176517037Y-82410591D01*
X175884728Y-81778282D01*
X175884727Y-81778282D01*
X175845380Y-81832439D01*
X175748904Y-82021782D01*
X175683242Y-82223869D01*
X175683242Y-82223872D01*
X175650000Y-82433753D01*
X175650000Y-82646246D01*
X175683242Y-82856127D01*
X175683242Y-82856130D01*
X175748904Y-83058217D01*
X175845375Y-83247550D01*
X175884728Y-83301716D01*
X176517037Y-82669408D01*
X176534075Y-82732993D01*
X176599901Y-82847007D01*
X176692993Y-82940099D01*
X176807007Y-83005925D01*
X176870590Y-83022962D01*
X176238282Y-83655269D01*
X176238282Y-83655270D01*
X176292449Y-83694624D01*
X176481782Y-83791095D01*
X176683870Y-83856757D01*
X176893754Y-83890000D01*
X177106246Y-83890000D01*
X177316127Y-83856757D01*
X177316130Y-83856757D01*
X177518217Y-83791095D01*
X177707554Y-83694622D01*
X177761716Y-83655270D01*
X177761717Y-83655270D01*
X177129408Y-83022962D01*
X177192993Y-83005925D01*
X177307007Y-82940099D01*
X177400099Y-82847007D01*
X177465925Y-82732993D01*
X177482962Y-82669408D01*
X178115270Y-83301717D01*
X178115270Y-83301716D01*
X178154622Y-83247554D01*
X178251095Y-83058217D01*
X178316757Y-82856130D01*
X178316757Y-82856127D01*
X178350000Y-82646246D01*
X178350000Y-82433753D01*
X178316757Y-82223872D01*
X178316757Y-82223869D01*
X178251095Y-82021782D01*
X178154624Y-81832449D01*
X178115270Y-81778282D01*
X178115269Y-81778282D01*
X177482962Y-82410590D01*
X177465925Y-82347007D01*
X177400099Y-82232993D01*
X177307007Y-82139901D01*
X177192993Y-82074075D01*
X177129409Y-82057037D01*
X177761716Y-81424728D01*
X177707547Y-81385373D01*
X177707547Y-81385372D01*
X177698500Y-81380763D01*
X177647706Y-81332788D01*
X177630912Y-81264966D01*
X177653451Y-81198832D01*
X177698508Y-81159793D01*
X177707816Y-81155051D01*
X177813337Y-81078386D01*
X177879786Y-81030109D01*
X177879788Y-81030106D01*
X177879792Y-81030104D01*
X178030104Y-80879792D01*
X178030106Y-80879788D01*
X178030109Y-80879786D01*
X178155048Y-80707820D01*
X178155047Y-80707820D01*
X178155051Y-80707816D01*
X178251557Y-80518412D01*
X178317246Y-80316243D01*
X178350500Y-80106287D01*
X178350500Y-79893713D01*
X178317246Y-79683757D01*
X178251557Y-79481588D01*
X178155051Y-79292184D01*
X178155049Y-79292181D01*
X178155048Y-79292179D01*
X178030109Y-79120213D01*
X177916569Y-79006673D01*
X177883084Y-78945350D01*
X177888068Y-78875658D01*
X177929940Y-78819725D01*
X177960915Y-78802810D01*
X178092331Y-78753796D01*
X178207546Y-78667546D01*
X178293796Y-78552331D01*
X178344091Y-78417483D01*
X178350500Y-78357873D01*
X178350499Y-76562128D01*
X178344091Y-76502517D01*
X178293796Y-76367669D01*
X178293795Y-76367668D01*
X178293793Y-76367664D01*
X178207547Y-76252455D01*
X178207544Y-76252452D01*
X178092335Y-76166206D01*
X178092328Y-76166202D01*
X177957482Y-76115908D01*
X177957483Y-76115908D01*
X177897883Y-76109501D01*
X177897881Y-76109500D01*
X177897873Y-76109500D01*
X177897864Y-76109500D01*
X176102129Y-76109500D01*
X176102123Y-76109501D01*
X176042516Y-76115908D01*
X175907671Y-76166202D01*
X175907664Y-76166206D01*
X175792455Y-76252452D01*
X175792452Y-76252455D01*
X175706206Y-76367664D01*
X175706202Y-76367671D01*
X175655908Y-76502517D01*
X175649501Y-76562116D01*
X175649501Y-76562123D01*
X175649500Y-76562135D01*
X171003043Y-76562135D01*
X170973477Y-76375466D01*
X170970944Y-76367671D01*
X170910218Y-76180776D01*
X170873900Y-76109500D01*
X170817287Y-75998390D01*
X170809556Y-75987749D01*
X170696971Y-75832786D01*
X170552213Y-75688028D01*
X170386614Y-75567715D01*
X170380006Y-75564348D01*
X170293917Y-75520483D01*
X170243123Y-75472511D01*
X170226328Y-75404690D01*
X170248865Y-75338555D01*
X170293917Y-75299516D01*
X170386610Y-75252287D01*
X170407770Y-75236913D01*
X170552213Y-75131971D01*
X170552215Y-75131968D01*
X170552219Y-75131966D01*
X170696966Y-74987219D01*
X170696968Y-74987215D01*
X170696971Y-74987213D01*
X170749732Y-74914590D01*
X170817287Y-74821610D01*
X170910220Y-74639219D01*
X170973477Y-74444534D01*
X171005500Y-74242352D01*
X171005500Y-74037648D01*
X170973477Y-73835466D01*
X170910220Y-73640781D01*
X170910218Y-73640778D01*
X170910218Y-73640776D01*
X170876503Y-73574607D01*
X170817287Y-73458390D01*
X170809556Y-73447749D01*
X170696971Y-73292786D01*
X170552213Y-73148028D01*
X170386614Y-73027715D01*
X170378410Y-73023535D01*
X170300703Y-72983941D01*
X170249908Y-72935968D01*
X170233113Y-72868147D01*
X170255650Y-72802012D01*
X170298546Y-72764099D01*
X170364493Y-72728849D01*
X170364511Y-72728838D01*
X170433912Y-72682465D01*
X169834409Y-72082962D01*
X169897993Y-72065925D01*
X170012007Y-72000099D01*
X170105099Y-71907007D01*
X170170925Y-71792993D01*
X170187962Y-71729409D01*
X170787465Y-72328912D01*
X170833838Y-72259511D01*
X170833844Y-72259501D01*
X170880509Y-72172198D01*
X170940814Y-72026612D01*
X170969555Y-71931864D01*
X171000298Y-71777302D01*
X171000298Y-71777299D01*
X171010000Y-71678789D01*
X171010000Y-71521210D01*
X171000298Y-71422700D01*
X171000298Y-71422697D01*
X170969555Y-71268135D01*
X170940814Y-71173387D01*
X170880509Y-71027801D01*
X170833841Y-70940493D01*
X170787465Y-70871086D01*
X170787465Y-70871085D01*
X170187962Y-71470589D01*
X170170925Y-71407007D01*
X170105099Y-71292993D01*
X170012007Y-71199901D01*
X169897993Y-71134075D01*
X169834410Y-71117037D01*
X170433913Y-70517534D01*
X170433912Y-70517533D01*
X170364506Y-70471158D01*
X170298545Y-70435900D01*
X170248701Y-70386937D01*
X170233241Y-70318799D01*
X170257073Y-70253119D01*
X170300702Y-70216059D01*
X170386610Y-70172287D01*
X170477745Y-70106074D01*
X170552213Y-70051971D01*
X170552215Y-70051968D01*
X170552219Y-70051966D01*
X170696966Y-69907219D01*
X170696968Y-69907215D01*
X170696971Y-69907213D01*
X170794834Y-69772514D01*
X170817287Y-69741610D01*
X170910220Y-69559219D01*
X170973477Y-69364534D01*
X171005500Y-69162352D01*
X171005500Y-68957648D01*
X170998620Y-68914210D01*
X170973477Y-68755465D01*
X170944127Y-68665137D01*
X170910220Y-68560781D01*
X170910218Y-68560778D01*
X170910218Y-68560776D01*
X170876503Y-68494607D01*
X170817287Y-68378390D01*
X170809556Y-68367749D01*
X170696971Y-68212786D01*
X170552213Y-68068028D01*
X170386614Y-67947715D01*
X170380006Y-67944348D01*
X170293917Y-67900483D01*
X170243123Y-67852511D01*
X170226328Y-67784690D01*
X170248865Y-67718555D01*
X170293917Y-67679516D01*
X170386610Y-67632287D01*
X170492733Y-67555185D01*
X170552213Y-67511971D01*
X170552215Y-67511968D01*
X170552219Y-67511966D01*
X170696966Y-67367219D01*
X170696968Y-67367215D01*
X170696971Y-67367213D01*
X170784170Y-67247192D01*
X170817287Y-67201610D01*
X170910220Y-67019219D01*
X170973477Y-66824534D01*
X171005500Y-66622352D01*
X171005500Y-66417648D01*
X170973477Y-66215466D01*
X170910220Y-66020781D01*
X170910218Y-66020778D01*
X170910218Y-66020776D01*
X170870170Y-65942179D01*
X170817287Y-65838390D01*
X170809556Y-65827749D01*
X170696971Y-65672786D01*
X170552213Y-65528028D01*
X170386613Y-65407715D01*
X170386612Y-65407714D01*
X170386610Y-65407713D01*
X170301855Y-65364528D01*
X170204223Y-65314781D01*
X170009534Y-65251522D01*
X169834995Y-65223878D01*
X169807352Y-65219500D01*
X169602648Y-65219500D01*
X169578329Y-65223351D01*
X169400465Y-65251522D01*
X169205776Y-65314781D01*
X169023386Y-65407715D01*
X168857786Y-65528028D01*
X168713028Y-65672786D01*
X168592715Y-65838386D01*
X168499781Y-66020776D01*
X168436522Y-66215465D01*
X168404500Y-66417648D01*
X168404500Y-66622351D01*
X168436522Y-66824534D01*
X168499781Y-67019223D01*
X168563691Y-67144653D01*
X168579976Y-67176613D01*
X168592715Y-67201613D01*
X168713028Y-67367213D01*
X168857786Y-67511971D01*
X169012749Y-67624556D01*
X169023390Y-67632287D01*
X169108139Y-67675469D01*
X169116080Y-67679515D01*
X169166876Y-67727490D01*
X169183671Y-67795311D01*
X169161134Y-67861446D01*
X169116080Y-67900485D01*
X169023386Y-67947715D01*
X168857786Y-68068028D01*
X168713028Y-68212786D01*
X168592715Y-68378386D01*
X168499781Y-68560776D01*
X168436522Y-68755465D01*
X168404500Y-68957648D01*
X168404500Y-69162351D01*
X168436522Y-69364534D01*
X168499781Y-69559223D01*
X168592715Y-69741613D01*
X168713028Y-69907213D01*
X168857782Y-70051967D01*
X168857787Y-70051971D01*
X168934583Y-70107767D01*
X168977249Y-70163097D01*
X168983228Y-70232710D01*
X168950622Y-70294505D01*
X168892365Y-70328233D01*
X168871967Y-70333439D01*
X168871956Y-70333442D01*
X168815415Y-70356862D01*
X169575590Y-71117037D01*
X169512007Y-71134075D01*
X169397993Y-71199901D01*
X169304901Y-71292993D01*
X169239075Y-71407007D01*
X169222037Y-71470589D01*
X168461862Y-70710415D01*
X168438449Y-70766940D01*
X168420455Y-70817946D01*
X168400000Y-70960219D01*
X168400000Y-72239785D01*
X168402893Y-72293762D01*
X168402893Y-72293764D01*
X168438438Y-72433030D01*
X168438440Y-72433037D01*
X168461863Y-72489583D01*
X169222037Y-71729409D01*
X169239075Y-71792993D01*
X169304901Y-71907007D01*
X169397993Y-72000099D01*
X169512007Y-72065925D01*
X169575590Y-72082962D01*
X168815415Y-72843135D01*
X168815415Y-72843136D01*
X168871954Y-72866556D01*
X168871961Y-72866558D01*
X168900621Y-72876669D01*
X168957294Y-72917534D01*
X168982876Y-72982552D01*
X168969246Y-73051080D01*
X168932256Y-73093924D01*
X168857782Y-73148032D01*
X168713028Y-73292786D01*
X168592715Y-73458386D01*
X168499781Y-73640776D01*
X168436522Y-73835465D01*
X168404500Y-74037648D01*
X168404500Y-74242351D01*
X168436522Y-74444534D01*
X168499781Y-74639223D01*
X168592715Y-74821613D01*
X168713028Y-74987213D01*
X168857786Y-75131971D01*
X169012749Y-75244556D01*
X169023390Y-75252287D01*
X169114840Y-75298883D01*
X169116080Y-75299515D01*
X169166876Y-75347490D01*
X169183671Y-75415311D01*
X169161134Y-75481446D01*
X169116080Y-75520485D01*
X169023386Y-75567715D01*
X168857786Y-75688028D01*
X168713028Y-75832786D01*
X168592715Y-75998386D01*
X168499781Y-76180776D01*
X168436522Y-76375465D01*
X168404500Y-76577648D01*
X168404500Y-76782351D01*
X168436522Y-76984534D01*
X168499781Y-77179223D01*
X168592715Y-77361613D01*
X168713028Y-77527213D01*
X168857786Y-77671971D01*
X169012749Y-77784556D01*
X169023390Y-77792287D01*
X169114840Y-77838883D01*
X169116080Y-77839515D01*
X169166876Y-77887490D01*
X169183671Y-77955311D01*
X169161134Y-78021446D01*
X169116080Y-78060485D01*
X169023386Y-78107715D01*
X168857786Y-78228028D01*
X168713028Y-78372786D01*
X168592715Y-78538386D01*
X168499781Y-78720776D01*
X168436522Y-78915465D01*
X168404500Y-79117648D01*
X168404500Y-79322351D01*
X168436522Y-79524534D01*
X168499781Y-79719223D01*
X168563691Y-79844653D01*
X168588689Y-79893713D01*
X168592715Y-79901613D01*
X168713028Y-80067213D01*
X168857786Y-80211971D01*
X169001302Y-80316239D01*
X169023390Y-80332287D01*
X169114840Y-80378883D01*
X169116080Y-80379515D01*
X169166876Y-80427490D01*
X169183671Y-80495311D01*
X169161134Y-80561446D01*
X169116080Y-80600485D01*
X169023386Y-80647715D01*
X168857786Y-80768028D01*
X168713028Y-80912786D01*
X168592715Y-81078386D01*
X168499781Y-81260776D01*
X168436522Y-81455465D01*
X168404500Y-81657648D01*
X168404500Y-81862351D01*
X168436522Y-82064534D01*
X168499781Y-82259223D01*
X168592715Y-82441613D01*
X168713028Y-82607213D01*
X168857782Y-82751967D01*
X168857787Y-82751971D01*
X168934063Y-82807389D01*
X168976729Y-82862719D01*
X168982708Y-82932332D01*
X168950102Y-82994127D01*
X168891845Y-83027855D01*
X168871776Y-83032977D01*
X168871766Y-83032980D01*
X168798280Y-83063419D01*
X168798252Y-83063431D01*
X168749451Y-83086779D01*
X168749446Y-83086782D01*
X168634268Y-83173005D01*
X168634256Y-83173015D01*
X168578019Y-83229252D01*
X168541843Y-83269524D01*
X168541837Y-83269532D01*
X168468426Y-83393263D01*
X168437978Y-83466774D01*
X168437970Y-83466795D01*
X168419976Y-83517800D01*
X168419976Y-83517802D01*
X168400212Y-83655270D01*
X168399500Y-83660219D01*
X153230000Y-83660219D01*
X153229999Y-83660204D01*
X153227106Y-83606237D01*
X153227106Y-83606235D01*
X153191558Y-83466960D01*
X153168136Y-83410415D01*
X153168135Y-83410415D01*
X152407962Y-84170589D01*
X152390925Y-84107007D01*
X152325099Y-83992993D01*
X152232007Y-83899901D01*
X152117993Y-83834075D01*
X152054410Y-83817037D01*
X152814583Y-83056863D01*
X152814583Y-83056862D01*
X152758052Y-83033447D01*
X152758013Y-83033432D01*
X152729375Y-83023329D01*
X152672704Y-82982463D01*
X152647122Y-82917444D01*
X152660754Y-82848917D01*
X152697745Y-82806074D01*
X152772215Y-82751969D01*
X152772215Y-82751968D01*
X152772219Y-82751966D01*
X152916966Y-82607219D01*
X152916968Y-82607215D01*
X152916971Y-82607213D01*
X153013628Y-82474174D01*
X153037287Y-82441610D01*
X153130220Y-82259219D01*
X153193477Y-82064534D01*
X153225500Y-81862352D01*
X153225500Y-81657648D01*
X153193477Y-81455466D01*
X153183489Y-81424727D01*
X153153616Y-81332788D01*
X153130220Y-81260781D01*
X153130218Y-81260778D01*
X153130218Y-81260776D01*
X153078763Y-81159792D01*
X153037287Y-81078390D01*
X153002209Y-81030109D01*
X152916971Y-80912786D01*
X152772213Y-80768028D01*
X152606614Y-80647715D01*
X152600006Y-80644348D01*
X152513917Y-80600483D01*
X152463123Y-80552511D01*
X152446328Y-80484690D01*
X152468865Y-80418555D01*
X152513917Y-80379516D01*
X152606610Y-80332287D01*
X152628698Y-80316239D01*
X152772213Y-80211971D01*
X152772215Y-80211968D01*
X152772219Y-80211966D01*
X152916966Y-80067219D01*
X152916968Y-80067215D01*
X152916971Y-80067213D01*
X152969732Y-79994590D01*
X153037287Y-79901610D01*
X153130220Y-79719219D01*
X153193477Y-79524534D01*
X153225500Y-79322352D01*
X153225500Y-79117648D01*
X153193477Y-78915466D01*
X153130220Y-78720781D01*
X153130218Y-78720778D01*
X153130218Y-78720776D01*
X153096503Y-78654607D01*
X153037287Y-78538390D01*
X153029556Y-78527749D01*
X152916971Y-78372786D01*
X152772213Y-78228028D01*
X152606614Y-78107715D01*
X152600006Y-78104348D01*
X152513917Y-78060483D01*
X152463123Y-78012511D01*
X152446328Y-77944690D01*
X152468865Y-77878555D01*
X152513917Y-77839516D01*
X152606610Y-77792287D01*
X152627770Y-77776913D01*
X152772213Y-77671971D01*
X152772215Y-77671968D01*
X152772219Y-77671966D01*
X152916966Y-77527219D01*
X152916968Y-77527215D01*
X152916971Y-77527213D01*
X152969732Y-77454590D01*
X153037287Y-77361610D01*
X153130220Y-77179219D01*
X153193477Y-76984534D01*
X153225500Y-76782352D01*
X153225500Y-76577648D01*
X153193477Y-76375466D01*
X153190944Y-76367671D01*
X153130218Y-76180776D01*
X153093900Y-76109500D01*
X153037287Y-75998390D01*
X153029556Y-75987749D01*
X152916971Y-75832786D01*
X152772213Y-75688028D01*
X152606614Y-75567715D01*
X152600006Y-75564348D01*
X152513917Y-75520483D01*
X152463123Y-75472511D01*
X152446328Y-75404690D01*
X152468865Y-75338555D01*
X152513917Y-75299516D01*
X152606610Y-75252287D01*
X152627770Y-75236913D01*
X152772213Y-75131971D01*
X152772215Y-75131968D01*
X152772219Y-75131966D01*
X152916966Y-74987219D01*
X152916968Y-74987215D01*
X152916971Y-74987213D01*
X152969732Y-74914590D01*
X153037287Y-74821610D01*
X153130220Y-74639219D01*
X153193477Y-74444534D01*
X153225500Y-74242352D01*
X153225500Y-74037648D01*
X153193477Y-73835466D01*
X153130220Y-73640781D01*
X153130218Y-73640778D01*
X153130218Y-73640776D01*
X153096503Y-73574607D01*
X153037287Y-73458390D01*
X153029556Y-73447749D01*
X152916971Y-73292786D01*
X152772217Y-73148032D01*
X152695415Y-73092232D01*
X152652750Y-73036902D01*
X152646771Y-72967288D01*
X152679377Y-72905494D01*
X152737640Y-72871765D01*
X152758022Y-72866563D01*
X152758035Y-72866559D01*
X152814582Y-72843135D01*
X152054409Y-72082962D01*
X152117993Y-72065925D01*
X152232007Y-72000099D01*
X152325099Y-71907007D01*
X152390925Y-71792993D01*
X152407962Y-71729409D01*
X153168135Y-72489582D01*
X153168137Y-72489582D01*
X153191552Y-72433053D01*
X153209544Y-72382053D01*
X153229999Y-72239780D01*
X153230000Y-72239779D01*
X153230000Y-70960214D01*
X153227106Y-70906237D01*
X153227106Y-70906235D01*
X153191558Y-70766960D01*
X153168136Y-70710415D01*
X153168135Y-70710415D01*
X152407962Y-71470589D01*
X152390925Y-71407007D01*
X152325099Y-71292993D01*
X152232007Y-71199901D01*
X152117993Y-71134075D01*
X152054410Y-71117037D01*
X152814583Y-70356863D01*
X152814583Y-70356862D01*
X152758052Y-70333447D01*
X152758013Y-70333432D01*
X152729375Y-70323329D01*
X152672704Y-70282463D01*
X152647122Y-70217444D01*
X152660754Y-70148917D01*
X152697745Y-70106074D01*
X152772215Y-70051969D01*
X152772215Y-70051968D01*
X152772219Y-70051966D01*
X152916966Y-69907219D01*
X152916968Y-69907215D01*
X152916971Y-69907213D01*
X153014834Y-69772514D01*
X153037287Y-69741610D01*
X153115817Y-69587486D01*
X157214500Y-69587486D01*
X157214500Y-69772513D01*
X157243445Y-69955265D01*
X157300619Y-70131232D01*
X157300620Y-70131235D01*
X157352325Y-70232710D01*
X157384622Y-70296096D01*
X157493379Y-70445787D01*
X157624213Y-70576621D01*
X157773904Y-70685378D01*
X157823042Y-70710415D01*
X157938764Y-70769379D01*
X157938767Y-70769380D01*
X158026750Y-70797967D01*
X158114736Y-70826555D01*
X158297486Y-70855500D01*
X158297487Y-70855500D01*
X158482513Y-70855500D01*
X158482514Y-70855500D01*
X158665264Y-70826555D01*
X158841235Y-70769379D01*
X159006096Y-70685378D01*
X159155787Y-70576621D01*
X159286621Y-70445787D01*
X159395378Y-70296096D01*
X159479379Y-70131235D01*
X159536555Y-69955264D01*
X159565500Y-69772514D01*
X159565500Y-69587486D01*
X162064500Y-69587486D01*
X162064500Y-69772513D01*
X162093445Y-69955265D01*
X162150619Y-70131232D01*
X162150620Y-70131235D01*
X162202325Y-70232710D01*
X162234622Y-70296096D01*
X162343379Y-70445787D01*
X162474213Y-70576621D01*
X162623904Y-70685378D01*
X162673042Y-70710415D01*
X162788764Y-70769379D01*
X162788767Y-70769380D01*
X162876750Y-70797967D01*
X162964736Y-70826555D01*
X163147486Y-70855500D01*
X163147487Y-70855500D01*
X163332513Y-70855500D01*
X163332514Y-70855500D01*
X163405660Y-70843914D01*
X163472578Y-70833316D01*
X163478847Y-70832322D01*
X163515264Y-70826555D01*
X163691235Y-70769379D01*
X163856096Y-70685378D01*
X164005787Y-70576621D01*
X164136621Y-70445787D01*
X164245378Y-70296096D01*
X164329379Y-70131235D01*
X164386555Y-69955264D01*
X164415500Y-69772514D01*
X164415500Y-69587486D01*
X164386555Y-69404736D01*
X164329379Y-69228765D01*
X164329379Y-69228764D01*
X164245377Y-69063903D01*
X164136621Y-68914213D01*
X164005787Y-68783379D01*
X163856096Y-68674622D01*
X163691235Y-68590620D01*
X163691232Y-68590619D01*
X163515265Y-68533445D01*
X163423889Y-68518972D01*
X163332514Y-68504500D01*
X163147486Y-68504500D01*
X163086569Y-68514148D01*
X162964734Y-68533445D01*
X162788767Y-68590619D01*
X162788764Y-68590620D01*
X162623903Y-68674622D01*
X162538499Y-68736672D01*
X162474213Y-68783379D01*
X162474211Y-68783381D01*
X162474210Y-68783381D01*
X162343381Y-68914210D01*
X162343381Y-68914211D01*
X162343379Y-68914213D01*
X162311822Y-68957648D01*
X162234622Y-69063903D01*
X162150620Y-69228764D01*
X162150619Y-69228767D01*
X162093445Y-69404734D01*
X162064500Y-69587486D01*
X159565500Y-69587486D01*
X159536555Y-69404736D01*
X159479379Y-69228765D01*
X159479379Y-69228764D01*
X159395377Y-69063903D01*
X159286621Y-68914213D01*
X159155787Y-68783379D01*
X159006096Y-68674622D01*
X158841235Y-68590620D01*
X158841232Y-68590619D01*
X158665265Y-68533445D01*
X158573889Y-68518972D01*
X158482514Y-68504500D01*
X158297486Y-68504500D01*
X158236569Y-68514148D01*
X158114734Y-68533445D01*
X157938767Y-68590619D01*
X157938764Y-68590620D01*
X157773903Y-68674622D01*
X157688499Y-68736672D01*
X157624213Y-68783379D01*
X157624211Y-68783381D01*
X157624210Y-68783381D01*
X157493381Y-68914210D01*
X157493381Y-68914211D01*
X157493379Y-68914213D01*
X157461822Y-68957648D01*
X157384622Y-69063903D01*
X157300620Y-69228764D01*
X157300619Y-69228767D01*
X157243445Y-69404734D01*
X157214500Y-69587486D01*
X153115817Y-69587486D01*
X153130220Y-69559219D01*
X153180415Y-69404736D01*
X153193476Y-69364538D01*
X153193476Y-69364537D01*
X153193477Y-69364534D01*
X153225500Y-69162352D01*
X153225500Y-68957648D01*
X153218620Y-68914210D01*
X153193477Y-68755465D01*
X153164127Y-68665137D01*
X153130220Y-68560781D01*
X153130218Y-68560778D01*
X153130218Y-68560776D01*
X153096503Y-68494607D01*
X153037287Y-68378390D01*
X153029556Y-68367749D01*
X152916971Y-68212786D01*
X152772217Y-68068032D01*
X152772212Y-68068028D01*
X152691440Y-68009344D01*
X152648774Y-67954015D01*
X152642795Y-67884401D01*
X152675400Y-67822606D01*
X152727433Y-67790641D01*
X152814606Y-67763478D01*
X152960185Y-67675472D01*
X153080472Y-67555185D01*
X153168478Y-67409606D01*
X153219086Y-67247196D01*
X153225500Y-67176616D01*
X153225500Y-66543713D01*
X156739500Y-66543713D01*
X156739500Y-66756287D01*
X156772754Y-66966243D01*
X156789968Y-67019223D01*
X156838444Y-67168414D01*
X156934951Y-67357820D01*
X157059890Y-67529786D01*
X157210213Y-67680109D01*
X157382179Y-67805048D01*
X157382181Y-67805049D01*
X157382184Y-67805051D01*
X157571588Y-67901557D01*
X157773757Y-67967246D01*
X157983713Y-68000500D01*
X157983714Y-68000500D01*
X158196286Y-68000500D01*
X158196287Y-68000500D01*
X158406243Y-67967246D01*
X158608412Y-67901557D01*
X158797816Y-67805051D01*
X158855038Y-67763477D01*
X158969786Y-67680109D01*
X158969788Y-67680106D01*
X158969792Y-67680104D01*
X159120104Y-67529792D01*
X159120106Y-67529788D01*
X159120109Y-67529786D01*
X159245048Y-67357820D01*
X159245047Y-67357820D01*
X159245051Y-67357816D01*
X159341557Y-67168412D01*
X159407246Y-66966243D01*
X159440500Y-66756287D01*
X159440500Y-66543713D01*
X162189500Y-66543713D01*
X162189500Y-66756287D01*
X162222754Y-66966243D01*
X162239968Y-67019223D01*
X162288444Y-67168414D01*
X162384951Y-67357820D01*
X162509890Y-67529786D01*
X162660213Y-67680109D01*
X162832179Y-67805048D01*
X162832181Y-67805049D01*
X162832184Y-67805051D01*
X163021588Y-67901557D01*
X163223757Y-67967246D01*
X163433713Y-68000500D01*
X163433714Y-68000500D01*
X163646286Y-68000500D01*
X163646287Y-68000500D01*
X163856243Y-67967246D01*
X164058412Y-67901557D01*
X164247816Y-67805051D01*
X164305038Y-67763477D01*
X164419786Y-67680109D01*
X164419788Y-67680106D01*
X164419792Y-67680104D01*
X164570104Y-67529792D01*
X164570106Y-67529788D01*
X164570109Y-67529786D01*
X164695048Y-67357820D01*
X164695047Y-67357820D01*
X164695051Y-67357816D01*
X164791557Y-67168412D01*
X164857246Y-66966243D01*
X164890500Y-66756287D01*
X164890500Y-66543713D01*
X164857246Y-66333757D01*
X164791557Y-66131588D01*
X164695051Y-65942184D01*
X164695049Y-65942181D01*
X164695048Y-65942179D01*
X164570109Y-65770213D01*
X164419786Y-65619890D01*
X164247820Y-65494951D01*
X164058414Y-65398444D01*
X164058413Y-65398443D01*
X164058412Y-65398443D01*
X163856243Y-65332754D01*
X163856241Y-65332753D01*
X163856240Y-65332753D01*
X163694957Y-65307208D01*
X163646287Y-65299500D01*
X163433713Y-65299500D01*
X163385042Y-65307208D01*
X163223760Y-65332753D01*
X163021585Y-65398444D01*
X162832179Y-65494951D01*
X162660213Y-65619890D01*
X162509890Y-65770213D01*
X162384951Y-65942179D01*
X162288444Y-66131585D01*
X162222753Y-66333760D01*
X162209467Y-66417648D01*
X162189500Y-66543713D01*
X159440500Y-66543713D01*
X159407246Y-66333757D01*
X159341557Y-66131588D01*
X159245051Y-65942184D01*
X159245049Y-65942181D01*
X159245048Y-65942179D01*
X159120109Y-65770213D01*
X158969786Y-65619890D01*
X158797820Y-65494951D01*
X158608414Y-65398444D01*
X158608413Y-65398443D01*
X158608412Y-65398443D01*
X158406243Y-65332754D01*
X158406241Y-65332753D01*
X158406240Y-65332753D01*
X158244957Y-65307208D01*
X158196287Y-65299500D01*
X157983713Y-65299500D01*
X157935042Y-65307208D01*
X157773760Y-65332753D01*
X157571585Y-65398444D01*
X157382179Y-65494951D01*
X157210213Y-65619890D01*
X157059890Y-65770213D01*
X156934951Y-65942179D01*
X156838444Y-66131585D01*
X156772753Y-66333760D01*
X156759467Y-66417648D01*
X156739500Y-66543713D01*
X153225500Y-66543713D01*
X153225500Y-65863384D01*
X153219086Y-65792804D01*
X153168478Y-65630394D01*
X153080472Y-65484815D01*
X153080470Y-65484813D01*
X153080469Y-65484811D01*
X152960188Y-65364530D01*
X152907624Y-65332754D01*
X152814606Y-65276522D01*
X152652196Y-65225914D01*
X152652194Y-65225913D01*
X152652192Y-65225913D01*
X152602778Y-65221423D01*
X152581616Y-65219500D01*
X151268384Y-65219500D01*
X151249145Y-65221248D01*
X151197807Y-65225913D01*
X151035393Y-65276522D01*
X150889811Y-65364530D01*
X150769530Y-65484811D01*
X150681522Y-65630393D01*
X150630913Y-65792807D01*
X150624500Y-65863386D01*
X150624500Y-67176613D01*
X150630913Y-67247192D01*
X150681522Y-67409606D01*
X150769530Y-67555188D01*
X150889811Y-67675469D01*
X150889813Y-67675470D01*
X150889815Y-67675472D01*
X151035394Y-67763478D01*
X151122566Y-67790641D01*
X151180712Y-67829378D01*
X151208686Y-67893403D01*
X151197605Y-67962388D01*
X151158560Y-68009344D01*
X151077782Y-68068032D01*
X150933028Y-68212786D01*
X150812715Y-68378386D01*
X150719781Y-68560776D01*
X150656522Y-68755465D01*
X150624500Y-68957648D01*
X150624500Y-69162351D01*
X150656522Y-69364534D01*
X150719781Y-69559223D01*
X150812715Y-69741613D01*
X150933028Y-69907213D01*
X151077786Y-70051971D01*
X151243388Y-70172286D01*
X151243390Y-70172287D01*
X151329294Y-70216057D01*
X151380090Y-70264031D01*
X151396886Y-70331852D01*
X151374349Y-70397987D01*
X151331455Y-70435899D01*
X151265494Y-70471157D01*
X151265489Y-70471160D01*
X151196086Y-70517532D01*
X151196085Y-70517533D01*
X151795590Y-71117037D01*
X151732007Y-71134075D01*
X151617993Y-71199901D01*
X151524901Y-71292993D01*
X151459075Y-71407007D01*
X151442037Y-71470589D01*
X150842533Y-70871085D01*
X150842532Y-70871086D01*
X150796161Y-70940488D01*
X150749490Y-71027801D01*
X150689185Y-71173387D01*
X150660444Y-71268135D01*
X150629701Y-71422697D01*
X150629701Y-71422700D01*
X150620000Y-71521210D01*
X145500500Y-71521210D01*
X145500500Y-64624500D01*
X145520185Y-64557461D01*
X145572989Y-64511706D01*
X145624500Y-64500500D01*
X179125500Y-64500500D01*
X179192539Y-64520185D01*
G37*
%TD.AperFunction*%
%TD*%
M02*
