%TF.GenerationSoftware,KiCad,Pcbnew,10.0.4*%
%TF.CreationDate,2026-08-11T16:51:14-07:00*%
%TF.ProjectId,Motor Controller,4d6f746f-7220-4436-9f6e-74726f6c6c65,rev?*%
%TF.SameCoordinates,Original*%
%TF.FileFunction,Soldermask,Top*%
%TF.FilePolarity,Negative*%
%FSLAX46Y46*%
G04 Gerber Fmt 4.6, Leading zero omitted, Abs format (unit mm)*
G04 Created by KiCad (PCBNEW 10.0.4) date 2026-08-11 16:51:14*
%MOMM*%
%LPD*%
G01*
G04 APERTURE LIST*
G04 Aperture macros list*
%AMRoundRect*
0 Rectangle with rounded corners*
0 $1 Rounding radius*
0 $2 $3 $4 $5 $6 $7 $8 $9 X,Y pos of 4 corners*
0 Add a 4 corners polygon primitive as box body*
4,1,4,$2,$3,$4,$5,$6,$7,$8,$9,$2,$3,0*
0 Add four circle primitives for the rounded corners*
1,1,$1+$1,$2,$3*
1,1,$1+$1,$4,$5*
1,1,$1+$1,$6,$7*
1,1,$1+$1,$8,$9*
0 Add four rect primitives between the rounded corners*
20,1,$1+$1,$2,$3,$4,$5,0*
20,1,$1+$1,$4,$5,$6,$7,0*
20,1,$1+$1,$6,$7,$8,$9,0*
20,1,$1+$1,$8,$9,$2,$3,0*%
%AMFreePoly0*
4,1,37,0.800000,0.796148,0.878414,0.796148,1.032228,0.765552,1.177117,0.705537,1.307515,0.618408,1.418408,0.507515,1.505537,0.377117,1.565552,0.232228,1.596148,0.078414,1.596148,-0.078414,1.565552,-0.232228,1.505537,-0.377117,1.418408,-0.507515,1.307515,-0.618408,1.177117,-0.705537,1.032228,-0.765552,0.878414,-0.796148,0.800000,-0.796148,0.800000,-0.800000,-1.400000,-0.800000,
-1.403843,-0.796157,-1.439018,-0.796157,-1.511114,-0.766294,-1.566294,-0.711114,-1.596157,-0.639018,-1.596157,-0.603843,-1.600000,-0.600000,-1.600000,0.600000,-1.596157,0.603843,-1.596157,0.639018,-1.566294,0.711114,-1.511114,0.766294,-1.439018,0.796157,-1.403843,0.796157,-1.400000,0.800000,0.800000,0.800000,0.800000,0.796148,0.800000,0.796148,$1*%
%AMFreePoly1*
4,1,37,1.403843,0.796157,1.439018,0.796157,1.511114,0.766294,1.566294,0.711114,1.596157,0.639018,1.596157,0.603843,1.600000,0.600000,1.600000,-0.600000,1.596157,-0.603843,1.596157,-0.639018,1.566294,-0.711114,1.511114,-0.766294,1.439018,-0.796157,1.403843,-0.796157,1.400000,-0.800000,-0.800000,-0.800000,-0.800000,-0.796148,-0.878414,-0.796148,-1.032228,-0.765552,-1.177117,-0.705537,
-1.307515,-0.618408,-1.418408,-0.507515,-1.505537,-0.377117,-1.565552,-0.232228,-1.596148,-0.078414,-1.596148,0.078414,-1.565552,0.232228,-1.505537,0.377117,-1.418408,0.507515,-1.307515,0.618408,-1.177117,0.705537,-1.032228,0.765552,-0.878414,0.796148,-0.800000,0.796148,-0.800000,0.800000,1.400000,0.800000,1.403843,0.796157,1.403843,0.796157,$1*%
%AMFreePoly2*
4,1,37,0.603843,0.796157,0.639018,0.796157,0.711114,0.766294,0.766294,0.711114,0.796157,0.639018,0.796157,0.603843,0.800000,0.600000,0.800000,-0.600000,0.796157,-0.603843,0.796157,-0.639018,0.766294,-0.711114,0.711114,-0.766294,0.639018,-0.796157,0.603843,-0.796157,0.600000,-0.800000,0.000000,-0.800000,0.000000,-0.796148,-0.078414,-0.796148,-0.232228,-0.765552,-0.377117,-0.705537,
-0.507515,-0.618408,-0.618408,-0.507515,-0.705537,-0.377117,-0.765552,-0.232228,-0.796148,-0.078414,-0.796148,0.078414,-0.765552,0.232228,-0.705537,0.377117,-0.618408,0.507515,-0.507515,0.618408,-0.377117,0.705537,-0.232228,0.765552,-0.078414,0.796148,0.000000,0.796148,0.000000,0.800000,0.600000,0.800000,0.603843,0.796157,0.603843,0.796157,$1*%
%AMFreePoly3*
4,1,37,0.000000,0.796148,0.078414,0.796148,0.232228,0.765552,0.377117,0.705537,0.507515,0.618408,0.618408,0.507515,0.705537,0.377117,0.765552,0.232228,0.796148,0.078414,0.796148,-0.078414,0.765552,-0.232228,0.705537,-0.377117,0.618408,-0.507515,0.507515,-0.618408,0.377117,-0.705537,0.232228,-0.765552,0.078414,-0.796148,0.000000,-0.796148,0.000000,-0.800000,-0.600000,-0.800000,
-0.603843,-0.796157,-0.639018,-0.796157,-0.711114,-0.766294,-0.766294,-0.711114,-0.796157,-0.639018,-0.796157,-0.603843,-0.800000,-0.600000,-0.800000,0.600000,-0.796157,0.603843,-0.796157,0.639018,-0.766294,0.711114,-0.711114,0.766294,-0.639018,0.796157,-0.603843,0.796157,-0.600000,0.800000,0.000000,0.800000,0.000000,0.796148,0.000000,0.796148,$1*%
G04 Aperture macros list end*
%ADD10C,1.700000*%
%ADD11R,1.700000X1.700000*%
%ADD12C,2.200000*%
%ADD13C,1.850000*%
%ADD14FreePoly0,0.000000*%
%ADD15RoundRect,0.200000X-0.600000X-0.600000X0.600000X-0.600000X0.600000X0.600000X-0.600000X0.600000X0*%
%ADD16RoundRect,0.800000X-0.800000X-0.000010X0.800000X-0.000010X0.800000X0.000010X-0.800000X0.000010X0*%
%ADD17C,1.600000*%
%ADD18FreePoly1,0.000000*%
%ADD19FreePoly2,0.000000*%
%ADD20FreePoly3,0.000000*%
G04 APERTURE END LIST*
D10*
%TO.C,J1*%
X177000000Y-82540000D03*
X177000000Y-80000000D03*
D11*
X177000000Y-77460000D03*
%TD*%
D12*
%TO.C,A1*%
X158090000Y-66650000D03*
D13*
X158390000Y-69680000D03*
X163240000Y-69680000D03*
D12*
X163540000Y-66650000D03*
D14*
X151125000Y-66520000D03*
D15*
X151925000Y-66520000D03*
D16*
X151125000Y-69060000D03*
D17*
X151925000Y-69060000D03*
D18*
X151125000Y-71600000D03*
D19*
X151925000Y-71600000D03*
D16*
X151125000Y-74140000D03*
D17*
X151925000Y-74140000D03*
D16*
X151125000Y-76680000D03*
D17*
X151925000Y-76680000D03*
D16*
X151125000Y-79220000D03*
D17*
X151925000Y-79220000D03*
D16*
X151125000Y-81760000D03*
D17*
X151925000Y-81760000D03*
D18*
X151125000Y-84300000D03*
D19*
X151925000Y-84300000D03*
D16*
X151125000Y-86840000D03*
D17*
X151925000Y-86840000D03*
D16*
X151125000Y-89380000D03*
D17*
X151925000Y-89380000D03*
D16*
X151125000Y-91920000D03*
D17*
X151925000Y-91920000D03*
D16*
X151125000Y-94460000D03*
D17*
X151925000Y-94460000D03*
D18*
X151125000Y-97000000D03*
D19*
X151925000Y-97000000D03*
D16*
X151125000Y-99540000D03*
D17*
X151925000Y-99540000D03*
D16*
X151125000Y-102080000D03*
D17*
X151925000Y-102080000D03*
D16*
X151125000Y-104620000D03*
D17*
X151925000Y-104620000D03*
D16*
X151125000Y-107160000D03*
D17*
X151925000Y-107160000D03*
D18*
X151125000Y-109700000D03*
D19*
X151925000Y-109700000D03*
D16*
X151125000Y-112240000D03*
D17*
X151925000Y-112240000D03*
D16*
X151125000Y-114780000D03*
D17*
X151925000Y-114780000D03*
X169705000Y-114780000D03*
D16*
X170505000Y-114780000D03*
D17*
X169705000Y-112240000D03*
D16*
X170505000Y-112240000D03*
D20*
X169705000Y-109700000D03*
D14*
X170505000Y-109700000D03*
D17*
X169705000Y-107160000D03*
D16*
X170505000Y-107160000D03*
D17*
X169705000Y-104620000D03*
D16*
X170505000Y-104620000D03*
D17*
X169705000Y-102080000D03*
D16*
X170505000Y-102080000D03*
D17*
X169705000Y-99540000D03*
D16*
X170505000Y-99540000D03*
D20*
X169705000Y-97000000D03*
D14*
X170505000Y-97000000D03*
D17*
X169705000Y-94460000D03*
D16*
X170505000Y-94460000D03*
D17*
X169705000Y-91920000D03*
D16*
X170505000Y-91920000D03*
D17*
X169705000Y-89380000D03*
D16*
X170505000Y-89380000D03*
D17*
X169705000Y-86840000D03*
D16*
X170505000Y-86840000D03*
D20*
X169705000Y-84300000D03*
D14*
X170505000Y-84300000D03*
D17*
X169705000Y-81760000D03*
D16*
X170505000Y-81760000D03*
D17*
X169705000Y-79220000D03*
D16*
X170505000Y-79220000D03*
D17*
X169705000Y-76680000D03*
D16*
X170505000Y-76680000D03*
D17*
X169705000Y-74140000D03*
D16*
X170505000Y-74140000D03*
D20*
X169705000Y-71600000D03*
D14*
X170505000Y-71600000D03*
D17*
X169705000Y-69060000D03*
D16*
X170505000Y-69060000D03*
D17*
X169705000Y-66520000D03*
D16*
X170505000Y-66520000D03*
%TD*%
M02*
