%TF.GenerationSoftware,KiCad,Pcbnew,10.0.4*%
%TF.CreationDate,2026-08-11T16:51:14-07:00*%
%TF.ProjectId,Motor Controller,4d6f746f-7220-4436-9f6e-74726f6c6c65,rev?*%
%TF.SameCoordinates,Original*%
%TF.FileFunction,Copper,L1,Top*%
%TF.FilePolarity,Positive*%
%FSLAX46Y46*%
G04 Gerber Fmt 4.6, Leading zero omitted, Abs format (unit mm)*
G04 Created by KiCad (PCBNEW 10.0.4) date 2026-08-11 16:51:14*
%MOMM*%
%LPD*%
G01*
G04 APERTURE LIST*
G04 Aperture macros list*
%AMRoundRect*
0 Rectangle with rounded corners*
0 $1 Rounding radius*
0 $2 $3 $4 $5 $6 $7 $8 $9 X,Y pos of 4 corners*
0 Add a 4 corners polygon primitive as box body*
4,1,4,$2,$3,$4,$5,$6,$7,$8,$9,$2,$3,0*
0 Add four circle primitives for the rounded corners*
1,1,$1+$1,$2,$3*
1,1,$1+$1,$4,$5*
1,1,$1+$1,$6,$7*
1,1,$1+$1,$8,$9*
0 Add four rect primitives between the rounded corners*
20,1,$1+$1,$2,$3,$4,$5,0*
20,1,$1+$1,$4,$5,$6,$7,0*
20,1,$1+$1,$6,$7,$8,$9,0*
20,1,$1+$1,$8,$9,$2,$3,0*%
%AMFreePoly0*
4,1,37,0.800000,0.796148,0.878414,0.796148,1.032228,0.765552,1.177117,0.705537,1.307515,0.618408,1.418408,0.507515,1.505537,0.377117,1.565552,0.232228,1.596148,0.078414,1.596148,-0.078414,1.565552,-0.232228,1.505537,-0.377117,1.418408,-0.507515,1.307515,-0.618408,1.177117,-0.705537,1.032228,-0.765552,0.878414,-0.796148,0.800000,-0.796148,0.800000,-0.800000,-1.400000,-0.800000,
-1.403843,-0.796157,-1.439018,-0.796157,-1.511114,-0.766294,-1.566294,-0.711114,-1.596157,-0.639018,-1.596157,-0.603843,-1.600000,-0.600000,-1.600000,0.600000,-1.596157,0.603843,-1.596157,0.639018,-1.566294,0.711114,-1.511114,0.766294,-1.439018,0.796157,-1.403843,0.796157,-1.400000,0.800000,0.800000,0.800000,0.800000,0.796148,0.800000,0.796148,$1*%
%AMFreePoly1*
4,1,37,1.403843,0.796157,1.439018,0.796157,1.511114,0.766294,1.566294,0.711114,1.596157,0.639018,1.596157,0.603843,1.600000,0.600000,1.600000,-0.600000,1.596157,-0.603843,1.596157,-0.639018,1.566294,-0.711114,1.511114,-0.766294,1.439018,-0.796157,1.403843,-0.796157,1.400000,-0.800000,-0.800000,-0.800000,-0.800000,-0.796148,-0.878414,-0.796148,-1.032228,-0.765552,-1.177117,-0.705537,
-1.307515,-0.618408,-1.418408,-0.507515,-1.505537,-0.377117,-1.565552,-0.232228,-1.596148,-0.078414,-1.596148,0.078414,-1.565552,0.232228,-1.505537,0.377117,-1.418408,0.507515,-1.307515,0.618408,-1.177117,0.705537,-1.032228,0.765552,-0.878414,0.796148,-0.800000,0.796148,-0.800000,0.800000,1.400000,0.800000,1.403843,0.796157,1.403843,0.796157,$1*%
%AMFreePoly2*
4,1,37,0.603843,0.796157,0.639018,0.796157,0.711114,0.766294,0.766294,0.711114,0.796157,0.639018,0.796157,0.603843,0.800000,0.600000,0.800000,-0.600000,0.796157,-0.603843,0.796157,-0.639018,0.766294,-0.711114,0.711114,-0.766294,0.639018,-0.796157,0.603843,-0.796157,0.600000,-0.800000,0.000000,-0.800000,0.000000,-0.796148,-0.078414,-0.796148,-0.232228,-0.765552,-0.377117,-0.705537,
-0.507515,-0.618408,-0.618408,-0.507515,-0.705537,-0.377117,-0.765552,-0.232228,-0.796148,-0.078414,-0.796148,0.078414,-0.765552,0.232228,-0.705537,0.377117,-0.618408,0.507515,-0.507515,0.618408,-0.377117,0.705537,-0.232228,0.765552,-0.078414,0.796148,0.000000,0.796148,0.000000,0.800000,0.600000,0.800000,0.603843,0.796157,0.603843,0.796157,$1*%
%AMFreePoly3*
4,1,37,0.000000,0.796148,0.078414,0.796148,0.232228,0.765552,0.377117,0.705537,0.507515,0.618408,0.618408,0.507515,0.705537,0.377117,0.765552,0.232228,0.796148,0.078414,0.796148,-0.078414,0.765552,-0.232228,0.705537,-0.377117,0.618408,-0.507515,0.507515,-0.618408,0.377117,-0.705537,0.232228,-0.765552,0.078414,-0.796148,0.000000,-0.796148,0.000000,-0.800000,-0.600000,-0.800000,
-0.603843,-0.796157,-0.639018,-0.796157,-0.711114,-0.766294,-0.766294,-0.711114,-0.796157,-0.639018,-0.796157,-0.603843,-0.800000,-0.600000,-0.800000,0.600000,-0.796157,0.603843,-0.796157,0.639018,-0.766294,0.711114,-0.711114,0.766294,-0.639018,0.796157,-0.603843,0.796157,-0.600000,0.800000,0.000000,0.800000,0.000000,0.796148,0.000000,0.796148,$1*%
G04 Aperture macros list end*
%TA.AperFunction,ComponentPad*%
%ADD10C,1.700000*%
%TD*%
%TA.AperFunction,ComponentPad*%
%ADD11R,1.700000X1.700000*%
%TD*%
%TA.AperFunction,SMDPad,CuDef*%
%ADD12FreePoly0,0.000000*%
%TD*%
%TA.AperFunction,ComponentPad*%
%ADD13RoundRect,0.200000X-0.600000X-0.600000X0.600000X-0.600000X0.600000X0.600000X-0.600000X0.600000X0*%
%TD*%
%TA.AperFunction,SMDPad,CuDef*%
%ADD14RoundRect,0.800000X-0.800000X-0.000010X0.800000X-0.000010X0.800000X0.000010X-0.800000X0.000010X0*%
%TD*%
%TA.AperFunction,ComponentPad*%
%ADD15C,1.600000*%
%TD*%
%TA.AperFunction,SMDPad,CuDef*%
%ADD16FreePoly1,0.000000*%
%TD*%
%TA.AperFunction,ComponentPad*%
%ADD17FreePoly2,0.000000*%
%TD*%
%TA.AperFunction,ComponentPad*%
%ADD18FreePoly3,0.000000*%
%TD*%
%TA.AperFunction,Conductor*%
%ADD19C,0.200000*%
%TD*%
G04 APERTURE END LIST*
D10*
%TO.P,J1,3,Pin_3_3*%
%TO.N,GND*%
X177000000Y-82540000D03*
%TO.P,J1,2,Pin_2_2*%
%TO.N,Net-(A1-GPIO0)*%
X177000000Y-80000000D03*
D11*
%TO.P,J1,1,Pin_1_1*%
%TO.N,Net-(A1-VSYS)*%
X177000000Y-77460000D03*
%TD*%
D12*
%TO.P,A1,1,GPIO0_1*%
%TO.N,Net-(A1-GPIO0)*%
X151125000Y-66520000D03*
D13*
X151925000Y-66520000D03*
D14*
%TO.P,A1,2,GPIO1_2*%
%TO.N,unconnected-(A1-GPIO1-Pad2)_1*%
X151125000Y-69060000D03*
D15*
%TO.N,unconnected-(A1-GPIO1-Pad2)*%
X151925000Y-69060000D03*
D16*
%TO.P,A1,3,GND_3*%
%TO.N,GND*%
X151125000Y-71600000D03*
D17*
X151925000Y-71600000D03*
D14*
%TO.P,A1,4,GPIO2_4*%
%TO.N,unconnected-(A1-GPIO2-Pad4)_1*%
X151125000Y-74140000D03*
D15*
%TO.N,unconnected-(A1-GPIO2-Pad4)*%
X151925000Y-74140000D03*
D14*
%TO.P,A1,5,GPIO3_5*%
%TO.N,unconnected-(A1-GPIO3-Pad5)_1*%
X151125000Y-76680000D03*
D15*
%TO.N,unconnected-(A1-GPIO3-Pad5)*%
X151925000Y-76680000D03*
D14*
%TO.P,A1,6,GPIO4_6*%
%TO.N,unconnected-(A1-GPIO4-Pad6)*%
X151125000Y-79220000D03*
D15*
%TO.N,unconnected-(A1-GPIO4-Pad6)_1*%
X151925000Y-79220000D03*
D14*
%TO.P,A1,7,GPIO5_7*%
%TO.N,unconnected-(A1-GPIO5-Pad7)*%
X151125000Y-81760000D03*
D15*
%TO.N,unconnected-(A1-GPIO5-Pad7)_1*%
X151925000Y-81760000D03*
D16*
%TO.P,A1,8,GND_8*%
%TO.N,GND*%
X151125000Y-84300000D03*
D17*
X151925000Y-84300000D03*
D14*
%TO.P,A1,9,GPIO6_9*%
%TO.N,unconnected-(A1-GPIO6-Pad9)*%
X151125000Y-86840000D03*
D15*
%TO.N,unconnected-(A1-GPIO6-Pad9)_1*%
X151925000Y-86840000D03*
D14*
%TO.P,A1,10,GPIO7_10*%
%TO.N,unconnected-(A1-GPIO7-Pad10)_1*%
X151125000Y-89380000D03*
D15*
%TO.N,unconnected-(A1-GPIO7-Pad10)*%
X151925000Y-89380000D03*
D14*
%TO.P,A1,11,GPIO8_11*%
%TO.N,unconnected-(A1-GPIO8-Pad11)_1*%
X151125000Y-91920000D03*
D15*
%TO.N,unconnected-(A1-GPIO8-Pad11)*%
X151925000Y-91920000D03*
D14*
%TO.P,A1,12,GPIO9_12*%
%TO.N,unconnected-(A1-GPIO9-Pad12)_1*%
X151125000Y-94460000D03*
D15*
%TO.N,unconnected-(A1-GPIO9-Pad12)*%
X151925000Y-94460000D03*
D16*
%TO.P,A1,13,GND_13*%
%TO.N,GND*%
X151125000Y-97000000D03*
D17*
X151925000Y-97000000D03*
D14*
%TO.P,A1,14,GPIO10_14*%
%TO.N,unconnected-(A1-GPIO10-Pad14)*%
X151125000Y-99540000D03*
D15*
%TO.N,unconnected-(A1-GPIO10-Pad14)_1*%
X151925000Y-99540000D03*
D14*
%TO.P,A1,15,GPIO11_15*%
%TO.N,unconnected-(A1-GPIO11-Pad15)*%
X151125000Y-102080000D03*
D15*
%TO.N,unconnected-(A1-GPIO11-Pad15)_1*%
X151925000Y-102080000D03*
D14*
%TO.P,A1,16,GPIO12_16*%
%TO.N,unconnected-(A1-GPIO12-Pad16)*%
X151125000Y-104620000D03*
D15*
%TO.N,unconnected-(A1-GPIO12-Pad16)_1*%
X151925000Y-104620000D03*
D14*
%TO.P,A1,17,GPIO13_17*%
%TO.N,unconnected-(A1-GPIO13-Pad17)*%
X151125000Y-107160000D03*
D15*
%TO.N,unconnected-(A1-GPIO13-Pad17)_1*%
X151925000Y-107160000D03*
D16*
%TO.P,A1,18,GND_18*%
%TO.N,GND*%
X151125000Y-109700000D03*
D17*
X151925000Y-109700000D03*
D14*
%TO.P,A1,19,GPIO14_19*%
%TO.N,unconnected-(A1-GPIO14-Pad19)*%
X151125000Y-112240000D03*
D15*
%TO.N,unconnected-(A1-GPIO14-Pad19)_1*%
X151925000Y-112240000D03*
D14*
%TO.P,A1,20,GPIO15_20*%
%TO.N,unconnected-(A1-GPIO15-Pad20)*%
X151125000Y-114780000D03*
D15*
%TO.N,unconnected-(A1-GPIO15-Pad20)_1*%
X151925000Y-114780000D03*
%TO.P,A1,21,GPIO16_21*%
%TO.N,unconnected-(A1-GPIO16-Pad21)*%
X169705000Y-114780000D03*
D14*
%TO.N,unconnected-(A1-GPIO16-Pad21)_1*%
X170505000Y-114780000D03*
D15*
%TO.P,A1,22,GPIO17_22*%
%TO.N,unconnected-(A1-GPIO17-Pad22)*%
X169705000Y-112240000D03*
D14*
%TO.N,unconnected-(A1-GPIO17-Pad22)_1*%
X170505000Y-112240000D03*
D18*
%TO.P,A1,23,GND_23*%
%TO.N,GND*%
X169705000Y-109700000D03*
D12*
X170505000Y-109700000D03*
D15*
%TO.P,A1,24,GPIO18_24*%
%TO.N,unconnected-(A1-GPIO18-Pad24)*%
X169705000Y-107160000D03*
D14*
%TO.N,unconnected-(A1-GPIO18-Pad24)_1*%
X170505000Y-107160000D03*
D15*
%TO.P,A1,25,GPIO19_25*%
%TO.N,unconnected-(A1-GPIO19-Pad25)*%
X169705000Y-104620000D03*
D14*
%TO.N,unconnected-(A1-GPIO19-Pad25)_1*%
X170505000Y-104620000D03*
D15*
%TO.P,A1,26,GPIO20_26*%
%TO.N,unconnected-(A1-GPIO20-Pad26)*%
X169705000Y-102080000D03*
D14*
%TO.N,unconnected-(A1-GPIO20-Pad26)_1*%
X170505000Y-102080000D03*
D15*
%TO.P,A1,27,GPIO21_27*%
%TO.N,unconnected-(A1-GPIO21-Pad27)_1*%
X169705000Y-99540000D03*
D14*
%TO.N,unconnected-(A1-GPIO21-Pad27)*%
X170505000Y-99540000D03*
D18*
%TO.P,A1,28,GND_28*%
%TO.N,GND*%
X169705000Y-97000000D03*
D12*
X170505000Y-97000000D03*
D15*
%TO.P,A1,29,GPIO22_29*%
%TO.N,unconnected-(A1-GPIO22-Pad29)*%
X169705000Y-94460000D03*
D14*
%TO.N,unconnected-(A1-GPIO22-Pad29)_1*%
X170505000Y-94460000D03*
D15*
%TO.P,A1,30,RUN_30*%
%TO.N,unconnected-(A1-RUN-Pad30)*%
X169705000Y-91920000D03*
D14*
%TO.N,unconnected-(A1-RUN-Pad30)_1*%
X170505000Y-91920000D03*
D15*
%TO.P,A1,31,GPIO26_ADC0_31*%
%TO.N,unconnected-(A1-GPIO26_ADC0-Pad31)*%
X169705000Y-89380000D03*
D14*
%TO.N,unconnected-(A1-GPIO26_ADC0-Pad31)_1*%
X170505000Y-89380000D03*
D15*
%TO.P,A1,32,GPIO27_ADC1_32*%
%TO.N,unconnected-(A1-GPIO27_ADC1-Pad32)*%
X169705000Y-86840000D03*
D14*
%TO.N,unconnected-(A1-GPIO27_ADC1-Pad32)_1*%
X170505000Y-86840000D03*
D18*
%TO.P,A1,33,AGND_33*%
%TO.N,unconnected-(A1-AGND-Pad33)*%
X169705000Y-84300000D03*
D12*
%TO.N,unconnected-(A1-AGND-Pad33)_1*%
X170505000Y-84300000D03*
D15*
%TO.P,A1,34,GPIO28_ADC2_34*%
%TO.N,unconnected-(A1-GPIO28_ADC2-Pad34)_1*%
X169705000Y-81760000D03*
D14*
%TO.N,unconnected-(A1-GPIO28_ADC2-Pad34)*%
X170505000Y-81760000D03*
D15*
%TO.P,A1,35,ADC_VREF_35*%
%TO.N,unconnected-(A1-ADC_VREF-Pad35)_1*%
X169705000Y-79220000D03*
D14*
%TO.N,unconnected-(A1-ADC_VREF-Pad35)*%
X170505000Y-79220000D03*
D15*
%TO.P,A1,36,3V3_36*%
%TO.N,unconnected-(A1-3V3-Pad36)*%
X169705000Y-76680000D03*
D14*
%TO.N,unconnected-(A1-3V3-Pad36)_1*%
X170505000Y-76680000D03*
D15*
%TO.P,A1,37,3V3_EN_37*%
%TO.N,unconnected-(A1-3V3_EN-Pad37)_1*%
X169705000Y-74140000D03*
D14*
%TO.N,unconnected-(A1-3V3_EN-Pad37)*%
X170505000Y-74140000D03*
D18*
%TO.P,A1,38,GND_38*%
%TO.N,GND*%
X169705000Y-71600000D03*
D12*
X170505000Y-71600000D03*
D15*
%TO.P,A1,39,VSYS_39*%
%TO.N,Net-(A1-VSYS)*%
X169705000Y-69060000D03*
D14*
X170505000Y-69060000D03*
D15*
%TO.P,A1,40,VBUS_40*%
%TO.N,unconnected-(A1-VBUS-Pad40)_1*%
X169705000Y-66520000D03*
D14*
%TO.N,unconnected-(A1-VBUS-Pad40)*%
X170505000Y-66520000D03*
%TD*%
%TO.N,Net-(A1-VSYS)*%
D19*
X171125685Y-69060000D02*
X170505000Y-69060000D01*
X177000000Y-74934315D02*
X171125685Y-69060000D01*
X177000000Y-77460000D02*
X177000000Y-74934315D01*
%TO.N,Net-(A1-GPIO0)*%
X153569682Y-68164682D02*
X151925000Y-66520000D01*
X163527804Y-68164682D02*
X153569682Y-68164682D01*
X171660000Y-70160000D02*
X165523122Y-70160000D01*
X175850000Y-74350000D02*
X171660000Y-70160000D01*
X175850000Y-78850000D02*
X175850000Y-74350000D01*
X177000000Y-80000000D02*
X175850000Y-78850000D01*
X165523122Y-70160000D02*
X163527804Y-68164682D01*
%TD*%
%TA.AperFunction,Conductor*%
%TO.N,GND*%
G36*
X170448039Y-71369685D02*
G01*
X170493794Y-71422489D01*
X170505000Y-71474000D01*
X170505000Y-71726000D01*
X170485315Y-71793039D01*
X170432511Y-71838794D01*
X170381000Y-71850000D01*
X170138012Y-71850000D01*
X170170925Y-71792993D01*
X170205000Y-71665826D01*
X170205000Y-71534174D01*
X170170925Y-71407007D01*
X170138012Y-71350000D01*
X170381000Y-71350000D01*
X170448039Y-71369685D01*
G37*
%TD.AperFunction*%
%TA.AperFunction,Conductor*%
G36*
X179192539Y-64520185D02*
G01*
X179238294Y-64572989D01*
X179249500Y-64624500D01*
X179249500Y-119625500D01*
X179229815Y-119692539D01*
X179177011Y-119738294D01*
X179125500Y-119749500D01*
X145624500Y-119749500D01*
X145557461Y-119729815D01*
X145511706Y-119677011D01*
X145500500Y-119625500D01*
X145500500Y-65880219D01*
X149019500Y-65880219D01*
X149019500Y-67159784D01*
X149022395Y-67213814D01*
X149022396Y-67213818D01*
X149057976Y-67353221D01*
X149057980Y-67353233D01*
X149088419Y-67426719D01*
X149088431Y-67426747D01*
X149111779Y-67475548D01*
X149111782Y-67475553D01*
X149150942Y-67527863D01*
X149198006Y-67590733D01*
X149198010Y-67590737D01*
X149198015Y-67590743D01*
X149254252Y-67646980D01*
X149254261Y-67646988D01*
X149254267Y-67646994D01*
X149258245Y-67650567D01*
X149294524Y-67683156D01*
X149294532Y-67683162D01*
X149418263Y-67756573D01*
X149418262Y-67756573D01*
X149432615Y-67762518D01*
X149491774Y-67787022D01*
X149519662Y-67796860D01*
X149576332Y-67837725D01*
X149601913Y-67902743D01*
X149588283Y-67971271D01*
X149549531Y-68015371D01*
X149485856Y-68059956D01*
X149324954Y-68220858D01*
X149194432Y-68407265D01*
X149194431Y-68407267D01*
X149098261Y-68613502D01*
X149098258Y-68613511D01*
X149039366Y-68833302D01*
X149039364Y-68833312D01*
X149024500Y-69003214D01*
X149024500Y-69116785D01*
X149039364Y-69286687D01*
X149039366Y-69286697D01*
X149098258Y-69506488D01*
X149098261Y-69506497D01*
X149194431Y-69712732D01*
X149194432Y-69712734D01*
X149324954Y-69899141D01*
X149485858Y-70060045D01*
X149485861Y-70060047D01*
X149672266Y-70190568D01*
X149724219Y-70214794D01*
X149776659Y-70260966D01*
X149795811Y-70328159D01*
X149775596Y-70395041D01*
X149730269Y-70436534D01*
X149665499Y-70471155D01*
X149665478Y-70471167D01*
X149534469Y-70558704D01*
X149534463Y-70558708D01*
X149457935Y-70621514D01*
X149346514Y-70732935D01*
X149283708Y-70809463D01*
X149283704Y-70809469D01*
X149196167Y-70940478D01*
X149196155Y-70940498D01*
X149149490Y-71027801D01*
X149089185Y-71173387D01*
X149060443Y-71268139D01*
X149060440Y-71268150D01*
X149044160Y-71349999D01*
X149044161Y-71350000D01*
X151491988Y-71350000D01*
X151459075Y-71407007D01*
X151425000Y-71534174D01*
X151425000Y-71665826D01*
X151459075Y-71792993D01*
X151491988Y-71850000D01*
X149044160Y-71850000D01*
X149060440Y-71931849D01*
X149060443Y-71931860D01*
X149089185Y-72026612D01*
X149149490Y-72172198D01*
X149196155Y-72259501D01*
X149196167Y-72259521D01*
X149283704Y-72390530D01*
X149283708Y-72390536D01*
X149346514Y-72467064D01*
X149457935Y-72578485D01*
X149534463Y-72641291D01*
X149534469Y-72641295D01*
X149665478Y-72728832D01*
X149665506Y-72728849D01*
X149730268Y-72763465D01*
X149780112Y-72812427D01*
X149795573Y-72880565D01*
X149771741Y-72946244D01*
X149724221Y-72985205D01*
X149672264Y-73009433D01*
X149485858Y-73139954D01*
X149324954Y-73300858D01*
X149194432Y-73487265D01*
X149194431Y-73487267D01*
X149098261Y-73693502D01*
X149098258Y-73693511D01*
X149039366Y-73913302D01*
X149039364Y-73913312D01*
X149024500Y-74083214D01*
X149024500Y-74196785D01*
X149039364Y-74366687D01*
X149039366Y-74366697D01*
X149098258Y-74586488D01*
X149098261Y-74586497D01*
X149194431Y-74792732D01*
X149194432Y-74792734D01*
X149324954Y-74979141D01*
X149485858Y-75140045D01*
X149485861Y-75140047D01*
X149672266Y-75270568D01*
X149730275Y-75297618D01*
X149782714Y-75343791D01*
X149801866Y-75410984D01*
X149781650Y-75477865D01*
X149730275Y-75522382D01*
X149672267Y-75549431D01*
X149672265Y-75549432D01*
X149485858Y-75679954D01*
X149324954Y-75840858D01*
X149194432Y-76027265D01*
X149194431Y-76027267D01*
X149098261Y-76233502D01*
X149098258Y-76233511D01*
X149039366Y-76453302D01*
X149039364Y-76453312D01*
X149024500Y-76623214D01*
X149024500Y-76736785D01*
X149039364Y-76906687D01*
X149039366Y-76906697D01*
X149098258Y-77126488D01*
X149098261Y-77126497D01*
X149194431Y-77332732D01*
X149194432Y-77332734D01*
X149324954Y-77519141D01*
X149485858Y-77680045D01*
X149485861Y-77680047D01*
X149672266Y-77810568D01*
X149730275Y-77837618D01*
X149782714Y-77883791D01*
X149801866Y-77950984D01*
X149781650Y-78017865D01*
X149730275Y-78062382D01*
X149672267Y-78089431D01*
X149672265Y-78089432D01*
X149485858Y-78219954D01*
X149324954Y-78380858D01*
X149194432Y-78567265D01*
X149194431Y-78567267D01*
X149098261Y-78773502D01*
X149098258Y-78773511D01*
X149039366Y-78993302D01*
X149039364Y-78993312D01*
X149024500Y-79163214D01*
X149024500Y-79276785D01*
X149039364Y-79446687D01*
X149039366Y-79446697D01*
X149098258Y-79666488D01*
X149098261Y-79666497D01*
X149194431Y-79872732D01*
X149194432Y-79872734D01*
X149324954Y-80059141D01*
X149485858Y-80220045D01*
X149485861Y-80220047D01*
X149672266Y-80350568D01*
X149730275Y-80377618D01*
X149782714Y-80423791D01*
X149801866Y-80490984D01*
X149781650Y-80557865D01*
X149730275Y-80602382D01*
X149672267Y-80629431D01*
X149672265Y-80629432D01*
X149485858Y-80759954D01*
X149324954Y-80920858D01*
X149194432Y-81107265D01*
X149194431Y-81107267D01*
X149098261Y-81313502D01*
X149098258Y-81313511D01*
X149039366Y-81533302D01*
X149039364Y-81533312D01*
X149024500Y-81703214D01*
X149024500Y-81816785D01*
X149039364Y-81986687D01*
X149039366Y-81986697D01*
X149098258Y-82206488D01*
X149098261Y-82206497D01*
X149194431Y-82412732D01*
X149194432Y-82412734D01*
X149324954Y-82599141D01*
X149485858Y-82760045D01*
X149485861Y-82760047D01*
X149672266Y-82890568D01*
X149724219Y-82914794D01*
X149776659Y-82960966D01*
X149795811Y-83028159D01*
X149775596Y-83095041D01*
X149730269Y-83136534D01*
X149665499Y-83171155D01*
X149665478Y-83171167D01*
X149534469Y-83258704D01*
X149534463Y-83258708D01*
X149457935Y-83321514D01*
X149346514Y-83432935D01*
X149283708Y-83509463D01*
X149283704Y-83509469D01*
X149196167Y-83640478D01*
X149196155Y-83640498D01*
X149149490Y-83727801D01*
X149089185Y-83873387D01*
X149060443Y-83968139D01*
X149060440Y-83968150D01*
X149044160Y-84049999D01*
X149044161Y-84050000D01*
X151491988Y-84050000D01*
X151459075Y-84107007D01*
X151425000Y-84234174D01*
X151425000Y-84365826D01*
X151459075Y-84492993D01*
X151491988Y-84550000D01*
X149044160Y-84550000D01*
X149060440Y-84631849D01*
X149060443Y-84631860D01*
X149089185Y-84726612D01*
X149149490Y-84872198D01*
X149196155Y-84959501D01*
X149196167Y-84959521D01*
X149283704Y-85090530D01*
X149283708Y-85090536D01*
X149346514Y-85167064D01*
X149457935Y-85278485D01*
X149534463Y-85341291D01*
X149534469Y-85341295D01*
X149665478Y-85428832D01*
X149665506Y-85428849D01*
X149730268Y-85463465D01*
X149780112Y-85512427D01*
X149795573Y-85580565D01*
X149771741Y-85646244D01*
X149724221Y-85685205D01*
X149672264Y-85709433D01*
X149485858Y-85839954D01*
X149324954Y-86000858D01*
X149194432Y-86187265D01*
X149194431Y-86187267D01*
X149098261Y-86393502D01*
X149098258Y-86393511D01*
X149039366Y-86613302D01*
X149039364Y-86613312D01*
X149024500Y-86783214D01*
X149024500Y-86896785D01*
X149039364Y-87066687D01*
X149039366Y-87066697D01*
X149098258Y-87286488D01*
X149098261Y-87286497D01*
X149194431Y-87492732D01*
X149194432Y-87492734D01*
X149324954Y-87679141D01*
X149485858Y-87840045D01*
X149485861Y-87840047D01*
X149672266Y-87970568D01*
X149730275Y-87997618D01*
X149782714Y-88043791D01*
X149801866Y-88110984D01*
X149781650Y-88177865D01*
X149730275Y-88222382D01*
X149672267Y-88249431D01*
X149672265Y-88249432D01*
X149485858Y-88379954D01*
X149324954Y-88540858D01*
X149194432Y-88727265D01*
X149194431Y-88727267D01*
X149098261Y-88933502D01*
X149098258Y-88933511D01*
X149039366Y-89153302D01*
X149039364Y-89153312D01*
X149024500Y-89323214D01*
X149024500Y-89436785D01*
X149039364Y-89606687D01*
X149039366Y-89606697D01*
X149098258Y-89826488D01*
X149098261Y-89826497D01*
X149194431Y-90032732D01*
X149194432Y-90032734D01*
X149324954Y-90219141D01*
X149485858Y-90380045D01*
X149485861Y-90380047D01*
X149672266Y-90510568D01*
X149730275Y-90537618D01*
X149782714Y-90583791D01*
X149801866Y-90650984D01*
X149781650Y-90717865D01*
X149730275Y-90762382D01*
X149672267Y-90789431D01*
X149672265Y-90789432D01*
X149485858Y-90919954D01*
X149324954Y-91080858D01*
X149194432Y-91267265D01*
X149194431Y-91267267D01*
X149098261Y-91473502D01*
X149098258Y-91473511D01*
X149039366Y-91693302D01*
X149039364Y-91693312D01*
X149024500Y-91863214D01*
X149024500Y-91976785D01*
X149039364Y-92146687D01*
X149039366Y-92146697D01*
X149098258Y-92366488D01*
X149098261Y-92366497D01*
X149194431Y-92572732D01*
X149194432Y-92572734D01*
X149324954Y-92759141D01*
X149485858Y-92920045D01*
X149485861Y-92920047D01*
X149672266Y-93050568D01*
X149730275Y-93077618D01*
X149782714Y-93123791D01*
X149801866Y-93190984D01*
X149781650Y-93257865D01*
X149730275Y-93302382D01*
X149672267Y-93329431D01*
X149672265Y-93329432D01*
X149485858Y-93459954D01*
X149324954Y-93620858D01*
X149194432Y-93807265D01*
X149194431Y-93807267D01*
X149098261Y-94013502D01*
X149098258Y-94013511D01*
X149039366Y-94233302D01*
X149039364Y-94233312D01*
X149024500Y-94403214D01*
X149024500Y-94516785D01*
X149039364Y-94686687D01*
X149039366Y-94686697D01*
X149098258Y-94906488D01*
X149098261Y-94906497D01*
X149194431Y-95112732D01*
X149194432Y-95112734D01*
X149324954Y-95299141D01*
X149485858Y-95460045D01*
X149485861Y-95460047D01*
X149672266Y-95590568D01*
X149724219Y-95614794D01*
X149776659Y-95660966D01*
X149795811Y-95728159D01*
X149775596Y-95795041D01*
X149730269Y-95836534D01*
X149665499Y-95871155D01*
X149665478Y-95871167D01*
X149534469Y-95958704D01*
X149534463Y-95958708D01*
X149457935Y-96021514D01*
X149346514Y-96132935D01*
X149283708Y-96209463D01*
X149283704Y-96209469D01*
X149196167Y-96340478D01*
X149196155Y-96340498D01*
X149149490Y-96427801D01*
X149089185Y-96573387D01*
X149060443Y-96668139D01*
X149060440Y-96668150D01*
X149044160Y-96749999D01*
X149044161Y-96750000D01*
X151491988Y-96750000D01*
X151459075Y-96807007D01*
X151425000Y-96934174D01*
X151425000Y-97065826D01*
X151459075Y-97192993D01*
X151491988Y-97250000D01*
X149044160Y-97250000D01*
X149060440Y-97331849D01*
X149060443Y-97331860D01*
X149089185Y-97426612D01*
X149149490Y-97572198D01*
X149196155Y-97659501D01*
X149196167Y-97659521D01*
X149283704Y-97790530D01*
X149283708Y-97790536D01*
X149346514Y-97867064D01*
X149457935Y-97978485D01*
X149534463Y-98041291D01*
X149534469Y-98041295D01*
X149665478Y-98128832D01*
X149665506Y-98128849D01*
X149730268Y-98163465D01*
X149780112Y-98212427D01*
X149795573Y-98280565D01*
X149771741Y-98346244D01*
X149724221Y-98385205D01*
X149672264Y-98409433D01*
X149485858Y-98539954D01*
X149324954Y-98700858D01*
X149194432Y-98887265D01*
X149194431Y-98887267D01*
X149098261Y-99093502D01*
X149098258Y-99093511D01*
X149039366Y-99313302D01*
X149039364Y-99313312D01*
X149024500Y-99483214D01*
X149024500Y-99596785D01*
X149039364Y-99766687D01*
X149039366Y-99766697D01*
X149098258Y-99986488D01*
X149098261Y-99986497D01*
X149194431Y-100192732D01*
X149194432Y-100192734D01*
X149324954Y-100379141D01*
X149485858Y-100540045D01*
X149485861Y-100540047D01*
X149672266Y-100670568D01*
X149730275Y-100697618D01*
X149782714Y-100743791D01*
X149801866Y-100810984D01*
X149781650Y-100877865D01*
X149730275Y-100922382D01*
X149672267Y-100949431D01*
X149672265Y-100949432D01*
X149485858Y-101079954D01*
X149324954Y-101240858D01*
X149194432Y-101427265D01*
X149194431Y-101427267D01*
X149098261Y-101633502D01*
X149098258Y-101633511D01*
X149039366Y-101853302D01*
X149039364Y-101853312D01*
X149024500Y-102023214D01*
X149024500Y-102136785D01*
X149039364Y-102306687D01*
X149039366Y-102306697D01*
X149098258Y-102526488D01*
X149098261Y-102526497D01*
X149194431Y-102732732D01*
X149194432Y-102732734D01*
X149324954Y-102919141D01*
X149485858Y-103080045D01*
X149485861Y-103080047D01*
X149672266Y-103210568D01*
X149730275Y-103237618D01*
X149782714Y-103283791D01*
X149801866Y-103350984D01*
X149781650Y-103417865D01*
X149730275Y-103462382D01*
X149672267Y-103489431D01*
X149672265Y-103489432D01*
X149485858Y-103619954D01*
X149324954Y-103780858D01*
X149194432Y-103967265D01*
X149194431Y-103967267D01*
X149098261Y-104173502D01*
X149098258Y-104173511D01*
X149039366Y-104393302D01*
X149039364Y-104393312D01*
X149024500Y-104563214D01*
X149024500Y-104676785D01*
X149039364Y-104846687D01*
X149039366Y-104846697D01*
X149098258Y-105066488D01*
X149098261Y-105066497D01*
X149194431Y-105272732D01*
X149194432Y-105272734D01*
X149324954Y-105459141D01*
X149485858Y-105620045D01*
X149485861Y-105620047D01*
X149672266Y-105750568D01*
X149730275Y-105777618D01*
X149782714Y-105823791D01*
X149801866Y-105890984D01*
X149781650Y-105957865D01*
X149730275Y-106002382D01*
X149672267Y-106029431D01*
X149672265Y-106029432D01*
X149485858Y-106159954D01*
X149324954Y-106320858D01*
X149194432Y-106507265D01*
X149194431Y-106507267D01*
X149098261Y-106713502D01*
X149098258Y-106713511D01*
X149039366Y-106933302D01*
X149039364Y-106933312D01*
X149024500Y-107103214D01*
X149024500Y-107216785D01*
X149039364Y-107386687D01*
X149039366Y-107386697D01*
X149098258Y-107606488D01*
X149098261Y-107606497D01*
X149194431Y-107812732D01*
X149194432Y-107812734D01*
X149324954Y-107999141D01*
X149485858Y-108160045D01*
X149485861Y-108160047D01*
X149672266Y-108290568D01*
X149724219Y-108314794D01*
X149776659Y-108360966D01*
X149795811Y-108428159D01*
X149775596Y-108495041D01*
X149730269Y-108536534D01*
X149665499Y-108571155D01*
X149665478Y-108571167D01*
X149534469Y-108658704D01*
X149534463Y-108658708D01*
X149457935Y-108721514D01*
X149346514Y-108832935D01*
X149283708Y-108909463D01*
X149283704Y-108909469D01*
X149196167Y-109040478D01*
X149196155Y-109040498D01*
X149149490Y-109127801D01*
X149089185Y-109273387D01*
X149060443Y-109368139D01*
X149060440Y-109368150D01*
X149044160Y-109449999D01*
X149044161Y-109450000D01*
X151491988Y-109450000D01*
X151459075Y-109507007D01*
X151425000Y-109634174D01*
X151425000Y-109765826D01*
X151459075Y-109892993D01*
X151491988Y-109950000D01*
X149044160Y-109950000D01*
X149060440Y-110031849D01*
X149060443Y-110031860D01*
X149089185Y-110126612D01*
X149149490Y-110272198D01*
X149196155Y-110359501D01*
X149196167Y-110359521D01*
X149283704Y-110490530D01*
X149283708Y-110490536D01*
X149346514Y-110567064D01*
X149457935Y-110678485D01*
X149534463Y-110741291D01*
X149534469Y-110741295D01*
X149665478Y-110828832D01*
X149665506Y-110828849D01*
X149730268Y-110863465D01*
X149780112Y-110912427D01*
X149795573Y-110980565D01*
X149771741Y-111046244D01*
X149724221Y-111085205D01*
X149672264Y-111109433D01*
X149485858Y-111239954D01*
X149324954Y-111400858D01*
X149194432Y-111587265D01*
X149194431Y-111587267D01*
X149098261Y-111793502D01*
X149098258Y-111793511D01*
X149039366Y-112013302D01*
X149039364Y-112013312D01*
X149024500Y-112183214D01*
X149024500Y-112296785D01*
X149039364Y-112466687D01*
X149039366Y-112466697D01*
X149098258Y-112686488D01*
X149098261Y-112686497D01*
X149194431Y-112892732D01*
X149194432Y-112892734D01*
X149324954Y-113079141D01*
X149485858Y-113240045D01*
X149485861Y-113240047D01*
X149672266Y-113370568D01*
X149730275Y-113397618D01*
X149782714Y-113443791D01*
X149801866Y-113510984D01*
X149781650Y-113577865D01*
X149730275Y-113622382D01*
X149672267Y-113649431D01*
X149672265Y-113649432D01*
X149485858Y-113779954D01*
X149324954Y-113940858D01*
X149194432Y-114127265D01*
X149194431Y-114127267D01*
X149098261Y-114333502D01*
X149098258Y-114333511D01*
X149039366Y-114553302D01*
X149039364Y-114553312D01*
X149024500Y-114723214D01*
X149024500Y-114836785D01*
X149039364Y-115006687D01*
X149039366Y-115006697D01*
X149098258Y-115226488D01*
X149098261Y-115226497D01*
X149194431Y-115432732D01*
X149194432Y-115432734D01*
X149324954Y-115619141D01*
X149485858Y-115780045D01*
X149485861Y-115780047D01*
X149672266Y-115910568D01*
X149878504Y-116006739D01*
X150098308Y-116065635D01*
X150268214Y-116080499D01*
X150268215Y-116080500D01*
X150268216Y-116080500D01*
X152027350Y-116080500D01*
X152027352Y-116080500D01*
X152079308Y-116072270D01*
X152083582Y-116071592D01*
X152151692Y-116065635D01*
X152195766Y-116053825D01*
X152229534Y-116048477D01*
X152291404Y-116028373D01*
X152297617Y-116026534D01*
X152371490Y-116006741D01*
X152371492Y-116006739D01*
X152371496Y-116006739D01*
X152402532Y-115992266D01*
X152424219Y-115985220D01*
X152495172Y-115949067D01*
X152577734Y-115910568D01*
X152596446Y-115897465D01*
X152606610Y-115892287D01*
X152680199Y-115838821D01*
X152764139Y-115780047D01*
X152925047Y-115619139D01*
X152983821Y-115535199D01*
X153037287Y-115461610D01*
X153042465Y-115451446D01*
X153055568Y-115432734D01*
X153094067Y-115350172D01*
X153130220Y-115279219D01*
X153137266Y-115257532D01*
X153151739Y-115226496D01*
X153151742Y-115226488D01*
X153171534Y-115152617D01*
X153172377Y-115149471D01*
X153193477Y-115084534D01*
X153198825Y-115050766D01*
X153210635Y-115006692D01*
X153216215Y-114942892D01*
X153217270Y-114934306D01*
X153225500Y-114882350D01*
X153225500Y-114677649D01*
X153217270Y-114625691D01*
X153217270Y-114625690D01*
X153216592Y-114621414D01*
X153210635Y-114553308D01*
X153198825Y-114509233D01*
X153193477Y-114475466D01*
X153173378Y-114413609D01*
X153171535Y-114407386D01*
X153151742Y-114333513D01*
X153151740Y-114333510D01*
X153151739Y-114333504D01*
X153137266Y-114302467D01*
X153130220Y-114280781D01*
X153094067Y-114209827D01*
X153055568Y-114127266D01*
X153047436Y-114115652D01*
X153047436Y-114115651D01*
X153042462Y-114108548D01*
X153037287Y-114098390D01*
X152983821Y-114024800D01*
X152983215Y-114023935D01*
X152983205Y-114023920D01*
X152925045Y-113940858D01*
X152764140Y-113779953D01*
X152681078Y-113721793D01*
X152680180Y-113721164D01*
X152606610Y-113667713D01*
X152596448Y-113662535D01*
X152589346Y-113657562D01*
X152577736Y-113649433D01*
X152577727Y-113649429D01*
X152519723Y-113622380D01*
X152509066Y-113612996D01*
X152495866Y-113607773D01*
X152483368Y-113590369D01*
X152467285Y-113576208D01*
X152463393Y-113562552D01*
X152455112Y-113551021D01*
X152454007Y-113529621D01*
X152448134Y-113509014D01*
X152452241Y-113495423D01*
X152451510Y-113481244D01*
X152462149Y-113462644D01*
X152468350Y-113442133D01*
X152479830Y-113431737D01*
X152486204Y-113420597D01*
X152510623Y-113403856D01*
X152514872Y-113400010D01*
X152517252Y-113398770D01*
X152577734Y-113370568D01*
X152596002Y-113357775D01*
X152603207Y-113354025D01*
X152603416Y-113353983D01*
X152604180Y-113353524D01*
X152606610Y-113352287D01*
X152679358Y-113299432D01*
X152681047Y-113298227D01*
X152764139Y-113240047D01*
X152925047Y-113079139D01*
X152983821Y-112995199D01*
X153037287Y-112921610D01*
X153042465Y-112911446D01*
X153055568Y-112892734D01*
X153094067Y-112810172D01*
X153130220Y-112739219D01*
X153137266Y-112717532D01*
X153151739Y-112686496D01*
X153151742Y-112686488D01*
X153171534Y-112612617D01*
X153172377Y-112609471D01*
X153193477Y-112544534D01*
X153198825Y-112510766D01*
X153210635Y-112466692D01*
X153216215Y-112402892D01*
X153217270Y-112394306D01*
X153225500Y-112342350D01*
X153225500Y-112137649D01*
X153217270Y-112085691D01*
X153217270Y-112085690D01*
X153216592Y-112081414D01*
X153210635Y-112013308D01*
X153204361Y-111989895D01*
X153715000Y-111989895D01*
X157227057Y-114717343D01*
X157267931Y-114774007D01*
X157275000Y-114815277D01*
X157275000Y-116150005D01*
X157275461Y-116193634D01*
X157275461Y-116193638D01*
X157283068Y-116280582D01*
X157283071Y-116280602D01*
X157298223Y-116366536D01*
X157298227Y-116366553D01*
X157320812Y-116450846D01*
X157320815Y-116450854D01*
X157350661Y-116532859D01*
X157350668Y-116532876D01*
X157387549Y-116611965D01*
X157387554Y-116611975D01*
X157431195Y-116687563D01*
X157481252Y-116759052D01*
X157481254Y-116759054D01*
X157481259Y-116759061D01*
X157537364Y-116825926D01*
X157599073Y-116887635D01*
X157599078Y-116887639D01*
X157665940Y-116943742D01*
X157737437Y-116993805D01*
X157813025Y-117037446D01*
X157813034Y-117037450D01*
X157892123Y-117074331D01*
X157892140Y-117074338D01*
X157956555Y-117097782D01*
X157974147Y-117104185D01*
X157974149Y-117104185D01*
X157974153Y-117104187D01*
X158000635Y-117111282D01*
X158058454Y-117126775D01*
X158144410Y-117141931D01*
X158231359Y-117149538D01*
X158275000Y-117150000D01*
X158318641Y-117149538D01*
X158405590Y-117141931D01*
X158491546Y-117126775D01*
X158575853Y-117104185D01*
X158616974Y-117089217D01*
X158657859Y-117074338D01*
X158657876Y-117074331D01*
X158684239Y-117062037D01*
X158736975Y-117037446D01*
X158812563Y-116993805D01*
X158884060Y-116943742D01*
X158950922Y-116887639D01*
X159012639Y-116825922D01*
X159068742Y-116759060D01*
X159108083Y-116702876D01*
X159162659Y-116659252D01*
X159209657Y-116650000D01*
X159880343Y-116650000D01*
X159947382Y-116669685D01*
X159981918Y-116702877D01*
X160021246Y-116759044D01*
X160021259Y-116759061D01*
X160077364Y-116825926D01*
X160139073Y-116887635D01*
X160139078Y-116887639D01*
X160205940Y-116943742D01*
X160277437Y-116993805D01*
X160353025Y-117037446D01*
X160353034Y-117037450D01*
X160432123Y-117074331D01*
X160432140Y-117074338D01*
X160496555Y-117097782D01*
X160514147Y-117104185D01*
X160514149Y-117104185D01*
X160514153Y-117104187D01*
X160540635Y-117111282D01*
X160598454Y-117126775D01*
X160684410Y-117141931D01*
X160771359Y-117149538D01*
X160815000Y-117150000D01*
X160858640Y-117149524D01*
X160945588Y-117141917D01*
X161031543Y-117126761D01*
X161115849Y-117104171D01*
X161197866Y-117074320D01*
X161276969Y-117037433D01*
X161352556Y-116993793D01*
X161424052Y-116943731D01*
X161490912Y-116887629D01*
X161552629Y-116825912D01*
X161608731Y-116759052D01*
X161648065Y-116702876D01*
X161702641Y-116659252D01*
X161749640Y-116650000D01*
X162420536Y-116650000D01*
X162487575Y-116669685D01*
X162522110Y-116702875D01*
X162561398Y-116758984D01*
X162561400Y-116758986D01*
X162617505Y-116825851D01*
X162679214Y-116887560D01*
X162679308Y-116887639D01*
X162746081Y-116943667D01*
X162817578Y-116993730D01*
X162893166Y-117037371D01*
X162908822Y-117044671D01*
X162972264Y-117074256D01*
X162972281Y-117074263D01*
X163036696Y-117097707D01*
X163054288Y-117104110D01*
X163054290Y-117104110D01*
X163054294Y-117104112D01*
X163080776Y-117111207D01*
X163138595Y-117126700D01*
X163224551Y-117141856D01*
X163311500Y-117149463D01*
X163355141Y-117149925D01*
X163398782Y-117149463D01*
X163485731Y-117141856D01*
X163571686Y-117126699D01*
X163655702Y-117104187D01*
X163655986Y-117104111D01*
X163655987Y-117104110D01*
X163655993Y-117104109D01*
X163697114Y-117089141D01*
X163737999Y-117074262D01*
X163738025Y-117074251D01*
X163763151Y-117062533D01*
X163817115Y-117037370D01*
X163817124Y-117037364D01*
X163817132Y-117037361D01*
X163892570Y-116993805D01*
X163892702Y-116993729D01*
X163892718Y-116993717D01*
X163892724Y-116993714D01*
X163964106Y-116943731D01*
X163964199Y-116943666D01*
X164031060Y-116887563D01*
X164092777Y-116825846D01*
X164148880Y-116758984D01*
X164198942Y-116687487D01*
X164242583Y-116611899D01*
X164279469Y-116532795D01*
X164309321Y-116450778D01*
X164309323Y-116450770D01*
X164309325Y-116450765D01*
X164317508Y-116420221D01*
X164331910Y-116366470D01*
X164347066Y-116280515D01*
X164354673Y-116193566D01*
X164355141Y-116149925D01*
X164355141Y-114815168D01*
X164374826Y-114748129D01*
X164403082Y-114717235D01*
X167915000Y-111989895D01*
X167915000Y-110339785D01*
X168400000Y-110339785D01*
X168402893Y-110393762D01*
X168402893Y-110393764D01*
X168438438Y-110533030D01*
X168438440Y-110533037D01*
X168461863Y-110589583D01*
X169101447Y-109950000D01*
X168400000Y-109950000D01*
X168400000Y-110339785D01*
X167915000Y-110339785D01*
X167915000Y-109060219D01*
X168400000Y-109060219D01*
X168400000Y-109450000D01*
X169101447Y-109450000D01*
X169101447Y-109449999D01*
X168461862Y-108810415D01*
X168438449Y-108866940D01*
X168420455Y-108917946D01*
X168400000Y-109060219D01*
X167915000Y-109060219D01*
X167915000Y-107650000D01*
X153715000Y-107650000D01*
X153715000Y-111989895D01*
X153204361Y-111989895D01*
X153198825Y-111969233D01*
X153193477Y-111935466D01*
X153173378Y-111873609D01*
X153171535Y-111867386D01*
X153151742Y-111793513D01*
X153151740Y-111793510D01*
X153151739Y-111793504D01*
X153137266Y-111762467D01*
X153130220Y-111740781D01*
X153094067Y-111669827D01*
X153055568Y-111587266D01*
X153047436Y-111575652D01*
X153047436Y-111575651D01*
X153042462Y-111568548D01*
X153037287Y-111558390D01*
X152983821Y-111484800D01*
X152983215Y-111483935D01*
X152983205Y-111483920D01*
X152925045Y-111400858D01*
X152764143Y-111239956D01*
X152697620Y-111193376D01*
X152653996Y-111138799D01*
X152646803Y-111069300D01*
X152678325Y-111006946D01*
X152738082Y-110971652D01*
X152758025Y-110966562D01*
X152758035Y-110966559D01*
X152814582Y-110943135D01*
X152054409Y-110182962D01*
X152117993Y-110165925D01*
X152232007Y-110100099D01*
X152325099Y-110007007D01*
X152358012Y-109950000D01*
X152528552Y-109950000D01*
X153168135Y-110589582D01*
X153168137Y-110589582D01*
X153191552Y-110533053D01*
X153209544Y-110482053D01*
X153229999Y-110339780D01*
X153230000Y-110339779D01*
X153230000Y-109950000D01*
X152528552Y-109950000D01*
X152358012Y-109950000D01*
X152390925Y-109892993D01*
X152425000Y-109765826D01*
X152425000Y-109634174D01*
X152390925Y-109507007D01*
X152358011Y-109449999D01*
X152528552Y-109449999D01*
X152528553Y-109450000D01*
X153230000Y-109450000D01*
X153230000Y-109060214D01*
X153227106Y-109006237D01*
X153227106Y-109006235D01*
X153191558Y-108866960D01*
X153168136Y-108810415D01*
X153168135Y-108810415D01*
X152528552Y-109449999D01*
X152358011Y-109449999D01*
X152325099Y-109392993D01*
X152232007Y-109299901D01*
X152117993Y-109234075D01*
X152054409Y-109217037D01*
X152814583Y-108456863D01*
X152814583Y-108456862D01*
X152758052Y-108433447D01*
X152758024Y-108433436D01*
X152729834Y-108423491D01*
X152673163Y-108382624D01*
X152647582Y-108317605D01*
X152661214Y-108249078D01*
X152699965Y-108204980D01*
X152764139Y-108160047D01*
X152925047Y-107999139D01*
X152983821Y-107915199D01*
X153037287Y-107841610D01*
X153042465Y-107831446D01*
X153055568Y-107812734D01*
X153094067Y-107730172D01*
X153130220Y-107659219D01*
X153137266Y-107637532D01*
X153151739Y-107606496D01*
X153171539Y-107532600D01*
X153173378Y-107526389D01*
X153173382Y-107526378D01*
X153193477Y-107464534D01*
X153197810Y-107437171D01*
X153200505Y-107424496D01*
X153210635Y-107386692D01*
X153216215Y-107322892D01*
X153217270Y-107314306D01*
X153225500Y-107262350D01*
X153225500Y-107057649D01*
X153217270Y-107005691D01*
X153217270Y-107005690D01*
X153216592Y-107001414D01*
X153210635Y-106933308D01*
X153198825Y-106889233D01*
X153193477Y-106855466D01*
X153173378Y-106793609D01*
X153171535Y-106787386D01*
X153151742Y-106713513D01*
X153151740Y-106713510D01*
X153151739Y-106713504D01*
X153137266Y-106682467D01*
X153130220Y-106660781D01*
X153094067Y-106589827D01*
X153055568Y-106507266D01*
X153047436Y-106495652D01*
X153047436Y-106495651D01*
X153042462Y-106488548D01*
X153037287Y-106478390D01*
X152983821Y-106404800D01*
X152983215Y-106403935D01*
X152983205Y-106403920D01*
X152925045Y-106320858D01*
X152764140Y-106159953D01*
X152681078Y-106101793D01*
X152680180Y-106101164D01*
X152606610Y-106047713D01*
X152596448Y-106042535D01*
X152589346Y-106037562D01*
X152577736Y-106029433D01*
X152577727Y-106029429D01*
X152519723Y-106002380D01*
X152509066Y-105992996D01*
X152495866Y-105987773D01*
X152483368Y-105970369D01*
X152467285Y-105956208D01*
X152463393Y-105942552D01*
X152455112Y-105931021D01*
X152454007Y-105909621D01*
X152448134Y-105889014D01*
X152452241Y-105875423D01*
X152451510Y-105861244D01*
X152462149Y-105842644D01*
X152468350Y-105822133D01*
X152479830Y-105811737D01*
X152486204Y-105800597D01*
X152510623Y-105783856D01*
X152514872Y-105780010D01*
X152517252Y-105778770D01*
X152577734Y-105750568D01*
X152596002Y-105737775D01*
X152603207Y-105734025D01*
X152603416Y-105733983D01*
X152604180Y-105733524D01*
X152606610Y-105732287D01*
X152679358Y-105679432D01*
X152681047Y-105678227D01*
X152764139Y-105620047D01*
X152925047Y-105459139D01*
X152983821Y-105375199D01*
X153037287Y-105301610D01*
X153042465Y-105291446D01*
X153055568Y-105272734D01*
X153094067Y-105190172D01*
X153130220Y-105119219D01*
X153137266Y-105097532D01*
X153151739Y-105066496D01*
X153151742Y-105066488D01*
X153171534Y-104992617D01*
X153172377Y-104989471D01*
X153193477Y-104924534D01*
X153198825Y-104890766D01*
X153210635Y-104846692D01*
X153216215Y-104782892D01*
X153217270Y-104774306D01*
X153225500Y-104722350D01*
X153225500Y-104517649D01*
X153217270Y-104465691D01*
X153217270Y-104465690D01*
X153216592Y-104461414D01*
X153210635Y-104393308D01*
X153198825Y-104349233D01*
X153193477Y-104315466D01*
X153173378Y-104253609D01*
X153171535Y-104247386D01*
X153151742Y-104173513D01*
X153151740Y-104173510D01*
X153151739Y-104173504D01*
X153137266Y-104142467D01*
X153130220Y-104120781D01*
X153094067Y-104049827D01*
X153055568Y-103967266D01*
X153047436Y-103955652D01*
X153047436Y-103955651D01*
X153042462Y-103948548D01*
X153037287Y-103938390D01*
X152983821Y-103864800D01*
X152983215Y-103863935D01*
X152983205Y-103863920D01*
X152925045Y-103780858D01*
X152764140Y-103619953D01*
X152681078Y-103561793D01*
X152680180Y-103561164D01*
X152606610Y-103507713D01*
X152596448Y-103502535D01*
X152589346Y-103497562D01*
X152577736Y-103489433D01*
X152577727Y-103489429D01*
X152519723Y-103462380D01*
X152509066Y-103452996D01*
X152495866Y-103447773D01*
X152483368Y-103430369D01*
X152467285Y-103416208D01*
X152463393Y-103402552D01*
X152455112Y-103391021D01*
X152454007Y-103369621D01*
X152448134Y-103349014D01*
X152452241Y-103335423D01*
X152451510Y-103321244D01*
X152462149Y-103302644D01*
X152468350Y-103282133D01*
X152479830Y-103271737D01*
X152486204Y-103260597D01*
X152510623Y-103243856D01*
X152514872Y-103240010D01*
X152517252Y-103238770D01*
X152577734Y-103210568D01*
X152596002Y-103197775D01*
X152603207Y-103194025D01*
X152603416Y-103193983D01*
X152604180Y-103193524D01*
X152606610Y-103192287D01*
X152679358Y-103139432D01*
X152681047Y-103138227D01*
X152764139Y-103080047D01*
X152925047Y-102919139D01*
X152983821Y-102835199D01*
X153037287Y-102761610D01*
X153042465Y-102751446D01*
X153055568Y-102732734D01*
X153094067Y-102650172D01*
X153130220Y-102579219D01*
X153137266Y-102557532D01*
X153151739Y-102526496D01*
X153151742Y-102526488D01*
X153171534Y-102452617D01*
X153172377Y-102449471D01*
X153193477Y-102384534D01*
X153198825Y-102350766D01*
X153210635Y-102306692D01*
X153216215Y-102242892D01*
X153217270Y-102234306D01*
X153225500Y-102182350D01*
X153225500Y-101977649D01*
X153217270Y-101925691D01*
X153217270Y-101925690D01*
X153216592Y-101921414D01*
X153210635Y-101853308D01*
X153198825Y-101809233D01*
X153193477Y-101775466D01*
X153173378Y-101713609D01*
X153171535Y-101707386D01*
X153151742Y-101633513D01*
X153151740Y-101633510D01*
X153151739Y-101633504D01*
X153137266Y-101602467D01*
X153130220Y-101580781D01*
X153094067Y-101509827D01*
X153055568Y-101427266D01*
X153047436Y-101415652D01*
X153047436Y-101415651D01*
X153042462Y-101408548D01*
X153037287Y-101398390D01*
X152983821Y-101324800D01*
X152983215Y-101323935D01*
X152983205Y-101323920D01*
X152925045Y-101240858D01*
X152764140Y-101079953D01*
X152681078Y-101021793D01*
X152680180Y-101021164D01*
X152606610Y-100967713D01*
X152596448Y-100962535D01*
X152589346Y-100957562D01*
X152577736Y-100949433D01*
X152577727Y-100949429D01*
X152519723Y-100922380D01*
X152509066Y-100912996D01*
X152495866Y-100907773D01*
X152483368Y-100890369D01*
X152467285Y-100876208D01*
X152463393Y-100862552D01*
X152455112Y-100851021D01*
X152454007Y-100829621D01*
X152448134Y-100809014D01*
X152452241Y-100795423D01*
X152451510Y-100781244D01*
X152462149Y-100762644D01*
X152468350Y-100742133D01*
X152479830Y-100731737D01*
X152486204Y-100720597D01*
X152510623Y-100703856D01*
X152514872Y-100700010D01*
X152517252Y-100698770D01*
X152577734Y-100670568D01*
X152596002Y-100657775D01*
X152603207Y-100654025D01*
X152603416Y-100653983D01*
X152604180Y-100653524D01*
X152606610Y-100652287D01*
X152679358Y-100599432D01*
X152681047Y-100598227D01*
X152764139Y-100540047D01*
X152925047Y-100379139D01*
X152983821Y-100295199D01*
X153037287Y-100221610D01*
X153042465Y-100211446D01*
X153055568Y-100192734D01*
X153094067Y-100110172D01*
X153130220Y-100039219D01*
X153137266Y-100017532D01*
X153151739Y-99986496D01*
X153151742Y-99986488D01*
X153171534Y-99912617D01*
X153172377Y-99909471D01*
X153193477Y-99844534D01*
X153198825Y-99810766D01*
X153210635Y-99766692D01*
X153216215Y-99702892D01*
X153217270Y-99694306D01*
X153225500Y-99642350D01*
X153225500Y-99441827D01*
X153225500Y-99437648D01*
X153217155Y-99384967D01*
X153217057Y-99384297D01*
X153217079Y-99384138D01*
X153216215Y-99377098D01*
X153210635Y-99313308D01*
X153198825Y-99269233D01*
X153193477Y-99235466D01*
X153172377Y-99170528D01*
X153168072Y-99154462D01*
X153151742Y-99093513D01*
X153151740Y-99093510D01*
X153151739Y-99093504D01*
X153137266Y-99062467D01*
X153130220Y-99040781D01*
X153094067Y-98969827D01*
X153055568Y-98887266D01*
X153047436Y-98875652D01*
X153047436Y-98875651D01*
X153042462Y-98868548D01*
X153037287Y-98858390D01*
X152983821Y-98784800D01*
X152983215Y-98783935D01*
X152983205Y-98783920D01*
X152925045Y-98700858D01*
X152764143Y-98539956D01*
X152697620Y-98493376D01*
X152653996Y-98438799D01*
X152646803Y-98369300D01*
X152678325Y-98306946D01*
X152738082Y-98271652D01*
X152758025Y-98266562D01*
X152758035Y-98266559D01*
X152814582Y-98243135D01*
X152054409Y-97482962D01*
X152117993Y-97465925D01*
X152232007Y-97400099D01*
X152325099Y-97307007D01*
X152358012Y-97250000D01*
X152528552Y-97250000D01*
X153168135Y-97889582D01*
X153168137Y-97889582D01*
X153191552Y-97833053D01*
X153209544Y-97782053D01*
X153229998Y-97639785D01*
X168400000Y-97639785D01*
X168402893Y-97693762D01*
X168402893Y-97693764D01*
X168438438Y-97833030D01*
X168438440Y-97833037D01*
X168461863Y-97889583D01*
X169101447Y-97250000D01*
X168400000Y-97250000D01*
X168400000Y-97639785D01*
X153229998Y-97639785D01*
X153229999Y-97639780D01*
X153230000Y-97639779D01*
X153230000Y-97250000D01*
X152528552Y-97250000D01*
X152358012Y-97250000D01*
X152390925Y-97192993D01*
X152425000Y-97065826D01*
X152425000Y-96934174D01*
X152390925Y-96807007D01*
X152358011Y-96749999D01*
X152528552Y-96749999D01*
X152528553Y-96750000D01*
X153230000Y-96750000D01*
X153230000Y-96360214D01*
X153227106Y-96306237D01*
X153227106Y-96306235D01*
X153191558Y-96166960D01*
X153168136Y-96110415D01*
X153168135Y-96110415D01*
X152528552Y-96749999D01*
X152358011Y-96749999D01*
X152325099Y-96692993D01*
X152232007Y-96599901D01*
X152117993Y-96534075D01*
X152054409Y-96517037D01*
X152814583Y-95756863D01*
X152814583Y-95756862D01*
X152758052Y-95733447D01*
X152758024Y-95733436D01*
X152729834Y-95723491D01*
X152719998Y-95716398D01*
X152708237Y-95713446D01*
X152692186Y-95696342D01*
X152673163Y-95682624D01*
X152668723Y-95671339D01*
X152660425Y-95662497D01*
X152656169Y-95639431D01*
X152647582Y-95617605D01*
X152649948Y-95605711D01*
X152647748Y-95593787D01*
X152656637Y-95572083D01*
X152658524Y-95562600D01*
X160411700Y-95562600D01*
X160411700Y-97137400D01*
X160413622Y-97176800D01*
X160428700Y-97213201D01*
X160443778Y-97249603D01*
X160499496Y-97305321D01*
X160499497Y-97305321D01*
X160499498Y-97305322D01*
X160572300Y-97335478D01*
X160611700Y-97337400D01*
X160611715Y-97337400D01*
X162186485Y-97337400D01*
X162186500Y-97337400D01*
X162225900Y-97335478D01*
X162298702Y-97305323D01*
X162354423Y-97249602D01*
X162384578Y-97176800D01*
X162386500Y-97137400D01*
X162386500Y-96336146D01*
X162947019Y-96336146D01*
X162947019Y-96336153D01*
X162963221Y-96529101D01*
X162963222Y-96529107D01*
X163016596Y-96715245D01*
X163105108Y-96887471D01*
X163225387Y-97039225D01*
X163372851Y-97164726D01*
X163372854Y-97164728D01*
X163372857Y-97164730D01*
X163423428Y-97192993D01*
X163541882Y-97259195D01*
X163726044Y-97319033D01*
X163918321Y-97341960D01*
X164111390Y-97327105D01*
X164297896Y-97275031D01*
X164470736Y-97187724D01*
X164623325Y-97068507D01*
X164749853Y-96921923D01*
X164845500Y-96753555D01*
X164906622Y-96569816D01*
X164930891Y-96377703D01*
X164931278Y-96350000D01*
X164929920Y-96336146D01*
X165487019Y-96336146D01*
X165487019Y-96336153D01*
X165503221Y-96529101D01*
X165503222Y-96529107D01*
X165556596Y-96715245D01*
X165645108Y-96887471D01*
X165765387Y-97039225D01*
X165912851Y-97164726D01*
X165912854Y-97164728D01*
X165912857Y-97164730D01*
X165963428Y-97192993D01*
X166081882Y-97259195D01*
X166266044Y-97319033D01*
X166458321Y-97341960D01*
X166651390Y-97327105D01*
X166837896Y-97275031D01*
X167010736Y-97187724D01*
X167163325Y-97068507D01*
X167289853Y-96921923D01*
X167385500Y-96753555D01*
X167446622Y-96569816D01*
X167470891Y-96377703D01*
X167471135Y-96360219D01*
X168400000Y-96360219D01*
X168400000Y-96750000D01*
X169101447Y-96750000D01*
X169101447Y-96749999D01*
X168461862Y-96110415D01*
X168438449Y-96166940D01*
X168420455Y-96217946D01*
X168400000Y-96360219D01*
X167471135Y-96360219D01*
X167471278Y-96350000D01*
X167452382Y-96157285D01*
X167396414Y-95971910D01*
X167396413Y-95971908D01*
X167396413Y-95971907D01*
X167324433Y-95836534D01*
X167305506Y-95800937D01*
X167183120Y-95650877D01*
X167033919Y-95527447D01*
X166863584Y-95435348D01*
X166863583Y-95435347D01*
X166863580Y-95435346D01*
X166678609Y-95378087D01*
X166486029Y-95357846D01*
X166486027Y-95357846D01*
X166412670Y-95364522D01*
X166293182Y-95375396D01*
X166107426Y-95430067D01*
X166107422Y-95430069D01*
X165935831Y-95519773D01*
X165935819Y-95519781D01*
X165784910Y-95641115D01*
X165784909Y-95641116D01*
X165660444Y-95789446D01*
X165660442Y-95789449D01*
X165567154Y-95959139D01*
X165508602Y-96143718D01*
X165508602Y-96143719D01*
X165487019Y-96336146D01*
X164929920Y-96336146D01*
X164912382Y-96157285D01*
X164856414Y-95971910D01*
X164856413Y-95971908D01*
X164856413Y-95971907D01*
X164784433Y-95836534D01*
X164765506Y-95800937D01*
X164643120Y-95650877D01*
X164493919Y-95527447D01*
X164323584Y-95435348D01*
X164323583Y-95435347D01*
X164323580Y-95435346D01*
X164138609Y-95378087D01*
X163946029Y-95357846D01*
X163946027Y-95357846D01*
X163872670Y-95364522D01*
X163753182Y-95375396D01*
X163567426Y-95430067D01*
X163567422Y-95430069D01*
X163395831Y-95519773D01*
X163395819Y-95519781D01*
X163244910Y-95641115D01*
X163244909Y-95641116D01*
X163120444Y-95789446D01*
X163120442Y-95789449D01*
X163027154Y-95959139D01*
X162968602Y-96143718D01*
X162968602Y-96143719D01*
X162947019Y-96336146D01*
X162386500Y-96336146D01*
X162386500Y-95562600D01*
X162384578Y-95523200D01*
X162354423Y-95450398D01*
X162298702Y-95394677D01*
X162298698Y-95394675D01*
X162298696Y-95394674D01*
X162225901Y-95364522D01*
X162225903Y-95364522D01*
X162217457Y-95364110D01*
X162186500Y-95362600D01*
X161399100Y-95362600D01*
X160611700Y-95362600D01*
X160572300Y-95364522D01*
X160499496Y-95394678D01*
X160499495Y-95394680D01*
X160443780Y-95450395D01*
X160443778Y-95450396D01*
X160415038Y-95519781D01*
X160413622Y-95523200D01*
X160411700Y-95562600D01*
X152658524Y-95562600D01*
X152661214Y-95549078D01*
X152670291Y-95538748D01*
X152674231Y-95529130D01*
X152699968Y-95504979D01*
X152764139Y-95460047D01*
X152925044Y-95299142D01*
X152925045Y-95299141D01*
X152925047Y-95299139D01*
X152983821Y-95215199D01*
X153037287Y-95141610D01*
X153042465Y-95131446D01*
X153055568Y-95112734D01*
X153094067Y-95030172D01*
X153130220Y-94959219D01*
X153137266Y-94937532D01*
X153151739Y-94906496D01*
X153151742Y-94906488D01*
X153171534Y-94832617D01*
X153172377Y-94829471D01*
X153193477Y-94764534D01*
X153198825Y-94730766D01*
X153210635Y-94686692D01*
X153216215Y-94622892D01*
X153217270Y-94614306D01*
X153225500Y-94562350D01*
X153225500Y-94357649D01*
X153217270Y-94305691D01*
X153217270Y-94305690D01*
X153216592Y-94301414D01*
X153210635Y-94233308D01*
X153198825Y-94189233D01*
X153193477Y-94155466D01*
X153173378Y-94093609D01*
X153171535Y-94087386D01*
X153151742Y-94013513D01*
X153151740Y-94013510D01*
X153151739Y-94013504D01*
X153137266Y-93982467D01*
X153130220Y-93960781D01*
X153094067Y-93889827D01*
X153055568Y-93807266D01*
X153047436Y-93795652D01*
X153047436Y-93795651D01*
X153042462Y-93788548D01*
X153037287Y-93778390D01*
X152983821Y-93704800D01*
X152983215Y-93703935D01*
X152983205Y-93703920D01*
X152925045Y-93620858D01*
X152764140Y-93459953D01*
X152681078Y-93401793D01*
X152680180Y-93401164D01*
X152606610Y-93347713D01*
X152596448Y-93342535D01*
X152589346Y-93337562D01*
X152577736Y-93329433D01*
X152577727Y-93329429D01*
X152519723Y-93302380D01*
X152509066Y-93292996D01*
X152495866Y-93287773D01*
X152483368Y-93270369D01*
X152467285Y-93256208D01*
X152463393Y-93242552D01*
X152455112Y-93231021D01*
X152454007Y-93209621D01*
X152448134Y-93189014D01*
X152452241Y-93175423D01*
X152451510Y-93161244D01*
X152462149Y-93142644D01*
X152468350Y-93122133D01*
X152479830Y-93111737D01*
X152486204Y-93100597D01*
X152510623Y-93083856D01*
X152514872Y-93080010D01*
X152517252Y-93078770D01*
X152577734Y-93050568D01*
X152596002Y-93037775D01*
X152603207Y-93034025D01*
X152603416Y-93033983D01*
X152604180Y-93033524D01*
X152606610Y-93032287D01*
X152679358Y-92979432D01*
X152681047Y-92978227D01*
X152764139Y-92920047D01*
X152925047Y-92759139D01*
X152983821Y-92675199D01*
X153037287Y-92601610D01*
X153042465Y-92591446D01*
X153055568Y-92572734D01*
X153094067Y-92490172D01*
X153130220Y-92419219D01*
X153137266Y-92397532D01*
X153151739Y-92366496D01*
X153151742Y-92366488D01*
X153171534Y-92292617D01*
X153172377Y-92289471D01*
X153193477Y-92224534D01*
X153198825Y-92190766D01*
X153210635Y-92146692D01*
X153216215Y-92082892D01*
X153217270Y-92074306D01*
X153225500Y-92022350D01*
X153225500Y-91817649D01*
X153217270Y-91765691D01*
X153217270Y-91765690D01*
X153216592Y-91761414D01*
X153210635Y-91693308D01*
X153198825Y-91649233D01*
X153193477Y-91615466D01*
X153173378Y-91553609D01*
X153171535Y-91547386D01*
X153151742Y-91473513D01*
X153151740Y-91473510D01*
X153151739Y-91473504D01*
X153137266Y-91442467D01*
X153130220Y-91420781D01*
X153094067Y-91349827D01*
X153055568Y-91267266D01*
X153047436Y-91255652D01*
X153047436Y-91255651D01*
X153042462Y-91248548D01*
X153037287Y-91238390D01*
X152983821Y-91164800D01*
X152983215Y-91163935D01*
X152983205Y-91163920D01*
X152925045Y-91080858D01*
X152764140Y-90919953D01*
X152681078Y-90861793D01*
X152680180Y-90861164D01*
X152606610Y-90807713D01*
X152596448Y-90802535D01*
X152589346Y-90797562D01*
X152577736Y-90789433D01*
X152577727Y-90789429D01*
X152519723Y-90762380D01*
X152509066Y-90752996D01*
X152495866Y-90747773D01*
X152483368Y-90730369D01*
X152467285Y-90716208D01*
X152463393Y-90702552D01*
X152455112Y-90691021D01*
X152454007Y-90669621D01*
X152448134Y-90649014D01*
X152452241Y-90635423D01*
X152451510Y-90621244D01*
X152462149Y-90602644D01*
X152468350Y-90582133D01*
X152479830Y-90571737D01*
X152486204Y-90560597D01*
X152510623Y-90543856D01*
X152514872Y-90540010D01*
X152517252Y-90538770D01*
X152577734Y-90510568D01*
X152596002Y-90497775D01*
X152603207Y-90494025D01*
X152603416Y-90493983D01*
X152604180Y-90493524D01*
X152606610Y-90492287D01*
X152679358Y-90439432D01*
X152681047Y-90438227D01*
X152764139Y-90380047D01*
X152925047Y-90219139D01*
X152983821Y-90135199D01*
X153037287Y-90061610D01*
X153042465Y-90051446D01*
X153055568Y-90032734D01*
X153094067Y-89950172D01*
X153130220Y-89879219D01*
X153137266Y-89857532D01*
X153151739Y-89826496D01*
X153151742Y-89826488D01*
X153171534Y-89752617D01*
X153172377Y-89749471D01*
X153193477Y-89684534D01*
X153198825Y-89650766D01*
X153210635Y-89606692D01*
X153216215Y-89542892D01*
X153217270Y-89534306D01*
X153225500Y-89482350D01*
X153225500Y-89277649D01*
X153217270Y-89225691D01*
X153217270Y-89225690D01*
X153216592Y-89221414D01*
X153210635Y-89153308D01*
X153198825Y-89109233D01*
X153193477Y-89075466D01*
X153173378Y-89013609D01*
X153171535Y-89007386D01*
X153151742Y-88933513D01*
X153151740Y-88933510D01*
X153151739Y-88933504D01*
X153137266Y-88902467D01*
X153130220Y-88880781D01*
X153094067Y-88809827D01*
X153055568Y-88727266D01*
X153047436Y-88715652D01*
X153047436Y-88715651D01*
X153042462Y-88708548D01*
X153037287Y-88698390D01*
X152983821Y-88624800D01*
X152983215Y-88623935D01*
X152983205Y-88623920D01*
X152925045Y-88540858D01*
X152764140Y-88379953D01*
X152681078Y-88321793D01*
X152680180Y-88321164D01*
X152606610Y-88267713D01*
X152596448Y-88262535D01*
X152589346Y-88257562D01*
X152577736Y-88249433D01*
X152577727Y-88249429D01*
X152519723Y-88222380D01*
X152509066Y-88212996D01*
X152495866Y-88207773D01*
X152483368Y-88190369D01*
X152467285Y-88176208D01*
X152463393Y-88162552D01*
X152455112Y-88151021D01*
X152454007Y-88129621D01*
X152448134Y-88109014D01*
X152452241Y-88095423D01*
X152451510Y-88081244D01*
X152462149Y-88062644D01*
X152468350Y-88042133D01*
X152479830Y-88031737D01*
X152486204Y-88020597D01*
X152510623Y-88003856D01*
X152514872Y-88000010D01*
X152517252Y-87998770D01*
X152577734Y-87970568D01*
X152596002Y-87957775D01*
X152603207Y-87954025D01*
X152603416Y-87953983D01*
X152604180Y-87953524D01*
X152606610Y-87952287D01*
X152679358Y-87899432D01*
X152681047Y-87898227D01*
X152764139Y-87840047D01*
X152925047Y-87679139D01*
X152983821Y-87595199D01*
X153037287Y-87521610D01*
X153042465Y-87511446D01*
X153055568Y-87492734D01*
X153094067Y-87410172D01*
X153130220Y-87339219D01*
X153137266Y-87317532D01*
X153151739Y-87286496D01*
X153151742Y-87286488D01*
X153171534Y-87212617D01*
X153172377Y-87209471D01*
X153193477Y-87144534D01*
X153198825Y-87110766D01*
X153210635Y-87066692D01*
X153216215Y-87002892D01*
X153217270Y-86994306D01*
X153225500Y-86942350D01*
X153225500Y-86737649D01*
X153217270Y-86685691D01*
X153217270Y-86685690D01*
X153216592Y-86681414D01*
X153210635Y-86613308D01*
X153198825Y-86569233D01*
X153193477Y-86535466D01*
X153173378Y-86473609D01*
X153171535Y-86467386D01*
X153151742Y-86393513D01*
X153151740Y-86393510D01*
X153151739Y-86393504D01*
X153137266Y-86362467D01*
X153130220Y-86340781D01*
X153094067Y-86269827D01*
X153055568Y-86187266D01*
X153047436Y-86175652D01*
X153047436Y-86175651D01*
X153042462Y-86168548D01*
X153037287Y-86158390D01*
X152983821Y-86084800D01*
X152983215Y-86083935D01*
X152983205Y-86083920D01*
X152925045Y-86000858D01*
X152764143Y-85839956D01*
X152697620Y-85793376D01*
X152653996Y-85738799D01*
X152646803Y-85669300D01*
X152678325Y-85606946D01*
X152738082Y-85571652D01*
X152758025Y-85566562D01*
X152758035Y-85566559D01*
X152814582Y-85543135D01*
X152471446Y-85199999D01*
X160865000Y-85199999D01*
X160865000Y-86100000D01*
X160867138Y-86165541D01*
X160867138Y-86165544D01*
X160867139Y-86165545D01*
X160901068Y-86292167D01*
X160966612Y-86405694D01*
X161059306Y-86498388D01*
X161172833Y-86563932D01*
X161299455Y-86597861D01*
X161365000Y-86600000D01*
X162265000Y-86600000D01*
X162330545Y-86597861D01*
X162457167Y-86563933D01*
X162570694Y-86498388D01*
X162663388Y-86405694D01*
X162728933Y-86292167D01*
X162762861Y-86165545D01*
X162765000Y-86100000D01*
X162765000Y-85200000D01*
X162762861Y-85134455D01*
X162728933Y-85007833D01*
X162663388Y-84894306D01*
X162570694Y-84801612D01*
X162457167Y-84736067D01*
X162330545Y-84702139D01*
X162265000Y-84700000D01*
X161815000Y-84700000D01*
X161365000Y-84700000D01*
X161299458Y-84702138D01*
X161172832Y-84736068D01*
X161059307Y-84801611D01*
X161059304Y-84801613D01*
X160966613Y-84894304D01*
X160966611Y-84894307D01*
X160901068Y-85007832D01*
X160867138Y-85134458D01*
X160865000Y-85199999D01*
X152471446Y-85199999D01*
X152054409Y-84782962D01*
X152117993Y-84765925D01*
X152232007Y-84700099D01*
X152325099Y-84607007D01*
X152358012Y-84550000D01*
X152528552Y-84550000D01*
X153168135Y-85189582D01*
X153168136Y-85189582D01*
X153184317Y-85150522D01*
X153184317Y-85150521D01*
X153191553Y-85133051D01*
X153209544Y-85082053D01*
X153229999Y-84939780D01*
X153230000Y-84939779D01*
X153230000Y-84550000D01*
X152528552Y-84550000D01*
X152358012Y-84550000D01*
X152390925Y-84492993D01*
X152425000Y-84365826D01*
X152425000Y-84234174D01*
X152390925Y-84107007D01*
X152358011Y-84049999D01*
X152528552Y-84049999D01*
X152528553Y-84050000D01*
X153230000Y-84050000D01*
X153230000Y-83660214D01*
X153227106Y-83606237D01*
X153227106Y-83606235D01*
X153191558Y-83466960D01*
X153168136Y-83410415D01*
X153168135Y-83410415D01*
X152528552Y-84049999D01*
X152358011Y-84049999D01*
X152325099Y-83992993D01*
X152232007Y-83899901D01*
X152117993Y-83834075D01*
X152054409Y-83817037D01*
X152814583Y-83056863D01*
X152814583Y-83056862D01*
X152758052Y-83033447D01*
X152758024Y-83033436D01*
X152729834Y-83023491D01*
X152673163Y-82982624D01*
X152647582Y-82917605D01*
X152661214Y-82849078D01*
X152699965Y-82804980D01*
X152764139Y-82760047D01*
X152925047Y-82599139D01*
X152983821Y-82515199D01*
X153037287Y-82441610D01*
X153042465Y-82431446D01*
X153055568Y-82412734D01*
X153094067Y-82330172D01*
X153130220Y-82259219D01*
X153137266Y-82237532D01*
X153151739Y-82206496D01*
X153151742Y-82206488D01*
X153171534Y-82132617D01*
X153172377Y-82129471D01*
X153193477Y-82064534D01*
X153198825Y-82030766D01*
X153210635Y-81986692D01*
X153216215Y-81922892D01*
X153217270Y-81914306D01*
X153225500Y-81862350D01*
X153225500Y-81657649D01*
X153217270Y-81605691D01*
X153217270Y-81605690D01*
X153216592Y-81601414D01*
X153210635Y-81533308D01*
X153198825Y-81489233D01*
X153193477Y-81455466D01*
X153173378Y-81393609D01*
X153171535Y-81387386D01*
X153170996Y-81385376D01*
X153152742Y-81317246D01*
X153151742Y-81313513D01*
X153151740Y-81313510D01*
X153151739Y-81313504D01*
X153137266Y-81282467D01*
X153130220Y-81260781D01*
X153094067Y-81189827D01*
X153055568Y-81107266D01*
X153047436Y-81095652D01*
X153047436Y-81095651D01*
X153042462Y-81088548D01*
X153037287Y-81078390D01*
X152983821Y-81004800D01*
X152983215Y-81003935D01*
X152983205Y-81003920D01*
X152925045Y-80920858D01*
X152764140Y-80759953D01*
X152681078Y-80701793D01*
X152680180Y-80701164D01*
X152606610Y-80647713D01*
X152596448Y-80642535D01*
X152589346Y-80637562D01*
X152577736Y-80629433D01*
X152577727Y-80629429D01*
X152519723Y-80602380D01*
X152509066Y-80592996D01*
X152495866Y-80587773D01*
X152483368Y-80570369D01*
X152467285Y-80556208D01*
X152463393Y-80542552D01*
X152455112Y-80531021D01*
X152454007Y-80509621D01*
X152448134Y-80489014D01*
X152452241Y-80475423D01*
X152451510Y-80461244D01*
X152462149Y-80442644D01*
X152468350Y-80422133D01*
X152479830Y-80411737D01*
X152486204Y-80400597D01*
X152510623Y-80383856D01*
X152514872Y-80380010D01*
X152517252Y-80378770D01*
X152577734Y-80350568D01*
X152596002Y-80337775D01*
X152603207Y-80334025D01*
X152603416Y-80333983D01*
X152604180Y-80333524D01*
X152606610Y-80332287D01*
X152679358Y-80279432D01*
X152681047Y-80278227D01*
X152764139Y-80220047D01*
X152925047Y-80059139D01*
X152983821Y-79975199D01*
X153037287Y-79901610D01*
X153042465Y-79891446D01*
X153055568Y-79872734D01*
X153094067Y-79790172D01*
X153130220Y-79719219D01*
X153137266Y-79697532D01*
X153151739Y-79666496D01*
X153151742Y-79666488D01*
X153171534Y-79592617D01*
X153172377Y-79589471D01*
X153193477Y-79524534D01*
X153198825Y-79490766D01*
X153210635Y-79446692D01*
X153216215Y-79382892D01*
X153217270Y-79374306D01*
X153225500Y-79322350D01*
X153225500Y-79117649D01*
X153217270Y-79065691D01*
X153217270Y-79065690D01*
X153216592Y-79061414D01*
X153210635Y-78993308D01*
X153198825Y-78949233D01*
X153193477Y-78915466D01*
X153173378Y-78853609D01*
X153171535Y-78847386D01*
X153151742Y-78773513D01*
X153151740Y-78773510D01*
X153151739Y-78773504D01*
X153137266Y-78742467D01*
X153130220Y-78720781D01*
X153094067Y-78649827D01*
X153055568Y-78567266D01*
X153047436Y-78555652D01*
X153047436Y-78555651D01*
X153042462Y-78548548D01*
X153037287Y-78538390D01*
X152983821Y-78464800D01*
X152983215Y-78463935D01*
X152983205Y-78463920D01*
X152925045Y-78380858D01*
X152764140Y-78219953D01*
X152681078Y-78161793D01*
X152680180Y-78161164D01*
X152606610Y-78107713D01*
X152596448Y-78102535D01*
X152589346Y-78097562D01*
X152577736Y-78089433D01*
X152577727Y-78089429D01*
X152519723Y-78062380D01*
X152509066Y-78052996D01*
X152495866Y-78047773D01*
X152483368Y-78030369D01*
X152467285Y-78016208D01*
X152463393Y-78002552D01*
X152455112Y-77991021D01*
X152454007Y-77969621D01*
X152448134Y-77949014D01*
X152452241Y-77935423D01*
X152451510Y-77921244D01*
X152462149Y-77902644D01*
X152468350Y-77882133D01*
X152479830Y-77871737D01*
X152486204Y-77860597D01*
X152510623Y-77843856D01*
X152514872Y-77840010D01*
X152517252Y-77838770D01*
X152577734Y-77810568D01*
X152596002Y-77797775D01*
X152603207Y-77794025D01*
X152603416Y-77793983D01*
X152604180Y-77793524D01*
X152606610Y-77792287D01*
X152679358Y-77739432D01*
X152681047Y-77738227D01*
X152764139Y-77680047D01*
X152925047Y-77519139D01*
X152983821Y-77435199D01*
X153037287Y-77361610D01*
X153042465Y-77351446D01*
X153055568Y-77332734D01*
X153094067Y-77250172D01*
X153130220Y-77179219D01*
X153137266Y-77157532D01*
X153151739Y-77126496D01*
X153151742Y-77126488D01*
X153171534Y-77052617D01*
X153172377Y-77049471D01*
X153193477Y-76984534D01*
X153198825Y-76950766D01*
X153210635Y-76906692D01*
X153216215Y-76842892D01*
X153217270Y-76834306D01*
X153225500Y-76782350D01*
X153225500Y-76577649D01*
X153217270Y-76525691D01*
X153217270Y-76525690D01*
X153216592Y-76521414D01*
X153210635Y-76453308D01*
X153198825Y-76409233D01*
X153193477Y-76375466D01*
X153173378Y-76313609D01*
X153171535Y-76307386D01*
X153151742Y-76233513D01*
X153151740Y-76233510D01*
X153151739Y-76233504D01*
X153137266Y-76202467D01*
X153130220Y-76180781D01*
X153094067Y-76109827D01*
X153055568Y-76027266D01*
X153047436Y-76015652D01*
X153047436Y-76015651D01*
X153042462Y-76008548D01*
X153037287Y-75998390D01*
X152983821Y-75924800D01*
X152983215Y-75923935D01*
X152983205Y-75923920D01*
X152925045Y-75840858D01*
X152764140Y-75679953D01*
X152681078Y-75621793D01*
X152680180Y-75621164D01*
X152606610Y-75567713D01*
X152596448Y-75562535D01*
X152589346Y-75557562D01*
X152577736Y-75549433D01*
X152577727Y-75549429D01*
X152519723Y-75522380D01*
X152509066Y-75512996D01*
X152495866Y-75507773D01*
X152483368Y-75490369D01*
X152467285Y-75476208D01*
X152463393Y-75462552D01*
X152455112Y-75451021D01*
X152454007Y-75429621D01*
X152448134Y-75409014D01*
X152452241Y-75395423D01*
X152451510Y-75381244D01*
X152462149Y-75362644D01*
X152468350Y-75342133D01*
X152479830Y-75331737D01*
X152486204Y-75320597D01*
X152510623Y-75303856D01*
X152514872Y-75300010D01*
X152517252Y-75298770D01*
X152577734Y-75270568D01*
X152596002Y-75257775D01*
X152603207Y-75254025D01*
X152603416Y-75253983D01*
X152604180Y-75253524D01*
X152606610Y-75252287D01*
X152679358Y-75199432D01*
X152681047Y-75198227D01*
X152764139Y-75140047D01*
X152925047Y-74979139D01*
X152983821Y-74895199D01*
X153037287Y-74821610D01*
X153042465Y-74811446D01*
X153055568Y-74792734D01*
X153094067Y-74710172D01*
X153130220Y-74639219D01*
X153137266Y-74617532D01*
X153151739Y-74586496D01*
X153151742Y-74586488D01*
X153171534Y-74512617D01*
X153172377Y-74509471D01*
X153193477Y-74444534D01*
X153198825Y-74410766D01*
X153210635Y-74366692D01*
X153216215Y-74302892D01*
X153217270Y-74294306D01*
X153225500Y-74242350D01*
X153225500Y-74037649D01*
X153217270Y-73985691D01*
X153217270Y-73985690D01*
X153216592Y-73981414D01*
X153210635Y-73913308D01*
X153198825Y-73869233D01*
X153193477Y-73835466D01*
X153173378Y-73773609D01*
X153171535Y-73767386D01*
X153151742Y-73693513D01*
X153151740Y-73693510D01*
X153151739Y-73693504D01*
X153137266Y-73662467D01*
X153130220Y-73640781D01*
X153094067Y-73569827D01*
X153055568Y-73487266D01*
X153047436Y-73475652D01*
X153047436Y-73475651D01*
X153042462Y-73468548D01*
X153037287Y-73458390D01*
X152983821Y-73384800D01*
X152983215Y-73383935D01*
X152983205Y-73383920D01*
X152925045Y-73300858D01*
X152764143Y-73139956D01*
X152697620Y-73093376D01*
X152653996Y-73038799D01*
X152646803Y-72969300D01*
X152678325Y-72906946D01*
X152738082Y-72871652D01*
X152758025Y-72866562D01*
X152758035Y-72866559D01*
X152814582Y-72843135D01*
X152671446Y-72699999D01*
X157365000Y-72699999D01*
X157365000Y-80100000D01*
X157367138Y-80165541D01*
X157367138Y-80165544D01*
X157367139Y-80165545D01*
X157401068Y-80292167D01*
X157466612Y-80405694D01*
X157559306Y-80498388D01*
X157672833Y-80563932D01*
X157799455Y-80597861D01*
X157865000Y-80600000D01*
X158765000Y-80600000D01*
X158830545Y-80597861D01*
X158957167Y-80563932D01*
X159070694Y-80498388D01*
X159163388Y-80405694D01*
X159228932Y-80292167D01*
X159262861Y-80165545D01*
X159265000Y-80100000D01*
X159265000Y-76400000D01*
X159265000Y-72700000D01*
X159262861Y-72634455D01*
X159228933Y-72507833D01*
X159163388Y-72394306D01*
X159070694Y-72301612D01*
X158963607Y-72239785D01*
X168400000Y-72239785D01*
X168402893Y-72293762D01*
X168402893Y-72293764D01*
X168438438Y-72433030D01*
X168438440Y-72433037D01*
X168461863Y-72489583D01*
X169101447Y-71850000D01*
X168400000Y-71850000D01*
X168400000Y-72239785D01*
X158963607Y-72239785D01*
X158957167Y-72236067D01*
X158830545Y-72202139D01*
X158765000Y-72200000D01*
X157865000Y-72200000D01*
X157799455Y-72202139D01*
X157672833Y-72236067D01*
X157672831Y-72236067D01*
X157672831Y-72236068D01*
X157559306Y-72301612D01*
X157559303Y-72301614D01*
X157466614Y-72394303D01*
X157466612Y-72394306D01*
X157401068Y-72507831D01*
X157367139Y-72634455D01*
X157365000Y-72699999D01*
X152671446Y-72699999D01*
X152054409Y-72082962D01*
X152117993Y-72065925D01*
X152232007Y-72000099D01*
X152325099Y-71907007D01*
X152358012Y-71850000D01*
X152528552Y-71850000D01*
X153168135Y-72489582D01*
X153168137Y-72489582D01*
X153191552Y-72433053D01*
X153209544Y-72382053D01*
X153229999Y-72239780D01*
X153230000Y-72239779D01*
X153230000Y-71850000D01*
X152528552Y-71850000D01*
X152358012Y-71850000D01*
X152390925Y-71792993D01*
X152425000Y-71665826D01*
X152425000Y-71534174D01*
X152390925Y-71407007D01*
X152358011Y-71349999D01*
X152528552Y-71349999D01*
X152528553Y-71350000D01*
X153230000Y-71350000D01*
X153230000Y-70960214D01*
X153227106Y-70906237D01*
X153227106Y-70906235D01*
X153191558Y-70766960D01*
X153168136Y-70710415D01*
X153168135Y-70710415D01*
X152528552Y-71349999D01*
X152358011Y-71349999D01*
X152325099Y-71292993D01*
X152232007Y-71199901D01*
X152117993Y-71134075D01*
X152054409Y-71117037D01*
X152814583Y-70356863D01*
X152814583Y-70356862D01*
X152758052Y-70333447D01*
X152758024Y-70333436D01*
X152729834Y-70323491D01*
X152673163Y-70282624D01*
X152647582Y-70217605D01*
X152661214Y-70149078D01*
X152699965Y-70104980D01*
X152764139Y-70060047D01*
X152925047Y-69899139D01*
X152983821Y-69815199D01*
X153037287Y-69741610D01*
X153042465Y-69731446D01*
X153055568Y-69712734D01*
X153094067Y-69630172D01*
X153130220Y-69559219D01*
X153137266Y-69537532D01*
X153151739Y-69506496D01*
X153151742Y-69506488D01*
X153171534Y-69432617D01*
X153172377Y-69429471D01*
X153193477Y-69364534D01*
X153198825Y-69330766D01*
X153210635Y-69286692D01*
X153216215Y-69222892D01*
X153217270Y-69214306D01*
X153219537Y-69199999D01*
X153225500Y-69162352D01*
X153225500Y-68957648D01*
X153217269Y-68905690D01*
X153216215Y-68897099D01*
X153215971Y-68894306D01*
X153213244Y-68863136D01*
X153227011Y-68794638D01*
X153275627Y-68744455D01*
X153343655Y-68728522D01*
X153368864Y-68732556D01*
X153490625Y-68765183D01*
X153490626Y-68765183D01*
X153656336Y-68765183D01*
X153656352Y-68765182D01*
X157358293Y-68765182D01*
X157425332Y-68784867D01*
X157471087Y-68837671D01*
X157481031Y-68906829D01*
X157458611Y-68962065D01*
X157425360Y-69007833D01*
X157384622Y-69063903D01*
X157300620Y-69228764D01*
X157300619Y-69228767D01*
X157243445Y-69404734D01*
X157226856Y-69509472D01*
X157214500Y-69587486D01*
X157214500Y-69772514D01*
X157221403Y-69816095D01*
X157243445Y-69955265D01*
X157300619Y-70131232D01*
X157300620Y-70131235D01*
X157350469Y-70229067D01*
X157384622Y-70296096D01*
X157493379Y-70445787D01*
X157624213Y-70576621D01*
X157773904Y-70685378D01*
X157841021Y-70719576D01*
X157938764Y-70769379D01*
X157938767Y-70769380D01*
X158026750Y-70797967D01*
X158114736Y-70826555D01*
X158297486Y-70855500D01*
X158297487Y-70855500D01*
X158482513Y-70855500D01*
X158482514Y-70855500D01*
X158665264Y-70826555D01*
X158841235Y-70769379D01*
X159006096Y-70685378D01*
X159155787Y-70576621D01*
X159286621Y-70445787D01*
X159395378Y-70296096D01*
X159479379Y-70131235D01*
X159536555Y-69955264D01*
X159565500Y-69772514D01*
X159565500Y-69587486D01*
X159536555Y-69404736D01*
X159498201Y-69286694D01*
X159479380Y-69228767D01*
X159479379Y-69228764D01*
X159395377Y-69063903D01*
X159321388Y-68962066D01*
X159297909Y-68896262D01*
X159313734Y-68828208D01*
X159363840Y-68779513D01*
X159421707Y-68765182D01*
X159826388Y-68765182D01*
X159893427Y-68784867D01*
X159939182Y-68837671D01*
X159949126Y-68906829D01*
X159933775Y-68951181D01*
X159901071Y-69007826D01*
X159901068Y-69007831D01*
X159867138Y-69134458D01*
X159865000Y-69199999D01*
X159865000Y-70100000D01*
X159867138Y-70165541D01*
X159867138Y-70165544D01*
X159867139Y-70165545D01*
X159901068Y-70292167D01*
X159966612Y-70405694D01*
X160059306Y-70498388D01*
X160172833Y-70563932D01*
X160299455Y-70597861D01*
X160365000Y-70600000D01*
X161265000Y-70600000D01*
X161330545Y-70597861D01*
X161457167Y-70563933D01*
X161570694Y-70498388D01*
X161663388Y-70405694D01*
X161728933Y-70292167D01*
X161762861Y-70165545D01*
X161765000Y-70100000D01*
X161765000Y-69200000D01*
X161762861Y-69134455D01*
X161728933Y-69007833D01*
X161728929Y-69007826D01*
X161696226Y-68951182D01*
X161679753Y-68883282D01*
X161702605Y-68817255D01*
X161757527Y-68774064D01*
X161803613Y-68765182D01*
X162208293Y-68765182D01*
X162275332Y-68784867D01*
X162321087Y-68837671D01*
X162331031Y-68906829D01*
X162308611Y-68962065D01*
X162275360Y-69007833D01*
X162234622Y-69063903D01*
X162150620Y-69228764D01*
X162150619Y-69228767D01*
X162093445Y-69404734D01*
X162076856Y-69509472D01*
X162064500Y-69587486D01*
X162064500Y-69772514D01*
X162071403Y-69816095D01*
X162093445Y-69955265D01*
X162150619Y-70131232D01*
X162150620Y-70131235D01*
X162200469Y-70229067D01*
X162234622Y-70296096D01*
X162343379Y-70445787D01*
X162474213Y-70576621D01*
X162623904Y-70685378D01*
X162691021Y-70719576D01*
X162788764Y-70769379D01*
X162788767Y-70769380D01*
X162876750Y-70797967D01*
X162964736Y-70826555D01*
X163147486Y-70855500D01*
X163147487Y-70855500D01*
X163332513Y-70855500D01*
X163332514Y-70855500D01*
X163515264Y-70826555D01*
X163691235Y-70769379D01*
X163856096Y-70685378D01*
X164005787Y-70576621D01*
X164136621Y-70445787D01*
X164245378Y-70296096D01*
X164329379Y-70131235D01*
X164344281Y-70085368D01*
X164383717Y-70027695D01*
X164448075Y-70000496D01*
X164516921Y-70012408D01*
X164549892Y-70036005D01*
X165154406Y-70640520D01*
X165154408Y-70640521D01*
X165154412Y-70640524D01*
X165232101Y-70685377D01*
X165291338Y-70719577D01*
X165444065Y-70760501D01*
X165444067Y-70760501D01*
X165609776Y-70760501D01*
X165609792Y-70760500D01*
X168285612Y-70760500D01*
X168352651Y-70780185D01*
X168398406Y-70832989D01*
X168408350Y-70902147D01*
X168408350Y-70902148D01*
X168400000Y-70960221D01*
X168400000Y-71350000D01*
X169271988Y-71350000D01*
X169239075Y-71407007D01*
X169205000Y-71534174D01*
X169205000Y-71665826D01*
X169239075Y-71792993D01*
X169304901Y-71907007D01*
X169397993Y-72000099D01*
X169512007Y-72065925D01*
X169575589Y-72082962D01*
X168815415Y-72843135D01*
X168815415Y-72843136D01*
X168871947Y-72866553D01*
X168900159Y-72876505D01*
X168956832Y-72917370D01*
X168982415Y-72982388D01*
X168968786Y-73050915D01*
X168930035Y-73095016D01*
X168865859Y-73139954D01*
X168704954Y-73300859D01*
X168646781Y-73383934D01*
X168646782Y-73383935D01*
X168646132Y-73384863D01*
X168592713Y-73458390D01*
X168587535Y-73468550D01*
X168582560Y-73475656D01*
X168582558Y-73475656D01*
X168574433Y-73487262D01*
X168536838Y-73567882D01*
X168535920Y-73569849D01*
X168499780Y-73640781D01*
X168492735Y-73662458D01*
X168489532Y-73669329D01*
X168489529Y-73669338D01*
X168478261Y-73693503D01*
X168478261Y-73693504D01*
X168458459Y-73767404D01*
X168458458Y-73767403D01*
X168457614Y-73770551D01*
X168436523Y-73835466D01*
X168431175Y-73869224D01*
X168429492Y-73875507D01*
X168429492Y-73875511D01*
X168419366Y-73913304D01*
X168419364Y-73913313D01*
X168413783Y-73977106D01*
X168412728Y-73985697D01*
X168404500Y-74037643D01*
X168404500Y-74037648D01*
X168404500Y-74242352D01*
X168413406Y-74298582D01*
X168419365Y-74366692D01*
X168431171Y-74410756D01*
X168432188Y-74417175D01*
X168432190Y-74417181D01*
X168436521Y-74444525D01*
X168436522Y-74444530D01*
X168436523Y-74444534D01*
X168439532Y-74453795D01*
X168456617Y-74506378D01*
X168458460Y-74512600D01*
X168478260Y-74586494D01*
X168489529Y-74610662D01*
X168491046Y-74613915D01*
X168492733Y-74617532D01*
X168499780Y-74639219D01*
X168535930Y-74710169D01*
X168536844Y-74712128D01*
X168574432Y-74792734D01*
X168582562Y-74804346D01*
X168587535Y-74811448D01*
X168592713Y-74821610D01*
X168646164Y-74895180D01*
X168646793Y-74896078D01*
X168704953Y-74979140D01*
X168865858Y-75140045D01*
X168865861Y-75140047D01*
X168949800Y-75198821D01*
X169023390Y-75252287D01*
X169033547Y-75257462D01*
X169040648Y-75262434D01*
X169040652Y-75262436D01*
X169052266Y-75270568D01*
X169052270Y-75270570D01*
X169110272Y-75297617D01*
X169120927Y-75306999D01*
X169134131Y-75312224D01*
X169146629Y-75329629D01*
X169162712Y-75343789D01*
X169166604Y-75357444D01*
X169174886Y-75368977D01*
X169175990Y-75390375D01*
X169181864Y-75410982D01*
X169177755Y-75424573D01*
X169178488Y-75438754D01*
X169167848Y-75457352D01*
X169161649Y-75477864D01*
X169150167Y-75488259D01*
X169143794Y-75499401D01*
X169119369Y-75516145D01*
X169115126Y-75519988D01*
X169112711Y-75521244D01*
X169052266Y-75549432D01*
X169034002Y-75562219D01*
X169026792Y-75565973D01*
X169026591Y-75566012D01*
X169025847Y-75566460D01*
X169023397Y-75567708D01*
X169023394Y-75567710D01*
X168950696Y-75620526D01*
X168948939Y-75621779D01*
X168865859Y-75679954D01*
X168704954Y-75840859D01*
X168646781Y-75923934D01*
X168646782Y-75923935D01*
X168646132Y-75924863D01*
X168592713Y-75998390D01*
X168587535Y-76008550D01*
X168582560Y-76015656D01*
X168582558Y-76015656D01*
X168574433Y-76027262D01*
X168536838Y-76107882D01*
X168535920Y-76109849D01*
X168499780Y-76180781D01*
X168492735Y-76202458D01*
X168489532Y-76209329D01*
X168489529Y-76209338D01*
X168478261Y-76233503D01*
X168478261Y-76233504D01*
X168458459Y-76307404D01*
X168458458Y-76307403D01*
X168457614Y-76310551D01*
X168436523Y-76375466D01*
X168431175Y-76409224D01*
X168429492Y-76415507D01*
X168429492Y-76415511D01*
X168419366Y-76453304D01*
X168419364Y-76453313D01*
X168413783Y-76517106D01*
X168412728Y-76525697D01*
X168404500Y-76577643D01*
X168404500Y-76577648D01*
X168404500Y-76782352D01*
X168413406Y-76838582D01*
X168419365Y-76906692D01*
X168431171Y-76950756D01*
X168432188Y-76957175D01*
X168432190Y-76957181D01*
X168436521Y-76984525D01*
X168436522Y-76984530D01*
X168456617Y-77046378D01*
X168458460Y-77052600D01*
X168478260Y-77126494D01*
X168489529Y-77150662D01*
X168492733Y-77157532D01*
X168499780Y-77179219D01*
X168535930Y-77250169D01*
X168536844Y-77252128D01*
X168574432Y-77332734D01*
X168582562Y-77344346D01*
X168587535Y-77351448D01*
X168592713Y-77361610D01*
X168646164Y-77435180D01*
X168646793Y-77436078D01*
X168704953Y-77519140D01*
X168865858Y-77680045D01*
X168865861Y-77680047D01*
X168949800Y-77738821D01*
X169023390Y-77792287D01*
X169033547Y-77797462D01*
X169040648Y-77802434D01*
X169040652Y-77802436D01*
X169052266Y-77810568D01*
X169052270Y-77810570D01*
X169110272Y-77837617D01*
X169120927Y-77846999D01*
X169134131Y-77852224D01*
X169146629Y-77869629D01*
X169162712Y-77883789D01*
X169166604Y-77897444D01*
X169174886Y-77908977D01*
X169175990Y-77930375D01*
X169181864Y-77950982D01*
X169177755Y-77964573D01*
X169178488Y-77978754D01*
X169167848Y-77997352D01*
X169161649Y-78017864D01*
X169150167Y-78028259D01*
X169143794Y-78039401D01*
X169119369Y-78056145D01*
X169115126Y-78059988D01*
X169112711Y-78061244D01*
X169052266Y-78089432D01*
X169034002Y-78102219D01*
X169026792Y-78105973D01*
X169026591Y-78106012D01*
X169025847Y-78106460D01*
X169023397Y-78107708D01*
X169023394Y-78107710D01*
X168950696Y-78160526D01*
X168948939Y-78161779D01*
X168865859Y-78219954D01*
X168704954Y-78380859D01*
X168646781Y-78463934D01*
X168646782Y-78463935D01*
X168646132Y-78464863D01*
X168592713Y-78538390D01*
X168587535Y-78548550D01*
X168582560Y-78555656D01*
X168582558Y-78555656D01*
X168574433Y-78567262D01*
X168536838Y-78647882D01*
X168535920Y-78649849D01*
X168499780Y-78720781D01*
X168492735Y-78742458D01*
X168489532Y-78749329D01*
X168489529Y-78749338D01*
X168478261Y-78773503D01*
X168478261Y-78773504D01*
X168458459Y-78847404D01*
X168458458Y-78847403D01*
X168457614Y-78850551D01*
X168436523Y-78915466D01*
X168431175Y-78949224D01*
X168429492Y-78955507D01*
X168429492Y-78955511D01*
X168419366Y-78993304D01*
X168419364Y-78993313D01*
X168413783Y-79057106D01*
X168412728Y-79065697D01*
X168404500Y-79117643D01*
X168404500Y-79117648D01*
X168404500Y-79322352D01*
X168413406Y-79378582D01*
X168419365Y-79446692D01*
X168431171Y-79490756D01*
X168432188Y-79497175D01*
X168432190Y-79497181D01*
X168436521Y-79524525D01*
X168436522Y-79524530D01*
X168456617Y-79586378D01*
X168458460Y-79592600D01*
X168478260Y-79666494D01*
X168489529Y-79690662D01*
X168492733Y-79697532D01*
X168499780Y-79719219D01*
X168535930Y-79790169D01*
X168536844Y-79792128D01*
X168574432Y-79872734D01*
X168582562Y-79884346D01*
X168587535Y-79891448D01*
X168592713Y-79901610D01*
X168646164Y-79975180D01*
X168646793Y-79976078D01*
X168704953Y-80059140D01*
X168865858Y-80220045D01*
X168865861Y-80220047D01*
X168949800Y-80278821D01*
X169023390Y-80332287D01*
X169033547Y-80337462D01*
X169040648Y-80342434D01*
X169040652Y-80342436D01*
X169052266Y-80350568D01*
X169052270Y-80350570D01*
X169110272Y-80377617D01*
X169120927Y-80386999D01*
X169134131Y-80392224D01*
X169146629Y-80409629D01*
X169162712Y-80423789D01*
X169166604Y-80437444D01*
X169174886Y-80448977D01*
X169175990Y-80470375D01*
X169181864Y-80490982D01*
X169177755Y-80504573D01*
X169178488Y-80518754D01*
X169167848Y-80537352D01*
X169161649Y-80557864D01*
X169150167Y-80568259D01*
X169143794Y-80579401D01*
X169119369Y-80596145D01*
X169115126Y-80599988D01*
X169112711Y-80601244D01*
X169052266Y-80629432D01*
X169034002Y-80642219D01*
X169026792Y-80645973D01*
X169026591Y-80646012D01*
X169025847Y-80646460D01*
X169023397Y-80647708D01*
X169023394Y-80647710D01*
X168950696Y-80700526D01*
X168948939Y-80701779D01*
X168865859Y-80759954D01*
X168704954Y-80920859D01*
X168646781Y-81003934D01*
X168646782Y-81003935D01*
X168646132Y-81004863D01*
X168592713Y-81078390D01*
X168587535Y-81088550D01*
X168582560Y-81095656D01*
X168582558Y-81095656D01*
X168574433Y-81107262D01*
X168536838Y-81187882D01*
X168535920Y-81189849D01*
X168499780Y-81260781D01*
X168492735Y-81282458D01*
X168489532Y-81289329D01*
X168489529Y-81289338D01*
X168478261Y-81313503D01*
X168478261Y-81313504D01*
X168458459Y-81387404D01*
X168458458Y-81387403D01*
X168457614Y-81390551D01*
X168436523Y-81455466D01*
X168431175Y-81489224D01*
X168429492Y-81495507D01*
X168429492Y-81495511D01*
X168419366Y-81533304D01*
X168419364Y-81533313D01*
X168413783Y-81597106D01*
X168412728Y-81605697D01*
X168404500Y-81657643D01*
X168404500Y-81657648D01*
X168404500Y-81862352D01*
X168413406Y-81918582D01*
X168419365Y-81986692D01*
X168431171Y-82030756D01*
X168432188Y-82037175D01*
X168432190Y-82037181D01*
X168436521Y-82064525D01*
X168436522Y-82064530D01*
X168456617Y-82126378D01*
X168458460Y-82132600D01*
X168478260Y-82206494D01*
X168489529Y-82230662D01*
X168490616Y-82232993D01*
X168492733Y-82237532D01*
X168499780Y-82259219D01*
X168535930Y-82330169D01*
X168536844Y-82332128D01*
X168574432Y-82412734D01*
X168582562Y-82424346D01*
X168587535Y-82431448D01*
X168592713Y-82441610D01*
X168646164Y-82515180D01*
X168646793Y-82516078D01*
X168704953Y-82599140D01*
X168865857Y-82760044D01*
X168865860Y-82760046D01*
X168865861Y-82760047D01*
X168931843Y-82806248D01*
X168975469Y-82860824D01*
X168982663Y-82930322D01*
X168951141Y-82992677D01*
X168891391Y-83027970D01*
X168871780Y-83032975D01*
X168871766Y-83032980D01*
X168798280Y-83063419D01*
X168798252Y-83063431D01*
X168749451Y-83086779D01*
X168749446Y-83086782D01*
X168634268Y-83173005D01*
X168634256Y-83173015D01*
X168578019Y-83229252D01*
X168541843Y-83269524D01*
X168541837Y-83269532D01*
X168468426Y-83393263D01*
X168437978Y-83466774D01*
X168437970Y-83466795D01*
X168419976Y-83517800D01*
X168419976Y-83517802D01*
X168400212Y-83655270D01*
X168399500Y-83660219D01*
X168399500Y-84939784D01*
X168402395Y-84993814D01*
X168402396Y-84993818D01*
X168437976Y-85133221D01*
X168437980Y-85133233D01*
X168468419Y-85206719D01*
X168468431Y-85206747D01*
X168491779Y-85255548D01*
X168491781Y-85255551D01*
X168578006Y-85370733D01*
X168578010Y-85370737D01*
X168578015Y-85370743D01*
X168634252Y-85426980D01*
X168634261Y-85426988D01*
X168634267Y-85426994D01*
X168636790Y-85429260D01*
X168674524Y-85463156D01*
X168674532Y-85463162D01*
X168798263Y-85536573D01*
X168798262Y-85536573D01*
X168805329Y-85539500D01*
X168871774Y-85567022D01*
X168884898Y-85571652D01*
X168899660Y-85576860D01*
X168956332Y-85617726D01*
X168981913Y-85682745D01*
X168968281Y-85751272D01*
X168929531Y-85795370D01*
X168865858Y-85839955D01*
X168704954Y-86000859D01*
X168646781Y-86083934D01*
X168646782Y-86083935D01*
X168646132Y-86084863D01*
X168592713Y-86158390D01*
X168587535Y-86168550D01*
X168582560Y-86175656D01*
X168582558Y-86175656D01*
X168574433Y-86187262D01*
X168536838Y-86267882D01*
X168535920Y-86269849D01*
X168499780Y-86340781D01*
X168492735Y-86362458D01*
X168489532Y-86369329D01*
X168489529Y-86369338D01*
X168478261Y-86393503D01*
X168478261Y-86393504D01*
X168458459Y-86467404D01*
X168458458Y-86467403D01*
X168457614Y-86470551D01*
X168436523Y-86535466D01*
X168431175Y-86569224D01*
X168429492Y-86575507D01*
X168429492Y-86575511D01*
X168419366Y-86613304D01*
X168419364Y-86613313D01*
X168413783Y-86677106D01*
X168412728Y-86685697D01*
X168404500Y-86737643D01*
X168404500Y-86737648D01*
X168404500Y-86942352D01*
X168413406Y-86998582D01*
X168419365Y-87066692D01*
X168431171Y-87110756D01*
X168432188Y-87117175D01*
X168432190Y-87117181D01*
X168436521Y-87144525D01*
X168436522Y-87144530D01*
X168456617Y-87206378D01*
X168458460Y-87212600D01*
X168478260Y-87286494D01*
X168489529Y-87310662D01*
X168492733Y-87317532D01*
X168499780Y-87339219D01*
X168535930Y-87410169D01*
X168536844Y-87412128D01*
X168574432Y-87492734D01*
X168582562Y-87504346D01*
X168587535Y-87511448D01*
X168592713Y-87521610D01*
X168646164Y-87595180D01*
X168646793Y-87596078D01*
X168704953Y-87679140D01*
X168865858Y-87840045D01*
X168865861Y-87840047D01*
X168949800Y-87898821D01*
X169023390Y-87952287D01*
X169033547Y-87957462D01*
X169040648Y-87962434D01*
X169040652Y-87962436D01*
X169052266Y-87970568D01*
X169052270Y-87970570D01*
X169110272Y-87997617D01*
X169120927Y-88006999D01*
X169134131Y-88012224D01*
X169146629Y-88029629D01*
X169162712Y-88043789D01*
X169166604Y-88057444D01*
X169174886Y-88068977D01*
X169175990Y-88090375D01*
X169181864Y-88110982D01*
X169177755Y-88124573D01*
X169178488Y-88138754D01*
X169167848Y-88157352D01*
X169161649Y-88177864D01*
X169150167Y-88188259D01*
X169143794Y-88199401D01*
X169119369Y-88216145D01*
X169115126Y-88219988D01*
X169112711Y-88221244D01*
X169052266Y-88249432D01*
X169034002Y-88262219D01*
X169026792Y-88265973D01*
X169026591Y-88266012D01*
X169025847Y-88266460D01*
X169023397Y-88267708D01*
X169023394Y-88267710D01*
X168950696Y-88320526D01*
X168948939Y-88321779D01*
X168865859Y-88379954D01*
X168704954Y-88540859D01*
X168646781Y-88623934D01*
X168646782Y-88623935D01*
X168646132Y-88624863D01*
X168592713Y-88698390D01*
X168587535Y-88708550D01*
X168582560Y-88715656D01*
X168582558Y-88715656D01*
X168574433Y-88727262D01*
X168536838Y-88807882D01*
X168535920Y-88809849D01*
X168499780Y-88880781D01*
X168492735Y-88902458D01*
X168489532Y-88909329D01*
X168489529Y-88909338D01*
X168478261Y-88933503D01*
X168478261Y-88933504D01*
X168458459Y-89007404D01*
X168458458Y-89007403D01*
X168457614Y-89010551D01*
X168436523Y-89075466D01*
X168431175Y-89109224D01*
X168429492Y-89115507D01*
X168429492Y-89115511D01*
X168419366Y-89153304D01*
X168419364Y-89153313D01*
X168413783Y-89217106D01*
X168412728Y-89225697D01*
X168404500Y-89277643D01*
X168404500Y-89277648D01*
X168404500Y-89482352D01*
X168413406Y-89538582D01*
X168419365Y-89606692D01*
X168431171Y-89650756D01*
X168432188Y-89657175D01*
X168432190Y-89657181D01*
X168436521Y-89684525D01*
X168436522Y-89684530D01*
X168456617Y-89746378D01*
X168458460Y-89752600D01*
X168478260Y-89826494D01*
X168489529Y-89850662D01*
X168492733Y-89857532D01*
X168499780Y-89879219D01*
X168535930Y-89950169D01*
X168536844Y-89952128D01*
X168574432Y-90032734D01*
X168582562Y-90044346D01*
X168587535Y-90051448D01*
X168592713Y-90061610D01*
X168646164Y-90135180D01*
X168646793Y-90136078D01*
X168704953Y-90219140D01*
X168865858Y-90380045D01*
X168865861Y-90380047D01*
X168949800Y-90438821D01*
X169023390Y-90492287D01*
X169033547Y-90497462D01*
X169040648Y-90502434D01*
X169040652Y-90502436D01*
X169052266Y-90510568D01*
X169052270Y-90510570D01*
X169110272Y-90537617D01*
X169120927Y-90546999D01*
X169134131Y-90552224D01*
X169146629Y-90569629D01*
X169162712Y-90583789D01*
X169166604Y-90597444D01*
X169174886Y-90608977D01*
X169175990Y-90630375D01*
X169181864Y-90650982D01*
X169177755Y-90664573D01*
X169178488Y-90678754D01*
X169167848Y-90697352D01*
X169161649Y-90717864D01*
X169150167Y-90728259D01*
X169143794Y-90739401D01*
X169119369Y-90756145D01*
X169115126Y-90759988D01*
X169112711Y-90761244D01*
X169052266Y-90789432D01*
X169034002Y-90802219D01*
X169026792Y-90805973D01*
X169026591Y-90806012D01*
X169025847Y-90806460D01*
X169023397Y-90807708D01*
X169023394Y-90807710D01*
X168950696Y-90860526D01*
X168948939Y-90861779D01*
X168865859Y-90919954D01*
X168704954Y-91080859D01*
X168646781Y-91163934D01*
X168646782Y-91163935D01*
X168646132Y-91164863D01*
X168592713Y-91238390D01*
X168587535Y-91248550D01*
X168582560Y-91255656D01*
X168582558Y-91255656D01*
X168574433Y-91267262D01*
X168536838Y-91347882D01*
X168535920Y-91349849D01*
X168499780Y-91420781D01*
X168492735Y-91442458D01*
X168489532Y-91449329D01*
X168489529Y-91449338D01*
X168478261Y-91473503D01*
X168478261Y-91473504D01*
X168458459Y-91547404D01*
X168458458Y-91547403D01*
X168457614Y-91550551D01*
X168436523Y-91615466D01*
X168431175Y-91649224D01*
X168429492Y-91655507D01*
X168429492Y-91655511D01*
X168419366Y-91693304D01*
X168419364Y-91693313D01*
X168413783Y-91757106D01*
X168412728Y-91765697D01*
X168404500Y-91817643D01*
X168404500Y-91817648D01*
X168404500Y-92022352D01*
X168413406Y-92078582D01*
X168419365Y-92146692D01*
X168431171Y-92190756D01*
X168432188Y-92197175D01*
X168432190Y-92197181D01*
X168436521Y-92224525D01*
X168436522Y-92224530D01*
X168456617Y-92286378D01*
X168458460Y-92292600D01*
X168478260Y-92366494D01*
X168489529Y-92390662D01*
X168492733Y-92397532D01*
X168499780Y-92419219D01*
X168535930Y-92490169D01*
X168536844Y-92492128D01*
X168574432Y-92572734D01*
X168582562Y-92584346D01*
X168587535Y-92591448D01*
X168592713Y-92601610D01*
X168646164Y-92675180D01*
X168646793Y-92676078D01*
X168704953Y-92759140D01*
X168865858Y-92920045D01*
X168865861Y-92920047D01*
X168949800Y-92978821D01*
X169023390Y-93032287D01*
X169033547Y-93037462D01*
X169040648Y-93042434D01*
X169040652Y-93042436D01*
X169052266Y-93050568D01*
X169052270Y-93050570D01*
X169110272Y-93077617D01*
X169120927Y-93086999D01*
X169134131Y-93092224D01*
X169146629Y-93109629D01*
X169162712Y-93123789D01*
X169166604Y-93137444D01*
X169174886Y-93148977D01*
X169175990Y-93170375D01*
X169181864Y-93190982D01*
X169177755Y-93204573D01*
X169178488Y-93218754D01*
X169167848Y-93237352D01*
X169161649Y-93257864D01*
X169150167Y-93268259D01*
X169143794Y-93279401D01*
X169119369Y-93296145D01*
X169115126Y-93299988D01*
X169112711Y-93301244D01*
X169052266Y-93329432D01*
X169034002Y-93342219D01*
X169026792Y-93345973D01*
X169026591Y-93346012D01*
X169025847Y-93346460D01*
X169023397Y-93347708D01*
X169023394Y-93347710D01*
X168950696Y-93400526D01*
X168948939Y-93401779D01*
X168865859Y-93459954D01*
X168704954Y-93620859D01*
X168646781Y-93703934D01*
X168646782Y-93703935D01*
X168646132Y-93704863D01*
X168592713Y-93778390D01*
X168587535Y-93788550D01*
X168582560Y-93795656D01*
X168582558Y-93795656D01*
X168574433Y-93807262D01*
X168536838Y-93887882D01*
X168535920Y-93889849D01*
X168499780Y-93960781D01*
X168492735Y-93982458D01*
X168489532Y-93989329D01*
X168489529Y-93989338D01*
X168478261Y-94013503D01*
X168478261Y-94013504D01*
X168458459Y-94087404D01*
X168458458Y-94087403D01*
X168457614Y-94090551D01*
X168436523Y-94155466D01*
X168431175Y-94189224D01*
X168429492Y-94195507D01*
X168429492Y-94195511D01*
X168419366Y-94233304D01*
X168419364Y-94233313D01*
X168413783Y-94297106D01*
X168412728Y-94305697D01*
X168404500Y-94357643D01*
X168404500Y-94357648D01*
X168404500Y-94562352D01*
X168413406Y-94618582D01*
X168419365Y-94686692D01*
X168431171Y-94730756D01*
X168432188Y-94737175D01*
X168432190Y-94737181D01*
X168436521Y-94764525D01*
X168436522Y-94764530D01*
X168456617Y-94826378D01*
X168458460Y-94832600D01*
X168478260Y-94906494D01*
X168489529Y-94930662D01*
X168492733Y-94937532D01*
X168499780Y-94959219D01*
X168535930Y-95030169D01*
X168536844Y-95032128D01*
X168574432Y-95112734D01*
X168582562Y-95124346D01*
X168587535Y-95131448D01*
X168592713Y-95141610D01*
X168646164Y-95215180D01*
X168646793Y-95216078D01*
X168704953Y-95299140D01*
X168865858Y-95460045D01*
X168932379Y-95506623D01*
X168976004Y-95561199D01*
X168983198Y-95630698D01*
X168951676Y-95693052D01*
X168891922Y-95728346D01*
X168871970Y-95733438D01*
X168871956Y-95733442D01*
X168815415Y-95756862D01*
X169575590Y-96517037D01*
X169512007Y-96534075D01*
X169397993Y-96599901D01*
X169304901Y-96692993D01*
X169239075Y-96807007D01*
X169205000Y-96934174D01*
X169205000Y-97065826D01*
X169239075Y-97192993D01*
X169304901Y-97307007D01*
X169397993Y-97400099D01*
X169512007Y-97465925D01*
X169575589Y-97482962D01*
X168815415Y-98243135D01*
X168815415Y-98243136D01*
X168871947Y-98266553D01*
X168900159Y-98276505D01*
X168956832Y-98317370D01*
X168982415Y-98382388D01*
X168968786Y-98450915D01*
X168930035Y-98495016D01*
X168865859Y-98539954D01*
X168704954Y-98700859D01*
X168646781Y-98783934D01*
X168646782Y-98783935D01*
X168646132Y-98784863D01*
X168592713Y-98858390D01*
X168587535Y-98868550D01*
X168582560Y-98875656D01*
X168582558Y-98875656D01*
X168574433Y-98887262D01*
X168536838Y-98967882D01*
X168535920Y-98969849D01*
X168499780Y-99040781D01*
X168492735Y-99062458D01*
X168489532Y-99069329D01*
X168489529Y-99069338D01*
X168478261Y-99093503D01*
X168478261Y-99093504D01*
X168458459Y-99167404D01*
X168458458Y-99167403D01*
X168457614Y-99170551D01*
X168436523Y-99235466D01*
X168431175Y-99269224D01*
X168429492Y-99275507D01*
X168429492Y-99275511D01*
X168419366Y-99313304D01*
X168419364Y-99313313D01*
X168413783Y-99377106D01*
X168412728Y-99385697D01*
X168404500Y-99437643D01*
X168404500Y-99437648D01*
X168404500Y-99642352D01*
X168413406Y-99698582D01*
X168419365Y-99766692D01*
X168431171Y-99810756D01*
X168432188Y-99817175D01*
X168432190Y-99817181D01*
X168436521Y-99844525D01*
X168436522Y-99844530D01*
X168456617Y-99906378D01*
X168458460Y-99912600D01*
X168478260Y-99986494D01*
X168489529Y-100010662D01*
X168492733Y-100017532D01*
X168499780Y-100039219D01*
X168535930Y-100110169D01*
X168536844Y-100112128D01*
X168574432Y-100192734D01*
X168582562Y-100204346D01*
X168587535Y-100211448D01*
X168592713Y-100221610D01*
X168646164Y-100295180D01*
X168646793Y-100296078D01*
X168704953Y-100379140D01*
X168865858Y-100540045D01*
X168865861Y-100540047D01*
X168949800Y-100598821D01*
X169023390Y-100652287D01*
X169033547Y-100657462D01*
X169040648Y-100662434D01*
X169040652Y-100662436D01*
X169052266Y-100670568D01*
X169052270Y-100670570D01*
X169110272Y-100697617D01*
X169120927Y-100706999D01*
X169134131Y-100712224D01*
X169146629Y-100729629D01*
X169162712Y-100743789D01*
X169166604Y-100757444D01*
X169174886Y-100768977D01*
X169175990Y-100790375D01*
X169181864Y-100810982D01*
X169177755Y-100824573D01*
X169178488Y-100838754D01*
X169167848Y-100857352D01*
X169161649Y-100877864D01*
X169150167Y-100888259D01*
X169143794Y-100899401D01*
X169119369Y-100916145D01*
X169115126Y-100919988D01*
X169112711Y-100921244D01*
X169052266Y-100949432D01*
X169034002Y-100962219D01*
X169026792Y-100965973D01*
X169026591Y-100966012D01*
X169025847Y-100966460D01*
X169023397Y-100967708D01*
X169023394Y-100967710D01*
X168950696Y-101020526D01*
X168948939Y-101021779D01*
X168865859Y-101079954D01*
X168704954Y-101240859D01*
X168646781Y-101323934D01*
X168646782Y-101323935D01*
X168646132Y-101324863D01*
X168592713Y-101398390D01*
X168587535Y-101408550D01*
X168582560Y-101415656D01*
X168582558Y-101415656D01*
X168574433Y-101427262D01*
X168536838Y-101507882D01*
X168535920Y-101509849D01*
X168499780Y-101580781D01*
X168492735Y-101602458D01*
X168489532Y-101609329D01*
X168489529Y-101609338D01*
X168478261Y-101633503D01*
X168478261Y-101633504D01*
X168458459Y-101707404D01*
X168458458Y-101707403D01*
X168457614Y-101710551D01*
X168436523Y-101775466D01*
X168431175Y-101809224D01*
X168429492Y-101815507D01*
X168429492Y-101815511D01*
X168419366Y-101853304D01*
X168419364Y-101853313D01*
X168413783Y-101917106D01*
X168412728Y-101925697D01*
X168404500Y-101977643D01*
X168404500Y-101977648D01*
X168404500Y-102182352D01*
X168413406Y-102238582D01*
X168419365Y-102306692D01*
X168431171Y-102350756D01*
X168432188Y-102357175D01*
X168432190Y-102357181D01*
X168436521Y-102384525D01*
X168436522Y-102384530D01*
X168456617Y-102446378D01*
X168458460Y-102452600D01*
X168478260Y-102526494D01*
X168489529Y-102550662D01*
X168492733Y-102557532D01*
X168499780Y-102579219D01*
X168535930Y-102650169D01*
X168536844Y-102652128D01*
X168574432Y-102732734D01*
X168582562Y-102744346D01*
X168587535Y-102751448D01*
X168592713Y-102761610D01*
X168646164Y-102835180D01*
X168646793Y-102836078D01*
X168704953Y-102919140D01*
X168865858Y-103080045D01*
X168865861Y-103080047D01*
X168949800Y-103138821D01*
X169023390Y-103192287D01*
X169033547Y-103197462D01*
X169040648Y-103202434D01*
X169040652Y-103202436D01*
X169052266Y-103210568D01*
X169052270Y-103210570D01*
X169110272Y-103237617D01*
X169120927Y-103246999D01*
X169134131Y-103252224D01*
X169146629Y-103269629D01*
X169162712Y-103283789D01*
X169166604Y-103297444D01*
X169174886Y-103308977D01*
X169175990Y-103330375D01*
X169181864Y-103350982D01*
X169177755Y-103364573D01*
X169178488Y-103378754D01*
X169167848Y-103397352D01*
X169161649Y-103417864D01*
X169150167Y-103428259D01*
X169143794Y-103439401D01*
X169119369Y-103456145D01*
X169115126Y-103459988D01*
X169112711Y-103461244D01*
X169052266Y-103489432D01*
X169034002Y-103502219D01*
X169026792Y-103505973D01*
X169026591Y-103506012D01*
X169025847Y-103506460D01*
X169023397Y-103507708D01*
X169023394Y-103507710D01*
X168950696Y-103560526D01*
X168948939Y-103561779D01*
X168865859Y-103619954D01*
X168704954Y-103780859D01*
X168646781Y-103863934D01*
X168646782Y-103863935D01*
X168646132Y-103864863D01*
X168592713Y-103938390D01*
X168587535Y-103948550D01*
X168582560Y-103955656D01*
X168582558Y-103955656D01*
X168574433Y-103967262D01*
X168536838Y-104047882D01*
X168535920Y-104049849D01*
X168499780Y-104120781D01*
X168492735Y-104142458D01*
X168489532Y-104149329D01*
X168489529Y-104149338D01*
X168478261Y-104173503D01*
X168478261Y-104173504D01*
X168458459Y-104247404D01*
X168458458Y-104247403D01*
X168457614Y-104250551D01*
X168436523Y-104315466D01*
X168431175Y-104349224D01*
X168429492Y-104355507D01*
X168429492Y-104355511D01*
X168419366Y-104393304D01*
X168419364Y-104393313D01*
X168413783Y-104457106D01*
X168412728Y-104465697D01*
X168404500Y-104517643D01*
X168404500Y-104517648D01*
X168404500Y-104722352D01*
X168413406Y-104778582D01*
X168419365Y-104846692D01*
X168431171Y-104890756D01*
X168432188Y-104897175D01*
X168432190Y-104897181D01*
X168436521Y-104924525D01*
X168436522Y-104924530D01*
X168456617Y-104986378D01*
X168458460Y-104992600D01*
X168478260Y-105066494D01*
X168489529Y-105090662D01*
X168492733Y-105097532D01*
X168499780Y-105119219D01*
X168535930Y-105190169D01*
X168536844Y-105192128D01*
X168574432Y-105272734D01*
X168582562Y-105284346D01*
X168587535Y-105291448D01*
X168592713Y-105301610D01*
X168646164Y-105375180D01*
X168646793Y-105376078D01*
X168704953Y-105459140D01*
X168865858Y-105620045D01*
X168865861Y-105620047D01*
X168949800Y-105678821D01*
X169023390Y-105732287D01*
X169033547Y-105737462D01*
X169040648Y-105742434D01*
X169040652Y-105742436D01*
X169052266Y-105750568D01*
X169052270Y-105750570D01*
X169110272Y-105777617D01*
X169120927Y-105786999D01*
X169134131Y-105792224D01*
X169146629Y-105809629D01*
X169162712Y-105823789D01*
X169166604Y-105837444D01*
X169174886Y-105848977D01*
X169175990Y-105870375D01*
X169181864Y-105890982D01*
X169177755Y-105904573D01*
X169178488Y-105918754D01*
X169167848Y-105937352D01*
X169161649Y-105957864D01*
X169150167Y-105968259D01*
X169143794Y-105979401D01*
X169119369Y-105996145D01*
X169115126Y-105999988D01*
X169112711Y-106001244D01*
X169052266Y-106029432D01*
X169034002Y-106042219D01*
X169026792Y-106045973D01*
X169026591Y-106046012D01*
X169025847Y-106046460D01*
X169023397Y-106047708D01*
X169023394Y-106047710D01*
X168950696Y-106100526D01*
X168948939Y-106101779D01*
X168865859Y-106159954D01*
X168704954Y-106320859D01*
X168646781Y-106403934D01*
X168646782Y-106403935D01*
X168646132Y-106404863D01*
X168592713Y-106478390D01*
X168587535Y-106488550D01*
X168582560Y-106495656D01*
X168582558Y-106495656D01*
X168574433Y-106507262D01*
X168536838Y-106587882D01*
X168535920Y-106589849D01*
X168499780Y-106660781D01*
X168492735Y-106682458D01*
X168489532Y-106689329D01*
X168489529Y-106689338D01*
X168478261Y-106713503D01*
X168478261Y-106713504D01*
X168458459Y-106787404D01*
X168458458Y-106787403D01*
X168457614Y-106790551D01*
X168436523Y-106855466D01*
X168431175Y-106889224D01*
X168429492Y-106895507D01*
X168429492Y-106895511D01*
X168419366Y-106933304D01*
X168419364Y-106933313D01*
X168413783Y-106997106D01*
X168412728Y-107005697D01*
X168404500Y-107057643D01*
X168404500Y-107057648D01*
X168404500Y-107262352D01*
X168413406Y-107318582D01*
X168419365Y-107386692D01*
X168431171Y-107430756D01*
X168432188Y-107437175D01*
X168432190Y-107437181D01*
X168436521Y-107464525D01*
X168436522Y-107464530D01*
X168456617Y-107526378D01*
X168458460Y-107532600D01*
X168478260Y-107606494D01*
X168489529Y-107630662D01*
X168492733Y-107637532D01*
X168499780Y-107659219D01*
X168535930Y-107730169D01*
X168536844Y-107732128D01*
X168574432Y-107812734D01*
X168582562Y-107824346D01*
X168587535Y-107831448D01*
X168592713Y-107841610D01*
X168646164Y-107915180D01*
X168646793Y-107916078D01*
X168704953Y-107999140D01*
X168865858Y-108160045D01*
X168932379Y-108206623D01*
X168976004Y-108261199D01*
X168983198Y-108330698D01*
X168951676Y-108393052D01*
X168891922Y-108428346D01*
X168871970Y-108433438D01*
X168871956Y-108433442D01*
X168815415Y-108456862D01*
X169575590Y-109217037D01*
X169512007Y-109234075D01*
X169397993Y-109299901D01*
X169304901Y-109392993D01*
X169239075Y-109507007D01*
X169205000Y-109634174D01*
X169205000Y-109765826D01*
X169239075Y-109892993D01*
X169304901Y-110007007D01*
X169397993Y-110100099D01*
X169512007Y-110165925D01*
X169575589Y-110182962D01*
X168815415Y-110943135D01*
X168815415Y-110943136D01*
X168871947Y-110966553D01*
X168900159Y-110976505D01*
X168956832Y-111017370D01*
X168982415Y-111082388D01*
X168968786Y-111150915D01*
X168930035Y-111195016D01*
X168865859Y-111239954D01*
X168704954Y-111400859D01*
X168646781Y-111483934D01*
X168646782Y-111483935D01*
X168646132Y-111484863D01*
X168592713Y-111558390D01*
X168587535Y-111568550D01*
X168582560Y-111575656D01*
X168582558Y-111575656D01*
X168574433Y-111587262D01*
X168536838Y-111667882D01*
X168535920Y-111669849D01*
X168499780Y-111740781D01*
X168492735Y-111762458D01*
X168489532Y-111769329D01*
X168489529Y-111769338D01*
X168478261Y-111793503D01*
X168478261Y-111793504D01*
X168458459Y-111867404D01*
X168458458Y-111867403D01*
X168457614Y-111870551D01*
X168436523Y-111935466D01*
X168431175Y-111969224D01*
X168429492Y-111975507D01*
X168429492Y-111975511D01*
X168419366Y-112013304D01*
X168419364Y-112013313D01*
X168413783Y-112077106D01*
X168412942Y-112083954D01*
X168412941Y-112084301D01*
X168412837Y-112085007D01*
X168404500Y-112137648D01*
X168404500Y-112342352D01*
X168413406Y-112398582D01*
X168419365Y-112466692D01*
X168431171Y-112510756D01*
X168432188Y-112517175D01*
X168432190Y-112517181D01*
X168436521Y-112544525D01*
X168436522Y-112544530D01*
X168456617Y-112606378D01*
X168458460Y-112612600D01*
X168478260Y-112686494D01*
X168489529Y-112710662D01*
X168492733Y-112717532D01*
X168499780Y-112739219D01*
X168535930Y-112810169D01*
X168536844Y-112812128D01*
X168574432Y-112892734D01*
X168582562Y-112904346D01*
X168587535Y-112911448D01*
X168592713Y-112921610D01*
X168646164Y-112995180D01*
X168646793Y-112996078D01*
X168704953Y-113079140D01*
X168865858Y-113240045D01*
X168865861Y-113240047D01*
X168949800Y-113298821D01*
X169023390Y-113352287D01*
X169033547Y-113357462D01*
X169040648Y-113362434D01*
X169040652Y-113362436D01*
X169052266Y-113370568D01*
X169052270Y-113370570D01*
X169110272Y-113397617D01*
X169120927Y-113406999D01*
X169134131Y-113412224D01*
X169146629Y-113429629D01*
X169162712Y-113443789D01*
X169166604Y-113457444D01*
X169174886Y-113468977D01*
X169175990Y-113490375D01*
X169181864Y-113510982D01*
X169177755Y-113524573D01*
X169178488Y-113538754D01*
X169167848Y-113557352D01*
X169161649Y-113577864D01*
X169150167Y-113588259D01*
X169143794Y-113599401D01*
X169119369Y-113616145D01*
X169115126Y-113619988D01*
X169112711Y-113621244D01*
X169052266Y-113649432D01*
X169034002Y-113662219D01*
X169026792Y-113665973D01*
X169026591Y-113666012D01*
X169025847Y-113666460D01*
X169023397Y-113667708D01*
X169023394Y-113667710D01*
X168950696Y-113720526D01*
X168948939Y-113721779D01*
X168865859Y-113779954D01*
X168704954Y-113940859D01*
X168646781Y-114023934D01*
X168646782Y-114023935D01*
X168646132Y-114024863D01*
X168592713Y-114098390D01*
X168587535Y-114108550D01*
X168582560Y-114115656D01*
X168582558Y-114115656D01*
X168574433Y-114127262D01*
X168536838Y-114207882D01*
X168535920Y-114209849D01*
X168499780Y-114280781D01*
X168492735Y-114302458D01*
X168489532Y-114309329D01*
X168489529Y-114309338D01*
X168478261Y-114333503D01*
X168478261Y-114333504D01*
X168458459Y-114407404D01*
X168458458Y-114407403D01*
X168457614Y-114410551D01*
X168436523Y-114475466D01*
X168431175Y-114509224D01*
X168429492Y-114515507D01*
X168429492Y-114515511D01*
X168419366Y-114553304D01*
X168419364Y-114553313D01*
X168413783Y-114617106D01*
X168412728Y-114625697D01*
X168404500Y-114677643D01*
X168404500Y-114677648D01*
X168404500Y-114882352D01*
X168413406Y-114938582D01*
X168419365Y-115006692D01*
X168431171Y-115050756D01*
X168432188Y-115057175D01*
X168432190Y-115057181D01*
X168436521Y-115084525D01*
X168436522Y-115084530D01*
X168456617Y-115146378D01*
X168458460Y-115152600D01*
X168478260Y-115226494D01*
X168489529Y-115250662D01*
X168492733Y-115257532D01*
X168499780Y-115279219D01*
X168535930Y-115350169D01*
X168536844Y-115352128D01*
X168574432Y-115432734D01*
X168582562Y-115444346D01*
X168587535Y-115451448D01*
X168592713Y-115461610D01*
X168646164Y-115535180D01*
X168646793Y-115536078D01*
X168704953Y-115619140D01*
X168865858Y-115780045D01*
X168948904Y-115838194D01*
X168949800Y-115838821D01*
X169023390Y-115892287D01*
X169033547Y-115897462D01*
X169040648Y-115902434D01*
X169040652Y-115902436D01*
X169052265Y-115910567D01*
X169052266Y-115910568D01*
X169134827Y-115949067D01*
X169205781Y-115985220D01*
X169227467Y-115992266D01*
X169258504Y-116006739D01*
X169258510Y-116006740D01*
X169258513Y-116006742D01*
X169332386Y-116026535D01*
X169335528Y-116027377D01*
X169400466Y-116048477D01*
X169434233Y-116053825D01*
X169478308Y-116065635D01*
X169542103Y-116071215D01*
X169550690Y-116072269D01*
X169602648Y-116080500D01*
X169602649Y-116080500D01*
X171361785Y-116080500D01*
X171361785Y-116080499D01*
X171531692Y-116065635D01*
X171751496Y-116006739D01*
X171957734Y-115910568D01*
X172144139Y-115780047D01*
X172305047Y-115619139D01*
X172435568Y-115432734D01*
X172531739Y-115226496D01*
X172590635Y-115006692D01*
X172605500Y-114836784D01*
X172605500Y-114723216D01*
X172590635Y-114553308D01*
X172545916Y-114386415D01*
X172531741Y-114333511D01*
X172531738Y-114333503D01*
X172435568Y-114127266D01*
X172305047Y-113940861D01*
X172305045Y-113940858D01*
X172144141Y-113779954D01*
X171957734Y-113649432D01*
X171957728Y-113649429D01*
X171899725Y-113622382D01*
X171847285Y-113576210D01*
X171828133Y-113509017D01*
X171848348Y-113442135D01*
X171899725Y-113397618D01*
X171957734Y-113370568D01*
X172144139Y-113240047D01*
X172305047Y-113079139D01*
X172435568Y-112892734D01*
X172531739Y-112686496D01*
X172590635Y-112466692D01*
X172605500Y-112296784D01*
X172605500Y-112183216D01*
X172590635Y-112013308D01*
X172545916Y-111846415D01*
X172531741Y-111793511D01*
X172531738Y-111793503D01*
X172435568Y-111587266D01*
X172305047Y-111400861D01*
X172305045Y-111400858D01*
X172144141Y-111239954D01*
X171957734Y-111109432D01*
X171957732Y-111109431D01*
X171905779Y-111085205D01*
X171853340Y-111039032D01*
X171834188Y-110971839D01*
X171854404Y-110904958D01*
X171899732Y-110863464D01*
X171964500Y-110828844D01*
X171964521Y-110828832D01*
X172095530Y-110741295D01*
X172095536Y-110741291D01*
X172172064Y-110678485D01*
X172283485Y-110567064D01*
X172346291Y-110490536D01*
X172346295Y-110490530D01*
X172433832Y-110359521D01*
X172433844Y-110359501D01*
X172480509Y-110272198D01*
X172540814Y-110126612D01*
X172569556Y-110031860D01*
X172569559Y-110031849D01*
X172585839Y-109950000D01*
X170138012Y-109950000D01*
X170170925Y-109892993D01*
X170205000Y-109765826D01*
X170205000Y-109634174D01*
X170170925Y-109507007D01*
X170138012Y-109450000D01*
X172585839Y-109450000D01*
X172585839Y-109449999D01*
X172569559Y-109368150D01*
X172569556Y-109368139D01*
X172540814Y-109273387D01*
X172480509Y-109127801D01*
X172433844Y-109040498D01*
X172433832Y-109040478D01*
X172346295Y-108909469D01*
X172346291Y-108909463D01*
X172283485Y-108832935D01*
X172172064Y-108721514D01*
X172095536Y-108658708D01*
X172095530Y-108658704D01*
X171964521Y-108571167D01*
X171964501Y-108571155D01*
X171899730Y-108536534D01*
X171849886Y-108487571D01*
X171834426Y-108419434D01*
X171858258Y-108353754D01*
X171905777Y-108314795D01*
X171957734Y-108290568D01*
X172144139Y-108160047D01*
X172305047Y-107999139D01*
X172435568Y-107812734D01*
X172531739Y-107606496D01*
X172590635Y-107386692D01*
X172605500Y-107216784D01*
X172605500Y-107103216D01*
X172590635Y-106933308D01*
X172545916Y-106766415D01*
X172531741Y-106713511D01*
X172531738Y-106713503D01*
X172435568Y-106507266D01*
X172305047Y-106320861D01*
X172305045Y-106320858D01*
X172144141Y-106159954D01*
X171957734Y-106029432D01*
X171957728Y-106029429D01*
X171899725Y-106002382D01*
X171847285Y-105956210D01*
X171828133Y-105889017D01*
X171848348Y-105822135D01*
X171899725Y-105777618D01*
X171957734Y-105750568D01*
X172144139Y-105620047D01*
X172305047Y-105459139D01*
X172435568Y-105272734D01*
X172531739Y-105066496D01*
X172590635Y-104846692D01*
X172605500Y-104676784D01*
X172605500Y-104563216D01*
X172590635Y-104393308D01*
X172545916Y-104226415D01*
X172531741Y-104173511D01*
X172531738Y-104173503D01*
X172435568Y-103967266D01*
X172305047Y-103780861D01*
X172305045Y-103780858D01*
X172144141Y-103619954D01*
X171957734Y-103489432D01*
X171957728Y-103489429D01*
X171899725Y-103462382D01*
X171847285Y-103416210D01*
X171828133Y-103349017D01*
X171848348Y-103282135D01*
X171899725Y-103237618D01*
X171957734Y-103210568D01*
X172144139Y-103080047D01*
X172305047Y-102919139D01*
X172435568Y-102732734D01*
X172531739Y-102526496D01*
X172590635Y-102306692D01*
X172605500Y-102136784D01*
X172605500Y-102023216D01*
X172590635Y-101853308D01*
X172545916Y-101686415D01*
X172531741Y-101633511D01*
X172531738Y-101633503D01*
X172435568Y-101427266D01*
X172305047Y-101240861D01*
X172305045Y-101240858D01*
X172144141Y-101079954D01*
X171957734Y-100949432D01*
X171957728Y-100949429D01*
X171899725Y-100922382D01*
X171847285Y-100876210D01*
X171828133Y-100809017D01*
X171848348Y-100742135D01*
X171899725Y-100697618D01*
X171957734Y-100670568D01*
X172144139Y-100540047D01*
X172305047Y-100379139D01*
X172435568Y-100192734D01*
X172531739Y-99986496D01*
X172590635Y-99766692D01*
X172605500Y-99596784D01*
X172605500Y-99483216D01*
X172590635Y-99313308D01*
X172545916Y-99146415D01*
X172531741Y-99093511D01*
X172531738Y-99093503D01*
X172435568Y-98887266D01*
X172305047Y-98700861D01*
X172305045Y-98700858D01*
X172144141Y-98539954D01*
X171957734Y-98409432D01*
X171957732Y-98409431D01*
X171905779Y-98385205D01*
X171853340Y-98339032D01*
X171834188Y-98271839D01*
X171854404Y-98204958D01*
X171899732Y-98163464D01*
X171964500Y-98128844D01*
X171964521Y-98128832D01*
X172095530Y-98041295D01*
X172095536Y-98041291D01*
X172172064Y-97978485D01*
X172283485Y-97867064D01*
X172346291Y-97790536D01*
X172346295Y-97790530D01*
X172433832Y-97659521D01*
X172433844Y-97659501D01*
X172480509Y-97572198D01*
X172540814Y-97426612D01*
X172569556Y-97331860D01*
X172569559Y-97331849D01*
X172585839Y-97250000D01*
X170138012Y-97250000D01*
X170170925Y-97192993D01*
X170205000Y-97065826D01*
X170205000Y-96934174D01*
X170170925Y-96807007D01*
X170138012Y-96750000D01*
X172585839Y-96750000D01*
X172585839Y-96749999D01*
X172569559Y-96668150D01*
X172569556Y-96668139D01*
X172540814Y-96573387D01*
X172480509Y-96427801D01*
X172433844Y-96340498D01*
X172433832Y-96340478D01*
X172346295Y-96209469D01*
X172346291Y-96209463D01*
X172283485Y-96132935D01*
X172172064Y-96021514D01*
X172095536Y-95958708D01*
X172095530Y-95958704D01*
X171964521Y-95871167D01*
X171964501Y-95871155D01*
X171899730Y-95836534D01*
X171849886Y-95787571D01*
X171834426Y-95719434D01*
X171858258Y-95653754D01*
X171905777Y-95614795D01*
X171957734Y-95590568D01*
X172144139Y-95460047D01*
X172305047Y-95299139D01*
X172435568Y-95112734D01*
X172531739Y-94906496D01*
X172590635Y-94686692D01*
X172605500Y-94516784D01*
X172605500Y-94403216D01*
X172590635Y-94233308D01*
X172545916Y-94066415D01*
X172531741Y-94013511D01*
X172531738Y-94013503D01*
X172435568Y-93807266D01*
X172305047Y-93620861D01*
X172305045Y-93620858D01*
X172144141Y-93459954D01*
X171957734Y-93329432D01*
X171957728Y-93329429D01*
X171899725Y-93302382D01*
X171847285Y-93256210D01*
X171828133Y-93189017D01*
X171848348Y-93122135D01*
X171899725Y-93077618D01*
X171957734Y-93050568D01*
X172144139Y-92920047D01*
X172305047Y-92759139D01*
X172435568Y-92572734D01*
X172531739Y-92366496D01*
X172590635Y-92146692D01*
X172605500Y-91976784D01*
X172605500Y-91863216D01*
X172590635Y-91693308D01*
X172545916Y-91526415D01*
X172531741Y-91473511D01*
X172531738Y-91473503D01*
X172435568Y-91267266D01*
X172305047Y-91080861D01*
X172305045Y-91080858D01*
X172144141Y-90919954D01*
X171957734Y-90789432D01*
X171957728Y-90789429D01*
X171899725Y-90762382D01*
X171847285Y-90716210D01*
X171828133Y-90649017D01*
X171848348Y-90582135D01*
X171899725Y-90537618D01*
X171957734Y-90510568D01*
X172144139Y-90380047D01*
X172305047Y-90219139D01*
X172435568Y-90032734D01*
X172531739Y-89826496D01*
X172590635Y-89606692D01*
X172605500Y-89436784D01*
X172605500Y-89323216D01*
X172590635Y-89153308D01*
X172545916Y-88986415D01*
X172531741Y-88933511D01*
X172531738Y-88933503D01*
X172435568Y-88727266D01*
X172305047Y-88540861D01*
X172305045Y-88540858D01*
X172144141Y-88379954D01*
X171957734Y-88249432D01*
X171957728Y-88249429D01*
X171899725Y-88222382D01*
X171847285Y-88176210D01*
X171828133Y-88109017D01*
X171848348Y-88042135D01*
X171899725Y-87997618D01*
X171957734Y-87970568D01*
X172144139Y-87840047D01*
X172305047Y-87679139D01*
X172435568Y-87492734D01*
X172531739Y-87286496D01*
X172590635Y-87066692D01*
X172605500Y-86896784D01*
X172605500Y-86783216D01*
X172590635Y-86613308D01*
X172535005Y-86405692D01*
X172531741Y-86393511D01*
X172531738Y-86393503D01*
X172435568Y-86187266D01*
X172305047Y-86000861D01*
X172305045Y-86000858D01*
X172144141Y-85839954D01*
X171957734Y-85709432D01*
X171957732Y-85709431D01*
X171906343Y-85685468D01*
X171853904Y-85639295D01*
X171834752Y-85572102D01*
X171854968Y-85505221D01*
X171900293Y-85463729D01*
X171964783Y-85429259D01*
X172095811Y-85341709D01*
X172172412Y-85278843D01*
X172283843Y-85167412D01*
X172346709Y-85090811D01*
X172434259Y-84959783D01*
X172480972Y-84872389D01*
X172541278Y-84726798D01*
X172570044Y-84631968D01*
X172600787Y-84477410D01*
X172610500Y-84378793D01*
X172610500Y-84221207D01*
X172600787Y-84122590D01*
X172570044Y-83968032D01*
X172541278Y-83873202D01*
X172480972Y-83727611D01*
X172444950Y-83660219D01*
X172434265Y-83640228D01*
X172434263Y-83640226D01*
X172434259Y-83640217D01*
X172434248Y-83640200D01*
X172346721Y-83509206D01*
X172346712Y-83509194D01*
X172346709Y-83509189D01*
X172283843Y-83432588D01*
X172172412Y-83321157D01*
X172095811Y-83258291D01*
X172095804Y-83258286D01*
X172095793Y-83258278D01*
X171964799Y-83170751D01*
X171964788Y-83170744D01*
X171964783Y-83170741D01*
X171900293Y-83136270D01*
X171850450Y-83087308D01*
X171834990Y-83019171D01*
X171858822Y-82953491D01*
X171906341Y-82914532D01*
X171957734Y-82890568D01*
X172144139Y-82760047D01*
X172305047Y-82599139D01*
X172435568Y-82412734D01*
X172531739Y-82206496D01*
X172590635Y-81986692D01*
X172605500Y-81816784D01*
X172605500Y-81703216D01*
X172590635Y-81533308D01*
X172532742Y-81317246D01*
X172531741Y-81313511D01*
X172531738Y-81313503D01*
X172435568Y-81107266D01*
X172305047Y-80920861D01*
X172305045Y-80920858D01*
X172144141Y-80759954D01*
X171957734Y-80629432D01*
X171957728Y-80629429D01*
X171899725Y-80602382D01*
X171847285Y-80556210D01*
X171828133Y-80489017D01*
X171848348Y-80422135D01*
X171899725Y-80377618D01*
X171957734Y-80350568D01*
X172144139Y-80220047D01*
X172305047Y-80059139D01*
X172435568Y-79872734D01*
X172531739Y-79666496D01*
X172590635Y-79446692D01*
X172605500Y-79276784D01*
X172605500Y-79163216D01*
X172590635Y-78993308D01*
X172539935Y-78804091D01*
X172531741Y-78773511D01*
X172531738Y-78773503D01*
X172435568Y-78567266D01*
X172305047Y-78380861D01*
X172305045Y-78380858D01*
X172144141Y-78219954D01*
X171957734Y-78089432D01*
X171957728Y-78089429D01*
X171899725Y-78062382D01*
X171847285Y-78016210D01*
X171828133Y-77949017D01*
X171848348Y-77882135D01*
X171899725Y-77837618D01*
X171957734Y-77810568D01*
X172144139Y-77680047D01*
X172305047Y-77519139D01*
X172435568Y-77332734D01*
X172531739Y-77126496D01*
X172590635Y-76906692D01*
X172605500Y-76736784D01*
X172605500Y-76623216D01*
X172590635Y-76453308D01*
X172536816Y-76252452D01*
X172531741Y-76233511D01*
X172531738Y-76233503D01*
X172435568Y-76027266D01*
X172305047Y-75840861D01*
X172305045Y-75840858D01*
X172144141Y-75679954D01*
X171957734Y-75549432D01*
X171957728Y-75549429D01*
X171899725Y-75522382D01*
X171847285Y-75476210D01*
X171828133Y-75409017D01*
X171848348Y-75342135D01*
X171899725Y-75297618D01*
X171957734Y-75270568D01*
X172144139Y-75140047D01*
X172305047Y-74979139D01*
X172435568Y-74792734D01*
X172531739Y-74586496D01*
X172590635Y-74366692D01*
X172605500Y-74196784D01*
X172605500Y-74083216D01*
X172590635Y-73913308D01*
X172545916Y-73746415D01*
X172531741Y-73693511D01*
X172531738Y-73693503D01*
X172435568Y-73487266D01*
X172305047Y-73300861D01*
X172305045Y-73300858D01*
X172144141Y-73139954D01*
X171957734Y-73009432D01*
X171957732Y-73009431D01*
X171905779Y-72985205D01*
X171853340Y-72939032D01*
X171834188Y-72871839D01*
X171854404Y-72804958D01*
X171899732Y-72763464D01*
X171964500Y-72728844D01*
X171964521Y-72728832D01*
X172095530Y-72641295D01*
X172095536Y-72641291D01*
X172172064Y-72578485D01*
X172283485Y-72467064D01*
X172346291Y-72390536D01*
X172346295Y-72390530D01*
X172433832Y-72259521D01*
X172433844Y-72259501D01*
X172480510Y-72172196D01*
X172480511Y-72172193D01*
X172509794Y-72101500D01*
X172553635Y-72047096D01*
X172619929Y-72025031D01*
X172687628Y-72042310D01*
X172712036Y-72061271D01*
X175213181Y-74562416D01*
X175246666Y-74623739D01*
X175249500Y-74650097D01*
X175249500Y-78763330D01*
X175249499Y-78763348D01*
X175249499Y-78929054D01*
X175249498Y-78929054D01*
X175253865Y-78945350D01*
X175290423Y-79081785D01*
X175308658Y-79113368D01*
X175349206Y-79183600D01*
X175369479Y-79218715D01*
X175488349Y-79337585D01*
X175488355Y-79337590D01*
X175666241Y-79515476D01*
X175699726Y-79576799D01*
X175696492Y-79641473D01*
X175682753Y-79683757D01*
X175649500Y-79893713D01*
X175649500Y-80106286D01*
X175678940Y-80292167D01*
X175682754Y-80316243D01*
X175743946Y-80504573D01*
X175748444Y-80518414D01*
X175844951Y-80707820D01*
X175969890Y-80879786D01*
X176120213Y-81030109D01*
X176292179Y-81155048D01*
X176292181Y-81155049D01*
X176292184Y-81155051D01*
X176301493Y-81159794D01*
X176352290Y-81207766D01*
X176369087Y-81275587D01*
X176346552Y-81341722D01*
X176301505Y-81380760D01*
X176292446Y-81385376D01*
X176292440Y-81385380D01*
X176238282Y-81424727D01*
X176238282Y-81424728D01*
X176870591Y-82057037D01*
X176807007Y-82074075D01*
X176692993Y-82139901D01*
X176599901Y-82232993D01*
X176534075Y-82347007D01*
X176517037Y-82410591D01*
X175884728Y-81778282D01*
X175884727Y-81778282D01*
X175845380Y-81832439D01*
X175748904Y-82021782D01*
X175683242Y-82223869D01*
X175683242Y-82223872D01*
X175650000Y-82433753D01*
X175650000Y-82646246D01*
X175683242Y-82856127D01*
X175683242Y-82856130D01*
X175748904Y-83058217D01*
X175845375Y-83247550D01*
X175884728Y-83301716D01*
X176517037Y-82669408D01*
X176534075Y-82732993D01*
X176599901Y-82847007D01*
X176692993Y-82940099D01*
X176807007Y-83005925D01*
X176870590Y-83022962D01*
X176238282Y-83655269D01*
X176238282Y-83655270D01*
X176292449Y-83694624D01*
X176481782Y-83791095D01*
X176683870Y-83856757D01*
X176893754Y-83890000D01*
X177106246Y-83890000D01*
X177316127Y-83856757D01*
X177316130Y-83856757D01*
X177518217Y-83791095D01*
X177707554Y-83694622D01*
X177761716Y-83655270D01*
X177761717Y-83655270D01*
X177129408Y-83022962D01*
X177192993Y-83005925D01*
X177307007Y-82940099D01*
X177400099Y-82847007D01*
X177465925Y-82732993D01*
X177482962Y-82669408D01*
X178115270Y-83301717D01*
X178115270Y-83301716D01*
X178154622Y-83247554D01*
X178251095Y-83058217D01*
X178316757Y-82856130D01*
X178316757Y-82856127D01*
X178350000Y-82646246D01*
X178350000Y-82433753D01*
X178316757Y-82223872D01*
X178316757Y-82223869D01*
X178251095Y-82021782D01*
X178154624Y-81832449D01*
X178115270Y-81778282D01*
X178115269Y-81778282D01*
X177482962Y-82410590D01*
X177465925Y-82347007D01*
X177400099Y-82232993D01*
X177307007Y-82139901D01*
X177192993Y-82074075D01*
X177129409Y-82057037D01*
X177761716Y-81424728D01*
X177707547Y-81385373D01*
X177707547Y-81385372D01*
X177698500Y-81380763D01*
X177647706Y-81332788D01*
X177630912Y-81264966D01*
X177653451Y-81198832D01*
X177698508Y-81159793D01*
X177707816Y-81155051D01*
X177813332Y-81078390D01*
X177879786Y-81030109D01*
X177879788Y-81030106D01*
X177879792Y-81030104D01*
X178030104Y-80879792D01*
X178030106Y-80879788D01*
X178030109Y-80879786D01*
X178155048Y-80707820D01*
X178155047Y-80707820D01*
X178155051Y-80707816D01*
X178251557Y-80518412D01*
X178317246Y-80316243D01*
X178350500Y-80106287D01*
X178350500Y-79893713D01*
X178317246Y-79683757D01*
X178251557Y-79481588D01*
X178155051Y-79292184D01*
X178155049Y-79292181D01*
X178155048Y-79292179D01*
X178030109Y-79120213D01*
X177916569Y-79006673D01*
X177883084Y-78945350D01*
X177888068Y-78875658D01*
X177929940Y-78819725D01*
X177960915Y-78802810D01*
X178092331Y-78753796D01*
X178207546Y-78667546D01*
X178293796Y-78552331D01*
X178344091Y-78417483D01*
X178350500Y-78357873D01*
X178350499Y-76562128D01*
X178344091Y-76502517D01*
X178325737Y-76453308D01*
X178293797Y-76367671D01*
X178293793Y-76367664D01*
X178207547Y-76252455D01*
X178207544Y-76252452D01*
X178092335Y-76166206D01*
X178092328Y-76166202D01*
X177957482Y-76115908D01*
X177957483Y-76115908D01*
X177897883Y-76109501D01*
X177897881Y-76109500D01*
X177897873Y-76109500D01*
X177897865Y-76109500D01*
X177724500Y-76109500D01*
X177657461Y-76089815D01*
X177611706Y-76037011D01*
X177600500Y-75985500D01*
X177600500Y-75023374D01*
X177600501Y-75023361D01*
X177600501Y-74855260D01*
X177600501Y-74855258D01*
X177559577Y-74702530D01*
X177508414Y-74613914D01*
X177492584Y-74586495D01*
X177480522Y-74565602D01*
X177480521Y-74565601D01*
X177480520Y-74565599D01*
X177368716Y-74453795D01*
X177368715Y-74453794D01*
X177364385Y-74449464D01*
X177364374Y-74449454D01*
X172558049Y-69643129D01*
X172524564Y-69581806D01*
X172529548Y-69512114D01*
X172530655Y-69509472D01*
X172531737Y-69506499D01*
X172531739Y-69506496D01*
X172590635Y-69286692D01*
X172605500Y-69116784D01*
X172605500Y-69003216D01*
X172590635Y-68833308D01*
X172531739Y-68613504D01*
X172435568Y-68407266D01*
X172305047Y-68220861D01*
X172305045Y-68220858D01*
X172144141Y-68059954D01*
X171957734Y-67929432D01*
X171957728Y-67929429D01*
X171930038Y-67916517D01*
X171899724Y-67902381D01*
X171847285Y-67856210D01*
X171828133Y-67789017D01*
X171848348Y-67722135D01*
X171899725Y-67677618D01*
X171957734Y-67650568D01*
X172144139Y-67520047D01*
X172305047Y-67359139D01*
X172435568Y-67172734D01*
X172531739Y-66966496D01*
X172590635Y-66746692D01*
X172605500Y-66576784D01*
X172605500Y-66463216D01*
X172590635Y-66293308D01*
X172531739Y-66073504D01*
X172435568Y-65867266D01*
X172305047Y-65680861D01*
X172305045Y-65680858D01*
X172144141Y-65519954D01*
X171957734Y-65389432D01*
X171957732Y-65389431D01*
X171751497Y-65293261D01*
X171751488Y-65293258D01*
X171531697Y-65234366D01*
X171531687Y-65234364D01*
X171361785Y-65219500D01*
X171361784Y-65219500D01*
X169807352Y-65219500D01*
X169602648Y-65219500D01*
X169602644Y-65219500D01*
X169550697Y-65227728D01*
X169550695Y-65227728D01*
X169546410Y-65228406D01*
X169478308Y-65234365D01*
X169434245Y-65246170D01*
X169427841Y-65247185D01*
X169427824Y-65247189D01*
X169400463Y-65251523D01*
X169400459Y-65251524D01*
X169338627Y-65271615D01*
X169332404Y-65273459D01*
X169258504Y-65293261D01*
X169258503Y-65293261D01*
X169234338Y-65304529D01*
X169234337Y-65304528D01*
X169227456Y-65307736D01*
X169205781Y-65314780D01*
X169134886Y-65350901D01*
X169132900Y-65351828D01*
X169132882Y-65351838D01*
X169052262Y-65389433D01*
X169040655Y-65397559D01*
X169040656Y-65397560D01*
X169033549Y-65402535D01*
X169023390Y-65407713D01*
X168949870Y-65461126D01*
X168948939Y-65461779D01*
X168865859Y-65519954D01*
X168704954Y-65680859D01*
X168646781Y-65763934D01*
X168646782Y-65763935D01*
X168646132Y-65764863D01*
X168592713Y-65838390D01*
X168587535Y-65848550D01*
X168582560Y-65855656D01*
X168582558Y-65855656D01*
X168574433Y-65867262D01*
X168536838Y-65947882D01*
X168535920Y-65949849D01*
X168499780Y-66020781D01*
X168492735Y-66042458D01*
X168489532Y-66049329D01*
X168489529Y-66049338D01*
X168478261Y-66073503D01*
X168478261Y-66073504D01*
X168458459Y-66147404D01*
X168458458Y-66147403D01*
X168457614Y-66150551D01*
X168436523Y-66215466D01*
X168431175Y-66249224D01*
X168429492Y-66255507D01*
X168429492Y-66255511D01*
X168419366Y-66293304D01*
X168419364Y-66293313D01*
X168413783Y-66357106D01*
X168412728Y-66365697D01*
X168404500Y-66417643D01*
X168404500Y-66417648D01*
X168404500Y-66622352D01*
X168413406Y-66678582D01*
X168419365Y-66746692D01*
X168431171Y-66790756D01*
X168432188Y-66797175D01*
X168432190Y-66797181D01*
X168436521Y-66824525D01*
X168436522Y-66824530D01*
X168456617Y-66886378D01*
X168458460Y-66892600D01*
X168478260Y-66966494D01*
X168489529Y-66990662D01*
X168490231Y-66992167D01*
X168492733Y-66997532D01*
X168499780Y-67019219D01*
X168535930Y-67090169D01*
X168536844Y-67092128D01*
X168574432Y-67172734D01*
X168582562Y-67184346D01*
X168587535Y-67191448D01*
X168592713Y-67201610D01*
X168646164Y-67275180D01*
X168646793Y-67276078D01*
X168704953Y-67359140D01*
X168865858Y-67520045D01*
X168900779Y-67544497D01*
X168949800Y-67578821D01*
X169023390Y-67632287D01*
X169033547Y-67637462D01*
X169040648Y-67642434D01*
X169040652Y-67642436D01*
X169052266Y-67650568D01*
X169052270Y-67650570D01*
X169110272Y-67677617D01*
X169120927Y-67686999D01*
X169134131Y-67692224D01*
X169146629Y-67709629D01*
X169162712Y-67723789D01*
X169166604Y-67737444D01*
X169174886Y-67748977D01*
X169175990Y-67770375D01*
X169181864Y-67790982D01*
X169177755Y-67804573D01*
X169178488Y-67818754D01*
X169167848Y-67837352D01*
X169161649Y-67857864D01*
X169150167Y-67868259D01*
X169143794Y-67879401D01*
X169119369Y-67896145D01*
X169115126Y-67899988D01*
X169112711Y-67901244D01*
X169052266Y-67929432D01*
X169034002Y-67942219D01*
X169026792Y-67945973D01*
X169026591Y-67946012D01*
X169025847Y-67946460D01*
X169023397Y-67947708D01*
X169023394Y-67947710D01*
X168950696Y-68000526D01*
X168948939Y-68001779D01*
X168865859Y-68059954D01*
X168704954Y-68220859D01*
X168646781Y-68303934D01*
X168646782Y-68303935D01*
X168646132Y-68304863D01*
X168592713Y-68378390D01*
X168587535Y-68388550D01*
X168582560Y-68395656D01*
X168582558Y-68395656D01*
X168574433Y-68407262D01*
X168536838Y-68487882D01*
X168535920Y-68489849D01*
X168499780Y-68560781D01*
X168492735Y-68582458D01*
X168489532Y-68589329D01*
X168489529Y-68589338D01*
X168478261Y-68613503D01*
X168478261Y-68613504D01*
X168458459Y-68687404D01*
X168458458Y-68687403D01*
X168457614Y-68690551D01*
X168436523Y-68755466D01*
X168431175Y-68789224D01*
X168429492Y-68795507D01*
X168429492Y-68795511D01*
X168419366Y-68833304D01*
X168419364Y-68833313D01*
X168413783Y-68897106D01*
X168412728Y-68905697D01*
X168404500Y-68957643D01*
X168404500Y-68957648D01*
X168404500Y-69162352D01*
X168413406Y-69218582D01*
X168419365Y-69286692D01*
X168431171Y-69330756D01*
X168432188Y-69337175D01*
X168432190Y-69337181D01*
X168436521Y-69364525D01*
X168436524Y-69364537D01*
X168447131Y-69397183D01*
X168449126Y-69467024D01*
X168413045Y-69526857D01*
X168350344Y-69557684D01*
X168329200Y-69559500D01*
X165823220Y-69559500D01*
X165756181Y-69539815D01*
X165735539Y-69523181D01*
X164977540Y-68765182D01*
X164215861Y-68003504D01*
X164182377Y-67942182D01*
X164187361Y-67872490D01*
X164229233Y-67816557D01*
X164247250Y-67805339D01*
X164247816Y-67805051D01*
X164419792Y-67680104D01*
X164570104Y-67529792D01*
X164570106Y-67529788D01*
X164570109Y-67529786D01*
X164695048Y-67357820D01*
X164695050Y-67357817D01*
X164695051Y-67357816D01*
X164791557Y-67168412D01*
X164857246Y-66966243D01*
X164890500Y-66756287D01*
X164890500Y-66543713D01*
X164857246Y-66333757D01*
X164791557Y-66131588D01*
X164695051Y-65942184D01*
X164695049Y-65942181D01*
X164695048Y-65942179D01*
X164570109Y-65770213D01*
X164419786Y-65619890D01*
X164247820Y-65494951D01*
X164058414Y-65398444D01*
X164058413Y-65398443D01*
X164058412Y-65398443D01*
X163856243Y-65332754D01*
X163856241Y-65332753D01*
X163856240Y-65332753D01*
X163692244Y-65306779D01*
X163646287Y-65299500D01*
X163433713Y-65299500D01*
X163387756Y-65306779D01*
X163223760Y-65332753D01*
X163021585Y-65398444D01*
X162832181Y-65494950D01*
X162753861Y-65551852D01*
X162688054Y-65575331D01*
X162620000Y-65559504D01*
X162593296Y-65539214D01*
X162570696Y-65516614D01*
X162570694Y-65516612D01*
X162457167Y-65451067D01*
X162330545Y-65417139D01*
X162265000Y-65415000D01*
X161815000Y-65415000D01*
X161365000Y-65415000D01*
X161299458Y-65417138D01*
X161172832Y-65451068D01*
X161059307Y-65516611D01*
X161059304Y-65516613D01*
X160966613Y-65609304D01*
X160966609Y-65609309D01*
X160926717Y-65678405D01*
X160876150Y-65726621D01*
X160807543Y-65739843D01*
X160742678Y-65713875D01*
X160711943Y-65678405D01*
X160674334Y-65613265D01*
X160663388Y-65594306D01*
X160570694Y-65501612D01*
X160457167Y-65436067D01*
X160330545Y-65402139D01*
X160265000Y-65400000D01*
X159815000Y-65400000D01*
X159365000Y-65400000D01*
X159299458Y-65402138D01*
X159172832Y-65436068D01*
X159059307Y-65501611D01*
X159059304Y-65501613D01*
X159028014Y-65532903D01*
X158966690Y-65566388D01*
X158896999Y-65561402D01*
X158867449Y-65545540D01*
X158797815Y-65494948D01*
X158608414Y-65398444D01*
X158608413Y-65398443D01*
X158608412Y-65398443D01*
X158406243Y-65332754D01*
X158406241Y-65332753D01*
X158406240Y-65332753D01*
X158242244Y-65306779D01*
X158196287Y-65299500D01*
X157983713Y-65299500D01*
X157937756Y-65306779D01*
X157773760Y-65332753D01*
X157571585Y-65398444D01*
X157382179Y-65494951D01*
X157210213Y-65619890D01*
X157059890Y-65770213D01*
X156934951Y-65942179D01*
X156838444Y-66131585D01*
X156772753Y-66333760D01*
X156739500Y-66543713D01*
X156739500Y-66756286D01*
X156760104Y-66886378D01*
X156772754Y-66966243D01*
X156822938Y-67120694D01*
X156838444Y-67168414D01*
X156934949Y-67357817D01*
X156941836Y-67367295D01*
X156965317Y-67433101D01*
X156949493Y-67501155D01*
X156899388Y-67549851D01*
X156841519Y-67564182D01*
X153869780Y-67564182D01*
X153802741Y-67544497D01*
X153782099Y-67527863D01*
X153261819Y-67007583D01*
X153228334Y-66946260D01*
X153225500Y-66919902D01*
X153225500Y-66655650D01*
X153226097Y-66643496D01*
X153230500Y-66598793D01*
X153230500Y-66441207D01*
X153226097Y-66396501D01*
X153225500Y-66384348D01*
X153225500Y-65863386D01*
X153224152Y-65848553D01*
X153219086Y-65792804D01*
X153168478Y-65630394D01*
X153080472Y-65484815D01*
X153080470Y-65484813D01*
X153080469Y-65484811D01*
X152960188Y-65364530D01*
X152939176Y-65351828D01*
X152814606Y-65276522D01*
X152652196Y-65225914D01*
X152652194Y-65225913D01*
X152652192Y-65225913D01*
X152602778Y-65221423D01*
X152581616Y-65219500D01*
X152581613Y-65219500D01*
X152060650Y-65219500D01*
X152048497Y-65218903D01*
X152003793Y-65214500D01*
X149685218Y-65214500D01*
X149685216Y-65214500D01*
X149631185Y-65217395D01*
X149631181Y-65217396D01*
X149491778Y-65252976D01*
X149491766Y-65252980D01*
X149418280Y-65283419D01*
X149418252Y-65283431D01*
X149369451Y-65306779D01*
X149369446Y-65306782D01*
X149254268Y-65393005D01*
X149254256Y-65393015D01*
X149198019Y-65449252D01*
X149161843Y-65489524D01*
X149161837Y-65489532D01*
X149088426Y-65613263D01*
X149057978Y-65686774D01*
X149057970Y-65686795D01*
X149039976Y-65737800D01*
X149019500Y-65880219D01*
X145500500Y-65880219D01*
X145500500Y-64624500D01*
X145520185Y-64557461D01*
X145572989Y-64511706D01*
X145624500Y-64500500D01*
X179125500Y-64500500D01*
X179192539Y-64520185D01*
G37*
%TD.AperFunction*%
%TD*%
M02*
