M48
; DRILL file KiCad 10.0.4 date 2026-08-19T21:03:10
; FORMAT={-:-/ absolute / metric / decimal}
; #@! TF.CreationDate,2026-08-19T21:03:10-07:00
; #@! TF.GenerationSoftware,Kicad,Pcbnew,10.0.4
; #@! TF.FileFunction,Plated,1,2,PTH
FMAT,2
METRIC
; #@! TA.AperFunction,Plated,PTH,ComponentDrill
T1C0.800
; #@! TA.AperFunction,Plated,PTH,ComponentDrill
T2C1.000
%
G90
G05
T1
X163.75Y-82.027
X163.75Y-84.027
T2
X137.925Y-72.02
X137.925Y-74.56
X137.925Y-77.1
X137.925Y-79.64
X137.925Y-82.18
X137.925Y-84.72
X137.925Y-87.26
X137.925Y-89.8
X137.925Y-92.34
X137.925Y-94.88
X137.925Y-97.42
X137.925Y-99.96
X137.925Y-102.5
X137.925Y-105.04
X137.925Y-107.58
X137.925Y-110.12
X137.925Y-112.66
X137.925Y-115.2
X137.925Y-117.74
X137.925Y-120.28
X155.705Y-72.02
X155.705Y-74.56
X155.705Y-77.1
X155.705Y-79.64
X155.705Y-82.18
X155.705Y-84.72
X155.705Y-87.26
X155.705Y-89.8
X155.705Y-92.34
X155.705Y-94.88
X155.705Y-97.42
X155.705Y-99.96
X155.705Y-102.5
X155.705Y-105.04
X155.705Y-107.58
X155.705Y-110.12
X155.705Y-112.66
X155.705Y-115.2
X155.705Y-117.74
X155.705Y-120.28
X167.25Y-95.92
X167.25Y-98.46
X167.25Y-101.0
M30
