%TF.GenerationSoftware,KiCad,Pcbnew,10.0.4*%
%TF.CreationDate,2026-08-19T21:03:02-07:00*%
%TF.ProjectId,Motor Controller,4d6f746f-7220-4436-9f6e-74726f6c6c65,rev?*%
%TF.SameCoordinates,Original*%
%TF.FileFunction,Legend,Top*%
%TF.FilePolarity,Positive*%
%FSLAX46Y46*%
G04 Gerber Fmt 4.6, Leading zero omitted, Abs format (unit mm)*
G04 Created by KiCad (PCBNEW 10.0.4) date 2026-08-19 21:03:02*
%MOMM*%
%LPD*%
G01*
G04 APERTURE LIST*
%ADD10C,0.150000*%
%ADD11C,0.120000*%
G04 APERTURE END LIST*
D10*
X167859580Y-83194067D02*
X167907200Y-83241686D01*
X167907200Y-83241686D02*
X167954819Y-83384543D01*
X167954819Y-83384543D02*
X167954819Y-83479781D01*
X167954819Y-83479781D02*
X167907200Y-83622638D01*
X167907200Y-83622638D02*
X167811961Y-83717876D01*
X167811961Y-83717876D02*
X167716723Y-83765495D01*
X167716723Y-83765495D02*
X167526247Y-83813114D01*
X167526247Y-83813114D02*
X167383390Y-83813114D01*
X167383390Y-83813114D02*
X167192914Y-83765495D01*
X167192914Y-83765495D02*
X167097676Y-83717876D01*
X167097676Y-83717876D02*
X167002438Y-83622638D01*
X167002438Y-83622638D02*
X166954819Y-83479781D01*
X166954819Y-83479781D02*
X166954819Y-83384543D01*
X166954819Y-83384543D02*
X167002438Y-83241686D01*
X167002438Y-83241686D02*
X167050057Y-83194067D01*
X167050057Y-82813114D02*
X167002438Y-82765495D01*
X167002438Y-82765495D02*
X166954819Y-82670257D01*
X166954819Y-82670257D02*
X166954819Y-82432162D01*
X166954819Y-82432162D02*
X167002438Y-82336924D01*
X167002438Y-82336924D02*
X167050057Y-82289305D01*
X167050057Y-82289305D02*
X167145295Y-82241686D01*
X167145295Y-82241686D02*
X167240533Y-82241686D01*
X167240533Y-82241686D02*
X167383390Y-82289305D01*
X167383390Y-82289305D02*
X167954819Y-82860733D01*
X167954819Y-82860733D02*
X167954819Y-82241686D01*
X176333333Y-90009580D02*
X176285714Y-90057200D01*
X176285714Y-90057200D02*
X176142857Y-90104819D01*
X176142857Y-90104819D02*
X176047619Y-90104819D01*
X176047619Y-90104819D02*
X175904762Y-90057200D01*
X175904762Y-90057200D02*
X175809524Y-89961961D01*
X175809524Y-89961961D02*
X175761905Y-89866723D01*
X175761905Y-89866723D02*
X175714286Y-89676247D01*
X175714286Y-89676247D02*
X175714286Y-89533390D01*
X175714286Y-89533390D02*
X175761905Y-89342914D01*
X175761905Y-89342914D02*
X175809524Y-89247676D01*
X175809524Y-89247676D02*
X175904762Y-89152438D01*
X175904762Y-89152438D02*
X176047619Y-89104819D01*
X176047619Y-89104819D02*
X176142857Y-89104819D01*
X176142857Y-89104819D02*
X176285714Y-89152438D01*
X176285714Y-89152438D02*
X176333333Y-89200057D01*
X177285714Y-90104819D02*
X176714286Y-90104819D01*
X177000000Y-90104819D02*
X177000000Y-89104819D01*
X177000000Y-89104819D02*
X176904762Y-89247676D01*
X176904762Y-89247676D02*
X176809524Y-89342914D01*
X176809524Y-89342914D02*
X176714286Y-89390533D01*
X169554819Y-96874404D02*
X170364342Y-96874404D01*
X170364342Y-96874404D02*
X170459580Y-96826785D01*
X170459580Y-96826785D02*
X170507200Y-96779166D01*
X170507200Y-96779166D02*
X170554819Y-96683928D01*
X170554819Y-96683928D02*
X170554819Y-96493452D01*
X170554819Y-96493452D02*
X170507200Y-96398214D01*
X170507200Y-96398214D02*
X170459580Y-96350595D01*
X170459580Y-96350595D02*
X170364342Y-96302976D01*
X170364342Y-96302976D02*
X169554819Y-96302976D01*
X170554819Y-95302976D02*
X170554819Y-95874404D01*
X170554819Y-95588690D02*
X169554819Y-95588690D01*
X169554819Y-95588690D02*
X169697676Y-95683928D01*
X169697676Y-95683928D02*
X169792914Y-95779166D01*
X169792914Y-95779166D02*
X169840533Y-95874404D01*
X166916666Y-92994819D02*
X166916666Y-93709104D01*
X166916666Y-93709104D02*
X166869047Y-93851961D01*
X166869047Y-93851961D02*
X166773809Y-93947200D01*
X166773809Y-93947200D02*
X166630952Y-93994819D01*
X166630952Y-93994819D02*
X166535714Y-93994819D01*
X167916666Y-93994819D02*
X167345238Y-93994819D01*
X167630952Y-93994819D02*
X167630952Y-92994819D01*
X167630952Y-92994819D02*
X167535714Y-93137676D01*
X167535714Y-93137676D02*
X167440476Y-93232914D01*
X167440476Y-93232914D02*
X167345238Y-93280533D01*
X158851660Y-121084104D02*
X159327850Y-121084104D01*
X158756422Y-121369819D02*
X159089755Y-120369819D01*
X159089755Y-120369819D02*
X159423088Y-121369819D01*
X160280231Y-121369819D02*
X159708803Y-121369819D01*
X159994517Y-121369819D02*
X159994517Y-120369819D01*
X159994517Y-120369819D02*
X159899279Y-120512676D01*
X159899279Y-120512676D02*
X159804041Y-120607914D01*
X159804041Y-120607914D02*
X159708803Y-120655533D01*
%TO.C,C2*%
D11*
X165225000Y-80222626D02*
X165225000Y-80722626D01*
X165475000Y-80472626D02*
X164975000Y-80472626D01*
X166330000Y-83027401D02*
X164790000Y-83027401D01*
X162710000Y-83027401D02*
X161170000Y-83027401D01*
X166330000Y-83067401D02*
X164790000Y-83067401D01*
X162710000Y-83067401D02*
X161170000Y-83067401D01*
X166329000Y-83107401D02*
X164790000Y-83107401D01*
X162710000Y-83107401D02*
X161171000Y-83107401D01*
X166327000Y-83147401D02*
X164790000Y-83147401D01*
X162710000Y-83147401D02*
X161173000Y-83147401D01*
X166325000Y-83187401D02*
X164790000Y-83187401D01*
X162710000Y-83187401D02*
X161175000Y-83187401D01*
X166322000Y-83227401D02*
X164790000Y-83227401D01*
X162710000Y-83227401D02*
X161178000Y-83227401D01*
X166319000Y-83267401D02*
X164790000Y-83267401D01*
X162710000Y-83267401D02*
X161181000Y-83267401D01*
X166315000Y-83307401D02*
X164790000Y-83307401D01*
X162710000Y-83307401D02*
X161185000Y-83307401D01*
X166310000Y-83347401D02*
X164790000Y-83347401D01*
X162710000Y-83347401D02*
X161190000Y-83347401D01*
X166305000Y-83387401D02*
X164790000Y-83387401D01*
X162710000Y-83387401D02*
X161195000Y-83387401D01*
X166299000Y-83427401D02*
X164790000Y-83427401D01*
X162710000Y-83427401D02*
X161201000Y-83427401D01*
X166293000Y-83467401D02*
X164790000Y-83467401D01*
X162710000Y-83467401D02*
X161207000Y-83467401D01*
X166286000Y-83507401D02*
X164790000Y-83507401D01*
X162710000Y-83507401D02*
X161214000Y-83507401D01*
X166278000Y-83547401D02*
X164790000Y-83547401D01*
X162710000Y-83547401D02*
X161222000Y-83547401D01*
X166269000Y-83587401D02*
X164790000Y-83587401D01*
X162710000Y-83587401D02*
X161231000Y-83587401D01*
X166260000Y-83627401D02*
X164790000Y-83627401D01*
X162710000Y-83627401D02*
X161240000Y-83627401D01*
X166251000Y-83667401D02*
X164790000Y-83667401D01*
X162710000Y-83667401D02*
X161249000Y-83667401D01*
X166240000Y-83707401D02*
X164790000Y-83707401D01*
X162710000Y-83707401D02*
X161260000Y-83707401D01*
X166229000Y-83747401D02*
X164790000Y-83747401D01*
X162710000Y-83747401D02*
X161271000Y-83747401D01*
X166217000Y-83787401D02*
X164790000Y-83787401D01*
X162710000Y-83787401D02*
X161283000Y-83787401D01*
X166205000Y-83827401D02*
X164790000Y-83827401D01*
X162710000Y-83827401D02*
X161295000Y-83827401D01*
X166192000Y-83867401D02*
X164790000Y-83867401D01*
X162710000Y-83867401D02*
X161308000Y-83867401D01*
X166178000Y-83907401D02*
X164790000Y-83907401D01*
X162710000Y-83907401D02*
X161322000Y-83907401D01*
X166163000Y-83947401D02*
X164790000Y-83947401D01*
X162710000Y-83947401D02*
X161337000Y-83947401D01*
X166148000Y-83987401D02*
X164790000Y-83987401D01*
X162710000Y-83987401D02*
X161352000Y-83987401D01*
X166132000Y-84027401D02*
X164790000Y-84027401D01*
X162710000Y-84027401D02*
X161368000Y-84027401D01*
X166115000Y-84067401D02*
X164790000Y-84067401D01*
X162710000Y-84067401D02*
X161385000Y-84067401D01*
X166097000Y-84107401D02*
X164790000Y-84107401D01*
X162710000Y-84107401D02*
X161403000Y-84107401D01*
X166079000Y-84147401D02*
X164790000Y-84147401D01*
X162710000Y-84147401D02*
X161421000Y-84147401D01*
X166059000Y-84187401D02*
X164790000Y-84187401D01*
X162710000Y-84187401D02*
X161441000Y-84187401D01*
X166039000Y-84227401D02*
X164790000Y-84227401D01*
X162710000Y-84227401D02*
X161461000Y-84227401D01*
X166018000Y-84267401D02*
X164790000Y-84267401D01*
X162710000Y-84267401D02*
X161482000Y-84267401D01*
X165996000Y-84307401D02*
X164790000Y-84307401D01*
X162710000Y-84307401D02*
X161504000Y-84307401D01*
X165973000Y-84347401D02*
X164790000Y-84347401D01*
X162710000Y-84347401D02*
X161527000Y-84347401D01*
X165949000Y-84387401D02*
X164790000Y-84387401D01*
X162710000Y-84387401D02*
X161551000Y-84387401D01*
X165925000Y-84427401D02*
X164790000Y-84427401D01*
X162710000Y-84427401D02*
X161575000Y-84427401D01*
X165899000Y-84467401D02*
X164790000Y-84467401D01*
X162710000Y-84467401D02*
X161601000Y-84467401D01*
X165872000Y-84507401D02*
X164790000Y-84507401D01*
X162710000Y-84507401D02*
X161628000Y-84507401D01*
X165844000Y-84547401D02*
X164790000Y-84547401D01*
X162710000Y-84547401D02*
X161656000Y-84547401D01*
X165815000Y-84587401D02*
X164790000Y-84587401D01*
X162710000Y-84587401D02*
X161685000Y-84587401D01*
X165785000Y-84627401D02*
X164790000Y-84627401D01*
X162710000Y-84627401D02*
X161715000Y-84627401D01*
X165753000Y-84667401D02*
X164790000Y-84667401D01*
X162710000Y-84667401D02*
X161747000Y-84667401D01*
X165720000Y-84707401D02*
X164790000Y-84707401D01*
X162710000Y-84707401D02*
X161780000Y-84707401D01*
X165686000Y-84747401D02*
X164790000Y-84747401D01*
X162710000Y-84747401D02*
X161814000Y-84747401D01*
X165651000Y-84787401D02*
X164790000Y-84787401D01*
X162710000Y-84787401D02*
X161849000Y-84787401D01*
X165614000Y-84827401D02*
X164790000Y-84827401D01*
X162710000Y-84827401D02*
X161886000Y-84827401D01*
X165575000Y-84867401D02*
X164790000Y-84867401D01*
X162710000Y-84867401D02*
X161925000Y-84867401D01*
X165535000Y-84907401D02*
X164790000Y-84907401D01*
X162710000Y-84907401D02*
X161965000Y-84907401D01*
X165493000Y-84947401D02*
X164790000Y-84947401D01*
X162710000Y-84947401D02*
X162007000Y-84947401D01*
X165449000Y-84987401D02*
X164790000Y-84987401D01*
X162710000Y-84987401D02*
X162051000Y-84987401D01*
X165402000Y-85027401D02*
X164790000Y-85027401D01*
X162710000Y-85027401D02*
X162098000Y-85027401D01*
X165354000Y-85067401D02*
X162146000Y-85067401D01*
X165303000Y-85107401D02*
X162197000Y-85107401D01*
X165249000Y-85147401D02*
X162251000Y-85147401D01*
X165193000Y-85187401D02*
X162307000Y-85187401D01*
X165133000Y-85227401D02*
X162367000Y-85227401D01*
X165069000Y-85267401D02*
X162431000Y-85267401D01*
X165001000Y-85307401D02*
X162499000Y-85307401D01*
X164927000Y-85347401D02*
X162573000Y-85347401D01*
X164848000Y-85387401D02*
X162652000Y-85387401D01*
X164761000Y-85427401D02*
X162739000Y-85427401D01*
X164664000Y-85467401D02*
X162836000Y-85467401D01*
X164555000Y-85507401D02*
X162945000Y-85507401D01*
X164427000Y-85547401D02*
X163073000Y-85547401D01*
X164267000Y-85587401D02*
X163233000Y-85587401D01*
X164033000Y-85627401D02*
X163467000Y-85627401D01*
X166370000Y-83027401D02*
G75*
G02*
X161130000Y-83027401I-2620000J0D01*
G01*
X161130000Y-83027401D02*
G75*
G02*
X166370000Y-83027401I2620000J0D01*
G01*
%TO.C,C1*%
X175788748Y-90590000D02*
X177211252Y-90590000D01*
X175788748Y-92410000D02*
X177211252Y-92410000D01*
%TO.C,U1*%
X170940000Y-97022500D02*
X170940000Y-95202500D01*
X170990000Y-97022500D02*
X170940000Y-97022500D01*
X174060000Y-97022500D02*
X174010000Y-97022500D01*
X170940000Y-95202500D02*
X170990000Y-95202500D01*
X172110000Y-95202500D02*
X172890000Y-95202500D01*
X174010000Y-95202500D02*
X174060000Y-95202500D01*
X174060000Y-95202500D02*
X174060000Y-97022500D01*
X170990000Y-97562500D02*
X170660000Y-97802500D01*
X170660000Y-97322500D01*
X170990000Y-97562500D01*
G36*
X170990000Y-97562500D02*
G01*
X170660000Y-97802500D01*
X170660000Y-97322500D01*
X170990000Y-97562500D01*
G37*
%TO.C,J1*%
X168630000Y-97190000D02*
X168630000Y-102380000D01*
X165870000Y-102380000D02*
X168630000Y-102380000D01*
X165870000Y-97190000D02*
X168630000Y-97190000D01*
X165870000Y-97190000D02*
X165870000Y-102380000D01*
X165870000Y-95920000D02*
X165870000Y-94540000D01*
X165870000Y-94540000D02*
X167250000Y-94540000D01*
%TO.C,A1*%
X136205000Y-73080000D02*
X135725000Y-73080000D01*
X136205000Y-73080000D02*
X136205000Y-73500000D01*
X136205000Y-75620000D02*
X136205000Y-76040000D01*
X136205000Y-78160000D02*
X136205000Y-78580000D01*
X136205000Y-80700000D02*
X136205000Y-81120000D01*
X136205000Y-83240000D02*
X136205000Y-83660000D01*
X136205000Y-85780000D02*
X136205000Y-86200000D01*
X136205000Y-88320000D02*
X136205000Y-88740000D01*
X136205000Y-90860000D02*
X136205000Y-91280000D01*
X136205000Y-93400000D02*
X136205000Y-93820000D01*
X136205000Y-95940000D02*
X136205000Y-96360000D01*
X136205000Y-98480000D02*
X136205000Y-98900000D01*
X136205000Y-101020000D02*
X136205000Y-101440000D01*
X136205000Y-103560000D02*
X136205000Y-103980000D01*
X136205000Y-106100000D02*
X136205000Y-106520000D01*
X136205000Y-108640000D02*
X136205000Y-109060000D01*
X136205000Y-111180000D02*
X136205000Y-111600000D01*
X136205000Y-113720000D02*
X136205000Y-114140000D01*
X136205000Y-116260000D02*
X136205000Y-116680000D01*
X136205000Y-118800000D02*
X136205000Y-119220000D01*
X136235324Y-70960000D02*
X135725000Y-70960000D01*
X136545000Y-70960063D02*
X136545000Y-70603000D01*
X136545000Y-73080000D02*
X136545000Y-73500000D01*
X136545000Y-75620000D02*
X136545000Y-76040000D01*
X136545000Y-78160000D02*
X136545000Y-78580000D01*
X136545000Y-80700000D02*
X136545000Y-81120000D01*
X136545000Y-83240000D02*
X136545000Y-83660000D01*
X136545000Y-85780000D02*
X136545000Y-86200000D01*
X136545000Y-88320000D02*
X136545000Y-88740000D01*
X136545000Y-90860000D02*
X136545000Y-91280000D01*
X136545000Y-93400000D02*
X136545000Y-93820000D01*
X136545000Y-95940000D02*
X136545000Y-96360000D01*
X136545000Y-98480000D02*
X136545000Y-98900000D01*
X136545000Y-101020000D02*
X136545000Y-101440000D01*
X136545000Y-103560000D02*
X136545000Y-103980000D01*
X136545000Y-106100000D02*
X136545000Y-106520000D01*
X136545000Y-108640000D02*
X136545000Y-109060000D01*
X136545000Y-111180000D02*
X136545000Y-111600000D01*
X136545000Y-113720000D02*
X136545000Y-114140000D01*
X136545000Y-116260000D02*
X136545000Y-116680000D01*
X136545000Y-118800000D02*
X136545000Y-119220000D01*
X136545000Y-121339937D02*
X136545000Y-121697000D01*
X136815000Y-70540000D02*
X139305000Y-70540000D01*
X136815000Y-121760000D02*
X140652939Y-121760000D01*
X139305000Y-70540000D02*
X139305000Y-71453520D01*
X139305000Y-70540000D02*
X140652940Y-70540000D01*
X139305000Y-73846480D02*
X139305000Y-118453520D01*
X139305000Y-120846480D02*
X139305000Y-121760000D01*
X141577061Y-70540000D02*
X142580000Y-70540000D01*
X142580000Y-70540000D02*
X151050000Y-70540000D01*
X142915000Y-70540000D02*
X142915000Y-71456000D01*
X142915000Y-73844000D02*
X142915000Y-75060000D01*
X142915000Y-75060000D02*
X143211090Y-75060000D01*
X143215000Y-121760000D02*
X141577061Y-121760000D01*
X145568910Y-75060000D02*
X148061090Y-75060000D01*
X150415000Y-121760000D02*
X143215000Y-121760000D01*
X150418910Y-75060000D02*
X150715000Y-75060000D01*
X150715000Y-70540000D02*
X150715000Y-71456000D01*
X150715000Y-73844000D02*
X150715000Y-75060000D01*
X151050000Y-70540000D02*
X152052939Y-70540000D01*
X152052939Y-121760000D02*
X150415000Y-121760000D01*
X152977061Y-70540000D02*
X154325000Y-70540000D01*
X152977061Y-121760000D02*
X156815000Y-121760000D01*
X154325000Y-70540000D02*
X154325000Y-71453520D01*
X154325000Y-73846480D02*
X154325000Y-118453520D01*
X154325000Y-120846480D02*
X154325000Y-121760000D01*
X156815000Y-70540000D02*
X154325000Y-70540000D01*
X157085000Y-70960063D02*
X157085000Y-70603000D01*
X157085000Y-73080000D02*
X157085000Y-73500000D01*
X157085000Y-75620000D02*
X157085000Y-76040000D01*
X157085000Y-78160000D02*
X157085000Y-78580000D01*
X157085000Y-80700000D02*
X157085000Y-81120000D01*
X157085000Y-83240000D02*
X157085000Y-83660000D01*
X157085000Y-85780000D02*
X157085000Y-86200000D01*
X157085000Y-88320000D02*
X157085000Y-88740000D01*
X157085000Y-90860000D02*
X157085000Y-91280000D01*
X157085000Y-93400000D02*
X157085000Y-93820000D01*
X157085000Y-95940000D02*
X157085000Y-96360000D01*
X157085000Y-98480000D02*
X157085000Y-98900000D01*
X157085000Y-101020000D02*
X157085000Y-101440000D01*
X157085000Y-103560000D02*
X157085000Y-103980000D01*
X157085000Y-106100000D02*
X157085000Y-106520000D01*
X157085000Y-108640000D02*
X157085000Y-109060000D01*
X157085000Y-111180000D02*
X157085000Y-111600000D01*
X157085000Y-113720000D02*
X157085000Y-114140000D01*
X157085000Y-116260000D02*
X157085000Y-116680000D01*
X157085000Y-118800000D02*
X157085000Y-119220000D01*
X157085000Y-121339937D02*
X157085000Y-121697000D01*
X157425000Y-73080000D02*
X157425000Y-73500000D01*
X157425000Y-75620000D02*
X157425000Y-76040000D01*
X157425000Y-78160000D02*
X157425000Y-78580000D01*
X157425000Y-80700000D02*
X157425000Y-81120000D01*
X157425000Y-83240000D02*
X157425000Y-83660000D01*
X157425000Y-85780000D02*
X157425000Y-86200000D01*
X157425000Y-88320000D02*
X157425000Y-88740000D01*
X157425000Y-90860000D02*
X157425000Y-91280000D01*
X157425000Y-93400000D02*
X157425000Y-93820000D01*
X157425000Y-95940000D02*
X157425000Y-96360000D01*
X157425000Y-98480000D02*
X157425000Y-98900000D01*
X157425000Y-101020000D02*
X157425000Y-101440000D01*
X157425000Y-103560000D02*
X157425000Y-103980000D01*
X157425000Y-106100000D02*
X157425000Y-106520000D01*
X157425000Y-108640000D02*
X157425000Y-109060000D01*
X157425000Y-111180000D02*
X157425000Y-111600000D01*
X157425000Y-113720000D02*
X157425000Y-114140000D01*
X157425000Y-116260000D02*
X157425000Y-116680000D01*
X157425000Y-118800000D02*
X157425000Y-119220000D01*
X136235324Y-70960000D02*
G75*
G02*
X136815000Y-70540000I579692J-190051D01*
G01*
X136815000Y-121760000D02*
G75*
G02*
X136235324Y-121339937I1J610002D01*
G01*
X156815000Y-70540000D02*
G75*
G02*
X157394676Y-70960063I0J-610000D01*
G01*
X157394676Y-121339937D02*
G75*
G02*
X156815000Y-121760069I-579676J189837D01*
G01*
%TD*%
M02*
