%TF.GenerationSoftware,KiCad,Pcbnew,10.0.4*%
%TF.CreationDate,2026-08-19T21:03:02-07:00*%
%TF.ProjectId,Motor Controller,4d6f746f-7220-4436-9f6e-74726f6c6c65,rev?*%
%TF.SameCoordinates,Original*%
%TF.FileFunction,Soldermask,Bot*%
%TF.FilePolarity,Negative*%
%FSLAX46Y46*%
G04 Gerber Fmt 4.6, Leading zero omitted, Abs format (unit mm)*
G04 Created by KiCad (PCBNEW 10.0.4) date 2026-08-19 21:03:02*
%MOMM*%
%LPD*%
G01*
G04 APERTURE LIST*
G04 Aperture macros list*
%AMRoundRect*
0 Rectangle with rounded corners*
0 $1 Rounding radius*
0 $2 $3 $4 $5 $6 $7 $8 $9 X,Y pos of 4 corners*
0 Add a 4 corners polygon primitive as box body*
4,1,4,$2,$3,$4,$5,$6,$7,$8,$9,$2,$3,0*
0 Add four circle primitives for the rounded corners*
1,1,$1+$1,$2,$3*
1,1,$1+$1,$4,$5*
1,1,$1+$1,$6,$7*
1,1,$1+$1,$8,$9*
0 Add four rect primitives between the rounded corners*
20,1,$1+$1,$2,$3,$4,$5,0*
20,1,$1+$1,$4,$5,$6,$7,0*
20,1,$1+$1,$6,$7,$8,$9,0*
20,1,$1+$1,$8,$9,$2,$3,0*%
%AMFreePoly0*
4,1,37,0.603843,0.796157,0.639018,0.796157,0.711114,0.766294,0.766294,0.711114,0.796157,0.639018,0.796157,0.603843,0.800000,0.600000,0.800000,-0.600000,0.796157,-0.603843,0.796157,-0.639018,0.766294,-0.711114,0.711114,-0.766294,0.639018,-0.796157,0.603843,-0.796157,0.600000,-0.800000,0.000000,-0.800000,0.000000,-0.796148,-0.078414,-0.796148,-0.232228,-0.765552,-0.377117,-0.705537,
-0.507515,-0.618408,-0.618408,-0.507515,-0.705537,-0.377117,-0.765552,-0.232228,-0.796148,-0.078414,-0.796148,0.078414,-0.765552,0.232228,-0.705537,0.377117,-0.618408,0.507515,-0.507515,0.618408,-0.377117,0.705537,-0.232228,0.765552,-0.078414,0.796148,0.000000,0.796148,0.000000,0.800000,0.600000,0.800000,0.603843,0.796157,0.603843,0.796157,$1*%
%AMFreePoly1*
4,1,37,0.000000,0.796148,0.078414,0.796148,0.232228,0.765552,0.377117,0.705537,0.507515,0.618408,0.618408,0.507515,0.705537,0.377117,0.765552,0.232228,0.796148,0.078414,0.796148,-0.078414,0.765552,-0.232228,0.705537,-0.377117,0.618408,-0.507515,0.507515,-0.618408,0.377117,-0.705537,0.232228,-0.765552,0.078414,-0.796148,0.000000,-0.796148,0.000000,-0.800000,-0.600000,-0.800000,
-0.603843,-0.796157,-0.639018,-0.796157,-0.711114,-0.766294,-0.766294,-0.711114,-0.796157,-0.639018,-0.796157,-0.603843,-0.800000,-0.600000,-0.800000,0.600000,-0.796157,0.603843,-0.796157,0.639018,-0.766294,0.711114,-0.711114,0.766294,-0.639018,0.796157,-0.603843,0.796157,-0.600000,0.800000,0.000000,0.800000,0.000000,0.796148,0.000000,0.796148,$1*%
G04 Aperture macros list end*
%ADD10RoundRect,0.250000X-0.550000X0.550000X-0.550000X-0.550000X0.550000X-0.550000X0.550000X0.550000X0*%
%ADD11C,1.600000*%
%ADD12C,1.700000*%
%ADD13R,1.700000X1.700000*%
%ADD14C,2.200000*%
%ADD15C,1.850000*%
%ADD16RoundRect,0.200000X-0.600000X-0.600000X0.600000X-0.600000X0.600000X0.600000X-0.600000X0.600000X0*%
%ADD17FreePoly0,0.000000*%
%ADD18FreePoly1,0.000000*%
G04 APERTURE END LIST*
D10*
%TO.C,C2*%
X163750000Y-82027401D03*
D11*
X163750000Y-84027401D03*
%TD*%
D12*
%TO.C,J1*%
X167250000Y-101000000D03*
X167250000Y-98460000D03*
D13*
X167250000Y-95920000D03*
%TD*%
D14*
%TO.C,A1*%
X144090000Y-72150000D03*
D15*
X144390000Y-75180000D03*
X149240000Y-75180000D03*
D14*
X149540000Y-72150000D03*
D16*
X137925000Y-72020000D03*
D11*
X137925000Y-74560000D03*
D17*
X137925000Y-77100000D03*
D11*
X137925000Y-79640000D03*
X137925000Y-82180000D03*
X137925000Y-84720000D03*
X137925000Y-87260000D03*
D17*
X137925000Y-89800000D03*
D11*
X137925000Y-92340000D03*
X137925000Y-94880000D03*
X137925000Y-97420000D03*
X137925000Y-99960000D03*
D17*
X137925000Y-102500000D03*
D11*
X137925000Y-105040000D03*
X137925000Y-107580000D03*
X137925000Y-110120000D03*
X137925000Y-112660000D03*
D17*
X137925000Y-115200000D03*
D11*
X137925000Y-117740000D03*
X137925000Y-120280000D03*
X155705000Y-120280000D03*
X155705000Y-117740000D03*
D18*
X155705000Y-115200000D03*
D11*
X155705000Y-112660000D03*
X155705000Y-110120000D03*
X155705000Y-107580000D03*
X155705000Y-105040000D03*
D18*
X155705000Y-102500000D03*
D11*
X155705000Y-99960000D03*
X155705000Y-97420000D03*
X155705000Y-94880000D03*
X155705000Y-92340000D03*
D18*
X155705000Y-89800000D03*
D11*
X155705000Y-87260000D03*
X155705000Y-84720000D03*
X155705000Y-82180000D03*
X155705000Y-79640000D03*
D18*
X155705000Y-77100000D03*
D11*
X155705000Y-74560000D03*
X155705000Y-72020000D03*
%TD*%
M02*
