%TF.GenerationSoftware,KiCad,Pcbnew,10.0.4*%
%TF.CreationDate,2026-08-19T21:03:02-07:00*%
%TF.ProjectId,Motor Controller,4d6f746f-7220-4436-9f6e-74726f6c6c65,rev?*%
%TF.SameCoordinates,Original*%
%TF.FileFunction,Soldermask,Top*%
%TF.FilePolarity,Negative*%
%FSLAX46Y46*%
G04 Gerber Fmt 4.6, Leading zero omitted, Abs format (unit mm)*
G04 Created by KiCad (PCBNEW 10.0.4) date 2026-08-19 21:03:02*
%MOMM*%
%LPD*%
G01*
G04 APERTURE LIST*
G04 Aperture macros list*
%AMRoundRect*
0 Rectangle with rounded corners*
0 $1 Rounding radius*
0 $2 $3 $4 $5 $6 $7 $8 $9 X,Y pos of 4 corners*
0 Add a 4 corners polygon primitive as box body*
4,1,4,$2,$3,$4,$5,$6,$7,$8,$9,$2,$3,0*
0 Add four circle primitives for the rounded corners*
1,1,$1+$1,$2,$3*
1,1,$1+$1,$4,$5*
1,1,$1+$1,$6,$7*
1,1,$1+$1,$8,$9*
0 Add four rect primitives between the rounded corners*
20,1,$1+$1,$2,$3,$4,$5,0*
20,1,$1+$1,$4,$5,$6,$7,0*
20,1,$1+$1,$6,$7,$8,$9,0*
20,1,$1+$1,$8,$9,$2,$3,0*%
%AMFreePoly0*
4,1,37,0.800000,0.796148,0.878414,0.796148,1.032228,0.765552,1.177117,0.705537,1.307515,0.618408,1.418408,0.507515,1.505537,0.377117,1.565552,0.232228,1.596148,0.078414,1.596148,-0.078414,1.565552,-0.232228,1.505537,-0.377117,1.418408,-0.507515,1.307515,-0.618408,1.177117,-0.705537,1.032228,-0.765552,0.878414,-0.796148,0.800000,-0.796148,0.800000,-0.800000,-1.400000,-0.800000,
-1.403843,-0.796157,-1.439018,-0.796157,-1.511114,-0.766294,-1.566294,-0.711114,-1.596157,-0.639018,-1.596157,-0.603843,-1.600000,-0.600000,-1.600000,0.600000,-1.596157,0.603843,-1.596157,0.639018,-1.566294,0.711114,-1.511114,0.766294,-1.439018,0.796157,-1.403843,0.796157,-1.400000,0.800000,0.800000,0.800000,0.800000,0.796148,0.800000,0.796148,$1*%
%AMFreePoly1*
4,1,37,1.403843,0.796157,1.439018,0.796157,1.511114,0.766294,1.566294,0.711114,1.596157,0.639018,1.596157,0.603843,1.600000,0.600000,1.600000,-0.600000,1.596157,-0.603843,1.596157,-0.639018,1.566294,-0.711114,1.511114,-0.766294,1.439018,-0.796157,1.403843,-0.796157,1.400000,-0.800000,-0.800000,-0.800000,-0.800000,-0.796148,-0.878414,-0.796148,-1.032228,-0.765552,-1.177117,-0.705537,
-1.307515,-0.618408,-1.418408,-0.507515,-1.505537,-0.377117,-1.565552,-0.232228,-1.596148,-0.078414,-1.596148,0.078414,-1.565552,0.232228,-1.505537,0.377117,-1.418408,0.507515,-1.307515,0.618408,-1.177117,0.705537,-1.032228,0.765552,-0.878414,0.796148,-0.800000,0.796148,-0.800000,0.800000,1.400000,0.800000,1.403843,0.796157,1.403843,0.796157,$1*%
%AMFreePoly2*
4,1,37,0.603843,0.796157,0.639018,0.796157,0.711114,0.766294,0.766294,0.711114,0.796157,0.639018,0.796157,0.603843,0.800000,0.600000,0.800000,-0.600000,0.796157,-0.603843,0.796157,-0.639018,0.766294,-0.711114,0.711114,-0.766294,0.639018,-0.796157,0.603843,-0.796157,0.600000,-0.800000,0.000000,-0.800000,0.000000,-0.796148,-0.078414,-0.796148,-0.232228,-0.765552,-0.377117,-0.705537,
-0.507515,-0.618408,-0.618408,-0.507515,-0.705537,-0.377117,-0.765552,-0.232228,-0.796148,-0.078414,-0.796148,0.078414,-0.765552,0.232228,-0.705537,0.377117,-0.618408,0.507515,-0.507515,0.618408,-0.377117,0.705537,-0.232228,0.765552,-0.078414,0.796148,0.000000,0.796148,0.000000,0.800000,0.600000,0.800000,0.603843,0.796157,0.603843,0.796157,$1*%
%AMFreePoly3*
4,1,37,0.000000,0.796148,0.078414,0.796148,0.232228,0.765552,0.377117,0.705537,0.507515,0.618408,0.618408,0.507515,0.705537,0.377117,0.765552,0.232228,0.796148,0.078414,0.796148,-0.078414,0.765552,-0.232228,0.705537,-0.377117,0.618408,-0.507515,0.507515,-0.618408,0.377117,-0.705537,0.232228,-0.765552,0.078414,-0.796148,0.000000,-0.796148,0.000000,-0.800000,-0.600000,-0.800000,
-0.603843,-0.796157,-0.639018,-0.796157,-0.711114,-0.766294,-0.766294,-0.711114,-0.796157,-0.639018,-0.796157,-0.603843,-0.800000,-0.600000,-0.800000,0.600000,-0.796157,0.603843,-0.796157,0.639018,-0.766294,0.711114,-0.711114,0.766294,-0.639018,0.796157,-0.603843,0.796157,-0.600000,0.800000,0.000000,0.800000,0.000000,0.796148,0.000000,0.796148,$1*%
G04 Aperture macros list end*
%ADD10RoundRect,0.250000X-0.550000X0.550000X-0.550000X-0.550000X0.550000X-0.550000X0.550000X0.550000X0*%
%ADD11C,1.600000*%
%ADD12RoundRect,0.250000X-0.412500X-0.650000X0.412500X-0.650000X0.412500X0.650000X-0.412500X0.650000X0*%
%ADD13RoundRect,0.150000X0.150000X-0.512500X0.150000X0.512500X-0.150000X0.512500X-0.150000X-0.512500X0*%
%ADD14C,1.700000*%
%ADD15R,1.700000X1.700000*%
%ADD16C,2.200000*%
%ADD17C,1.850000*%
%ADD18FreePoly0,0.000000*%
%ADD19RoundRect,0.200000X-0.600000X-0.600000X0.600000X-0.600000X0.600000X0.600000X-0.600000X0.600000X0*%
%ADD20RoundRect,0.800000X-0.800000X-0.000010X0.800000X-0.000010X0.800000X0.000010X-0.800000X0.000010X0*%
%ADD21FreePoly1,0.000000*%
%ADD22FreePoly2,0.000000*%
%ADD23FreePoly3,0.000000*%
G04 APERTURE END LIST*
D10*
%TO.C,C2*%
X163750000Y-82027401D03*
D11*
X163750000Y-84027401D03*
%TD*%
D12*
%TO.C,C1*%
X174937500Y-91500000D03*
X178062500Y-91500000D03*
%TD*%
D13*
%TO.C,U1*%
X171550000Y-97250000D03*
X172500000Y-97250000D03*
X173450000Y-97250000D03*
X173450000Y-94975000D03*
X171550000Y-94975000D03*
%TD*%
D14*
%TO.C,J1*%
X167250000Y-101000000D03*
X167250000Y-98460000D03*
D15*
X167250000Y-95920000D03*
%TD*%
D16*
%TO.C,A1*%
X144090000Y-72150000D03*
D17*
X144390000Y-75180000D03*
X149240000Y-75180000D03*
D16*
X149540000Y-72150000D03*
D18*
X137125000Y-72020000D03*
D19*
X137925000Y-72020000D03*
D20*
X137125000Y-74560000D03*
D11*
X137925000Y-74560000D03*
D21*
X137125000Y-77100000D03*
D22*
X137925000Y-77100000D03*
D20*
X137125000Y-79640000D03*
D11*
X137925000Y-79640000D03*
D20*
X137125000Y-82180000D03*
D11*
X137925000Y-82180000D03*
D20*
X137125000Y-84720000D03*
D11*
X137925000Y-84720000D03*
D20*
X137125000Y-87260000D03*
D11*
X137925000Y-87260000D03*
D21*
X137125000Y-89800000D03*
D22*
X137925000Y-89800000D03*
D20*
X137125000Y-92340000D03*
D11*
X137925000Y-92340000D03*
D20*
X137125000Y-94880000D03*
D11*
X137925000Y-94880000D03*
D20*
X137125000Y-97420000D03*
D11*
X137925000Y-97420000D03*
D20*
X137125000Y-99960000D03*
D11*
X137925000Y-99960000D03*
D21*
X137125000Y-102500000D03*
D22*
X137925000Y-102500000D03*
D20*
X137125000Y-105040000D03*
D11*
X137925000Y-105040000D03*
D20*
X137125000Y-107580000D03*
D11*
X137925000Y-107580000D03*
D20*
X137125000Y-110120000D03*
D11*
X137925000Y-110120000D03*
D20*
X137125000Y-112660000D03*
D11*
X137925000Y-112660000D03*
D21*
X137125000Y-115200000D03*
D22*
X137925000Y-115200000D03*
D20*
X137125000Y-117740000D03*
D11*
X137925000Y-117740000D03*
D20*
X137125000Y-120280000D03*
D11*
X137925000Y-120280000D03*
X155705000Y-120280000D03*
D20*
X156505000Y-120280000D03*
D11*
X155705000Y-117740000D03*
D20*
X156505000Y-117740000D03*
D23*
X155705000Y-115200000D03*
D18*
X156505000Y-115200000D03*
D11*
X155705000Y-112660000D03*
D20*
X156505000Y-112660000D03*
D11*
X155705000Y-110120000D03*
D20*
X156505000Y-110120000D03*
D11*
X155705000Y-107580000D03*
D20*
X156505000Y-107580000D03*
D11*
X155705000Y-105040000D03*
D20*
X156505000Y-105040000D03*
D23*
X155705000Y-102500000D03*
D18*
X156505000Y-102500000D03*
D11*
X155705000Y-99960000D03*
D20*
X156505000Y-99960000D03*
D11*
X155705000Y-97420000D03*
D20*
X156505000Y-97420000D03*
D11*
X155705000Y-94880000D03*
D20*
X156505000Y-94880000D03*
D11*
X155705000Y-92340000D03*
D20*
X156505000Y-92340000D03*
D23*
X155705000Y-89800000D03*
D18*
X156505000Y-89800000D03*
D11*
X155705000Y-87260000D03*
D20*
X156505000Y-87260000D03*
D11*
X155705000Y-84720000D03*
D20*
X156505000Y-84720000D03*
D11*
X155705000Y-82180000D03*
D20*
X156505000Y-82180000D03*
D11*
X155705000Y-79640000D03*
D20*
X156505000Y-79640000D03*
D23*
X155705000Y-77100000D03*
D18*
X156505000Y-77100000D03*
D11*
X155705000Y-74560000D03*
D20*
X156505000Y-74560000D03*
D11*
X155705000Y-72020000D03*
D20*
X156505000Y-72020000D03*
%TD*%
M02*
