%TF.GenerationSoftware,KiCad,Pcbnew,10.0.4*%
%TF.CreationDate,2026-08-19T21:03:02-07:00*%
%TF.ProjectId,Motor Controller,4d6f746f-7220-4436-9f6e-74726f6c6c65,rev?*%
%TF.SameCoordinates,Original*%
%TF.FileFunction,Copper,L2,Bot*%
%TF.FilePolarity,Positive*%
%FSLAX46Y46*%
G04 Gerber Fmt 4.6, Leading zero omitted, Abs format (unit mm)*
G04 Created by KiCad (PCBNEW 10.0.4) date 2026-08-19 21:03:02*
%MOMM*%
%LPD*%
G01*
G04 APERTURE LIST*
G04 Aperture macros list*
%AMRoundRect*
0 Rectangle with rounded corners*
0 $1 Rounding radius*
0 $2 $3 $4 $5 $6 $7 $8 $9 X,Y pos of 4 corners*
0 Add a 4 corners polygon primitive as box body*
4,1,4,$2,$3,$4,$5,$6,$7,$8,$9,$2,$3,0*
0 Add four circle primitives for the rounded corners*
1,1,$1+$1,$2,$3*
1,1,$1+$1,$4,$5*
1,1,$1+$1,$6,$7*
1,1,$1+$1,$8,$9*
0 Add four rect primitives between the rounded corners*
20,1,$1+$1,$2,$3,$4,$5,0*
20,1,$1+$1,$4,$5,$6,$7,0*
20,1,$1+$1,$6,$7,$8,$9,0*
20,1,$1+$1,$8,$9,$2,$3,0*%
%AMFreePoly0*
4,1,37,0.603843,0.796157,0.639018,0.796157,0.711114,0.766294,0.766294,0.711114,0.796157,0.639018,0.796157,0.603843,0.800000,0.600000,0.800000,-0.600000,0.796157,-0.603843,0.796157,-0.639018,0.766294,-0.711114,0.711114,-0.766294,0.639018,-0.796157,0.603843,-0.796157,0.600000,-0.800000,0.000000,-0.800000,0.000000,-0.796148,-0.078414,-0.796148,-0.232228,-0.765552,-0.377117,-0.705537,
-0.507515,-0.618408,-0.618408,-0.507515,-0.705537,-0.377117,-0.765552,-0.232228,-0.796148,-0.078414,-0.796148,0.078414,-0.765552,0.232228,-0.705537,0.377117,-0.618408,0.507515,-0.507515,0.618408,-0.377117,0.705537,-0.232228,0.765552,-0.078414,0.796148,0.000000,0.796148,0.000000,0.800000,0.600000,0.800000,0.603843,0.796157,0.603843,0.796157,$1*%
%AMFreePoly1*
4,1,37,0.000000,0.796148,0.078414,0.796148,0.232228,0.765552,0.377117,0.705537,0.507515,0.618408,0.618408,0.507515,0.705537,0.377117,0.765552,0.232228,0.796148,0.078414,0.796148,-0.078414,0.765552,-0.232228,0.705537,-0.377117,0.618408,-0.507515,0.507515,-0.618408,0.377117,-0.705537,0.232228,-0.765552,0.078414,-0.796148,0.000000,-0.796148,0.000000,-0.800000,-0.600000,-0.800000,
-0.603843,-0.796157,-0.639018,-0.796157,-0.711114,-0.766294,-0.766294,-0.711114,-0.796157,-0.639018,-0.796157,-0.603843,-0.800000,-0.600000,-0.800000,0.600000,-0.796157,0.603843,-0.796157,0.639018,-0.766294,0.711114,-0.711114,0.766294,-0.639018,0.796157,-0.603843,0.796157,-0.600000,0.800000,0.000000,0.800000,0.000000,0.796148,0.000000,0.796148,$1*%
G04 Aperture macros list end*
%TA.AperFunction,ComponentPad*%
%ADD10RoundRect,0.250000X-0.550000X0.550000X-0.550000X-0.550000X0.550000X-0.550000X0.550000X0.550000X0*%
%TD*%
%TA.AperFunction,ComponentPad*%
%ADD11C,1.600000*%
%TD*%
%TA.AperFunction,ComponentPad*%
%ADD12C,1.700000*%
%TD*%
%TA.AperFunction,ComponentPad*%
%ADD13R,1.700000X1.700000*%
%TD*%
%TA.AperFunction,ComponentPad*%
%ADD14RoundRect,0.200000X-0.600000X-0.600000X0.600000X-0.600000X0.600000X0.600000X-0.600000X0.600000X0*%
%TD*%
%TA.AperFunction,ComponentPad*%
%ADD15FreePoly0,0.000000*%
%TD*%
%TA.AperFunction,ComponentPad*%
%ADD16FreePoly1,0.000000*%
%TD*%
G04 APERTURE END LIST*
D10*
%TO.P,C2,1*%
%TO.N,VBUS*%
X163750000Y-82027401D03*
D11*
%TO.P,C2,2*%
%TO.N,GND*%
X163750000Y-84027401D03*
%TD*%
D12*
%TO.P,J1,3,Pin_3_3*%
%TO.N,GND*%
X167250000Y-101000000D03*
%TO.P,J1,2,Pin_2_2*%
%TO.N,Net-(J1-Pin_2)*%
X167250000Y-98460000D03*
D13*
%TO.P,J1,1,Pin_1_1*%
%TO.N,VBUS*%
X167250000Y-95920000D03*
%TD*%
D14*
%TO.P,A1,1,GPIO0_1*%
%TO.N,Net-(A1-GPIO0)*%
X137925000Y-72020000D03*
D11*
%TO.P,A1,2,GPIO1_2*%
%TO.N,unconnected-(A1-GPIO1-Pad2)_1*%
X137925000Y-74560000D03*
D15*
%TO.P,A1,3,GND_3*%
%TO.N,GND*%
X137925000Y-77100000D03*
D11*
%TO.P,A1,4,GPIO2_4*%
%TO.N,unconnected-(A1-GPIO2-Pad4)_1*%
X137925000Y-79640000D03*
%TO.P,A1,5,GPIO3_5*%
%TO.N,unconnected-(A1-GPIO3-Pad5)_1*%
X137925000Y-82180000D03*
%TO.P,A1,6,GPIO4_6*%
%TO.N,unconnected-(A1-GPIO4-Pad6)*%
X137925000Y-84720000D03*
%TO.P,A1,7,GPIO5_7*%
%TO.N,unconnected-(A1-GPIO5-Pad7)*%
X137925000Y-87260000D03*
D15*
%TO.P,A1,8,GND_8*%
%TO.N,GND*%
X137925000Y-89800000D03*
D11*
%TO.P,A1,9,GPIO6_9*%
%TO.N,unconnected-(A1-GPIO6-Pad9)_1*%
X137925000Y-92340000D03*
%TO.P,A1,10,GPIO7_10*%
%TO.N,unconnected-(A1-GPIO7-Pad10)_1*%
X137925000Y-94880000D03*
%TO.P,A1,11,GPIO8_11*%
%TO.N,unconnected-(A1-GPIO8-Pad11)_1*%
X137925000Y-97420000D03*
%TO.P,A1,12,GPIO9_12*%
%TO.N,unconnected-(A1-GPIO9-Pad12)_1*%
X137925000Y-99960000D03*
D15*
%TO.P,A1,13,GND_13*%
%TO.N,GND*%
X137925000Y-102500000D03*
D11*
%TO.P,A1,14,GPIO10_14*%
%TO.N,unconnected-(A1-GPIO10-Pad14)_1*%
X137925000Y-105040000D03*
%TO.P,A1,15,GPIO11_15*%
%TO.N,unconnected-(A1-GPIO11-Pad15)_1*%
X137925000Y-107580000D03*
%TO.P,A1,16,GPIO12_16*%
%TO.N,unconnected-(A1-GPIO12-Pad16)_1*%
X137925000Y-110120000D03*
%TO.P,A1,17,GPIO13_17*%
%TO.N,unconnected-(A1-GPIO13-Pad17)_1*%
X137925000Y-112660000D03*
D15*
%TO.P,A1,18,GND_18*%
%TO.N,GND*%
X137925000Y-115200000D03*
D11*
%TO.P,A1,19,GPIO14_19*%
%TO.N,unconnected-(A1-GPIO14-Pad19)_1*%
X137925000Y-117740000D03*
%TO.P,A1,20,GPIO15_20*%
%TO.N,unconnected-(A1-GPIO15-Pad20)*%
X137925000Y-120280000D03*
%TO.P,A1,21,GPIO16_21*%
%TO.N,unconnected-(A1-GPIO16-Pad21)_1*%
X155705000Y-120280000D03*
%TO.P,A1,22,GPIO17_22*%
%TO.N,unconnected-(A1-GPIO17-Pad22)_1*%
X155705000Y-117740000D03*
D16*
%TO.P,A1,23,GND_23*%
%TO.N,GND*%
X155705000Y-115200000D03*
D11*
%TO.P,A1,24,GPIO18_24*%
%TO.N,unconnected-(A1-GPIO18-Pad24)_1*%
X155705000Y-112660000D03*
%TO.P,A1,25,GPIO19_25*%
%TO.N,unconnected-(A1-GPIO19-Pad25)*%
X155705000Y-110120000D03*
%TO.P,A1,26,GPIO20_26*%
%TO.N,unconnected-(A1-GPIO20-Pad26)_1*%
X155705000Y-107580000D03*
%TO.P,A1,27,GPIO21_27*%
%TO.N,unconnected-(A1-GPIO21-Pad27)_1*%
X155705000Y-105040000D03*
D16*
%TO.P,A1,28,GND_28*%
%TO.N,GND*%
X155705000Y-102500000D03*
D11*
%TO.P,A1,29,GPIO22_29*%
%TO.N,unconnected-(A1-GPIO22-Pad29)*%
X155705000Y-99960000D03*
%TO.P,A1,30,RUN_30*%
%TO.N,unconnected-(A1-RUN-Pad30)*%
X155705000Y-97420000D03*
%TO.P,A1,31,GPIO26_ADC0_31*%
%TO.N,unconnected-(A1-GPIO26_ADC0-Pad31)_1*%
X155705000Y-94880000D03*
%TO.P,A1,32,GPIO27_ADC1_32*%
%TO.N,unconnected-(A1-GPIO27_ADC1-Pad32)*%
X155705000Y-92340000D03*
D16*
%TO.P,A1,33,AGND_33*%
%TO.N,unconnected-(A1-AGND-Pad33)*%
X155705000Y-89800000D03*
D11*
%TO.P,A1,34,GPIO28_ADC2_34*%
%TO.N,unconnected-(A1-GPIO28_ADC2-Pad34)_1*%
X155705000Y-87260000D03*
%TO.P,A1,35,ADC_VREF_35*%
%TO.N,unconnected-(A1-ADC_VREF-Pad35)*%
X155705000Y-84720000D03*
%TO.P,A1,36,3V3_36*%
%TO.N,unconnected-(A1-3V3-Pad36)_1*%
X155705000Y-82180000D03*
%TO.P,A1,37,3V3_EN_37*%
%TO.N,unconnected-(A1-3V3_EN-Pad37)_1*%
X155705000Y-79640000D03*
D16*
%TO.P,A1,38,GND_38*%
%TO.N,GND*%
X155705000Y-77100000D03*
D11*
%TO.P,A1,39,VSYS_39*%
%TO.N,unconnected-(A1-VSYS-Pad39)_1*%
X155705000Y-74560000D03*
%TO.P,A1,40,VBUS_40*%
%TO.N,VBUS*%
X155705000Y-72020000D03*
%TD*%
%TA.AperFunction,Conductor*%
%TO.N,GND*%
G36*
X180442539Y-69420185D02*
G01*
X180488294Y-69472989D01*
X180499500Y-69524500D01*
X180499500Y-123375500D01*
X180479815Y-123442539D01*
X180427011Y-123488294D01*
X180375500Y-123499500D01*
X131624500Y-123499500D01*
X131557461Y-123479815D01*
X131511706Y-123427011D01*
X131500500Y-123375500D01*
X131500500Y-77021210D01*
X136620000Y-77021210D01*
X136620000Y-77178789D01*
X136629701Y-77277299D01*
X136629701Y-77277302D01*
X136660444Y-77431864D01*
X136689185Y-77526612D01*
X136749490Y-77672198D01*
X136796158Y-77759506D01*
X136842533Y-77828912D01*
X136842534Y-77828913D01*
X137442037Y-77229409D01*
X137459075Y-77292993D01*
X137524901Y-77407007D01*
X137617993Y-77500099D01*
X137732007Y-77565925D01*
X137795590Y-77582962D01*
X137196085Y-78182465D01*
X137265493Y-78228841D01*
X137331454Y-78264099D01*
X137381298Y-78313062D01*
X137396758Y-78381200D01*
X137372926Y-78446879D01*
X137329295Y-78483942D01*
X137243386Y-78527715D01*
X137077786Y-78648028D01*
X136933028Y-78792786D01*
X136812715Y-78958386D01*
X136719781Y-79140776D01*
X136656522Y-79335465D01*
X136624500Y-79537648D01*
X136624500Y-79742351D01*
X136656522Y-79944534D01*
X136719781Y-80139223D01*
X136812715Y-80321613D01*
X136933028Y-80487213D01*
X137077786Y-80631971D01*
X137232749Y-80744556D01*
X137243390Y-80752287D01*
X137334840Y-80798883D01*
X137336080Y-80799515D01*
X137386876Y-80847490D01*
X137403671Y-80915311D01*
X137381134Y-80981446D01*
X137336080Y-81020485D01*
X137243386Y-81067715D01*
X137077786Y-81188028D01*
X136933028Y-81332786D01*
X136812715Y-81498386D01*
X136719781Y-81680776D01*
X136656522Y-81875465D01*
X136624500Y-82077648D01*
X136624500Y-82282351D01*
X136656522Y-82484534D01*
X136719781Y-82679223D01*
X136783691Y-82804653D01*
X136804788Y-82846057D01*
X136812715Y-82861613D01*
X136933028Y-83027213D01*
X137077786Y-83171971D01*
X137232749Y-83284556D01*
X137243390Y-83292287D01*
X137334840Y-83338883D01*
X137336080Y-83339515D01*
X137386876Y-83387490D01*
X137403671Y-83455311D01*
X137381134Y-83521446D01*
X137336080Y-83560485D01*
X137243386Y-83607715D01*
X137077786Y-83728028D01*
X136933028Y-83872786D01*
X136812715Y-84038386D01*
X136719781Y-84220776D01*
X136656522Y-84415465D01*
X136624500Y-84617648D01*
X136624500Y-84822351D01*
X136656522Y-85024534D01*
X136719781Y-85219223D01*
X136812715Y-85401613D01*
X136933028Y-85567213D01*
X137077786Y-85711971D01*
X137232749Y-85824556D01*
X137243390Y-85832287D01*
X137334840Y-85878883D01*
X137336080Y-85879515D01*
X137386876Y-85927490D01*
X137403671Y-85995311D01*
X137381134Y-86061446D01*
X137336080Y-86100485D01*
X137243386Y-86147715D01*
X137077786Y-86268028D01*
X136933028Y-86412786D01*
X136812715Y-86578386D01*
X136719781Y-86760776D01*
X136656522Y-86955465D01*
X136624500Y-87157648D01*
X136624500Y-87362351D01*
X136656522Y-87564534D01*
X136719781Y-87759223D01*
X136812715Y-87941613D01*
X136933028Y-88107213D01*
X137077786Y-88251971D01*
X137243388Y-88372286D01*
X137243390Y-88372287D01*
X137329294Y-88416057D01*
X137380090Y-88464031D01*
X137396886Y-88531852D01*
X137374349Y-88597987D01*
X137331455Y-88635899D01*
X137265494Y-88671157D01*
X137265489Y-88671160D01*
X137196086Y-88717532D01*
X137196085Y-88717533D01*
X137795590Y-89317037D01*
X137732007Y-89334075D01*
X137617993Y-89399901D01*
X137524901Y-89492993D01*
X137459075Y-89607007D01*
X137442037Y-89670589D01*
X136842533Y-89071085D01*
X136842532Y-89071086D01*
X136796161Y-89140488D01*
X136749490Y-89227801D01*
X136689185Y-89373387D01*
X136660444Y-89468135D01*
X136629701Y-89622697D01*
X136629701Y-89622700D01*
X136620000Y-89721210D01*
X136620000Y-89878789D01*
X136629701Y-89977299D01*
X136629701Y-89977302D01*
X136660444Y-90131864D01*
X136689185Y-90226612D01*
X136749490Y-90372198D01*
X136796158Y-90459506D01*
X136842533Y-90528912D01*
X136842534Y-90528913D01*
X137442037Y-89929409D01*
X137459075Y-89992993D01*
X137524901Y-90107007D01*
X137617993Y-90200099D01*
X137732007Y-90265925D01*
X137795590Y-90282962D01*
X137196085Y-90882465D01*
X137265493Y-90928841D01*
X137331454Y-90964099D01*
X137381298Y-91013062D01*
X137396758Y-91081200D01*
X137372926Y-91146879D01*
X137329295Y-91183942D01*
X137243386Y-91227715D01*
X137077786Y-91348028D01*
X136933028Y-91492786D01*
X136812715Y-91658386D01*
X136719781Y-91840776D01*
X136656522Y-92035465D01*
X136624500Y-92237648D01*
X136624500Y-92442351D01*
X136656522Y-92644534D01*
X136719781Y-92839223D01*
X136812715Y-93021613D01*
X136933028Y-93187213D01*
X137077786Y-93331971D01*
X137232749Y-93444556D01*
X137243390Y-93452287D01*
X137334840Y-93498883D01*
X137336080Y-93499515D01*
X137386876Y-93547490D01*
X137403671Y-93615311D01*
X137381134Y-93681446D01*
X137336080Y-93720485D01*
X137243386Y-93767715D01*
X137077786Y-93888028D01*
X136933028Y-94032786D01*
X136812715Y-94198386D01*
X136719781Y-94380776D01*
X136656522Y-94575465D01*
X136624500Y-94777648D01*
X136624500Y-94982352D01*
X136628878Y-95009995D01*
X136656522Y-95184534D01*
X136719781Y-95379223D01*
X136812715Y-95561613D01*
X136933028Y-95727213D01*
X137077786Y-95871971D01*
X137232749Y-95984556D01*
X137243390Y-95992287D01*
X137334840Y-96038883D01*
X137336080Y-96039515D01*
X137386876Y-96087490D01*
X137403671Y-96155311D01*
X137381134Y-96221446D01*
X137336080Y-96260485D01*
X137243386Y-96307715D01*
X137077786Y-96428028D01*
X136933028Y-96572786D01*
X136812715Y-96738386D01*
X136719781Y-96920776D01*
X136656522Y-97115465D01*
X136624500Y-97317648D01*
X136624500Y-97522351D01*
X136656522Y-97724534D01*
X136719781Y-97919223D01*
X136812715Y-98101613D01*
X136933028Y-98267213D01*
X137077786Y-98411971D01*
X137232749Y-98524556D01*
X137243390Y-98532287D01*
X137310117Y-98566286D01*
X137336080Y-98579515D01*
X137386876Y-98627490D01*
X137403671Y-98695311D01*
X137381134Y-98761446D01*
X137336080Y-98800485D01*
X137243386Y-98847715D01*
X137077786Y-98968028D01*
X136933028Y-99112786D01*
X136812715Y-99278386D01*
X136719781Y-99460776D01*
X136656522Y-99655465D01*
X136624500Y-99857648D01*
X136624500Y-100062351D01*
X136656522Y-100264534D01*
X136719781Y-100459223D01*
X136812715Y-100641613D01*
X136933028Y-100807213D01*
X137077786Y-100951971D01*
X137243388Y-101072286D01*
X137243390Y-101072287D01*
X137329294Y-101116057D01*
X137380090Y-101164031D01*
X137396886Y-101231852D01*
X137374349Y-101297987D01*
X137331455Y-101335899D01*
X137265494Y-101371157D01*
X137265489Y-101371160D01*
X137196086Y-101417532D01*
X137196085Y-101417533D01*
X137795590Y-102017037D01*
X137732007Y-102034075D01*
X137617993Y-102099901D01*
X137524901Y-102192993D01*
X137459075Y-102307007D01*
X137442037Y-102370589D01*
X136842533Y-101771085D01*
X136842532Y-101771086D01*
X136796161Y-101840488D01*
X136749490Y-101927801D01*
X136689185Y-102073387D01*
X136660444Y-102168135D01*
X136629701Y-102322697D01*
X136629701Y-102322700D01*
X136620000Y-102421210D01*
X136620000Y-102578789D01*
X136629701Y-102677299D01*
X136629701Y-102677302D01*
X136660444Y-102831864D01*
X136689185Y-102926612D01*
X136749490Y-103072198D01*
X136796158Y-103159506D01*
X136842533Y-103228912D01*
X136842534Y-103228913D01*
X137442037Y-102629409D01*
X137459075Y-102692993D01*
X137524901Y-102807007D01*
X137617993Y-102900099D01*
X137732007Y-102965925D01*
X137795590Y-102982962D01*
X137196085Y-103582465D01*
X137265493Y-103628841D01*
X137331454Y-103664099D01*
X137381298Y-103713062D01*
X137396758Y-103781200D01*
X137372926Y-103846879D01*
X137329295Y-103883942D01*
X137243386Y-103927715D01*
X137077786Y-104048028D01*
X136933028Y-104192786D01*
X136812715Y-104358386D01*
X136719781Y-104540776D01*
X136656522Y-104735465D01*
X136624500Y-104937648D01*
X136624500Y-105142351D01*
X136656522Y-105344534D01*
X136719781Y-105539223D01*
X136812715Y-105721613D01*
X136933028Y-105887213D01*
X137077786Y-106031971D01*
X137232749Y-106144556D01*
X137243390Y-106152287D01*
X137334840Y-106198883D01*
X137336080Y-106199515D01*
X137386876Y-106247490D01*
X137403671Y-106315311D01*
X137381134Y-106381446D01*
X137336080Y-106420485D01*
X137243386Y-106467715D01*
X137077786Y-106588028D01*
X136933028Y-106732786D01*
X136812715Y-106898386D01*
X136719781Y-107080776D01*
X136656522Y-107275465D01*
X136624500Y-107477648D01*
X136624500Y-107682351D01*
X136656522Y-107884534D01*
X136719781Y-108079223D01*
X136812715Y-108261613D01*
X136933028Y-108427213D01*
X137077786Y-108571971D01*
X137232749Y-108684556D01*
X137243390Y-108692287D01*
X137334840Y-108738883D01*
X137336080Y-108739515D01*
X137386876Y-108787490D01*
X137403671Y-108855311D01*
X137381134Y-108921446D01*
X137336080Y-108960485D01*
X137243386Y-109007715D01*
X137077786Y-109128028D01*
X136933028Y-109272786D01*
X136812715Y-109438386D01*
X136719781Y-109620776D01*
X136656522Y-109815465D01*
X136624500Y-110017648D01*
X136624500Y-110222351D01*
X136656522Y-110424534D01*
X136719781Y-110619223D01*
X136812715Y-110801613D01*
X136933028Y-110967213D01*
X137077786Y-111111971D01*
X137232749Y-111224556D01*
X137243390Y-111232287D01*
X137334840Y-111278883D01*
X137336080Y-111279515D01*
X137386876Y-111327490D01*
X137403671Y-111395311D01*
X137381134Y-111461446D01*
X137336080Y-111500485D01*
X137243386Y-111547715D01*
X137077786Y-111668028D01*
X136933028Y-111812786D01*
X136812715Y-111978386D01*
X136719781Y-112160776D01*
X136656522Y-112355465D01*
X136624500Y-112557648D01*
X136624500Y-112762351D01*
X136656522Y-112964534D01*
X136719781Y-113159223D01*
X136812715Y-113341613D01*
X136933028Y-113507213D01*
X137077786Y-113651971D01*
X137243388Y-113772286D01*
X137243390Y-113772287D01*
X137329294Y-113816057D01*
X137380090Y-113864031D01*
X137396886Y-113931852D01*
X137374349Y-113997987D01*
X137331455Y-114035899D01*
X137265494Y-114071157D01*
X137265489Y-114071160D01*
X137196086Y-114117532D01*
X137196085Y-114117533D01*
X137795590Y-114717037D01*
X137732007Y-114734075D01*
X137617993Y-114799901D01*
X137524901Y-114892993D01*
X137459075Y-115007007D01*
X137442037Y-115070589D01*
X136842533Y-114471085D01*
X136842532Y-114471086D01*
X136796161Y-114540488D01*
X136749490Y-114627801D01*
X136689185Y-114773387D01*
X136660444Y-114868135D01*
X136629701Y-115022697D01*
X136629701Y-115022700D01*
X136620000Y-115121210D01*
X136620000Y-115278789D01*
X136629701Y-115377299D01*
X136629701Y-115377302D01*
X136660444Y-115531864D01*
X136689185Y-115626612D01*
X136749490Y-115772198D01*
X136796158Y-115859506D01*
X136842533Y-115928912D01*
X136842534Y-115928913D01*
X137442037Y-115329409D01*
X137459075Y-115392993D01*
X137524901Y-115507007D01*
X137617993Y-115600099D01*
X137732007Y-115665925D01*
X137795590Y-115682962D01*
X137196085Y-116282465D01*
X137265493Y-116328841D01*
X137331454Y-116364099D01*
X137381298Y-116413062D01*
X137396758Y-116481200D01*
X137372926Y-116546879D01*
X137329295Y-116583942D01*
X137243386Y-116627715D01*
X137077786Y-116748028D01*
X136933028Y-116892786D01*
X136812715Y-117058386D01*
X136719781Y-117240776D01*
X136656522Y-117435465D01*
X136624500Y-117637648D01*
X136624500Y-117842351D01*
X136656522Y-118044534D01*
X136719781Y-118239223D01*
X136812715Y-118421613D01*
X136933028Y-118587213D01*
X137077786Y-118731971D01*
X137232749Y-118844556D01*
X137243390Y-118852287D01*
X137334840Y-118898883D01*
X137336080Y-118899515D01*
X137386876Y-118947490D01*
X137403671Y-119015311D01*
X137381134Y-119081446D01*
X137336080Y-119120485D01*
X137243386Y-119167715D01*
X137077786Y-119288028D01*
X136933028Y-119432786D01*
X136812715Y-119598386D01*
X136719781Y-119780776D01*
X136656522Y-119975465D01*
X136624500Y-120177648D01*
X136624500Y-120382351D01*
X136656522Y-120584534D01*
X136719781Y-120779223D01*
X136812715Y-120961613D01*
X136933028Y-121127213D01*
X137077786Y-121271971D01*
X137232749Y-121384556D01*
X137243390Y-121392287D01*
X137359607Y-121451503D01*
X137425776Y-121485218D01*
X137425778Y-121485218D01*
X137425781Y-121485220D01*
X137530137Y-121519127D01*
X137620465Y-121548477D01*
X137721557Y-121564488D01*
X137822648Y-121580500D01*
X137822649Y-121580500D01*
X138027351Y-121580500D01*
X138027352Y-121580500D01*
X138229534Y-121548477D01*
X138424219Y-121485220D01*
X138606610Y-121392287D01*
X138699590Y-121324732D01*
X138772213Y-121271971D01*
X138772215Y-121271968D01*
X138772219Y-121271966D01*
X138916966Y-121127219D01*
X138916968Y-121127215D01*
X138916971Y-121127213D01*
X138969732Y-121054590D01*
X139037287Y-120961610D01*
X139130220Y-120779219D01*
X139193477Y-120584534D01*
X139225500Y-120382352D01*
X139225500Y-120177648D01*
X139193477Y-119975466D01*
X139130220Y-119780781D01*
X139130218Y-119780778D01*
X139130218Y-119780776D01*
X139096503Y-119714607D01*
X139037287Y-119598390D01*
X139029556Y-119587749D01*
X138916971Y-119432786D01*
X138772213Y-119288028D01*
X138606614Y-119167715D01*
X138600006Y-119164348D01*
X138513917Y-119120483D01*
X138463123Y-119072511D01*
X138446328Y-119004690D01*
X138468865Y-118938555D01*
X138513917Y-118899516D01*
X138606610Y-118852287D01*
X138627770Y-118836913D01*
X138772213Y-118731971D01*
X138772215Y-118731968D01*
X138772219Y-118731966D01*
X138916966Y-118587219D01*
X138916968Y-118587215D01*
X138916971Y-118587213D01*
X138969732Y-118514590D01*
X139037287Y-118421610D01*
X139130220Y-118239219D01*
X139193477Y-118044534D01*
X139225500Y-117842352D01*
X139225500Y-117637648D01*
X139202098Y-117489895D01*
X139715000Y-117489895D01*
X144367057Y-121102663D01*
X144407931Y-121159327D01*
X144415000Y-121200597D01*
X144415000Y-122150000D01*
X149215000Y-122150000D01*
X149215000Y-121200597D01*
X149234685Y-121133558D01*
X149262941Y-121102664D01*
X153915000Y-117489895D01*
X153915000Y-113150000D01*
X139715000Y-113150000D01*
X139715000Y-117489895D01*
X139202098Y-117489895D01*
X139193477Y-117435466D01*
X139130220Y-117240781D01*
X139130218Y-117240778D01*
X139130218Y-117240776D01*
X139096503Y-117174607D01*
X139037287Y-117058390D01*
X139029556Y-117047749D01*
X138916971Y-116892786D01*
X138772217Y-116748032D01*
X138695415Y-116692232D01*
X138652750Y-116636902D01*
X138646771Y-116567288D01*
X138679377Y-116505494D01*
X138737640Y-116471765D01*
X138758022Y-116466563D01*
X138758035Y-116466559D01*
X138814582Y-116443135D01*
X138054409Y-115682962D01*
X138117993Y-115665925D01*
X138232007Y-115600099D01*
X138325099Y-115507007D01*
X138390925Y-115392993D01*
X138407962Y-115329409D01*
X139168135Y-116089582D01*
X139168137Y-116089582D01*
X139191552Y-116033053D01*
X139209544Y-115982053D01*
X139229999Y-115839780D01*
X139230000Y-115839779D01*
X139230000Y-114560214D01*
X139227106Y-114506237D01*
X139227106Y-114506235D01*
X139191558Y-114366960D01*
X139168136Y-114310415D01*
X139168135Y-114310415D01*
X138407962Y-115070589D01*
X138390925Y-115007007D01*
X138325099Y-114892993D01*
X138232007Y-114799901D01*
X138117993Y-114734075D01*
X138054410Y-114717037D01*
X138814583Y-113956863D01*
X138814583Y-113956862D01*
X138758052Y-113933447D01*
X138758013Y-113933432D01*
X138729375Y-113923329D01*
X138672704Y-113882463D01*
X138647122Y-113817444D01*
X138660754Y-113748917D01*
X138697745Y-113706074D01*
X138772215Y-113651969D01*
X138772215Y-113651968D01*
X138772219Y-113651966D01*
X138916966Y-113507219D01*
X138916968Y-113507215D01*
X138916971Y-113507213D01*
X138969732Y-113434590D01*
X139037287Y-113341610D01*
X139130220Y-113159219D01*
X139193477Y-112964534D01*
X139225500Y-112762352D01*
X139225500Y-112557648D01*
X139193477Y-112355466D01*
X139130220Y-112160781D01*
X139130218Y-112160778D01*
X139130218Y-112160776D01*
X139096503Y-112094607D01*
X139037287Y-111978390D01*
X139029556Y-111967749D01*
X138916971Y-111812786D01*
X138772213Y-111668028D01*
X138606614Y-111547715D01*
X138600006Y-111544348D01*
X138513917Y-111500483D01*
X138463123Y-111452511D01*
X138446328Y-111384690D01*
X138468865Y-111318555D01*
X138513917Y-111279516D01*
X138606610Y-111232287D01*
X138627770Y-111216913D01*
X138772213Y-111111971D01*
X138772215Y-111111968D01*
X138772219Y-111111966D01*
X138916966Y-110967219D01*
X138916968Y-110967215D01*
X138916971Y-110967213D01*
X138969732Y-110894590D01*
X139037287Y-110801610D01*
X139130220Y-110619219D01*
X139193477Y-110424534D01*
X139225500Y-110222352D01*
X139225500Y-110017648D01*
X139193477Y-109815466D01*
X139130220Y-109620781D01*
X139130218Y-109620778D01*
X139130218Y-109620776D01*
X139096503Y-109554607D01*
X139037287Y-109438390D01*
X139029556Y-109427749D01*
X138916971Y-109272786D01*
X138772213Y-109128028D01*
X138606614Y-109007715D01*
X138600006Y-109004348D01*
X138513917Y-108960483D01*
X138463123Y-108912511D01*
X138446328Y-108844690D01*
X138468865Y-108778555D01*
X138513917Y-108739516D01*
X138606610Y-108692287D01*
X138627770Y-108676913D01*
X138772213Y-108571971D01*
X138772215Y-108571968D01*
X138772219Y-108571966D01*
X138916966Y-108427219D01*
X138916968Y-108427215D01*
X138916971Y-108427213D01*
X138969732Y-108354590D01*
X139037287Y-108261610D01*
X139130220Y-108079219D01*
X139193477Y-107884534D01*
X139225500Y-107682352D01*
X139225500Y-107477648D01*
X139193477Y-107275466D01*
X139130220Y-107080781D01*
X139130218Y-107080778D01*
X139130218Y-107080776D01*
X139096503Y-107014607D01*
X139037287Y-106898390D01*
X139029556Y-106887749D01*
X138916971Y-106732786D01*
X138772213Y-106588028D01*
X138606614Y-106467715D01*
X138600006Y-106464348D01*
X138513917Y-106420483D01*
X138463123Y-106372511D01*
X138446328Y-106304690D01*
X138468865Y-106238555D01*
X138513917Y-106199516D01*
X138606610Y-106152287D01*
X138627770Y-106136913D01*
X138772213Y-106031971D01*
X138772215Y-106031968D01*
X138772219Y-106031966D01*
X138916966Y-105887219D01*
X138916968Y-105887215D01*
X138916971Y-105887213D01*
X138969732Y-105814590D01*
X139037287Y-105721610D01*
X139130220Y-105539219D01*
X139193477Y-105344534D01*
X139225500Y-105142352D01*
X139225500Y-104937648D01*
X139193477Y-104735466D01*
X139130220Y-104540781D01*
X139130218Y-104540778D01*
X139130218Y-104540776D01*
X139096503Y-104474607D01*
X139037287Y-104358390D01*
X139029556Y-104347749D01*
X138916971Y-104192786D01*
X138772217Y-104048032D01*
X138695415Y-103992232D01*
X138652750Y-103936902D01*
X138646771Y-103867288D01*
X138679377Y-103805494D01*
X138737640Y-103771765D01*
X138758022Y-103766563D01*
X138758035Y-103766559D01*
X138814582Y-103743135D01*
X138054409Y-102982962D01*
X138117993Y-102965925D01*
X138232007Y-102900099D01*
X138325099Y-102807007D01*
X138390925Y-102692993D01*
X138407962Y-102629409D01*
X139168135Y-103389582D01*
X139168137Y-103389582D01*
X139191552Y-103333053D01*
X139209544Y-103282053D01*
X139229999Y-103139780D01*
X139230000Y-103139779D01*
X139230000Y-101860224D01*
X139229999Y-101860204D01*
X139227106Y-101806237D01*
X139227106Y-101806235D01*
X139191558Y-101666960D01*
X139168136Y-101610415D01*
X139168135Y-101610415D01*
X138407962Y-102370589D01*
X138390925Y-102307007D01*
X138325099Y-102192993D01*
X138232007Y-102099901D01*
X138117993Y-102034075D01*
X138054410Y-102017037D01*
X138814583Y-101256863D01*
X138814583Y-101256862D01*
X138758052Y-101233447D01*
X138758013Y-101233432D01*
X138729375Y-101223329D01*
X138672704Y-101182463D01*
X138647122Y-101117444D01*
X138660754Y-101048917D01*
X138697745Y-101006074D01*
X138772215Y-100951969D01*
X138772215Y-100951968D01*
X138772219Y-100951966D01*
X138916966Y-100807219D01*
X138916968Y-100807215D01*
X138916971Y-100807213D01*
X139033773Y-100646446D01*
X139037287Y-100641610D01*
X139130220Y-100459219D01*
X139193477Y-100264534D01*
X139225500Y-100062352D01*
X139225500Y-99857648D01*
X139193477Y-99655466D01*
X139180345Y-99615051D01*
X139139749Y-99490109D01*
X139130220Y-99460781D01*
X139130218Y-99460778D01*
X139130218Y-99460776D01*
X139096503Y-99394607D01*
X139037287Y-99278390D01*
X139029556Y-99267749D01*
X138916971Y-99112786D01*
X138772213Y-98968028D01*
X138606614Y-98847715D01*
X138600006Y-98844348D01*
X138513917Y-98800483D01*
X138463123Y-98752511D01*
X138446328Y-98684690D01*
X138468865Y-98618555D01*
X138513917Y-98579516D01*
X138606610Y-98532287D01*
X138627770Y-98516913D01*
X138772213Y-98411971D01*
X138772215Y-98411968D01*
X138772219Y-98411966D01*
X138916966Y-98267219D01*
X138916968Y-98267215D01*
X138916971Y-98267213D01*
X139006663Y-98143760D01*
X139037287Y-98101610D01*
X139130220Y-97919219D01*
X139193477Y-97724534D01*
X139225500Y-97522352D01*
X139225500Y-97317648D01*
X139223446Y-97304681D01*
X139193477Y-97115465D01*
X139130218Y-96920776D01*
X139096503Y-96854607D01*
X139037287Y-96738390D01*
X139029556Y-96727749D01*
X138916971Y-96572786D01*
X138772213Y-96428028D01*
X138606614Y-96307715D01*
X138600006Y-96304348D01*
X138513917Y-96260483D01*
X138463123Y-96212511D01*
X138446328Y-96144690D01*
X138468865Y-96078555D01*
X138513917Y-96039516D01*
X138606610Y-95992287D01*
X138627770Y-95976913D01*
X138772213Y-95871971D01*
X138772215Y-95871968D01*
X138772219Y-95871966D01*
X138916966Y-95727219D01*
X138916968Y-95727215D01*
X138916971Y-95727213D01*
X138969732Y-95654590D01*
X139037287Y-95561610D01*
X139130220Y-95379219D01*
X139193477Y-95184534D01*
X139225500Y-94982352D01*
X139225500Y-94777648D01*
X139193477Y-94575466D01*
X139130220Y-94380781D01*
X139130218Y-94380778D01*
X139130218Y-94380776D01*
X139096503Y-94314607D01*
X139037287Y-94198390D01*
X139029556Y-94187749D01*
X138916971Y-94032786D01*
X138772213Y-93888028D01*
X138606614Y-93767715D01*
X138600006Y-93764348D01*
X138513917Y-93720483D01*
X138463123Y-93672511D01*
X138446328Y-93604690D01*
X138468865Y-93538555D01*
X138513917Y-93499516D01*
X138606610Y-93452287D01*
X138627770Y-93436913D01*
X138772213Y-93331971D01*
X138772215Y-93331968D01*
X138772219Y-93331966D01*
X138916966Y-93187219D01*
X138916968Y-93187215D01*
X138916971Y-93187213D01*
X138969732Y-93114590D01*
X139037287Y-93021610D01*
X139130220Y-92839219D01*
X139193477Y-92644534D01*
X139225500Y-92442352D01*
X139225500Y-92237648D01*
X139193477Y-92035466D01*
X139130220Y-91840781D01*
X139130218Y-91840778D01*
X139130218Y-91840776D01*
X139096503Y-91774607D01*
X139037287Y-91658390D01*
X139029556Y-91647749D01*
X138916971Y-91492786D01*
X138772217Y-91348032D01*
X138695415Y-91292232D01*
X138652750Y-91236902D01*
X138646771Y-91167288D01*
X138679377Y-91105494D01*
X138737640Y-91071765D01*
X138758022Y-91066563D01*
X138758035Y-91066559D01*
X138814582Y-91043135D01*
X138054409Y-90282962D01*
X138117993Y-90265925D01*
X138232007Y-90200099D01*
X138325099Y-90107007D01*
X138390925Y-89992993D01*
X138407962Y-89929409D01*
X139168135Y-90689582D01*
X139168137Y-90689582D01*
X139191552Y-90633053D01*
X139209544Y-90582053D01*
X139229999Y-90439780D01*
X139230000Y-90439779D01*
X139230000Y-89160224D01*
X139230000Y-89160219D01*
X154399500Y-89160219D01*
X154399500Y-90439784D01*
X154402395Y-90493814D01*
X154402396Y-90493818D01*
X154437976Y-90633221D01*
X154437980Y-90633233D01*
X154468419Y-90706719D01*
X154468431Y-90706747D01*
X154491779Y-90755548D01*
X154491781Y-90755551D01*
X154578006Y-90870733D01*
X154578010Y-90870737D01*
X154578015Y-90870743D01*
X154634252Y-90926980D01*
X154634261Y-90926988D01*
X154634267Y-90926994D01*
X154674524Y-90963156D01*
X154674532Y-90963162D01*
X154798263Y-91036573D01*
X154798262Y-91036573D01*
X154805329Y-91039500D01*
X154871774Y-91067022D01*
X154887645Y-91072621D01*
X154900133Y-91077027D01*
X154956805Y-91117894D01*
X154982386Y-91182912D01*
X154968754Y-91251439D01*
X154931765Y-91294281D01*
X154857782Y-91348032D01*
X154713028Y-91492786D01*
X154592715Y-91658386D01*
X154499781Y-91840776D01*
X154436522Y-92035465D01*
X154404500Y-92237648D01*
X154404500Y-92442351D01*
X154436522Y-92644534D01*
X154499781Y-92839223D01*
X154592715Y-93021613D01*
X154713028Y-93187213D01*
X154857786Y-93331971D01*
X155012749Y-93444556D01*
X155023390Y-93452287D01*
X155114840Y-93498883D01*
X155116080Y-93499515D01*
X155166876Y-93547490D01*
X155183671Y-93615311D01*
X155161134Y-93681446D01*
X155116080Y-93720485D01*
X155023386Y-93767715D01*
X154857786Y-93888028D01*
X154713028Y-94032786D01*
X154592715Y-94198386D01*
X154499781Y-94380776D01*
X154436522Y-94575465D01*
X154404500Y-94777648D01*
X154404500Y-94982352D01*
X154408878Y-95009995D01*
X154436522Y-95184534D01*
X154499781Y-95379223D01*
X154592715Y-95561613D01*
X154713028Y-95727213D01*
X154857786Y-95871971D01*
X155012749Y-95984556D01*
X155023390Y-95992287D01*
X155114840Y-96038883D01*
X155116080Y-96039515D01*
X155166876Y-96087490D01*
X155183671Y-96155311D01*
X155161134Y-96221446D01*
X155116080Y-96260485D01*
X155023386Y-96307715D01*
X154857786Y-96428028D01*
X154713028Y-96572786D01*
X154592715Y-96738386D01*
X154499781Y-96920776D01*
X154436522Y-97115465D01*
X154404500Y-97317648D01*
X154404500Y-97522351D01*
X154436522Y-97724534D01*
X154499781Y-97919223D01*
X154592715Y-98101613D01*
X154713028Y-98267213D01*
X154857786Y-98411971D01*
X155012749Y-98524556D01*
X155023390Y-98532287D01*
X155090117Y-98566286D01*
X155116080Y-98579515D01*
X155166876Y-98627490D01*
X155183671Y-98695311D01*
X155161134Y-98761446D01*
X155116080Y-98800485D01*
X155023386Y-98847715D01*
X154857786Y-98968028D01*
X154713028Y-99112786D01*
X154592715Y-99278386D01*
X154499781Y-99460776D01*
X154436522Y-99655465D01*
X154404500Y-99857648D01*
X154404500Y-100062351D01*
X154436522Y-100264534D01*
X154499781Y-100459223D01*
X154592715Y-100641613D01*
X154713028Y-100807213D01*
X154857782Y-100951967D01*
X154857787Y-100951971D01*
X154934583Y-101007767D01*
X154977249Y-101063097D01*
X154983228Y-101132710D01*
X154950622Y-101194505D01*
X154892365Y-101228233D01*
X154871967Y-101233439D01*
X154871956Y-101233442D01*
X154815415Y-101256862D01*
X155575590Y-102017037D01*
X155512007Y-102034075D01*
X155397993Y-102099901D01*
X155304901Y-102192993D01*
X155239075Y-102307007D01*
X155222037Y-102370590D01*
X154461862Y-101610415D01*
X154438449Y-101666940D01*
X154420455Y-101717946D01*
X154400000Y-101860219D01*
X154400000Y-103139785D01*
X154402893Y-103193762D01*
X154402893Y-103193764D01*
X154438438Y-103333030D01*
X154438440Y-103333037D01*
X154461863Y-103389583D01*
X155222037Y-102629409D01*
X155239075Y-102692993D01*
X155304901Y-102807007D01*
X155397993Y-102900099D01*
X155512007Y-102965925D01*
X155575590Y-102982962D01*
X154815415Y-103743135D01*
X154815415Y-103743136D01*
X154871954Y-103766556D01*
X154871961Y-103766558D01*
X154900621Y-103776669D01*
X154957294Y-103817534D01*
X154982876Y-103882552D01*
X154969246Y-103951080D01*
X154932256Y-103993924D01*
X154857782Y-104048032D01*
X154713028Y-104192786D01*
X154592715Y-104358386D01*
X154499781Y-104540776D01*
X154436522Y-104735465D01*
X154404500Y-104937648D01*
X154404500Y-105142351D01*
X154436522Y-105344534D01*
X154499781Y-105539223D01*
X154592715Y-105721613D01*
X154713028Y-105887213D01*
X154857786Y-106031971D01*
X155012749Y-106144556D01*
X155023390Y-106152287D01*
X155114840Y-106198883D01*
X155116080Y-106199515D01*
X155166876Y-106247490D01*
X155183671Y-106315311D01*
X155161134Y-106381446D01*
X155116080Y-106420485D01*
X155023386Y-106467715D01*
X154857786Y-106588028D01*
X154713028Y-106732786D01*
X154592715Y-106898386D01*
X154499781Y-107080776D01*
X154436522Y-107275465D01*
X154404500Y-107477648D01*
X154404500Y-107682351D01*
X154436522Y-107884534D01*
X154499781Y-108079223D01*
X154592715Y-108261613D01*
X154713028Y-108427213D01*
X154857786Y-108571971D01*
X155012749Y-108684556D01*
X155023390Y-108692287D01*
X155114840Y-108738883D01*
X155116080Y-108739515D01*
X155166876Y-108787490D01*
X155183671Y-108855311D01*
X155161134Y-108921446D01*
X155116080Y-108960485D01*
X155023386Y-109007715D01*
X154857786Y-109128028D01*
X154713028Y-109272786D01*
X154592715Y-109438386D01*
X154499781Y-109620776D01*
X154436522Y-109815465D01*
X154404500Y-110017648D01*
X154404500Y-110222351D01*
X154436522Y-110424534D01*
X154499781Y-110619223D01*
X154592715Y-110801613D01*
X154713028Y-110967213D01*
X154857786Y-111111971D01*
X155012749Y-111224556D01*
X155023390Y-111232287D01*
X155114840Y-111278883D01*
X155116080Y-111279515D01*
X155166876Y-111327490D01*
X155183671Y-111395311D01*
X155161134Y-111461446D01*
X155116080Y-111500485D01*
X155023386Y-111547715D01*
X154857786Y-111668028D01*
X154713028Y-111812786D01*
X154592715Y-111978386D01*
X154499781Y-112160776D01*
X154436522Y-112355465D01*
X154404500Y-112557648D01*
X154404500Y-112762351D01*
X154436522Y-112964534D01*
X154499781Y-113159223D01*
X154592715Y-113341613D01*
X154713028Y-113507213D01*
X154857782Y-113651967D01*
X154857787Y-113651971D01*
X154934583Y-113707767D01*
X154977249Y-113763097D01*
X154983228Y-113832710D01*
X154950622Y-113894505D01*
X154892365Y-113928233D01*
X154871967Y-113933439D01*
X154871956Y-113933442D01*
X154815415Y-113956862D01*
X155575590Y-114717037D01*
X155512007Y-114734075D01*
X155397993Y-114799901D01*
X155304901Y-114892993D01*
X155239075Y-115007007D01*
X155222037Y-115070590D01*
X154461862Y-114310415D01*
X154438449Y-114366940D01*
X154420455Y-114417946D01*
X154400000Y-114560219D01*
X154400000Y-115839785D01*
X154402893Y-115893762D01*
X154402893Y-115893764D01*
X154438438Y-116033030D01*
X154438440Y-116033037D01*
X154461863Y-116089583D01*
X155222037Y-115329409D01*
X155239075Y-115392993D01*
X155304901Y-115507007D01*
X155397993Y-115600099D01*
X155512007Y-115665925D01*
X155575590Y-115682962D01*
X154815415Y-116443135D01*
X154815415Y-116443136D01*
X154871954Y-116466556D01*
X154871961Y-116466558D01*
X154900621Y-116476669D01*
X154957294Y-116517534D01*
X154982876Y-116582552D01*
X154969246Y-116651080D01*
X154932256Y-116693924D01*
X154857782Y-116748032D01*
X154713028Y-116892786D01*
X154592715Y-117058386D01*
X154499781Y-117240776D01*
X154436522Y-117435465D01*
X154404500Y-117637648D01*
X154404500Y-117842351D01*
X154436522Y-118044534D01*
X154499781Y-118239223D01*
X154592715Y-118421613D01*
X154713028Y-118587213D01*
X154857786Y-118731971D01*
X155012749Y-118844556D01*
X155023390Y-118852287D01*
X155114840Y-118898883D01*
X155116080Y-118899515D01*
X155166876Y-118947490D01*
X155183671Y-119015311D01*
X155161134Y-119081446D01*
X155116080Y-119120485D01*
X155023386Y-119167715D01*
X154857786Y-119288028D01*
X154713028Y-119432786D01*
X154592715Y-119598386D01*
X154499781Y-119780776D01*
X154436522Y-119975465D01*
X154404500Y-120177648D01*
X154404500Y-120382351D01*
X154436522Y-120584534D01*
X154499781Y-120779223D01*
X154592715Y-120961613D01*
X154713028Y-121127213D01*
X154857786Y-121271971D01*
X155012749Y-121384556D01*
X155023390Y-121392287D01*
X155139607Y-121451503D01*
X155205776Y-121485218D01*
X155205778Y-121485218D01*
X155205781Y-121485220D01*
X155310137Y-121519127D01*
X155400465Y-121548477D01*
X155501557Y-121564488D01*
X155602648Y-121580500D01*
X155602649Y-121580500D01*
X155807351Y-121580500D01*
X155807352Y-121580500D01*
X156009534Y-121548477D01*
X156204219Y-121485220D01*
X156386610Y-121392287D01*
X156479590Y-121324732D01*
X156552213Y-121271971D01*
X156552215Y-121271968D01*
X156552219Y-121271966D01*
X156696966Y-121127219D01*
X156696968Y-121127215D01*
X156696971Y-121127213D01*
X156749732Y-121054590D01*
X156817287Y-120961610D01*
X156910220Y-120779219D01*
X156973477Y-120584534D01*
X157005500Y-120382352D01*
X157005500Y-120177648D01*
X156973477Y-119975466D01*
X156910220Y-119780781D01*
X156910218Y-119780778D01*
X156910218Y-119780776D01*
X156876503Y-119714607D01*
X156817287Y-119598390D01*
X156809556Y-119587749D01*
X156696971Y-119432786D01*
X156552213Y-119288028D01*
X156386614Y-119167715D01*
X156380006Y-119164348D01*
X156293917Y-119120483D01*
X156243123Y-119072511D01*
X156226328Y-119004690D01*
X156248865Y-118938555D01*
X156293917Y-118899516D01*
X156386610Y-118852287D01*
X156407770Y-118836913D01*
X156552213Y-118731971D01*
X156552215Y-118731968D01*
X156552219Y-118731966D01*
X156696966Y-118587219D01*
X156696968Y-118587215D01*
X156696971Y-118587213D01*
X156749732Y-118514590D01*
X156817287Y-118421610D01*
X156910220Y-118239219D01*
X156973477Y-118044534D01*
X157005500Y-117842352D01*
X157005500Y-117637648D01*
X156973477Y-117435466D01*
X156910220Y-117240781D01*
X156910218Y-117240778D01*
X156910218Y-117240776D01*
X156876503Y-117174607D01*
X156817287Y-117058390D01*
X156809556Y-117047749D01*
X156696971Y-116892786D01*
X156552213Y-116748028D01*
X156386614Y-116627715D01*
X156378410Y-116623535D01*
X156300703Y-116583941D01*
X156249908Y-116535968D01*
X156233113Y-116468147D01*
X156255650Y-116402012D01*
X156298546Y-116364099D01*
X156364493Y-116328849D01*
X156364511Y-116328838D01*
X156433912Y-116282465D01*
X155834409Y-115682962D01*
X155897993Y-115665925D01*
X156012007Y-115600099D01*
X156105099Y-115507007D01*
X156170925Y-115392993D01*
X156187962Y-115329409D01*
X156787465Y-115928912D01*
X156833838Y-115859511D01*
X156833844Y-115859501D01*
X156880509Y-115772198D01*
X156940814Y-115626612D01*
X156969555Y-115531864D01*
X157000298Y-115377302D01*
X157000298Y-115377299D01*
X157010000Y-115278789D01*
X157010000Y-115121210D01*
X157000298Y-115022700D01*
X157000298Y-115022697D01*
X156969555Y-114868135D01*
X156940814Y-114773387D01*
X156880509Y-114627801D01*
X156833841Y-114540493D01*
X156787465Y-114471086D01*
X156787465Y-114471085D01*
X156187962Y-115070589D01*
X156170925Y-115007007D01*
X156105099Y-114892993D01*
X156012007Y-114799901D01*
X155897993Y-114734075D01*
X155834410Y-114717037D01*
X156433913Y-114117534D01*
X156433912Y-114117533D01*
X156364506Y-114071158D01*
X156298545Y-114035900D01*
X156248701Y-113986937D01*
X156233241Y-113918799D01*
X156257073Y-113853119D01*
X156300702Y-113816059D01*
X156386610Y-113772287D01*
X156477745Y-113706074D01*
X156552213Y-113651971D01*
X156552215Y-113651968D01*
X156552219Y-113651966D01*
X156696966Y-113507219D01*
X156696968Y-113507215D01*
X156696971Y-113507213D01*
X156749732Y-113434590D01*
X156817287Y-113341610D01*
X156910220Y-113159219D01*
X156973477Y-112964534D01*
X157005500Y-112762352D01*
X157005500Y-112557648D01*
X156973477Y-112355466D01*
X156910220Y-112160781D01*
X156910218Y-112160778D01*
X156910218Y-112160776D01*
X156876503Y-112094607D01*
X156817287Y-111978390D01*
X156809556Y-111967749D01*
X156696971Y-111812786D01*
X156552213Y-111668028D01*
X156386614Y-111547715D01*
X156380006Y-111544348D01*
X156293917Y-111500483D01*
X156243123Y-111452511D01*
X156226328Y-111384690D01*
X156248865Y-111318555D01*
X156293917Y-111279516D01*
X156386610Y-111232287D01*
X156407770Y-111216913D01*
X156552213Y-111111971D01*
X156552215Y-111111968D01*
X156552219Y-111111966D01*
X156696966Y-110967219D01*
X156696968Y-110967215D01*
X156696971Y-110967213D01*
X156749732Y-110894590D01*
X156817287Y-110801610D01*
X156910220Y-110619219D01*
X156973477Y-110424534D01*
X157005500Y-110222352D01*
X157005500Y-110017648D01*
X156973477Y-109815466D01*
X156910220Y-109620781D01*
X156910218Y-109620778D01*
X156910218Y-109620776D01*
X156876503Y-109554607D01*
X156817287Y-109438390D01*
X156809556Y-109427749D01*
X156696971Y-109272786D01*
X156552213Y-109128028D01*
X156386614Y-109007715D01*
X156380006Y-109004348D01*
X156293917Y-108960483D01*
X156243123Y-108912511D01*
X156226328Y-108844690D01*
X156248865Y-108778555D01*
X156293917Y-108739516D01*
X156386610Y-108692287D01*
X156407770Y-108676913D01*
X156552213Y-108571971D01*
X156552215Y-108571968D01*
X156552219Y-108571966D01*
X156696966Y-108427219D01*
X156696968Y-108427215D01*
X156696971Y-108427213D01*
X156749732Y-108354590D01*
X156817287Y-108261610D01*
X156910220Y-108079219D01*
X156973477Y-107884534D01*
X157005500Y-107682352D01*
X157005500Y-107477648D01*
X156973477Y-107275466D01*
X156910220Y-107080781D01*
X156910218Y-107080778D01*
X156910218Y-107080776D01*
X156876503Y-107014607D01*
X156817287Y-106898390D01*
X156809556Y-106887749D01*
X156696971Y-106732786D01*
X156552213Y-106588028D01*
X156386614Y-106467715D01*
X156380006Y-106464348D01*
X156293917Y-106420483D01*
X156243123Y-106372511D01*
X156226328Y-106304690D01*
X156248865Y-106238555D01*
X156293917Y-106199516D01*
X156386610Y-106152287D01*
X156407770Y-106136913D01*
X156552213Y-106031971D01*
X156552215Y-106031968D01*
X156552219Y-106031966D01*
X156696966Y-105887219D01*
X156696968Y-105887215D01*
X156696971Y-105887213D01*
X156749732Y-105814590D01*
X156817287Y-105721610D01*
X156910220Y-105539219D01*
X156973477Y-105344534D01*
X157005500Y-105142352D01*
X157005500Y-104937648D01*
X156973477Y-104735466D01*
X156910220Y-104540781D01*
X156910218Y-104540778D01*
X156910218Y-104540776D01*
X156876503Y-104474607D01*
X156817287Y-104358390D01*
X156809556Y-104347749D01*
X156696971Y-104192786D01*
X156552213Y-104048028D01*
X156386614Y-103927715D01*
X156378410Y-103923535D01*
X156300703Y-103883941D01*
X156249908Y-103835968D01*
X156233113Y-103768147D01*
X156255650Y-103702012D01*
X156298546Y-103664099D01*
X156364493Y-103628849D01*
X156364511Y-103628838D01*
X156433912Y-103582465D01*
X155834409Y-102982962D01*
X155897993Y-102965925D01*
X156012007Y-102900099D01*
X156105099Y-102807007D01*
X156170925Y-102692993D01*
X156187962Y-102629409D01*
X156787465Y-103228912D01*
X156833838Y-103159511D01*
X156833844Y-103159501D01*
X156880509Y-103072198D01*
X156940814Y-102926612D01*
X156969555Y-102831864D01*
X157000298Y-102677302D01*
X157000298Y-102677299D01*
X157010000Y-102578789D01*
X157010000Y-102421210D01*
X157000298Y-102322700D01*
X157000298Y-102322697D01*
X156969554Y-102168135D01*
X156950102Y-102104006D01*
X156940814Y-102073387D01*
X156880509Y-101927801D01*
X156833841Y-101840493D01*
X156787465Y-101771086D01*
X156787465Y-101771085D01*
X156187962Y-102370589D01*
X156170925Y-102307007D01*
X156105099Y-102192993D01*
X156012007Y-102099901D01*
X155897993Y-102034075D01*
X155834410Y-102017037D01*
X156433913Y-101417534D01*
X156433912Y-101417533D01*
X156364506Y-101371158D01*
X156298545Y-101335900D01*
X156248701Y-101286937D01*
X156233241Y-101218799D01*
X156257073Y-101153119D01*
X156300702Y-101116059D01*
X156386610Y-101072287D01*
X156477745Y-101006074D01*
X156552213Y-100951971D01*
X156552215Y-100951968D01*
X156552219Y-100951966D01*
X156696966Y-100807219D01*
X156817287Y-100641610D01*
X156910220Y-100459219D01*
X156973477Y-100264534D01*
X157005500Y-100062352D01*
X157005500Y-99857648D01*
X156973477Y-99655466D01*
X156960345Y-99615051D01*
X156919749Y-99490109D01*
X156910220Y-99460781D01*
X156910218Y-99460778D01*
X156910218Y-99460776D01*
X156876503Y-99394607D01*
X156817287Y-99278390D01*
X156809556Y-99267749D01*
X156696971Y-99112786D01*
X156552213Y-98968028D01*
X156386614Y-98847715D01*
X156380006Y-98844348D01*
X156293917Y-98800483D01*
X156243123Y-98752511D01*
X156226328Y-98684690D01*
X156248865Y-98618555D01*
X156293917Y-98579516D01*
X156386610Y-98532287D01*
X156407770Y-98516913D01*
X156552213Y-98411971D01*
X156552215Y-98411968D01*
X156552219Y-98411966D01*
X156696966Y-98267219D01*
X156696968Y-98267215D01*
X156696971Y-98267213D01*
X156786663Y-98143760D01*
X156817287Y-98101610D01*
X156910220Y-97919219D01*
X156973477Y-97724534D01*
X157005500Y-97522352D01*
X157005500Y-97317648D01*
X157003446Y-97304681D01*
X156973477Y-97115465D01*
X156910218Y-96920776D01*
X156876503Y-96854607D01*
X156817287Y-96738390D01*
X156809556Y-96727749D01*
X156696971Y-96572786D01*
X156552213Y-96428028D01*
X156386614Y-96307715D01*
X156380006Y-96304348D01*
X156293917Y-96260483D01*
X156243123Y-96212511D01*
X156226328Y-96144690D01*
X156248865Y-96078555D01*
X156293917Y-96039516D01*
X156386610Y-95992287D01*
X156407770Y-95976913D01*
X156552213Y-95871971D01*
X156552215Y-95871968D01*
X156552219Y-95871966D01*
X156696966Y-95727219D01*
X156696968Y-95727215D01*
X156696971Y-95727213D01*
X156749732Y-95654590D01*
X156817287Y-95561610D01*
X156910220Y-95379219D01*
X156973477Y-95184534D01*
X156999199Y-95022135D01*
X165899500Y-95022135D01*
X165899500Y-96817870D01*
X165899501Y-96817876D01*
X165905908Y-96877483D01*
X165956202Y-97012328D01*
X165956206Y-97012335D01*
X166042452Y-97127544D01*
X166042455Y-97127547D01*
X166157664Y-97213793D01*
X166157671Y-97213797D01*
X166289082Y-97262810D01*
X166345016Y-97304681D01*
X166369433Y-97370145D01*
X166354582Y-97438418D01*
X166333431Y-97466673D01*
X166219889Y-97580215D01*
X166094951Y-97752179D01*
X165998444Y-97941585D01*
X165932753Y-98143760D01*
X165913200Y-98267213D01*
X165899500Y-98353713D01*
X165899500Y-98566287D01*
X165908834Y-98625220D01*
X165932753Y-98776239D01*
X165998444Y-98978414D01*
X166094951Y-99167820D01*
X166219890Y-99339786D01*
X166370213Y-99490109D01*
X166542179Y-99615048D01*
X166542181Y-99615049D01*
X166542184Y-99615051D01*
X166551493Y-99619794D01*
X166602290Y-99667766D01*
X166619087Y-99735587D01*
X166596552Y-99801722D01*
X166551505Y-99840760D01*
X166542446Y-99845376D01*
X166542440Y-99845380D01*
X166488282Y-99884727D01*
X166488282Y-99884728D01*
X167120591Y-100517037D01*
X167057007Y-100534075D01*
X166942993Y-100599901D01*
X166849901Y-100692993D01*
X166784075Y-100807007D01*
X166767037Y-100870591D01*
X166134728Y-100238282D01*
X166134727Y-100238282D01*
X166095380Y-100292439D01*
X165998904Y-100481782D01*
X165933242Y-100683869D01*
X165933242Y-100683872D01*
X165900000Y-100893753D01*
X165900000Y-101106246D01*
X165933242Y-101316127D01*
X165933242Y-101316130D01*
X165998904Y-101518217D01*
X166095375Y-101707550D01*
X166134728Y-101761716D01*
X166767037Y-101129408D01*
X166784075Y-101192993D01*
X166849901Y-101307007D01*
X166942993Y-101400099D01*
X167057007Y-101465925D01*
X167120590Y-101482962D01*
X166488282Y-102115269D01*
X166488282Y-102115270D01*
X166542449Y-102154624D01*
X166731782Y-102251095D01*
X166933870Y-102316757D01*
X167143754Y-102350000D01*
X167356246Y-102350000D01*
X167566127Y-102316757D01*
X167566130Y-102316757D01*
X167768217Y-102251095D01*
X167957554Y-102154622D01*
X168011716Y-102115270D01*
X168011717Y-102115270D01*
X167379408Y-101482962D01*
X167442993Y-101465925D01*
X167557007Y-101400099D01*
X167650099Y-101307007D01*
X167715925Y-101192993D01*
X167732962Y-101129408D01*
X168365270Y-101761717D01*
X168365270Y-101761716D01*
X168404622Y-101707554D01*
X168501095Y-101518217D01*
X168566757Y-101316130D01*
X168566757Y-101316127D01*
X168600000Y-101106246D01*
X168600000Y-100893753D01*
X168566757Y-100683872D01*
X168566757Y-100683869D01*
X168501095Y-100481782D01*
X168404624Y-100292449D01*
X168365270Y-100238282D01*
X168365269Y-100238282D01*
X167732962Y-100870590D01*
X167715925Y-100807007D01*
X167650099Y-100692993D01*
X167557007Y-100599901D01*
X167442993Y-100534075D01*
X167379409Y-100517037D01*
X168011716Y-99884728D01*
X167957547Y-99845373D01*
X167957547Y-99845372D01*
X167948500Y-99840763D01*
X167897706Y-99792788D01*
X167880912Y-99724966D01*
X167903451Y-99658832D01*
X167948508Y-99619793D01*
X167957816Y-99615051D01*
X168037007Y-99557515D01*
X168129786Y-99490109D01*
X168129788Y-99490106D01*
X168129792Y-99490104D01*
X168280104Y-99339792D01*
X168280106Y-99339788D01*
X168280109Y-99339786D01*
X168405048Y-99167820D01*
X168405047Y-99167820D01*
X168405051Y-99167816D01*
X168501557Y-98978412D01*
X168567246Y-98776243D01*
X168600500Y-98566287D01*
X168600500Y-98353713D01*
X168567246Y-98143757D01*
X168501557Y-97941588D01*
X168405051Y-97752184D01*
X168405049Y-97752181D01*
X168405048Y-97752179D01*
X168280109Y-97580213D01*
X168166569Y-97466673D01*
X168133084Y-97405350D01*
X168138068Y-97335658D01*
X168179940Y-97279725D01*
X168210915Y-97262810D01*
X168342331Y-97213796D01*
X168457546Y-97127546D01*
X168543796Y-97012331D01*
X168594091Y-96877483D01*
X168600500Y-96817873D01*
X168600499Y-95022128D01*
X168594091Y-94962517D01*
X168543796Y-94827669D01*
X168543795Y-94827668D01*
X168543793Y-94827664D01*
X168457547Y-94712455D01*
X168457544Y-94712452D01*
X168342335Y-94626206D01*
X168342328Y-94626202D01*
X168207482Y-94575908D01*
X168207483Y-94575908D01*
X168147883Y-94569501D01*
X168147881Y-94569500D01*
X168147873Y-94569500D01*
X168147864Y-94569500D01*
X166352129Y-94569500D01*
X166352123Y-94569501D01*
X166292516Y-94575908D01*
X166157671Y-94626202D01*
X166157664Y-94626206D01*
X166042455Y-94712452D01*
X166042452Y-94712455D01*
X165956206Y-94827664D01*
X165956202Y-94827671D01*
X165905908Y-94962517D01*
X165899501Y-95022116D01*
X165899501Y-95022123D01*
X165899500Y-95022135D01*
X156999199Y-95022135D01*
X157005500Y-94982352D01*
X157005500Y-94777648D01*
X156973477Y-94575466D01*
X156910220Y-94380781D01*
X156910218Y-94380778D01*
X156910218Y-94380776D01*
X156876503Y-94314607D01*
X156817287Y-94198390D01*
X156809556Y-94187749D01*
X156696971Y-94032786D01*
X156552213Y-93888028D01*
X156386614Y-93767715D01*
X156380006Y-93764348D01*
X156293917Y-93720483D01*
X156243123Y-93672511D01*
X156226328Y-93604690D01*
X156248865Y-93538555D01*
X156293917Y-93499516D01*
X156386610Y-93452287D01*
X156407770Y-93436913D01*
X156552213Y-93331971D01*
X156552215Y-93331968D01*
X156552219Y-93331966D01*
X156696966Y-93187219D01*
X156696968Y-93187215D01*
X156696971Y-93187213D01*
X156749732Y-93114590D01*
X156817287Y-93021610D01*
X156910220Y-92839219D01*
X156973477Y-92644534D01*
X157005500Y-92442352D01*
X157005500Y-92237648D01*
X156973477Y-92035466D01*
X156910220Y-91840781D01*
X156910218Y-91840778D01*
X156910218Y-91840776D01*
X156876503Y-91774607D01*
X156817287Y-91658390D01*
X156809556Y-91647749D01*
X156696971Y-91492786D01*
X156552213Y-91348028D01*
X156386613Y-91227715D01*
X156386612Y-91227714D01*
X156386610Y-91227713D01*
X156333947Y-91200880D01*
X156301245Y-91184217D01*
X156250449Y-91136242D01*
X156233654Y-91068421D01*
X156256192Y-91002286D01*
X156299083Y-90964376D01*
X156364783Y-90929259D01*
X156495811Y-90841709D01*
X156572412Y-90778843D01*
X156683843Y-90667412D01*
X156746709Y-90590811D01*
X156834259Y-90459783D01*
X156880972Y-90372389D01*
X156941278Y-90226798D01*
X156970044Y-90131968D01*
X157000787Y-89977410D01*
X157010500Y-89878793D01*
X157010500Y-89721207D01*
X157000787Y-89622590D01*
X156970044Y-89468032D01*
X156941278Y-89373202D01*
X156880972Y-89227611D01*
X156834259Y-89140217D01*
X156834248Y-89140200D01*
X156746721Y-89009206D01*
X156746712Y-89009194D01*
X156746709Y-89009189D01*
X156683843Y-88932588D01*
X156572412Y-88821157D01*
X156495811Y-88758291D01*
X156495804Y-88758286D01*
X156495793Y-88758278D01*
X156364799Y-88670751D01*
X156364788Y-88670744D01*
X156364783Y-88670741D01*
X156342645Y-88658908D01*
X156299086Y-88635625D01*
X156249242Y-88586662D01*
X156233782Y-88518524D01*
X156257614Y-88452845D01*
X156301246Y-88415782D01*
X156386610Y-88372287D01*
X156477745Y-88306074D01*
X156552213Y-88251971D01*
X156552215Y-88251968D01*
X156552219Y-88251966D01*
X156696966Y-88107219D01*
X156696968Y-88107215D01*
X156696971Y-88107213D01*
X156749732Y-88034590D01*
X156817287Y-87941610D01*
X156910220Y-87759219D01*
X156973477Y-87564534D01*
X157005500Y-87362352D01*
X157005500Y-87157648D01*
X156973477Y-86955466D01*
X156910220Y-86760781D01*
X156910218Y-86760778D01*
X156910218Y-86760776D01*
X156876503Y-86694607D01*
X156817287Y-86578390D01*
X156809556Y-86567749D01*
X156696971Y-86412786D01*
X156552213Y-86268028D01*
X156386614Y-86147715D01*
X156380006Y-86144348D01*
X156293917Y-86100483D01*
X156243123Y-86052511D01*
X156226328Y-85984690D01*
X156248865Y-85918555D01*
X156293917Y-85879516D01*
X156386610Y-85832287D01*
X156407770Y-85816913D01*
X156552213Y-85711971D01*
X156552215Y-85711968D01*
X156552219Y-85711966D01*
X156696966Y-85567219D01*
X156696968Y-85567215D01*
X156696971Y-85567213D01*
X156749732Y-85494590D01*
X156817287Y-85401610D01*
X156910220Y-85219219D01*
X156973477Y-85024534D01*
X156983114Y-84963690D01*
X163167261Y-84963690D01*
X163167262Y-84963691D01*
X163173471Y-84968202D01*
X163327742Y-85046809D01*
X163492415Y-85100315D01*
X163663429Y-85127401D01*
X163836571Y-85127401D01*
X164007584Y-85100315D01*
X164172257Y-85046809D01*
X164326525Y-84968204D01*
X164332736Y-84963690D01*
X164332737Y-84963690D01*
X163750001Y-84380954D01*
X163750000Y-84380954D01*
X163167261Y-84963690D01*
X156983114Y-84963690D01*
X157005500Y-84822352D01*
X157005500Y-84617648D01*
X156973477Y-84415466D01*
X156962263Y-84380954D01*
X156910218Y-84220776D01*
X156855798Y-84113972D01*
X156817287Y-84038390D01*
X156809303Y-84027401D01*
X156795820Y-84008842D01*
X156746406Y-83940829D01*
X162650000Y-83940829D01*
X162650000Y-84113972D01*
X162677085Y-84284985D01*
X162730592Y-84449660D01*
X162809196Y-84603926D01*
X162813709Y-84610137D01*
X162813709Y-84610138D01*
X163396446Y-84027402D01*
X163396446Y-84027400D01*
X163356951Y-83987905D01*
X163450000Y-83987905D01*
X163450000Y-84066897D01*
X163470444Y-84143197D01*
X163509940Y-84211606D01*
X163565795Y-84267461D01*
X163634204Y-84306957D01*
X163710504Y-84327401D01*
X163789496Y-84327401D01*
X163865796Y-84306957D01*
X163934205Y-84267461D01*
X163990060Y-84211606D01*
X164029556Y-84143197D01*
X164050000Y-84066897D01*
X164050000Y-84027400D01*
X164103553Y-84027400D01*
X164103553Y-84027401D01*
X164686289Y-84610137D01*
X164690803Y-84603926D01*
X164769408Y-84449658D01*
X164822914Y-84284985D01*
X164850000Y-84113972D01*
X164850000Y-83940829D01*
X164822914Y-83769816D01*
X164769408Y-83605143D01*
X164690801Y-83450872D01*
X164686290Y-83444663D01*
X164686289Y-83444662D01*
X164103553Y-84027400D01*
X164050000Y-84027400D01*
X164050000Y-83987905D01*
X164029556Y-83911605D01*
X163990060Y-83843196D01*
X163934205Y-83787341D01*
X163865796Y-83747845D01*
X163789496Y-83727401D01*
X163710504Y-83727401D01*
X163634204Y-83747845D01*
X163565795Y-83787341D01*
X163509940Y-83843196D01*
X163470444Y-83911605D01*
X163450000Y-83987905D01*
X163356951Y-83987905D01*
X162813709Y-83444662D01*
X162813708Y-83444662D01*
X162809203Y-83450864D01*
X162809193Y-83450881D01*
X162730592Y-83605141D01*
X162677085Y-83769816D01*
X162650000Y-83940829D01*
X156746406Y-83940829D01*
X156696971Y-83872786D01*
X156552213Y-83728028D01*
X156386614Y-83607715D01*
X156380006Y-83604348D01*
X156293917Y-83560483D01*
X156243123Y-83512511D01*
X156226328Y-83444690D01*
X156248865Y-83378555D01*
X156293917Y-83339516D01*
X156386610Y-83292287D01*
X156407770Y-83276913D01*
X156552213Y-83171971D01*
X156552215Y-83171968D01*
X156552219Y-83171966D01*
X156696966Y-83027219D01*
X156696968Y-83027215D01*
X156696971Y-83027213D01*
X156749732Y-82954590D01*
X156817287Y-82861610D01*
X156910220Y-82679219D01*
X156973477Y-82484534D01*
X157005500Y-82282352D01*
X157005500Y-82077648D01*
X156973477Y-81875466D01*
X156910220Y-81680781D01*
X156910095Y-81680535D01*
X156910094Y-81680532D01*
X156910092Y-81680530D01*
X156883013Y-81627384D01*
X162649500Y-81627384D01*
X162649500Y-82427402D01*
X162649501Y-82427420D01*
X162660000Y-82530197D01*
X162660001Y-82530200D01*
X162709382Y-82679219D01*
X162715186Y-82696735D01*
X162807288Y-82846057D01*
X162931344Y-82970113D01*
X163080666Y-83062215D01*
X163139066Y-83081567D01*
X163187743Y-83111591D01*
X163750000Y-83673847D01*
X163750001Y-83673847D01*
X164312254Y-83111592D01*
X164360930Y-83081568D01*
X164419334Y-83062215D01*
X164568656Y-82970113D01*
X164692712Y-82846057D01*
X164784814Y-82696735D01*
X164839999Y-82530198D01*
X164850500Y-82427410D01*
X164850499Y-81627393D01*
X164839999Y-81524604D01*
X164784814Y-81358067D01*
X164692712Y-81208745D01*
X164568656Y-81084689D01*
X164419334Y-80992587D01*
X164252797Y-80937402D01*
X164252795Y-80937401D01*
X164150010Y-80926901D01*
X163349998Y-80926901D01*
X163349980Y-80926902D01*
X163247203Y-80937401D01*
X163247200Y-80937402D01*
X163080668Y-80992586D01*
X163080663Y-80992588D01*
X162931342Y-81084690D01*
X162807289Y-81208743D01*
X162715187Y-81358064D01*
X162715186Y-81358067D01*
X162660001Y-81524604D01*
X162660001Y-81524605D01*
X162660000Y-81524605D01*
X162649500Y-81627384D01*
X156883013Y-81627384D01*
X156830644Y-81524605D01*
X156817287Y-81498390D01*
X156817285Y-81498387D01*
X156817284Y-81498385D01*
X156696971Y-81332786D01*
X156552213Y-81188028D01*
X156386614Y-81067715D01*
X156380006Y-81064348D01*
X156293917Y-81020483D01*
X156243123Y-80972511D01*
X156226328Y-80904690D01*
X156248865Y-80838555D01*
X156293917Y-80799516D01*
X156386610Y-80752287D01*
X156407770Y-80736913D01*
X156552213Y-80631971D01*
X156552215Y-80631968D01*
X156552219Y-80631966D01*
X156696966Y-80487219D01*
X156696968Y-80487215D01*
X156696971Y-80487213D01*
X156749732Y-80414590D01*
X156817287Y-80321610D01*
X156910220Y-80139219D01*
X156973477Y-79944534D01*
X157005500Y-79742352D01*
X157005500Y-79537648D01*
X156973477Y-79335466D01*
X156910220Y-79140781D01*
X156910218Y-79140778D01*
X156910218Y-79140776D01*
X156876503Y-79074607D01*
X156817287Y-78958390D01*
X156809556Y-78947749D01*
X156696971Y-78792786D01*
X156552213Y-78648028D01*
X156386614Y-78527715D01*
X156378410Y-78523535D01*
X156300703Y-78483941D01*
X156249908Y-78435968D01*
X156233113Y-78368147D01*
X156255650Y-78302012D01*
X156298546Y-78264099D01*
X156364493Y-78228849D01*
X156364511Y-78228838D01*
X156433912Y-78182465D01*
X155834409Y-77582962D01*
X155897993Y-77565925D01*
X156012007Y-77500099D01*
X156105099Y-77407007D01*
X156170925Y-77292993D01*
X156187962Y-77229409D01*
X156787465Y-77828912D01*
X156833838Y-77759511D01*
X156833844Y-77759501D01*
X156880509Y-77672198D01*
X156940814Y-77526612D01*
X156969555Y-77431864D01*
X157000298Y-77277302D01*
X157000298Y-77277299D01*
X157010000Y-77178789D01*
X157010000Y-77021210D01*
X157000298Y-76922700D01*
X157000298Y-76922697D01*
X156969555Y-76768135D01*
X156940814Y-76673387D01*
X156880509Y-76527801D01*
X156833841Y-76440493D01*
X156787465Y-76371086D01*
X156787465Y-76371085D01*
X156187962Y-76970589D01*
X156170925Y-76907007D01*
X156105099Y-76792993D01*
X156012007Y-76699901D01*
X155897993Y-76634075D01*
X155834410Y-76617037D01*
X156433913Y-76017534D01*
X156433912Y-76017533D01*
X156364506Y-75971158D01*
X156298545Y-75935900D01*
X156248701Y-75886937D01*
X156233241Y-75818799D01*
X156257073Y-75753119D01*
X156300702Y-75716059D01*
X156386610Y-75672287D01*
X156477745Y-75606074D01*
X156552213Y-75551971D01*
X156552215Y-75551968D01*
X156552219Y-75551966D01*
X156696966Y-75407219D01*
X156696968Y-75407215D01*
X156696971Y-75407213D01*
X156794834Y-75272514D01*
X156817287Y-75241610D01*
X156910220Y-75059219D01*
X156973477Y-74864534D01*
X157005500Y-74662352D01*
X157005500Y-74457648D01*
X156998620Y-74414210D01*
X156973477Y-74255465D01*
X156944127Y-74165137D01*
X156910220Y-74060781D01*
X156910218Y-74060778D01*
X156910218Y-74060776D01*
X156876503Y-73994607D01*
X156817287Y-73878390D01*
X156809556Y-73867749D01*
X156696971Y-73712786D01*
X156552213Y-73568028D01*
X156386614Y-73447715D01*
X156380006Y-73444348D01*
X156293917Y-73400483D01*
X156243123Y-73352511D01*
X156226328Y-73284690D01*
X156248865Y-73218555D01*
X156293917Y-73179516D01*
X156386610Y-73132287D01*
X156492733Y-73055185D01*
X156552213Y-73011971D01*
X156552215Y-73011968D01*
X156552219Y-73011966D01*
X156696966Y-72867219D01*
X156696968Y-72867215D01*
X156696971Y-72867213D01*
X156784170Y-72747192D01*
X156817287Y-72701610D01*
X156910220Y-72519219D01*
X156973477Y-72324534D01*
X157005500Y-72122352D01*
X157005500Y-71917648D01*
X156973477Y-71715466D01*
X156910220Y-71520781D01*
X156910218Y-71520778D01*
X156910218Y-71520776D01*
X156870170Y-71442179D01*
X156817287Y-71338390D01*
X156809556Y-71327749D01*
X156696971Y-71172786D01*
X156552213Y-71028028D01*
X156386613Y-70907715D01*
X156386612Y-70907714D01*
X156386610Y-70907713D01*
X156301855Y-70864528D01*
X156204223Y-70814781D01*
X156009534Y-70751522D01*
X155834995Y-70723878D01*
X155807352Y-70719500D01*
X155602648Y-70719500D01*
X155578329Y-70723351D01*
X155400465Y-70751522D01*
X155205776Y-70814781D01*
X155023386Y-70907715D01*
X154857786Y-71028028D01*
X154713028Y-71172786D01*
X154592715Y-71338386D01*
X154499781Y-71520776D01*
X154436522Y-71715465D01*
X154404500Y-71917648D01*
X154404500Y-72122351D01*
X154436522Y-72324534D01*
X154499781Y-72519223D01*
X154563691Y-72644653D01*
X154579976Y-72676613D01*
X154592715Y-72701613D01*
X154713028Y-72867213D01*
X154857786Y-73011971D01*
X155012749Y-73124556D01*
X155023390Y-73132287D01*
X155108139Y-73175469D01*
X155116080Y-73179515D01*
X155166876Y-73227490D01*
X155183671Y-73295311D01*
X155161134Y-73361446D01*
X155116080Y-73400485D01*
X155023386Y-73447715D01*
X154857786Y-73568028D01*
X154713028Y-73712786D01*
X154592715Y-73878386D01*
X154499781Y-74060776D01*
X154436522Y-74255465D01*
X154404500Y-74457648D01*
X154404500Y-74662351D01*
X154436522Y-74864534D01*
X154499781Y-75059223D01*
X154592715Y-75241613D01*
X154713028Y-75407213D01*
X154857782Y-75551967D01*
X154857787Y-75551971D01*
X154934583Y-75607767D01*
X154977249Y-75663097D01*
X154983228Y-75732710D01*
X154950622Y-75794505D01*
X154892365Y-75828233D01*
X154871967Y-75833439D01*
X154871956Y-75833442D01*
X154815415Y-75856862D01*
X155575590Y-76617037D01*
X155512007Y-76634075D01*
X155397993Y-76699901D01*
X155304901Y-76792993D01*
X155239075Y-76907007D01*
X155222037Y-76970590D01*
X154461862Y-76210415D01*
X154438449Y-76266940D01*
X154420455Y-76317946D01*
X154400000Y-76460219D01*
X154400000Y-77739785D01*
X154402893Y-77793762D01*
X154402893Y-77793764D01*
X154438438Y-77933030D01*
X154438440Y-77933037D01*
X154461863Y-77989583D01*
X155222037Y-77229409D01*
X155239075Y-77292993D01*
X155304901Y-77407007D01*
X155397993Y-77500099D01*
X155512007Y-77565925D01*
X155575590Y-77582962D01*
X154815415Y-78343135D01*
X154815415Y-78343136D01*
X154871954Y-78366556D01*
X154871961Y-78366558D01*
X154900621Y-78376669D01*
X154957294Y-78417534D01*
X154982876Y-78482552D01*
X154969246Y-78551080D01*
X154932256Y-78593924D01*
X154857782Y-78648032D01*
X154713028Y-78792786D01*
X154592715Y-78958386D01*
X154499781Y-79140776D01*
X154436522Y-79335465D01*
X154404500Y-79537648D01*
X154404500Y-79742351D01*
X154436522Y-79944534D01*
X154499781Y-80139223D01*
X154592715Y-80321613D01*
X154713028Y-80487213D01*
X154857786Y-80631971D01*
X155012749Y-80744556D01*
X155023390Y-80752287D01*
X155114840Y-80798883D01*
X155116080Y-80799515D01*
X155166876Y-80847490D01*
X155183671Y-80915311D01*
X155161134Y-80981446D01*
X155116080Y-81020485D01*
X155023386Y-81067715D01*
X154857786Y-81188028D01*
X154713028Y-81332786D01*
X154592715Y-81498386D01*
X154499781Y-81680776D01*
X154436522Y-81875465D01*
X154404500Y-82077648D01*
X154404500Y-82282351D01*
X154436522Y-82484534D01*
X154499781Y-82679223D01*
X154563691Y-82804653D01*
X154584788Y-82846057D01*
X154592715Y-82861613D01*
X154713028Y-83027213D01*
X154857786Y-83171971D01*
X155012749Y-83284556D01*
X155023390Y-83292287D01*
X155114840Y-83338883D01*
X155116080Y-83339515D01*
X155166876Y-83387490D01*
X155183671Y-83455311D01*
X155161134Y-83521446D01*
X155116080Y-83560485D01*
X155023386Y-83607715D01*
X154857786Y-83728028D01*
X154713028Y-83872786D01*
X154592715Y-84038386D01*
X154499781Y-84220776D01*
X154436522Y-84415465D01*
X154404500Y-84617648D01*
X154404500Y-84822351D01*
X154436522Y-85024534D01*
X154499781Y-85219223D01*
X154592715Y-85401613D01*
X154713028Y-85567213D01*
X154857786Y-85711971D01*
X155012749Y-85824556D01*
X155023390Y-85832287D01*
X155114840Y-85878883D01*
X155116080Y-85879515D01*
X155166876Y-85927490D01*
X155183671Y-85995311D01*
X155161134Y-86061446D01*
X155116080Y-86100485D01*
X155023386Y-86147715D01*
X154857786Y-86268028D01*
X154713028Y-86412786D01*
X154592715Y-86578386D01*
X154499781Y-86760776D01*
X154436522Y-86955465D01*
X154404500Y-87157648D01*
X154404500Y-87362351D01*
X154436522Y-87564534D01*
X154499781Y-87759223D01*
X154592715Y-87941613D01*
X154713028Y-88107213D01*
X154857782Y-88251967D01*
X154857787Y-88251971D01*
X154934063Y-88307389D01*
X154976729Y-88362719D01*
X154982708Y-88432332D01*
X154950102Y-88494127D01*
X154891845Y-88527855D01*
X154871776Y-88532977D01*
X154871766Y-88532980D01*
X154798280Y-88563419D01*
X154798252Y-88563431D01*
X154749451Y-88586779D01*
X154749446Y-88586782D01*
X154634268Y-88673005D01*
X154634256Y-88673015D01*
X154578019Y-88729252D01*
X154541843Y-88769524D01*
X154541837Y-88769532D01*
X154468426Y-88893263D01*
X154437978Y-88966774D01*
X154437970Y-88966795D01*
X154419976Y-89017800D01*
X154399500Y-89160219D01*
X139230000Y-89160219D01*
X139229999Y-89160204D01*
X139227106Y-89106237D01*
X139227106Y-89106235D01*
X139191558Y-88966960D01*
X139168136Y-88910415D01*
X139168135Y-88910415D01*
X138407962Y-89670589D01*
X138390925Y-89607007D01*
X138325099Y-89492993D01*
X138232007Y-89399901D01*
X138117993Y-89334075D01*
X138054410Y-89317037D01*
X138814583Y-88556863D01*
X138814583Y-88556862D01*
X138758052Y-88533447D01*
X138758013Y-88533432D01*
X138729375Y-88523329D01*
X138672704Y-88482463D01*
X138647122Y-88417444D01*
X138660754Y-88348917D01*
X138697745Y-88306074D01*
X138772215Y-88251969D01*
X138772215Y-88251968D01*
X138772219Y-88251966D01*
X138916966Y-88107219D01*
X138916968Y-88107215D01*
X138916971Y-88107213D01*
X138969732Y-88034590D01*
X139037287Y-87941610D01*
X139130220Y-87759219D01*
X139193477Y-87564534D01*
X139225500Y-87362352D01*
X139225500Y-87157648D01*
X139193477Y-86955466D01*
X139130220Y-86760781D01*
X139130218Y-86760778D01*
X139130218Y-86760776D01*
X139096503Y-86694607D01*
X139037287Y-86578390D01*
X139029556Y-86567749D01*
X138916971Y-86412786D01*
X138772213Y-86268028D01*
X138606614Y-86147715D01*
X138600006Y-86144348D01*
X138513917Y-86100483D01*
X138463123Y-86052511D01*
X138446328Y-85984690D01*
X138468865Y-85918555D01*
X138513917Y-85879516D01*
X138606610Y-85832287D01*
X138627770Y-85816913D01*
X138772213Y-85711971D01*
X138772215Y-85711968D01*
X138772219Y-85711966D01*
X138916966Y-85567219D01*
X138916968Y-85567215D01*
X138916971Y-85567213D01*
X138969732Y-85494590D01*
X139037287Y-85401610D01*
X139130220Y-85219219D01*
X139193477Y-85024534D01*
X139225500Y-84822352D01*
X139225500Y-84617648D01*
X139193477Y-84415466D01*
X139182263Y-84380954D01*
X139130218Y-84220776D01*
X139075798Y-84113972D01*
X139037287Y-84038390D01*
X139000608Y-83987905D01*
X138916971Y-83872786D01*
X138772213Y-83728028D01*
X138606614Y-83607715D01*
X138600006Y-83604348D01*
X138513917Y-83560483D01*
X138463123Y-83512511D01*
X138446328Y-83444690D01*
X138468865Y-83378555D01*
X138513917Y-83339516D01*
X138606610Y-83292287D01*
X138627770Y-83276913D01*
X138772213Y-83171971D01*
X138772215Y-83171968D01*
X138772219Y-83171966D01*
X138916966Y-83027219D01*
X138916968Y-83027215D01*
X138916971Y-83027213D01*
X138969732Y-82954590D01*
X139037287Y-82861610D01*
X139130220Y-82679219D01*
X139193477Y-82484534D01*
X139225500Y-82282352D01*
X139225500Y-82077648D01*
X139193477Y-81875466D01*
X139130220Y-81680781D01*
X139130218Y-81680778D01*
X139130218Y-81680776D01*
X139096503Y-81614607D01*
X139037287Y-81498390D01*
X139029556Y-81487749D01*
X138916971Y-81332786D01*
X138772213Y-81188028D01*
X138606614Y-81067715D01*
X138600006Y-81064348D01*
X138513917Y-81020483D01*
X138463123Y-80972511D01*
X138446328Y-80904690D01*
X138468865Y-80838555D01*
X138513917Y-80799516D01*
X138606610Y-80752287D01*
X138627770Y-80736913D01*
X138772213Y-80631971D01*
X138772215Y-80631968D01*
X138772219Y-80631966D01*
X138916966Y-80487219D01*
X138916968Y-80487215D01*
X138916971Y-80487213D01*
X138969732Y-80414590D01*
X139037287Y-80321610D01*
X139130220Y-80139219D01*
X139193477Y-79944534D01*
X139225500Y-79742352D01*
X139225500Y-79537648D01*
X139193477Y-79335466D01*
X139130220Y-79140781D01*
X139130218Y-79140778D01*
X139130218Y-79140776D01*
X139096503Y-79074607D01*
X139037287Y-78958390D01*
X139029556Y-78947749D01*
X138916971Y-78792786D01*
X138772217Y-78648032D01*
X138695415Y-78592232D01*
X138652750Y-78536902D01*
X138646771Y-78467288D01*
X138679377Y-78405494D01*
X138737640Y-78371765D01*
X138758022Y-78366563D01*
X138758035Y-78366559D01*
X138814582Y-78343135D01*
X138054409Y-77582962D01*
X138117993Y-77565925D01*
X138232007Y-77500099D01*
X138325099Y-77407007D01*
X138390925Y-77292993D01*
X138407962Y-77229409D01*
X139168135Y-77989582D01*
X139168137Y-77989582D01*
X139191552Y-77933053D01*
X139209544Y-77882053D01*
X139229999Y-77739780D01*
X139230000Y-77739779D01*
X139230000Y-76460214D01*
X139227106Y-76406237D01*
X139227106Y-76406235D01*
X139191558Y-76266960D01*
X139168136Y-76210415D01*
X139168135Y-76210415D01*
X138407962Y-76970589D01*
X138390925Y-76907007D01*
X138325099Y-76792993D01*
X138232007Y-76699901D01*
X138117993Y-76634075D01*
X138054410Y-76617037D01*
X138814583Y-75856863D01*
X138814583Y-75856862D01*
X138758052Y-75833447D01*
X138758013Y-75833432D01*
X138729375Y-75823329D01*
X138672704Y-75782463D01*
X138647122Y-75717444D01*
X138660754Y-75648917D01*
X138697745Y-75606074D01*
X138772215Y-75551969D01*
X138772215Y-75551968D01*
X138772219Y-75551966D01*
X138916966Y-75407219D01*
X138916968Y-75407215D01*
X138916971Y-75407213D01*
X139014834Y-75272514D01*
X139037287Y-75241610D01*
X139115817Y-75087486D01*
X143214500Y-75087486D01*
X143214500Y-75272513D01*
X143243445Y-75455265D01*
X143300619Y-75631232D01*
X143300620Y-75631235D01*
X143352325Y-75732710D01*
X143384622Y-75796096D01*
X143493379Y-75945787D01*
X143624213Y-76076621D01*
X143773904Y-76185378D01*
X143823042Y-76210415D01*
X143938764Y-76269379D01*
X143938767Y-76269380D01*
X144026750Y-76297967D01*
X144114736Y-76326555D01*
X144297486Y-76355500D01*
X144297487Y-76355500D01*
X144482513Y-76355500D01*
X144482514Y-76355500D01*
X144665264Y-76326555D01*
X144841235Y-76269379D01*
X145006096Y-76185378D01*
X145155787Y-76076621D01*
X145286621Y-75945787D01*
X145395378Y-75796096D01*
X145479379Y-75631235D01*
X145536555Y-75455264D01*
X145565500Y-75272514D01*
X145565500Y-75087486D01*
X148064500Y-75087486D01*
X148064500Y-75272513D01*
X148093445Y-75455265D01*
X148150619Y-75631232D01*
X148150620Y-75631235D01*
X148202325Y-75732710D01*
X148234622Y-75796096D01*
X148343379Y-75945787D01*
X148474213Y-76076621D01*
X148623904Y-76185378D01*
X148673042Y-76210415D01*
X148788764Y-76269379D01*
X148788767Y-76269380D01*
X148876750Y-76297967D01*
X148964736Y-76326555D01*
X149147486Y-76355500D01*
X149147487Y-76355500D01*
X149332513Y-76355500D01*
X149332514Y-76355500D01*
X149405660Y-76343914D01*
X149472578Y-76333316D01*
X149478847Y-76332322D01*
X149515264Y-76326555D01*
X149691235Y-76269379D01*
X149856096Y-76185378D01*
X150005787Y-76076621D01*
X150136621Y-75945787D01*
X150245378Y-75796096D01*
X150329379Y-75631235D01*
X150386555Y-75455264D01*
X150415500Y-75272514D01*
X150415500Y-75087486D01*
X150386555Y-74904736D01*
X150329379Y-74728765D01*
X150329379Y-74728764D01*
X150245377Y-74563903D01*
X150136621Y-74414213D01*
X150005787Y-74283379D01*
X149856096Y-74174622D01*
X149691235Y-74090620D01*
X149691232Y-74090619D01*
X149515265Y-74033445D01*
X149423889Y-74018972D01*
X149332514Y-74004500D01*
X149147486Y-74004500D01*
X149086569Y-74014148D01*
X148964734Y-74033445D01*
X148788767Y-74090619D01*
X148788764Y-74090620D01*
X148623903Y-74174622D01*
X148538499Y-74236672D01*
X148474213Y-74283379D01*
X148474211Y-74283381D01*
X148474210Y-74283381D01*
X148343381Y-74414210D01*
X148343381Y-74414211D01*
X148343379Y-74414213D01*
X148311822Y-74457648D01*
X148234622Y-74563903D01*
X148150620Y-74728764D01*
X148150619Y-74728767D01*
X148093445Y-74904734D01*
X148064500Y-75087486D01*
X145565500Y-75087486D01*
X145536555Y-74904736D01*
X145479379Y-74728765D01*
X145479379Y-74728764D01*
X145395377Y-74563903D01*
X145286621Y-74414213D01*
X145155787Y-74283379D01*
X145006096Y-74174622D01*
X144841235Y-74090620D01*
X144841232Y-74090619D01*
X144665265Y-74033445D01*
X144573889Y-74018972D01*
X144482514Y-74004500D01*
X144297486Y-74004500D01*
X144236569Y-74014148D01*
X144114734Y-74033445D01*
X143938767Y-74090619D01*
X143938764Y-74090620D01*
X143773903Y-74174622D01*
X143688499Y-74236672D01*
X143624213Y-74283379D01*
X143624211Y-74283381D01*
X143624210Y-74283381D01*
X143493381Y-74414210D01*
X143493381Y-74414211D01*
X143493379Y-74414213D01*
X143461822Y-74457648D01*
X143384622Y-74563903D01*
X143300620Y-74728764D01*
X143300619Y-74728767D01*
X143243445Y-74904734D01*
X143214500Y-75087486D01*
X139115817Y-75087486D01*
X139130220Y-75059219D01*
X139180415Y-74904736D01*
X139193476Y-74864538D01*
X139193476Y-74864537D01*
X139193477Y-74864534D01*
X139225500Y-74662352D01*
X139225500Y-74457648D01*
X139218620Y-74414210D01*
X139193477Y-74255465D01*
X139164127Y-74165137D01*
X139130220Y-74060781D01*
X139130218Y-74060778D01*
X139130218Y-74060776D01*
X139096503Y-73994607D01*
X139037287Y-73878390D01*
X139029556Y-73867749D01*
X138916971Y-73712786D01*
X138772217Y-73568032D01*
X138772212Y-73568028D01*
X138691440Y-73509344D01*
X138648774Y-73454015D01*
X138642795Y-73384401D01*
X138675400Y-73322606D01*
X138727433Y-73290641D01*
X138814606Y-73263478D01*
X138960185Y-73175472D01*
X139080472Y-73055185D01*
X139168478Y-72909606D01*
X139219086Y-72747196D01*
X139225500Y-72676616D01*
X139225500Y-72043713D01*
X142739500Y-72043713D01*
X142739500Y-72256287D01*
X142772754Y-72466243D01*
X142789968Y-72519223D01*
X142838444Y-72668414D01*
X142934951Y-72857820D01*
X143059890Y-73029786D01*
X143210213Y-73180109D01*
X143382179Y-73305048D01*
X143382181Y-73305049D01*
X143382184Y-73305051D01*
X143571588Y-73401557D01*
X143773757Y-73467246D01*
X143983713Y-73500500D01*
X143983714Y-73500500D01*
X144196286Y-73500500D01*
X144196287Y-73500500D01*
X144406243Y-73467246D01*
X144608412Y-73401557D01*
X144797816Y-73305051D01*
X144855038Y-73263477D01*
X144969786Y-73180109D01*
X144969788Y-73180106D01*
X144969792Y-73180104D01*
X145120104Y-73029792D01*
X145120106Y-73029788D01*
X145120109Y-73029786D01*
X145245048Y-72857820D01*
X145245047Y-72857820D01*
X145245051Y-72857816D01*
X145341557Y-72668412D01*
X145407246Y-72466243D01*
X145440500Y-72256287D01*
X145440500Y-72043713D01*
X148189500Y-72043713D01*
X148189500Y-72256287D01*
X148222754Y-72466243D01*
X148239968Y-72519223D01*
X148288444Y-72668414D01*
X148384951Y-72857820D01*
X148509890Y-73029786D01*
X148660213Y-73180109D01*
X148832179Y-73305048D01*
X148832181Y-73305049D01*
X148832184Y-73305051D01*
X149021588Y-73401557D01*
X149223757Y-73467246D01*
X149433713Y-73500500D01*
X149433714Y-73500500D01*
X149646286Y-73500500D01*
X149646287Y-73500500D01*
X149856243Y-73467246D01*
X150058412Y-73401557D01*
X150247816Y-73305051D01*
X150305038Y-73263477D01*
X150419786Y-73180109D01*
X150419788Y-73180106D01*
X150419792Y-73180104D01*
X150570104Y-73029792D01*
X150570106Y-73029788D01*
X150570109Y-73029786D01*
X150695048Y-72857820D01*
X150695047Y-72857820D01*
X150695051Y-72857816D01*
X150791557Y-72668412D01*
X150857246Y-72466243D01*
X150890500Y-72256287D01*
X150890500Y-72043713D01*
X150857246Y-71833757D01*
X150791557Y-71631588D01*
X150695051Y-71442184D01*
X150695049Y-71442181D01*
X150695048Y-71442179D01*
X150570109Y-71270213D01*
X150419786Y-71119890D01*
X150247820Y-70994951D01*
X150058414Y-70898444D01*
X150058413Y-70898443D01*
X150058412Y-70898443D01*
X149856243Y-70832754D01*
X149856241Y-70832753D01*
X149856240Y-70832753D01*
X149694957Y-70807208D01*
X149646287Y-70799500D01*
X149433713Y-70799500D01*
X149385042Y-70807208D01*
X149223760Y-70832753D01*
X149021585Y-70898444D01*
X148832179Y-70994951D01*
X148660213Y-71119890D01*
X148509890Y-71270213D01*
X148384951Y-71442179D01*
X148288444Y-71631585D01*
X148222753Y-71833760D01*
X148209467Y-71917648D01*
X148189500Y-72043713D01*
X145440500Y-72043713D01*
X145407246Y-71833757D01*
X145341557Y-71631588D01*
X145245051Y-71442184D01*
X145245049Y-71442181D01*
X145245048Y-71442179D01*
X145120109Y-71270213D01*
X144969786Y-71119890D01*
X144797820Y-70994951D01*
X144608414Y-70898444D01*
X144608413Y-70898443D01*
X144608412Y-70898443D01*
X144406243Y-70832754D01*
X144406241Y-70832753D01*
X144406240Y-70832753D01*
X144244957Y-70807208D01*
X144196287Y-70799500D01*
X143983713Y-70799500D01*
X143935042Y-70807208D01*
X143773760Y-70832753D01*
X143571585Y-70898444D01*
X143382179Y-70994951D01*
X143210213Y-71119890D01*
X143059890Y-71270213D01*
X142934951Y-71442179D01*
X142838444Y-71631585D01*
X142772753Y-71833760D01*
X142759467Y-71917648D01*
X142739500Y-72043713D01*
X139225500Y-72043713D01*
X139225500Y-71363384D01*
X139219086Y-71292804D01*
X139168478Y-71130394D01*
X139080472Y-70984815D01*
X139080470Y-70984813D01*
X139080469Y-70984811D01*
X138960188Y-70864530D01*
X138907624Y-70832754D01*
X138814606Y-70776522D01*
X138652196Y-70725914D01*
X138652194Y-70725913D01*
X138652192Y-70725913D01*
X138602778Y-70721423D01*
X138581616Y-70719500D01*
X137268384Y-70719500D01*
X137249145Y-70721248D01*
X137197807Y-70725913D01*
X137035393Y-70776522D01*
X136889811Y-70864530D01*
X136769530Y-70984811D01*
X136681522Y-71130393D01*
X136630913Y-71292807D01*
X136624500Y-71363386D01*
X136624500Y-72676613D01*
X136630913Y-72747192D01*
X136681522Y-72909606D01*
X136769530Y-73055188D01*
X136889811Y-73175469D01*
X136889813Y-73175470D01*
X136889815Y-73175472D01*
X137035394Y-73263478D01*
X137122566Y-73290641D01*
X137180712Y-73329378D01*
X137208686Y-73393403D01*
X137197605Y-73462388D01*
X137158560Y-73509344D01*
X137077782Y-73568032D01*
X136933028Y-73712786D01*
X136812715Y-73878386D01*
X136719781Y-74060776D01*
X136656522Y-74255465D01*
X136624500Y-74457648D01*
X136624500Y-74662351D01*
X136656522Y-74864534D01*
X136719781Y-75059223D01*
X136812715Y-75241613D01*
X136933028Y-75407213D01*
X137077786Y-75551971D01*
X137243388Y-75672286D01*
X137243390Y-75672287D01*
X137329294Y-75716057D01*
X137380090Y-75764031D01*
X137396886Y-75831852D01*
X137374349Y-75897987D01*
X137331455Y-75935899D01*
X137265494Y-75971157D01*
X137265489Y-75971160D01*
X137196086Y-76017532D01*
X137196085Y-76017533D01*
X137795590Y-76617037D01*
X137732007Y-76634075D01*
X137617993Y-76699901D01*
X137524901Y-76792993D01*
X137459075Y-76907007D01*
X137442037Y-76970589D01*
X136842533Y-76371085D01*
X136842532Y-76371086D01*
X136796161Y-76440488D01*
X136749490Y-76527801D01*
X136689185Y-76673387D01*
X136660444Y-76768135D01*
X136629701Y-76922697D01*
X136629701Y-76922700D01*
X136620000Y-77021210D01*
X131500500Y-77021210D01*
X131500500Y-69524500D01*
X131520185Y-69457461D01*
X131572989Y-69411706D01*
X131624500Y-69400500D01*
X180375500Y-69400500D01*
X180442539Y-69420185D01*
G37*
%TD.AperFunction*%
%TD*%
M02*
